<svg width="348" height="400" viewBox="0 0 348 400" fill="none" xmlns="http://www.w3.org/2000/svg">
<path d="M202.77 22.8666C202.77 17.4913 198.966 15.2894 194.312 18.0094L119.65 61.1171C114.963 63.7723 111.191 70.4024 111.191 75.7454V296.084C111.191 301.46 114.995 303.653 119.658 300.942L194.287 257.866C198.941 255.179 202.746 248.581 202.746 243.197L202.77 22.8666Z" fill="#D4DBDF"/>
<path d="M111.616 295.896V75.2282C111.616 69.8448 115.427 63.2373 120.088 60.5456L194.844 17.3735C197.09 16.0763 199.141 15.9223 200.665 16.7168L190.628 10.9281C189.128 10.2309 187.142 10.4173 184.953 11.674L110.189 54.8461C105.528 57.5378 101.717 64.1453 101.717 69.5286V290.197C101.717 292.921 102.698 294.842 104.279 295.71L113.643 301.053C112.378 300.064 111.616 298.304 111.616 295.896Z" fill="#95C4DF"/>
<path d="M202.77 22.3164V235.495L111.191 288.421V75.2344C111.194 74.7796 111.221 74.3253 111.272 73.8733L202.681 21.0526C202.74 21.4713 202.77 21.8936 202.77 22.3164Z" fill="url(#paint0_linear)"/>
<path d="M105.928 285.568V71.5789L111.191 74.4566C111.128 74.9312 111.094 75.409 111.089 75.8873V288.421L105.928 285.568Z" fill="url(#paint1_linear)"/>
<path d="M112.244 73.6842V287.895L111.191 288.421V75.5207C111.195 75.0666 111.226 74.6129 111.284 74.1615L112.244 73.6842Z" fill="url(#paint2_linear)"/>
<path d="M105.928 285.568V71.5789L111.191 74.4566C111.128 74.9312 111.094 75.409 111.089 75.8873V288.421L105.928 285.568Z" fill="url(#paint3_linear)"/>
<path d="M112.244 73.6842V287.895L111.191 288.421V75.5207C111.195 75.0666 111.226 74.6129 111.284 74.1615L112.244 73.6842Z" fill="url(#paint4_linear)"/>
<g style="mix-blend-mode:multiply" opacity="0.3">
<path d="M202.77 183.946L129.094 226.316L129.086 84.4755L202.77 42.1053V183.946Z" fill="#0A208F"/>
</g>
<path d="M337.378 87.7136L284.988 57.5707C282.034 55.8653 279.612 57.257 279.612 60.6679V86.1529C279.826 89.9239 281.821 93.3707 284.988 95.4443L294.401 100.85V114.671L306.073 107.575L337.386 125.587C340.348 127.293 342.77 125.901 342.77 122.49V97.005C342.556 93.2299 340.555 89.7809 337.378 87.7136Z" fill="url(#paint5_linear)"/>
<path d="M343.222 122.859V97.2761C343.009 93.488 341 90.0259 337.808 87.9488L285.127 57.6897C284.132 57.0053 282.882 56.798 281.718 57.1245L285.127 55.0571C286.101 54.5403 287.424 54.6291 288.877 55.469L341.566 85.7281C344.758 87.8052 346.768 91.2672 346.981 95.0553V120.639C346.981 122.359 346.364 123.57 345.357 124.127L341.68 126.316C342.63 125.742 343.222 124.547 343.222 122.859Z" fill="url(#paint6_linear)"/>
<path d="M74.349 41.7059C74.1535 45.1618 72.3345 48.3197 69.447 50.2163L51.8826 60.3679C49.1841 61.9691 46.9806 60.6561 46.9806 57.5338V37.2305C47.1723 33.7714 48.9919 30.6094 51.8826 28.7121L69.447 18.5605C72.1375 16.9993 74.349 18.2803 74.349 21.3946V41.7059Z" fill="url(#paint7_linear)"/>
<path d="M46.2066 57.8747V37.3677C46.4017 33.8738 48.2532 30.6801 51.1947 28.7638L69.0674 18.5103C69.9943 17.8705 71.1635 17.686 72.2438 18.0089L69.238 16.1733C68.3281 15.5992 67.0445 15.6477 65.6309 16.4644L47.7582 26.7341C44.8197 28.6532 42.9691 31.8453 42.7701 35.338V55.845C42.7701 57.4623 43.3632 58.5863 44.3056 59.0796L47.612 61.0526C46.613 60.3144 46.0789 59.1066 46.2066 57.8747Z" fill="url(#paint8_linear)"/>
<g style="mix-blend-mode:multiply" opacity="0.3">
<path d="M213.296 227.195C213.083 230.992 211.048 234.462 207.816 236.54L188.242 247.692C185.233 249.403 182.77 247.997 182.77 244.574V222.278C182.984 218.484 185.015 215.016 188.242 212.934L207.816 201.782C210.833 200.07 213.296 201.477 213.296 204.899V227.195Z" fill="#0A208F"/>
</g>
<path d="M225.928 234.576C225.712 238.368 223.682 241.835 220.456 243.916L200.882 255.055C197.873 256.774 195.402 255.369 195.402 251.947V229.661C195.595 225.868 197.608 222.392 200.825 220.297L220.398 209.15C223.408 207.439 225.871 208.845 225.871 212.266L225.928 234.576Z" fill="url(#paint9_linear)"/>
<path d="M195.909 252.322V229.894C196.103 226.072 198.084 222.572 201.242 220.47L220.405 209.252C221.404 208.555 222.661 208.356 223.823 208.71L220.645 206.73C219.671 206.108 218.289 206.164 216.772 207.053L197.609 218.263C194.447 220.356 192.455 223.845 192.244 227.663V250.091C192.244 251.861 192.875 253.09 193.897 253.64L197.442 255.789C196.492 255.224 195.909 254.003 195.909 252.322Z" fill="url(#paint10_linear)"/>
<g style="mix-blend-mode:multiply" opacity="0.3">
<path d="M141.717 263.393C141.561 266.168 140.09 268.705 137.755 270.228L123.575 278.414C121.396 279.667 119.612 278.635 119.612 276.13V259.758C119.769 256.985 121.24 254.451 123.575 252.931L137.755 244.745C139.934 243.493 141.717 244.516 141.717 247.021V263.393Z" fill="#0A208F"/>
</g>
<path d="M151.191 267.588C151.04 270.367 149.568 272.908 147.229 274.429L133.048 282.623C130.87 283.876 129.086 282.852 129.086 280.345V263.991C129.243 261.213 130.713 258.674 133.048 257.15L147.229 248.956C149.407 247.703 151.191 248.727 151.191 251.242V267.588Z" fill="url(#paint11_linear)"/>
<path d="M128.644 280.659V264.444C128.799 261.684 130.253 259.162 132.562 257.647L146.582 249.507C147.315 249.005 148.235 248.862 149.086 249.116L146.721 247.659C145.806 247.199 144.711 247.29 143.884 247.895L129.871 256.035C127.561 257.546 126.104 260.065 125.946 262.824V279.039C125.829 280.053 126.295 281.046 127.149 281.603L129.741 283.158C128.964 282.575 128.547 281.627 128.644 280.659Z" fill="url(#paint12_linear)"/>
<path d="M75.8736 80.792L19.1158 113.703C15.6944 115.966 13.5374 119.716 13.2964 123.821V151.624C13.2964 155.339 15.918 156.863 19.1239 155.005L29.3181 149.099V164.211L41.9634 141.8L75.8818 122.151C79.316 119.887 81.4803 116.126 81.7174 112.009V84.1727C81.7093 80.458 79.0796 78.9346 75.8736 80.792Z" fill="url(#paint13_linear)"/>
<path d="M13.1344 152.079V124.612C13.3748 120.557 15.5268 116.852 18.9401 114.617L75.5635 82.1039C77.1182 81.2187 78.5271 81.1141 79.6121 81.6613L75.7255 79.3435C74.6729 78.7319 73.2073 78.8043 71.604 79.7298L14.9401 112.203C11.4958 114.426 9.32211 118.147 9.08582 122.222V149.697C9.08582 151.605 9.79837 152.916 10.9239 153.496L14.7538 155.789C13.7579 155.17 13.1344 153.89 13.1344 152.079Z" fill="url(#paint14_linear)"/>
<path d="M29.0859 149.474L24.8754 151.768V161.989L29.0859 164.211V149.474Z" fill="url(#paint15_linear)"/>
<path d="M264.875 63.0585C264.726 65.8247 263.282 68.3533 260.988 69.8671L244.552 79.471C242.418 80.7134 240.665 79.6917 240.665 77.1988V58.0073C240.817 55.2376 242.259 52.7051 244.552 51.1824L260.988 41.5867C263.13 40.3361 264.875 41.3578 264.875 43.8589V63.0585Z" fill="#FF79B5"/>
<path d="M240.647 76.4015V57.2418C240.8 54.4767 242.253 51.9485 244.564 50.4283L261.127 40.8485C261.912 40.2835 262.933 40.1691 263.823 40.5465L259.621 38.0985C258.732 37.7399 257.722 37.8599 256.942 38.4168L240.386 48.0374C238.077 49.5515 236.624 52.0742 236.469 54.8347V73.9943C236.37 74.9613 236.78 75.9104 237.552 76.4994L241.778 78.9474C240.97 78.3662 240.537 77.3928 240.647 76.4015Z" fill="#FF528E"/>
<path d="M256.995 53.1039C255.543 53.9779 254.432 55.2689 253.827 56.7841C253.19 55.9505 252.009 55.8011 250.659 56.5324C248.491 57.8595 247.125 60.0755 246.981 62.5009C246.981 66.8573 253.827 67.3684 253.827 67.3684C253.827 67.3684 260.665 59.4498 260.665 55.0934C260.665 52.8916 259.022 52.003 256.995 53.1039Z" fill="white"/>
<path d="M279.612 27.4473C279.749 29.8427 281.006 32.0309 283.001 33.344L297.284 41.646C299.146 42.7239 300.665 41.839 300.665 39.6751V23.0792C300.534 20.6841 299.279 18.4947 297.284 17.1825L283.001 8.88053C281.139 7.80256 279.612 8.68746 279.612 10.8434V27.4473Z" fill="#77BFFF"/>
<path d="M301.165 39.9001V23.1746C301.031 20.7609 299.744 18.5543 297.699 17.2319L283.057 8.86509C282.362 8.36907 281.455 8.26768 280.665 8.59755L284.385 6.49774C285.169 6.17934 286.064 6.28352 286.753 6.77339L301.395 15.1807C303.439 16.4996 304.727 18.7037 304.86 21.1153V37.8084C304.954 38.6449 304.604 39.4697 303.935 39.9892L300.198 42.1053C300.891 41.5902 301.258 40.7524 301.165 39.9001Z" fill="#438BE3"/>
<path d="M295.878 28.9043L295.277 28.5576C295.617 28.7511 295.885 28.5576 295.885 28.2029V27.4854C295.864 27.0488 295.638 26.6495 295.277 26.4132L293.5 25.3652L292.37 24.7203C292.762 23.8842 292.944 22.9616 292.899 22.0358C292.82 20.4799 291.525 18.8111 291.082 18.9562C290.64 19.1013 290.861 20.6169 290.293 21.7214C289.902 22.4222 289.293 22.9697 288.562 23.2773L288.033 22.9628V28.7511L289.092 31.3389L294.724 34.6603C295.064 34.8538 295.333 34.6603 295.333 34.3056V33.5881C295.311 33.1515 295.085 32.7522 294.724 32.5159L295.443 32.9351C295.783 33.1286 296.051 32.9351 296.051 32.5804V31.8629C296.03 31.4263 295.804 31.027 295.443 30.7907L295.854 31.0326C296.186 31.226 296.454 31.0326 296.454 30.6698V29.9523C296.428 29.5317 296.216 29.146 295.878 28.9043Z" fill="white"/>
<path d="M283.831 26.0861C283.855 26.5357 284.086 26.9465 284.451 27.1921L286.368 28.3313C286.707 28.5392 286.981 28.3729 286.981 27.9655V21.2381C286.957 20.7927 286.73 20.3853 286.368 20.1404L284.443 19.0262C284.105 18.8266 283.823 19.0262 283.823 19.4004L283.831 26.0861Z" fill="white"/>
<path d="M222.77 185.713L141.717 232.632V91.1214L222.77 44.2105V185.713Z" fill="#EEF5F9"/>
<path d="M215.402 113.162L149.086 151.579V97.3643L215.402 58.9474V113.162Z" fill="url(#paint16_linear)"/>
<path d="M202.819 90.5263L187.506 112.506L170.84 97.2084L149.086 127.747V151.579L215.402 113.355V95.0242L202.819 90.5263Z" fill="url(#paint17_linear)"/>
<path d="M197.507 84.4788C197.507 89.4577 194.212 95.4158 190.142 97.8887C186.073 100.362 182.77 98.3534 182.77 93.4159C182.77 88.4785 186.065 82.4789 190.134 80.006C194.204 77.5332 197.507 79.5413 197.507 84.4788Z" fill="url(#paint18_linear)"/>
<path d="M216.422 124.838C216.363 125.9 215.801 126.871 214.906 127.455L154.821 161.899C154.01 162.382 153.296 161.987 153.296 161.029V160.417C153.359 159.355 153.925 158.384 154.821 157.801L214.938 123.364C215.749 122.881 216.454 123.276 216.454 124.234L216.422 124.838Z" fill="#2580D3"/>
<path d="M216.454 144.824C216.432 145.211 216.231 145.564 215.911 145.776L153.848 182.037C153.548 182.21 153.296 182.037 153.296 181.717V181.495C153.319 181.107 153.524 180.753 153.848 180.543L215.911 144.282C216.211 144.102 216.454 144.282 216.454 144.602V144.824Z" fill="#A9D0E5"/>
<path d="M216.454 149.031C216.435 149.42 216.233 149.777 215.911 149.991L153.848 186.248C153.548 186.42 153.296 186.248 153.296 185.928V185.706C153.32 185.316 153.525 184.96 153.848 184.746L215.911 148.489C216.211 148.317 216.454 148.489 216.454 148.809V149.031Z" fill="#A9D0E5"/>
<path d="M216.454 154.294C216.434 154.683 216.232 155.039 215.911 155.254L153.848 191.511C153.548 191.683 153.296 191.511 153.296 191.191V190.969C153.319 190.578 153.524 190.222 153.848 190.009L215.911 153.752C216.211 153.58 216.454 153.752 216.454 154.072V154.294Z" fill="#A9D0E5"/>
<path d="M216.454 159.561C216.435 159.948 216.233 160.302 215.911 160.513L153.848 196.77C153.548 196.951 153.296 196.77 153.296 196.458V196.229C153.322 195.841 153.526 195.488 153.848 195.276L215.911 159.019C216.211 158.838 216.454 159.019 216.454 159.339V159.561Z" fill="#A9D0E5"/>
<path d="M188.033 180.608C188.012 180.996 187.809 181.351 187.485 181.565L153.852 200.985C153.55 201.157 153.296 200.985 153.296 200.666V200.445C153.32 200.056 153.527 199.701 153.852 199.488L187.485 180.068C187.788 179.896 188.033 180.068 188.033 180.387V180.608Z" fill="#A9D0E5"/>
<path d="M193.296 146.936C193.236 147.99 192.668 148.954 191.764 149.535L154.837 170.326C154.017 170.798 153.296 170.406 153.296 169.455V168.855C153.36 167.8 153.931 166.836 154.837 166.256L191.764 145.465C192.584 144.993 193.296 145.377 193.296 146.336V146.936Z" fill="#2580D3"/>
<path d="M181.717 196.662C181.678 197.521 181.288 198.307 180.668 198.779C180.084 199.172 179.612 198.853 179.612 198.076C179.65 197.214 180.043 196.426 180.668 195.959C181.246 195.567 181.717 195.877 181.717 196.662Z" fill="#A9D0E5"/>
<path d="M189.086 192.454C189.045 193.314 188.654 194.099 188.033 194.569C187.451 194.961 186.981 194.642 186.981 193.867C187.02 193.004 187.411 192.214 188.033 191.743C188.616 191.359 189.086 191.67 189.086 192.454Z" fill="#A9D0E5"/>
<path d="M196.454 188.246C196.413 189.105 196.021 189.889 195.398 190.359C194.821 190.75 194.349 190.432 194.349 189.657C194.389 188.797 194.778 188.01 195.398 187.536C195.983 187.144 196.454 187.463 196.454 188.246Z" fill="#A9D0E5"/>
<path opacity="0.46" d="M112.236 2.85565C120.958 -2.05535 128.025 -0.474247 128.033 6.38517C128.033 10.2102 125.822 14.8736 122.358 19.0979C124.233 22.5396 126.166 22.4837 126.166 22.4837C123.478 23.4326 120.63 23.877 117.772 23.7933C116.059 25.2537 114.208 26.5531 112.244 27.6741C103.522 32.5771 96.4543 31.004 96.4543 24.1446C96.4543 17.2852 103.522 7.76664 112.236 2.85565Z" fill="#A9D0E5"/>
<path opacity="0.3" d="M316.454 157.981C316.592 160.374 317.848 162.559 319.842 163.871L334.128 172.168C335.987 173.25 337.507 172.372 337.507 170.208V153.604C337.377 151.212 336.122 149.024 334.128 147.715L319.842 139.409C317.982 138.327 316.454 139.214 316.454 141.378V157.981Z" fill="#A9D0E5"/>
<path opacity="0.5" d="M337.112 170.459V153.729C336.985 151.318 335.755 149.114 333.8 147.794L319.797 139.424C319.149 138.947 318.313 138.836 317.57 139.129H317.507L321.065 137.023C321.816 136.707 322.67 136.809 323.331 137.293L337.334 145.663C339.288 146.984 340.52 149.186 340.655 151.597V168.328C340.729 169.172 340.379 169.995 339.728 170.508L336.162 172.632C336.819 172.126 337.179 171.305 337.112 170.459Z" fill="#A9D0E5"/>
<path opacity="0.3" d="M18.519 80.5842C18.4283 82.3739 17.5016 84.0149 16.02 85.0092L5.30976 91.2304C3.91419 92.0468 2.77014 91.3774 2.77014 89.7608V77.3103C2.87133 75.5157 3.814 73.8762 5.30976 72.8935L16.02 66.6641C17.4156 65.8477 18.5596 66.5172 18.5596 68.1419L18.519 80.5842Z" fill="#A9D0E5"/>
<path opacity="0.5" d="M3.35443 89.966V77.6672C3.45665 75.8944 4.40896 74.2749 5.92003 73.3041L16.7808 67.1507C17.2849 66.8072 17.9282 66.7288 18.5022 66.941H18.5595L15.8136 65.3925C15.2317 65.165 14.5725 65.2408 14.0595 65.5941L3.23967 71.7476C1.7286 72.7184 0.776288 74.3379 0.674067 76.1107V88.4095C0.6101 89.0326 0.880241 89.6436 1.38719 90.0224L4.09214 91.5789C3.57595 91.2056 3.29606 90.5937 3.35443 89.966Z" fill="#A9D0E5"/>
<path opacity="0.3" d="M241.717 21.6368C241.61 23.4317 240.669 25.071 239.178 26.0619L228.468 32.283C227.072 33.0995 225.928 32.43 225.928 30.8135V18.363C226.028 16.568 226.971 14.9279 228.468 13.9461L239.178 7.71677C240.573 6.90034 241.717 7.56981 241.717 9.1945V21.6368Z" fill="#A9D0E5"/>
<path opacity="0.5" d="M225.51 31.0194V18.7269C225.611 16.9546 226.563 15.3354 228.075 14.366L238.894 8.21571C239.394 7.87111 240.035 7.78977 240.607 7.99808H240.665L237.919 6.45042C237.338 6.21537 236.675 6.29154 236.165 6.65194L225.346 12.8023C223.831 13.7689 222.878 15.3897 222.781 17.1631V29.4718C222.712 30.0954 222.983 30.7084 223.494 31.0839L226.231 32.6316C225.721 32.2548 225.448 31.6438 225.51 31.0194Z" fill="#A9D0E5"/>
<g style="mix-blend-mode:color-dodge">
<path d="M263.823 88.9474C263.823 89.238 263.587 89.4737 263.296 89.4737C263.006 89.4737 262.77 89.238 262.77 88.9474C262.77 88.6567 263.006 88.4211 263.296 88.4211C263.587 88.4211 263.823 88.6567 263.823 88.9474Z" fill="#1ED3FB"/>
</g>
<path d="M260.336 307.661C260.336 307.661 259.465 307.515 258.445 308.776C257.425 310.037 253.841 315.228 251.427 317.311C249.03 319.424 247.21 322.093 246.135 325.074C245.788 326.12 245.88 327.259 246.39 328.239C246.901 329.219 247.788 329.96 248.856 330.297C251.121 331.152 256.861 329.484 259.283 327.482C261.705 325.48 266.831 314.887 266.831 314.887L266.981 307.368L260.336 307.661Z" fill="#B5BCC0"/>
<path d="M249.943 329.042C248.298 328.789 246.869 327.356 245.93 326.074C245.868 327.982 247.018 329.703 248.748 330.289C250.939 331.174 256.493 329.446 258.836 327.373C259.966 326.104 260.935 324.688 261.717 323.158C260.82 323.846 259.977 324.61 259.197 325.442C256.918 327.836 252.905 329.505 249.943 329.042Z" fill="#CFD6DA"/>
<path d="M265.628 309.112C265.628 309.112 264.692 309.331 263.962 312.066C263.232 314.801 261.185 320.824 260.392 322.707C259.599 324.59 257.425 331.505 259.305 332.982C261.185 334.459 268.333 333.835 271.515 328.883C274.696 323.932 275.632 318.421 276.394 316.059C277.39 312.45 278.114 308.768 278.56 305.045C278.56 303.6 276.1 299.128 275.886 298.95C275.672 298.771 265.628 309.112 265.628 309.112Z" fill="#B5BCC0"/>
<path d="M278.56 305.382C278.53 304.98 278.439 304.584 278.29 304.211C277.925 306.489 277.226 310.539 276.75 312.432C276.067 315.135 274.297 322.218 272.305 325.683C270.312 329.148 267.645 331.603 262.438 332.188C260.39 332.421 259.223 331.836 258.564 331.033C258.521 331.761 258.787 332.473 259.294 332.991C261.176 334.45 268.328 333.833 271.511 328.94C274.694 324.047 275.63 318.601 276.393 316.266C277.389 312.699 278.114 309.061 278.56 305.382Z" fill="#CFD6DA"/>
<path d="M262.731 325.188C264.198 325.437 265.817 325.188 266.542 322.557C267.268 319.925 269.086 309.328 269.086 309.328L265.897 308.421C265.897 308.421 264.493 313.876 263.624 316.901C262.755 319.925 260.371 324.779 262.731 325.188Z" fill="#001A84"/>
<path d="M251.951 321.977C252.93 322.391 254.736 321.798 256.009 320.267C258.449 316.857 260.698 313.32 262.748 309.671C262.962 308.89 261.586 308 260.719 308.64C259.852 309.281 256.82 314.434 254.951 316.449C253.081 318.463 249.668 321.017 251.951 321.977Z" fill="#001A84"/>
<path d="M270.453 226.524C270.453 226.524 264.489 224.419 262.105 220.314C259.721 216.209 250.49 204.211 250.49 204.211C250.49 204.211 248.299 212.622 249.391 229.357C250.482 246.092 257.241 267.118 258.333 275.506C259.424 283.893 260.042 296.345 260.139 299.948C260.235 303.551 258.124 308.765 259.77 310.068C261.415 311.372 267.074 309.769 269.362 306.83C271.649 303.891 271.144 260.147 271.144 260.147L270.453 226.524Z" fill="#8274FF"/>
<path d="M270.428 226.909C270.428 226.909 264.255 224.814 261.788 220.728C261.497 220.237 261.098 219.632 260.625 218.947C261.131 221.051 256.355 218.391 257.892 221.083C261.514 227.441 262.594 232.099 262.411 234.443C261.929 240.552 258.456 258.417 256.454 268.683C257.127 271.479 257.642 273.865 257.883 275.67C259.013 284.042 259.653 296.412 259.752 299.998C259.852 303.584 257.667 308.773 259.37 310.071C261.073 311.368 266.93 309.772 269.298 306.847C271.665 303.922 271.142 260.383 271.142 260.383L270.428 226.909Z" fill="#695BE6"/>
<path d="M252.932 196.842C252.932 196.842 253.029 202.579 266.221 204.564C279.414 206.548 287.496 201.363 287.496 201.363C289.357 206.747 290.248 212.413 290.128 218.103C289.724 226.681 275.409 231.954 265.906 228.297C256.404 224.64 250.138 204.588 250.138 204.588L252.932 196.842Z" fill="#8274FF"/>
<path d="M274.543 220.568C271.018 217.344 265.538 228.896 265.538 228.896L264.875 231.332L269.566 231.579C269.566 231.579 278.076 223.793 274.543 220.568Z" fill="#695BE6"/>
<path d="M277.13 216.322C275.235 217.056 269.374 220.851 266.85 229.975C264.327 239.099 259.803 262.531 258.788 268.554C257.772 274.577 260.4 278.195 261.763 281.303C263.125 284.412 265.447 299.947 264.867 306.091C264.867 306.091 263.496 312.632 268.551 312.632C271.131 312.632 276.17 309.265 276.614 304.154C277.057 299.043 276.162 294.182 277.138 290.5C278.114 286.818 278.364 280.076 276.493 276.838C275.605 275.227 274.588 273.691 273.453 272.244C273.453 272.244 282.137 252.817 284.225 246.834C286.313 240.851 290.385 225.768 290.127 220.391C289.869 215.014 288.321 212.632 288.321 212.632C288.321 212.632 281.46 214.634 277.13 216.322Z" fill="#8274FF"/>
<path d="M281.91 213.165C281.91 213.165 284.405 219.74 283.985 226.316C287.496 224.245 289.966 221.22 290.128 217.636C290.247 211.789 289.353 205.965 287.488 200.433C287.488 200.433 279.416 205.718 266.218 203.721C253.02 201.724 252.931 195.789 252.931 195.789L250.138 203.721C250.138 203.721 250.235 204.058 250.437 204.65C253.368 209.51 258.257 212.804 263.797 213.65C274.646 215.384 281.91 213.165 281.91 213.165Z" fill="#695BE6"/>
<path d="M290.127 220.438C289.87 215.036 288.333 212.632 288.333 212.632C288.333 212.632 285.37 213.509 282.111 214.589C282.912 217.108 284.697 223.712 283.4 229.504C281.751 236.816 277.595 253.291 274.448 260.326C271.3 267.361 268.33 271.658 271.485 275.403C273.423 277.71 275.977 279.189 277.891 282.105C277.804 280.409 277.37 278.749 276.618 277.231C275.736 275.61 274.726 274.065 273.599 272.609C273.599 272.609 282.223 253.063 284.297 247.043C286.371 241.024 290.383 225.833 290.127 220.438Z" fill="#695BE6"/>
<path d="M192.709 142.204C192.904 142.015 194.203 142.062 195.779 142.668C197.354 143.275 200.968 144.692 202.275 145.235C203.897 146.07 205.452 147.02 206.929 148.078C209.151 149.693 211.261 151.447 213.247 153.33C214.595 154.669 216.454 156.441 216.454 156.441C215.275 158.313 213.328 159.608 211.103 160C211.103 160 208.934 156.85 208.195 156.527C207.348 156.265 206.482 156.062 205.605 155.921C204.582 155.622 203.513 155.495 202.446 155.543C201.634 155.677 199.197 155.866 198.385 155.543C197.573 155.22 197.062 154.259 197.987 153.968C198.913 153.677 202.503 152.905 203.12 152.771C202.211 152.521 201.29 152.319 200.359 152.165C199.612 151.994 198.844 151.923 198.077 151.952C197.196 152.255 196.383 152.717 195.681 153.315C195.486 153.559 194.52 155.882 193.618 155.882C192.717 155.882 194.211 152.362 194.211 152.362C194.211 152.362 191.198 154.519 190.492 154.22C189.785 153.921 190.354 153.433 191.223 152.551C192.092 151.669 194.244 149.763 194.861 149.574C195.384 149.375 195.878 149.11 196.331 148.787C196.331 148.787 194.098 149.117 193.732 149.228C193.367 149.338 190.151 150.645 189.558 150.511C188.965 150.377 188.843 149.724 189.704 149.283C191.241 148.441 192.831 147.691 194.463 147.039C195.833 146.791 197.22 146.635 198.613 146.574C198.044 146.001 197.362 145.546 196.607 145.235C195.584 144.881 191.718 143.156 192.709 142.204Z" fill="#FFCDA8"/>
<path d="M205.357 149.188C204.288 148.927 201.632 147.998 201.072 147.484C200.513 146.971 199.402 145.227 198.633 144.909C198.04 144.656 194.382 143.132 192.461 142.105C192.694 143.116 195.718 144.461 196.637 144.77C197.413 145.092 198.115 145.563 198.7 146.156C198.7 146.156 197.33 146.229 196.077 146.368C195.919 146.93 195.576 147.737 194.933 147.941C194.056 148.21 190.631 149.661 189.086 150.068C189.176 150.148 189.285 150.204 189.403 150.231C190.013 150.37 193.321 149.017 193.697 148.903C194.073 148.788 196.37 148.446 196.37 148.446C195.904 148.781 195.396 149.055 194.858 149.261C194.223 149.457 192.018 151.462 191.116 152.342C190.214 153.222 189.637 153.752 190.364 154.07C191.091 154.388 194.19 152.146 194.19 152.146C194.19 152.146 192.653 155.789 193.58 155.789C194.507 155.789 195.501 153.344 195.701 153.133C196.424 152.514 197.26 152.036 198.166 151.723C198.955 151.692 199.744 151.766 200.513 151.943C201.373 152.074 202.223 152.256 203.06 152.489H203.47L205.533 151.16C205.683 151.054 206.435 149.44 205.357 149.188Z" fill="#D9A782"/>
<path d="M214.349 157.663C211.292 155.577 206.484 154.763 205.884 154.737C205.179 154.782 204.484 154.945 203.823 155.222C204.243 155.3 204.671 155.412 205.075 155.516C205.916 155.671 206.745 155.894 207.557 156.182C208.265 156.511 210.342 160 210.342 160C211.866 159.712 213.269 158.893 214.349 157.663Z" fill="#D9A782"/>
<path d="M260.665 141.221C260.665 141.221 258.38 140 257.342 140C256.304 140 250.994 143.028 248.026 146.617C245.057 150.207 239.481 155.074 236.722 157.62C233.962 160.166 227.454 165.049 227.454 165.049C227.454 165.049 216.995 155.789 213.189 153.251C212.84 155.381 211.206 157.073 209.086 157.499C211.117 161.43 213.357 165.251 215.796 168.944C218.917 173.417 222.723 177.673 226.102 177.882C229.481 178.091 232.144 175.698 233.753 173.778C235.362 171.859 254.47 157.034 254.47 157.034L260.665 141.221Z" fill="#FE61CA"/>
<path d="M252.973 149.474C251.618 149.578 249.9 152.617 245.358 157.45C240.816 162.283 234.063 170.21 231.578 170.25C229.093 170.29 228.392 165.465 227.819 166.222C227.246 166.98 227.561 169.883 227.561 170.25C227.561 170.617 218.686 159.268 212.571 155.161C211.847 156.464 210.566 157.375 209.086 157.641C211.123 161.545 213.369 165.338 215.814 169.006C218.944 173.448 222.76 177.675 226.149 177.882C229.537 178.089 232.208 175.713 233.821 173.807C235.435 171.901 254.595 157.178 254.595 157.178L255.402 155.185C254.676 152.409 253.716 149.419 252.973 149.474Z" fill="#CC2F98"/>
<path d="M250.162 201.932C250.162 201.932 252.85 211.284 266.694 212.484C280.538 213.683 289.439 207.204 289.439 207.204C288.964 203.799 288.216 200.437 287.202 197.152C285.713 192.669 285.914 185.699 287.105 180.323C288.297 174.947 294.349 148.13 294.349 148.13L282.566 138.947H266.887L258.074 140.356C258.074 140.356 257.019 140.356 256.038 145.096C254.613 151.953 255.611 155.985 253.116 159.873C250.621 163.76 248.327 167.205 249.325 171.486C249.822 173.875 250.931 176.094 252.544 177.925C252.544 177.925 254.041 188.677 253.542 191.768C253.043 194.858 250.162 201.932 250.162 201.932Z" fill="#FE61CA"/>
<path d="M287.336 197.424C285.835 192.894 286.038 185.851 287.239 180.418C287.807 177.84 290.046 170.846 292.244 164.152L290.889 163.868C290.889 163.868 286.728 162.054 285.909 164.225C285.089 166.397 286.72 168.609 286.582 174.261C286.46 179.32 285.024 184.94 274.349 184.289C274.349 184.289 281.09 188.177 281.974 191.821C282.631 194.537 283.54 204.654 283.735 210.526C285.799 209.773 287.765 208.774 289.591 207.55C289.111 204.12 288.356 200.733 287.336 197.424Z" fill="#CC2F98"/>
<path d="M252.871 183.158C255.413 182.296 258.02 181.643 260.665 181.205C258.366 180.725 252.244 177.895 252.244 177.895C252.244 177.895 252.57 180.278 252.871 183.158Z" fill="#CC2F98"/>
<path d="M282.765 138.646C282.765 138.646 278.724 133.734 281.374 126.316L265.565 136.919C265.565 136.919 267.037 140.193 266.661 141.463C266.284 142.732 261.95 152.868 268.337 153.629C274.725 154.39 278.765 147.079 280.867 143.698C282.969 140.316 282.765 138.646 282.765 138.646Z" fill="#D9A782"/>
<path d="M257.036 125.865C257.036 125.865 256.029 127.247 256.383 130.126C255.998 130.87 255.672 131.644 255.408 132.441C255.319 132.981 256.174 133.398 256.883 133.398C256.778 133.924 256.778 134.466 256.883 134.993C256.979 135.203 257.104 135.399 257.254 135.574C257.177 136.088 257.277 136.613 257.536 137.062C257.955 137.512 258.188 137.512 258.188 137.512C258.188 137.512 258.366 140.211 259.8 140.906C261.235 141.602 269.35 139.671 271.478 138.232C273.605 136.792 279.585 130.609 281.802 126.912C284.018 123.215 285.17 115.96 281.181 111.756C277.192 107.552 272.606 105.932 266.07 108.844C259.534 111.756 257.254 116.083 256.633 118.455C256.012 120.827 255.996 123.452 256.48 124.344C256.731 124.823 256.918 125.335 257.036 125.865Z" fill="#FFCDA8"/>
<path d="M256.49 124.211C256.542 124.355 256.613 124.495 256.701 124.628C257.023 125.118 257.261 125.64 257.409 126.18C257.409 126.18 256.089 127.59 256.553 130.526C256.553 130.526 258.117 127.84 258.487 127.239C258.857 126.638 257.758 125.053 256.49 124.211Z" fill="#D9A782"/>
<path d="M257.672 134.046C257.276 133.979 256.893 133.857 256.532 133.684C256.429 134.19 256.429 134.712 256.532 135.218C256.626 135.42 256.748 135.608 256.896 135.776C256.821 136.271 256.918 136.776 257.173 137.208C257.585 137.64 257.814 137.64 257.814 137.64C257.814 137.64 257.988 140.236 259.398 140.904C260.159 141.085 260.95 141.101 261.718 140.952C257.901 140.778 257.672 134.046 257.672 134.046Z" fill="#D9A782"/>
<path d="M275.131 129.048C275.813 127.572 277.404 126.155 278.465 126.33C279.526 126.506 280.071 127.831 279.124 129.456C278.177 131.082 275.464 134.457 274.646 133.524C273.827 132.59 274.941 129.465 275.131 129.048Z" fill="#FFCDA8"/>
<path d="M259.433 121.245C259.433 121.245 260.719 123.675 267.18 126.267C273.641 128.859 273.218 130.074 274.448 133.452C275.678 136.83 279.064 144.274 288.385 143.488L293.296 147.368C293.296 147.368 286.42 138.102 285.765 130.666C285.406 126.616 286.364 114.53 280.23 110.318C274.097 106.106 268.314 106.956 263.642 109.443C258.97 111.93 256.566 117.098 256.454 122.306C257.487 122.08 258.488 121.724 259.433 121.245Z" fill="#7A3A1D"/>
<path d="M277.3 137.366C277.3 137.366 280.72 140.623 283.968 141.112C280.312 139.004 277.41 135.835 275.66 132.041C273.072 125.986 271.252 125.625 267.955 124.606C264.657 123.588 259.556 123.098 258.895 120.211C258.895 120.211 260.87 109.833 273.962 107.724C270.142 106.911 266.151 107.504 262.747 109.392C257.973 111.862 255.516 116.971 255.402 122.128C256.457 121.904 257.48 121.551 258.446 121.077C258.446 121.077 259.76 123.483 266.363 126.05C272.966 128.616 272.534 129.819 273.79 133.164C275.047 136.508 278.508 143.879 288.033 143.101C288.066 143.101 280.687 143.39 277.3 137.366Z" fill="#6D2D10"/>
<path d="M304.507 234.286L271.191 252.632L271.559 222.556L304.875 204.211L304.507 234.286Z" fill="#CFD6DA"/>
<path d="M288.321 241.053C288.244 241.116 285.288 243.05 284.639 243.943C284.26 244.454 284.26 245.129 284.639 245.64C284.639 245.64 281.539 248.333 283.324 248.42C285.109 248.506 288.765 244.653 289.038 243.832C289.311 243.011 288.321 241.053 288.321 241.053Z" fill="#D9A782"/>
<path d="M289.258 224.211C289.008 225.704 288.477 228.815 287.782 229.925C287.087 231.035 285.369 233.86 285.08 235.15C284.751 236.447 284.255 237.691 283.604 238.848C283.105 239.664 281.941 241.46 281.785 242.431C281.629 243.403 281.738 244.064 282.168 244.26C282.597 244.456 283.987 242.627 284.44 241.933C284.893 241.24 286.353 239.256 286.556 239.044C286.759 238.831 287.337 238.472 287.439 238.537C288.101 239.006 288.459 239.821 288.368 240.652C288.212 241.958 287.915 244.546 287.189 245.403C286.344 246.43 285.384 247.349 284.331 248.138C283.714 248.44 282.261 249.272 282.488 249.77C282.714 250.268 283.581 250.179 283.581 250.179C283.581 250.179 284.463 250.628 284.854 250.505C286.601 249.522 288.265 248.386 289.828 247.109C290.866 246.138 292.842 242.211 293.092 240.774C293.342 239.337 293.029 234.031 293.389 232.341C293.748 230.652 294.349 224.864 294.349 224.864L289.258 224.211Z" fill="#FFCDA8"/>
<path d="M288.407 164.435C288.407 161.139 287.272 152.11 288.958 149.897C290.644 147.684 292.952 146.529 294.502 148.08C296.052 149.631 298.689 154.283 298.193 163.579C297.698 172.875 298.098 189.262 298.098 192.565C298.098 195.868 298.896 200.157 298.393 205.85C297.89 211.544 294.606 229.425 294.606 229.425C292.483 229.609 290.347 229.268 288.383 228.432C288.383 228.432 289.629 220.275 288.798 213.951C287.967 207.627 287.807 198.735 288.383 195.755C288.958 191.473 289.071 187.14 288.718 182.833C288.359 179.643 288.407 167.253 288.407 164.435Z" fill="#FE61CA"/>
<path d="M36.8486 191.503L38.9302 184.211L55.0048 196.396C55.0048 196.396 53.7751 202.835 54.611 205.813C55.4468 208.791 56.8373 212.059 51.2755 212.614C45.7137 213.17 34.349 200.243 34.349 200.243C34.349 200.243 38.0461 195.72 36.8486 191.503Z" fill="#D9A782"/>
<path d="M68.3967 353.756L79.7479 351.579C82.7729 352.01 85.822 352.247 88.8768 352.289C93.2733 352.289 99.9561 353.829 100.588 356.434C101.219 359.038 97.8697 361.425 94.4564 362.619C91.0431 363.812 87.7896 364.095 83.9366 364.232C80.0836 364.369 75.8549 366.651 72.8573 367.183C68.117 368.03 66.3104 365.78 65.9586 364.304C65.6069 362.829 68.3967 355.514 68.3967 353.756Z" fill="#001135"/>
<path d="M72.868 366.953C75.8664 366.443 80.1201 364.263 83.9501 364.124C87.78 363.985 91.0583 363.722 94.4725 362.578C97.303 361.628 100.07 359.889 100.589 357.895C100.589 357.895 100.589 357.895 100.589 357.941C101.213 360.43 97.8707 362.725 94.4565 363.869C91.0423 365.013 87.788 365.284 83.9341 365.415C80.0801 365.546 75.8504 367.734 72.852 368.244C68.1105 369.055 66.3034 366.899 65.9516 365.484C65.9068 365.116 65.9258 364.742 66.0076 364.379C66.4793 365.809 68.3344 367.726 72.868 366.953Z" fill="#414E52"/>
<path d="M51.5504 266.504L71.1955 263.158C71.1955 263.158 71.1955 270.713 71.7554 272.148C72.3153 273.583 77.6465 286.783 78.7014 298.934C79.7563 311.085 78.1253 315.584 78.0279 324.961C77.9306 334.339 80.4623 349.441 82.4747 351.699C84.487 353.956 75.7234 361.31 71.1955 361.89C66.6677 362.471 65.7589 361.89 65.9779 359.971C66.197 358.052 64.1035 346.079 62.3345 339.402C61.1174 334.798 60.0625 323.776 61.2147 318.035C61.2147 318.035 56.557 296.733 53.2869 287.839C50.0168 278.945 51.5504 266.504 51.5504 266.504Z" fill="#1B3D6E"/>
<path d="M45.2699 375.891C45.2699 375.891 48.8421 382.024 51.1687 385.029C53.4952 388.035 60.9533 395.259 55.632 397.995C50.3107 400.732 39.9568 397.336 37.1765 390.804C34.3962 384.272 33.2907 382.773 32.5317 381.544C31.7727 380.314 32.7544 373.684 32.7544 373.684L34.289 375.166C34.289 375.166 34.355 380.354 37.0362 381.014C39.7175 381.674 40.4765 378.017 41.8626 377.268C42.9615 376.725 44.1005 376.265 45.2699 375.891Z" fill="#001135"/>
<path d="M32.5646 381.38C33.3221 382.599 34.4337 384.084 37.2003 390.557C39.9669 397.03 50.3169 400.396 55.6196 397.684C56.5277 397.294 57.1956 396.508 57.4228 395.562C57.7716 397.002 57.0097 398.478 55.6196 399.056C50.3169 401.768 39.9751 398.403 37.2003 391.929C34.4254 385.456 33.3221 383.971 32.5646 382.752C32.2686 381.866 32.1759 380.926 32.2928 380C32.2789 380.474 32.3717 380.945 32.5646 381.38Z" fill="#414E52"/>
<path d="M28.0968 341.854C28.2167 338.225 32.8465 331.168 32.0229 321.587C31.1993 312.005 28.4646 277.349 31.6551 270.526L57.5069 273.567C57.5069 273.567 55.188 300.061 54.0285 308.432C52.8691 316.804 50.2543 328.208 47.9914 336.959C45.7285 345.709 43.8973 357.533 44.585 364.162C45.2727 370.792 48.2872 379.091 45.7285 380.744C43.1697 382.398 31.2073 384.244 30.9834 375.099C30.7595 365.953 27.545 359.049 28.0968 341.854Z" fill="#345687"/>
<path d="M60.6648 197.746C60.6648 197.746 61.0341 194.252 63.9473 194.794C66.8606 195.336 74.0576 202.073 75.4362 207.524C76.8149 212.974 80.4667 218.563 82.7317 222.186C84.2284 224.562 85.8728 226.844 87.6555 229.02L98.3238 228.171L99.6122 236.129C99.6122 236.129 86.0142 242.105 83.2651 242.105C80.516 242.105 77.135 236.792 75.3624 234.382C73.5898 231.972 66.3354 222.186 66.3354 222.186L60.6648 197.746Z" fill="#DBE8F5"/>
<path d="M68.1959 208.496C69.9107 209.235 70.0338 211.995 69.9107 212.701C69.7877 213.408 71.3138 219.896 73.3978 224.496C75.4818 229.096 76.212 230.517 77.6233 231.215C79.0345 231.913 83.3667 230.566 84.6056 230.32C85.8445 230.073 88.0926 230.55 86.4435 231.412C84.7943 232.275 79.5842 235.716 80.7001 237.4C81.8159 239.084 96.24 232.989 98.7507 231.65L99.6122 237.088C99.6122 237.088 86.0168 243.158 83.2682 243.158C80.5196 243.158 77.1392 237.761 75.367 235.314C73.5947 232.866 66.3416 222.927 66.3416 222.927L63.8228 211.945C64.7417 210.656 66.8914 207.937 68.1959 208.496Z" fill="#C2CFDC"/>
<path d="M71.054 264.376C71.054 264.376 68.0356 271.829 60.6384 274.416C53.2412 277.003 32.2569 275.933 31.5003 271.221C30.7436 266.509 35.0741 257.142 32.8364 253.185C30.5988 249.227 18.8389 224.833 17.7764 222.205C16.7139 219.578 19.1367 214.841 19.1367 214.841L33.1262 201.525C33.1262 201.525 48.8543 207.267 52.718 206.667C56.5816 206.067 55.5432 196.813 55.5432 196.813C55.5432 196.813 62.047 194.583 63.5361 194.745C65.0252 194.907 67.2951 203.617 67.0858 206.415C66.8765 209.213 70.3055 217.128 69.3637 222.838C68.4219 228.547 68.0436 231.126 68.0436 231.126C68.0436 231.126 68.6232 245.01 68.9934 248.27C69.3637 251.53 71.7865 262.9 71.054 264.376Z" fill="#DBE8F5"/>
<path d="M57.7468 216.315L58.5142 211.242L53.0515 207.368L50.873 212.262L50.1385 214.708L55.0154 217.09C55.7168 221.51 61.6169 249.834 61.0806 264.898L64.5794 268.421L66.9807 263.528C66.9807 263.528 64.307 232.414 57.7468 216.315Z" fill="#B00052"/>
<path d="M103.381 216.888C102.948 216.78 102.491 216.864 102.12 217.121C101.749 217.377 101.499 217.782 101.429 218.238C101.182 219.628 100.935 221.769 100.935 221.769C99.9022 222.994 99.1152 224.419 98.6206 225.963C98.0419 228.175 97.6561 229.502 97.6561 229.502C97.6561 229.502 96.3058 232.361 96.4678 233.599C96.6299 234.838 97.5404 236.643 98.2657 236.795C99.1002 236.896 99.9458 236.834 100.758 236.611C101.607 236.411 106.468 231.738 106.931 230.484C107.394 229.23 104.485 224.621 104.485 224.621C104.485 224.621 104.593 222.08 104.709 221.641C104.824 221.202 104.909 216.992 103.381 216.888Z" fill="#D9A782"/>
<path d="M46.6378 309.151C46.6378 309.151 47.6154 306.474 46.2692 306.415C44.8915 306.444 43.5199 306.616 42.1744 306.93C40.7641 307.149 39.3938 307.47 38.4483 307.149C37.873 306.946 37.3921 306.52 37.102 305.959C37.102 305.959 42.4228 305.114 42.0382 304.27C41.6535 303.425 30.1385 301.053 30.1385 301.053C30.1385 301.053 33.0073 310.291 37.6229 310.518C40.6791 310.593 43.7258 310.131 46.6378 309.151Z" fill="#D9A782"/>
<path d="M63.367 180.462C63.8175 181.228 64.3603 181.938 64.9838 182.574C65.687 183.374 67.5624 185.383 66.8026 186.023C66.0496 186.547 65.2354 186.98 64.3775 187.311C64.3775 187.311 64.8706 188.791 64.4502 189.223C64.0898 189.58 63.8989 190.071 63.9248 190.575C63.8797 190.984 63.7504 191.379 63.5449 191.736C63.339 192.243 63.256 192.791 63.3024 193.336C63.4075 194.048 63.4479 195.736 61.0228 196.416C58.5977 197.096 52.8502 197.12 49.2934 195.296C45.7366 193.472 44.2007 189.463 42.0181 186.263C39.8355 183.062 32.2531 179.67 33.4171 174.149C34.5812 168.628 39.011 164.451 47.9677 164.219C56.9244 163.987 61.5967 168.404 62.9629 172.693C64.329 176.981 63.9491 178.974 63.6742 179.342C63.4769 179.683 63.3712 180.069 63.367 180.462Z" fill="#FFCDA8"/>
<path d="M49.3918 186.313C48.4385 186.469 44.5371 184.354 43.3034 186.313C42.0697 188.271 40.4195 191.25 36.8946 191.579C36.8946 191.579 35.757 187.341 35.1001 186.642C34.4432 185.942 31.7595 183.564 32.3203 176.142C32.8811 168.719 36.4059 165.058 43.3355 163.716C50.265 162.375 55.6404 163.527 59.4136 166.349C63.1868 169.172 63.8918 172.48 60.9517 173.196C58.0117 173.912 53.7418 175.401 53.8219 177.796C53.902 180.19 53.4053 181.383 51.9153 182.387C50.4252 183.391 50.5454 186.123 49.3918 186.313Z" fill="#563317"/>
<path d="M53.2964 182.105C53.1522 182.226 53.0012 182.338 52.8441 182.441C51.3063 183.439 51.5036 186.155 50.2865 186.343C49.3079 186.499 45.303 184.396 44.0365 186.343C42.7701 188.29 41.076 191.252 37.4576 191.579C37.4576 191.579 36.2898 187.366 35.6155 186.67C34.4966 185.606 33.6942 184.256 33.2964 182.768C39.9452 183.807 46.7318 183.582 53.2964 182.105Z" fill="#634024"/>
<path d="M35.3857 197.895C39.753 202.948 45.6933 206.374 52.2438 207.616L50.0827 216.842C50.0827 216.842 35.8403 207.408 32.2438 202.544L35.3857 197.895Z" fill="#E8F5FF"/>
<path d="M55.4595 200.292L56.1069 197.895C59.5885 202.186 59.6122 213.684 59.6122 213.684L53.2964 207.603C56.1306 205.486 55.4595 200.292 55.4595 200.292Z" fill="#E8F5FF"/>
<path d="M20.6648 230.287L26.7161 228.024C26.7161 228.024 31.7411 226.035 33.2848 228.986C34.8284 231.936 40.0258 237.498 41.1343 238.686C42.2427 239.874 41.4956 240.19 41.1343 243.754C40.773 247.319 39.6563 256.478 39.9684 262.088C40.1818 265.992 39.9684 272.596 41.1425 275.789C35.7973 275.127 31.5195 273.769 31.1828 271.748C30.411 267.051 34.8284 257.715 32.5458 253.77C30.9447 251.03 24.6963 238.581 20.6648 230.287Z" fill="#C2CFDC"/>
<path d="M47.3964 187.118C47.021 186.399 46.0785 184.903 44.6771 185.343C43.8631 185.659 43.2273 186.321 42.9382 187.155C42.6491 187.988 42.7359 188.908 43.1756 189.671C44.2433 191.497 47.4882 193.315 47.8802 192.376C48.2723 191.438 47.8385 188.006 47.3964 187.118Z" fill="#FFCDA8"/>
<path d="M48.7513 295.056L42.7701 289.266L43.8017 284.211L50.7977 284.936L56.4544 289.952L55.7722 295.789L48.7513 295.056Z" fill="#FDE4BE"/>
<path d="M133.101 181.762C132.355 180.276 130.96 179.24 129.343 178.972C128.926 178.905 128.499 178.977 128.125 179.176L115.402 187.425C115.803 188.112 116.497 188.568 117.277 188.658C118.992 188.937 120.75 188.687 122.324 187.939C122.701 189.407 123.342 190.791 124.215 192.019C124.92 193.087 126.175 193.634 127.42 193.415C127.036 194.463 126.801 195.562 126.723 196.679C126.773 197.445 126.894 198.204 127.084 198.947L133.221 183.166L133.293 182.815C133.312 182.454 133.246 182.093 133.101 181.762Z" fill="#FDE4BE"/>
<g style="mix-blend-mode:multiply">
<path d="M133.101 181.762C132.355 180.276 130.96 179.24 129.343 178.972C128.926 178.905 128.499 178.977 128.125 179.176L115.402 187.425C115.803 188.112 116.497 188.568 117.277 188.658C118.992 188.937 120.75 188.687 122.324 187.939C122.701 189.407 123.342 190.791 124.215 192.019C124.92 193.087 126.175 193.634 127.42 193.415C127.036 194.463 126.801 195.562 126.723 196.679C126.773 197.445 126.894 198.204 127.084 198.947L133.221 183.166L133.293 182.815C133.312 182.454 133.246 182.093 133.101 181.762Z" fill="url(#paint19_linear)"/>
</g>
<path d="M52.0111 290.303C52.6674 291.744 51.8886 292.784 50.261 292.613C48.4926 292.332 46.9681 291.246 46.157 289.689C45.5094 288.248 46.2795 287.216 47.9071 287.387C49.6732 287.668 51.1968 288.75 52.0111 290.303Z" fill="#62696D"/>
<path d="M135.357 175.588L133.012 183.158C133.144 182.703 133.1 182.214 132.887 181.792C132.16 180.345 130.799 179.337 129.221 179.075C128.815 179.011 128.398 179.08 128.033 179.274L134.372 174.921C134.372 174.921 134.896 174.595 135.154 174.81C135.379 174.998 135.461 175.311 135.357 175.588Z" fill="#62696D"/>
<path d="M126.642 198.798L126.981 193.294L121.821 187.878L114.856 187.368L43.8228 284.165L50.6431 284.902L56.1251 289.937L55.4237 295.789L126.642 198.798Z" fill="#FCB52B"/>
<g style="mix-blend-mode:screen" opacity="0.3">
<path d="M121.717 187.88L114.761 187.368L43.8228 284.524L50.634 285.263L121.717 187.88Z" fill="#FCD283"/>
</g>
<g style="mix-blend-mode:multiply" opacity="0.3">
<path d="M126.642 199.168L126.981 193.684L56.071 289.943L55.4016 295.789L126.642 199.168Z" fill="#B5811F"/>
</g>
<g style="mix-blend-mode:screen" opacity="0.3">
<path d="M121.717 187.514L121.227 187.368L50.1385 284.154L50.6697 284.211L121.717 187.514Z" fill="#FCB52B"/>
</g>
<path d="M46.6647 283.202C44.8785 283.003 43.5449 283.489 42.8225 284.43L38.5596 290.178C39.5535 289.408 40.8258 289.098 42.0604 289.325C46.0518 289.984 49.4921 292.512 51.3245 296.133C52.0151 297.688 52.0072 299.035 51.4436 300L55.7224 294.324C56.5877 293.351 56.7226 291.82 55.9288 290.011C54.0964 286.389 50.656 283.861 46.6647 283.202Z" fill="url(#paint20_linear)"/>
<path d="M42.0806 289.516C40.2316 289.321 38.851 289.808 38.1032 290.765L32.2438 298.364C33.2813 297.6 34.598 297.306 35.8679 297.553C40.008 298.224 43.5778 300.799 45.4829 304.488C46.1896 306.069 46.1896 307.44 45.6061 308.421L51.4902 300.797C52.3777 299.816 52.5256 298.251 51.6956 296.41C49.7858 292.732 46.2151 290.172 42.0806 289.516Z" fill="#F79DC9"/>
<path d="M45.3824 303.892C46.9168 307.362 45.1034 309.839 41.3371 309.429C37.2024 308.759 33.6357 306.156 31.7367 302.424C30.2023 298.962 32.0157 296.476 35.782 296.886C39.9168 297.557 43.4834 300.159 45.3824 303.892Z" fill="#DE84B0"/>
<path d="M27.9647 296.842C29.5394 297.08 31.0795 297.501 32.5526 298.098C34.1307 298.897 35.8064 300.32 36.7093 300.624C37.6122 300.928 42.8508 301.664 43.7131 302.639C44.5754 303.615 44.3069 305.11 43.3714 305.262C42.436 305.414 39.8736 304.774 38.564 304.343C37.2543 303.911 34.8465 303.823 34.9116 304.646C34.9766 305.47 36.4897 307.573 38.8487 308.157C40.7729 308.497 42.7363 308.57 44.6811 308.373C44.6811 308.373 48.0895 307.149 48.6833 307.573C49.2771 307.997 49.5455 309.34 47.0564 310.164C44.5672 310.987 42.257 311.659 39.955 311.571C37.1978 311.349 34.5277 310.515 32.1458 309.132C30.2505 307.877 25.1664 302.975 24.109 302.336C23.0515 301.696 21.9045 298.337 21.7174 297.394L27.9647 296.842Z" fill="#FFCDA8"/>
<path d="M28.058 296.75L21.0404 297.895L20.0195 291.696C19.3037 289.786 18.7655 287.813 18.4118 285.803C18.1144 283.385 16.8524 258.968 16.555 254.462C16.2575 249.956 16.7318 230.634 16.555 228.667C16.3781 226.7 17.0453 217.333 19.288 215.769C21.5308 214.206 28.7333 214.012 31.9085 218.099C35.0837 222.186 31.9085 230.731 31.2493 236.269C30.5902 241.806 29.1513 255.615 29.1513 258.404C29.1513 261.193 29.8747 272.543 29.6899 276.275C29.505 280.007 29.6336 289.173 29.2156 289.753C28.9895 290.027 28.8447 290.36 28.7976 290.712L28.058 296.75Z" fill="#DBE8F5"/>
<path d="M23.3347 285.263L24.0148 288.935C25.6837 289.29 27.3934 289.374 29.0858 289.185C28.878 289.458 28.7446 289.786 28.7004 290.135L28.0202 296.142L23.9619 296.842L23.7352 290.4H21.7174L23.1609 289.531L23.3347 285.263Z" fill="#C2CFDC"/>
<path d="M103.675 220.432C103.407 221.137 103.579 221.925 104.122 222.474C104.702 223.165 105.805 224.325 105.805 224.325V226.152C105.805 226.152 104.122 224.118 103.28 223.769C102.931 223.582 102.514 223.548 102.136 223.676C101.759 223.804 101.46 224.082 101.318 224.436C100.99 225.167 101.773 226.089 102.657 226.923C103.26 227.486 103.766 228.134 104.155 228.845C104.155 228.917 103.928 230.331 103.928 230.331C103.928 230.331 101.504 228.059 101.007 227.574C100.729 227.344 100.365 227.229 99.9965 227.254C99.6278 227.28 99.2854 227.444 99.0458 227.709C98.6333 228.265 99.0963 229.298 99.7613 230.029C100.542 230.891 101.225 231.829 101.798 232.826C101.916 233.271 101.723 234.518 101.285 234.518C100.847 234.518 98.507 232.484 98.0188 232.015C97.5306 231.547 96.2006 230.514 95.6114 231.221C95.0222 231.928 95.8134 232.81 96.2764 233.358C96.7394 233.906 98.8522 236.687 99.6855 236.83C100.519 236.973 101.967 235.789 102.211 235.487C102.455 235.186 104.324 235.162 104.812 234.232C105.3 233.303 105.207 232.961 105.207 232.961C105.207 232.961 107.556 232.357 107.606 231.038C107.657 229.719 107.657 229.584 107.657 229.584C107.657 229.584 108.297 229.545 108.414 228.647C108.532 227.749 109.155 224.746 109.079 224.253C109.004 223.761 107 221.385 106.361 220.805C105.721 220.225 104.071 219.534 103.675 220.432Z" fill="#FFCDA8"/>
<path d="M107.688 227.859C107.227 227.281 106.717 226.738 106.161 226.237V224.548C106.161 224.548 105.438 223.801 104.875 223.158L105.735 223.412C106.285 224.125 106.978 224.731 107.776 225.198C108.242 225.439 108.681 225.722 109.086 226.043C108.925 227 108.708 228.113 108.636 228.592C108.523 229.436 107.913 229.474 107.913 229.474C108.024 228.927 107.945 228.362 107.688 227.859Z" fill="#D9A782"/>
<path d="M104.875 230.027C104.875 230.027 105.059 228.605 105.059 228.533L105.011 228.421H105.059C105.059 228.421 107.135 230.466 106.971 231.976V232.104C106.643 232.327 106.294 232.504 105.93 232.632C105.93 232.632 105.134 230.794 104.875 230.027Z" fill="#D9A782"/>
<path d="M100.665 233.492C100.983 233.778 101.361 234 101.774 234.142C102.267 234.142 102.486 232.744 102.353 232.245C102.041 231.633 101.656 231.057 101.205 230.526C101.673 230.684 102.088 230.954 102.41 231.31C103.107 232.407 103.586 233.614 103.823 234.872C103.465 234.919 103.122 235.037 102.817 235.22C102.618 235.427 102.399 235.618 102.163 235.789C101.765 235.148 101.158 234.195 100.665 233.492Z" fill="#D9A782"/>
<defs>
<linearGradient id="paint0_linear" x1="111.73" y1="-168.32" x2="-169.128" y2="-63.5098" gradientUnits="userSpaceOnUse">
<stop stop-color="#2580D3"/>
<stop offset="1" stop-color="#0A208F"/>
</linearGradient>
<linearGradient id="paint1_linear" x1="106.693" y1="30.621" x2="106.693" y2="184.81" gradientUnits="userSpaceOnUse">
<stop stop-color="#FE9FEE"/>
<stop offset="1" stop-color="#E33CE3"/>
</linearGradient>
<linearGradient id="paint2_linear" x1="408.988" y1="4240.06" x2="450.135" y2="4240.07" gradientUnits="userSpaceOnUse">
<stop stop-color="#FE9FEE"/>
<stop offset="1" stop-color="#E33CE3"/>
</linearGradient>
<linearGradient id="paint3_linear" x1="395.91" y1="30.621" x2="395.91" y2="184.81" gradientUnits="userSpaceOnUse">
<stop stop-color="#2580D3"/>
<stop offset="1" stop-color="#0A208F"/>
</linearGradient>
<linearGradient id="paint4_linear" x1="121.396" y1="-4127.08" x2="80.2499" y2="-4127.06" gradientUnits="userSpaceOnUse">
<stop stop-color="#328DE0"/>
<stop offset="1" stop-color="#172D9C"/>
</linearGradient>
<linearGradient id="paint5_linear" x1="292.475" y1="67.7424" x2="281.636" y2="116.168" gradientUnits="userSpaceOnUse">
<stop stop-color="#00C855"/>
<stop offset="1" stop-color="#009EC8"/>
</linearGradient>
<linearGradient id="paint6_linear" x1="315.764" y1="97.1676" x2="326.455" y2="113.548" gradientUnits="userSpaceOnUse">
<stop stop-color="#38F687"/>
<stop offset="1" stop-color="#76EAFF"/>
</linearGradient>
<linearGradient id="paint7_linear" x1="38.5051" y1="13.0681" x2="49.89" y2="74.6908" gradientUnits="userSpaceOnUse">
<stop stop-color="#C100FF"/>
<stop offset="1" stop-color="#6E00FF"/>
</linearGradient>
<linearGradient id="paint8_linear" x1="51.4546" y1="25.0344" x2="41.8417" y2="33.1486" gradientUnits="userSpaceOnUse">
<stop stop-color="#F532FF"/>
<stop offset="1" stop-color="#A232FF"/>
</linearGradient>
<linearGradient id="paint9_linear" x1="224.602" y1="251.594" x2="227.189" y2="206.997" gradientUnits="userSpaceOnUse">
<stop stop-color="#A9FB00"/>
<stop offset="1" stop-color="#12DE13"/>
</linearGradient>
<linearGradient id="paint10_linear" x1="201.599" y1="217.131" x2="191.642" y2="224.093" gradientUnits="userSpaceOnUse">
<stop stop-color="#D9FF89"/>
<stop offset="1" stop-color="#25FF26"/>
</linearGradient>
<linearGradient id="paint11_linear" x1="122.262" y1="244.588" x2="131.397" y2="294.111" gradientUnits="userSpaceOnUse">
<stop stop-color="#2962FF"/>
<stop offset="1" stop-color="#29FFEE"/>
</linearGradient>
<linearGradient id="paint12_linear" x1="132.768" y1="254.704" x2="125.182" y2="261.071" gradientUnits="userSpaceOnUse">
<stop stop-color="#6D99FE"/>
<stop offset="1" stop-color="#98FFFE"/>
</linearGradient>
<linearGradient id="paint13_linear" x1="16.8646" y1="107.593" x2="41.6565" y2="165.08" gradientUnits="userSpaceOnUse">
<stop stop-color="#FFE71F"/>
<stop offset="1" stop-color="#FF8602"/>
</linearGradient>
<linearGradient id="paint14_linear" x1="25.429" y1="114.822" x2="15.8704" y2="126.573" gradientUnits="userSpaceOnUse">
<stop stop-color="#FFF78C"/>
<stop offset="1" stop-color="#E76008"/>
</linearGradient>
<linearGradient id="paint15_linear" x1="22.6254" y1="106.064" x2="-5.78321" y2="137.706" gradientUnits="userSpaceOnUse">
<stop stop-color="#FFF78C"/>
<stop offset="1" stop-color="#E76008"/>
</linearGradient>
<linearGradient id="paint16_linear" x1="163.564" y1="74.4597" x2="157.584" y2="132.698" gradientUnits="userSpaceOnUse">
<stop stop-color="#E8566A"/>
<stop offset="1" stop-color="#FFC06A"/>
</linearGradient>
<linearGradient id="paint17_linear" x1="190.213" y1="97.7665" x2="190.213" y2="61.0961" gradientUnits="userSpaceOnUse">
<stop stop-color="#E8566A"/>
<stop offset="1" stop-color="#FFC06A"/>
</linearGradient>
<linearGradient id="paint18_linear" x1="187.285" y1="56.1653" x2="187.285" y2="35.3949" gradientUnits="userSpaceOnUse">
<stop stop-color="#E8566A"/>
<stop offset="1" stop-color="#FFC06A"/>
</linearGradient>
<linearGradient id="paint19_linear" x1="123.834" y1="190.686" x2="130.948" y2="194.924" gradientUnits="userSpaceOnUse">
<stop stop-color="white"/>
<stop offset="1" stop-color="#FDE4BE"/>
</linearGradient>
<linearGradient id="paint20_linear" x1="36.9217" y1="291.343" x2="48.96" y2="301.308" gradientUnits="userSpaceOnUse">
<stop stop-color="#AEAEAE"/>
<stop offset="0.21" stop-color="#E0E0E0"/>
<stop offset="0.68" stop-color="#AEAEAE"/>
<stop offset="1" stop-color="#696969"/>
</linearGradient>
</defs>
</svg>
