<svg width="93" height="83" viewBox="0 0 93 83" fill="none" xmlns="http://www.w3.org/2000/svg">
<path opacity="0.5" fill-rule="evenodd" clip-rule="evenodd" d="M4.6128 0C2.07185 0.020097 0.0177064 2.05912 0 4.57883V78.4212C0 80.9482 2.06447 82.9975 4.6128 83H88.3872C90.9281 82.9799 92.9823 80.9409 93 78.4212V4.57883C93 2.05194 90.9354 0 88.3872 0H4.6128ZM27.9 73.7778V9.22222H65.1V73.7778H27.9ZM9.3 9.22222V18.4444H18.6V9.22222H9.3ZM74.4 18.4444V9.22222H83.7V18.4444H74.4ZM9.3 27.6667V36.8889H18.6V27.6667H9.3ZM74.4 36.8889V27.6667H83.7V36.8889H74.4ZM9.3 46.1111V55.3333H18.6V46.1111H9.3ZM74.4 55.3333V46.1111H83.7V55.3333H74.4ZM9.3 64.5556V73.7778H18.6V64.5556H9.3ZM74.4 73.7778V64.5556H83.7V73.7778H74.4Z" fill="#F5F8FC"/>
</svg>
