<svg width="93" height="84" viewBox="0 0 93 84" fill="none" xmlns="http://www.w3.org/2000/svg">
<path opacity="0.5" fill-rule="evenodd" clip-rule="evenodd" d="M13.0572 84L13.1502 83.9068H88.3872C90.9281 83.8865 92.9823 81.8252 93 79.2779V4.62886C93 2.07436 90.9354 0 88.3872 0H4.6128C2.07185 0.0203166 0.0177064 2.08161 0 4.62886V79.2779C0 81.8325 2.06447 83.9042 4.6128 83.9068H12.9595L13.0572 84ZM84 10V56.4286L56.25 28.5714L10 75V10H84ZM85 68.6074L56.7583 41L23 74H85V68.6074ZM18 27.5C18 32.7467 22.2533 37 27.5 37C32.7467 37 37 32.7467 37 27.5C37 22.2533 32.7467 18 27.5 18C22.2533 18 18 22.2533 18 27.5Z" fill="#F5F8FC"/>
</svg>
