<svg width="64" height="64" viewBox="0 0 64 64" fill="none" xmlns="http://www.w3.org/2000/svg">
<path fill-rule="evenodd" clip-rule="evenodd" d="M1.36595 12.8862C2.14272 6.82931 6.82752 2.12595 12.8843 1.34795C18.2564 0.657892 25.1693 0 32 0C38.8412 0 45.7648 0.659913 51.1405 1.35113C57.1848 2.12833 61.8632 6.81605 62.6399 12.8605C63.3343 18.2657 64 25.2161 64 32C64 38.7947 63.3322 45.7564 62.6365 51.1653C61.8608 57.1968 57.1985 61.8777 51.1672 62.6546C45.8171 63.3437 38.9086 64 32 64C25.1021 64 18.2042 63.3458 12.8576 62.6578C6.81386 61.8801 2.14516 57.1835 1.36926 51.1396C0.6715 45.7043 0 38.7262 0 32C0 25.2844 0.669378 18.3178 1.36595 12.8862Z" fill="#77BC52"/>
<mask id="mask0" mask-type="alpha" maskUnits="userSpaceOnUse" x="0" y="0" width="64" height="64">
<path fill-rule="evenodd" clip-rule="evenodd" d="M1.36595 12.8862C2.14272 6.82931 6.82752 2.12595 12.8843 1.34795C18.2564 0.657892 25.1693 0 32 0C38.8412 0 45.7648 0.659913 51.1405 1.35113C57.1848 2.12833 61.8632 6.81605 62.6399 12.8605C63.3343 18.2657 64 25.2161 64 32C64 38.7947 63.3322 45.7564 62.6365 51.1653C61.8608 57.1968 57.1985 61.8777 51.1672 62.6546C45.8171 63.3437 38.9086 64 32 64C25.1021 64 18.2042 63.3458 12.8576 62.6578C6.81386 61.8801 2.14516 57.1835 1.36926 51.1396C0.6715 45.7043 0 38.7262 0 32C0 25.2844 0.669378 18.3178 1.36595 12.8862Z" fill="white"/>
</mask>
<g mask="url(#mask0)">
<path fill-rule="evenodd" clip-rule="evenodd" d="M35.7818 27.6362H45.0909C46.6976 27.6362 48 28.9387 48 30.5453V33.6057C48.0004 33.9859 47.9263 34.3624 47.7818 34.7141L43.28 45.645C43.0554 46.19 42.524 46.5456 41.9345 46.5453H17.4545C16.6512 46.5453 16 45.8941 16 45.0908V30.5453C16 29.742 16.6512 29.0908 17.4545 29.0908H22.5193C22.9918 29.0909 23.435 28.8615 23.7076 28.4755L31.6393 17.2362C31.8465 16.9426 32.2371 16.8444 32.5585 17.005L35.1971 18.3242C36.727 19.089 37.5173 20.8165 37.0953 22.4741L35.7818 27.6362ZM24.7273 31.4006V43.6362H40.96L45.0909 33.6057V30.5453H35.7818C34.884 30.5452 34.0365 30.1305 33.4855 29.4217C32.9345 28.7128 32.7416 27.7893 32.9629 26.9192L34.2764 21.7584C34.3611 21.4267 34.203 21.0809 33.8967 20.9279L32.9353 20.4479L26.0844 30.1526C25.7207 30.6675 25.2553 31.0893 24.7273 31.4006ZM18.9091 31.9999H21.8182V43.6362H18.9091V31.9999Z" fill="white"/>
</g>
</svg>
