<svg width="24" height="22" viewBox="0 0 24 22" fill="none" xmlns="http://www.w3.org/2000/svg">
<path fill-rule="evenodd" clip-rule="evenodd" d="M3.7148 21.199L3.73784 21.176H22.3772C23.0067 21.171 23.5156 20.6616 23.52 20.0321V1.58394C23.52 0.952643 23.0085 0.440002 22.3772 0.440002H1.62276C0.993265 0.445023 0.484367 0.954434 0.47998 1.58394V20.0321C0.47998 20.6634 0.991436 21.1754 1.62276 21.176H3.6906L3.7148 21.199ZM21.216 2.744V14.264L14.304 7.352L2.78398 18.872V2.744H21.216ZM21.216 17.5219L14.304 10.6099L6.04184 18.872H21.216V17.5219ZM5.08798 7.352C5.08798 8.62447 6.11952 9.656 7.39198 9.656C8.66444 9.656 9.69598 8.62447 9.69598 7.352C9.69598 6.07954 8.66444 5.048 7.39198 5.048C6.11952 5.048 5.08798 6.07954 5.08798 7.352Z" fill="white"/>
</svg>
