<svg width="64" height="64" viewBox="0 0 64 64" fill="none" xmlns="http://www.w3.org/2000/svg">
<path fill-rule="evenodd" clip-rule="evenodd" d="M1.36595 12.8862C2.14272 6.82931 6.82752 2.12595 12.8843 1.34795C18.2564 0.657892 25.1693 0 32 0C38.8412 0 45.7648 0.659913 51.1405 1.35113C57.1848 2.12833 61.8632 6.81605 62.6399 12.8605C63.3343 18.2657 64 25.2161 64 32C64 38.7947 63.3322 45.7564 62.6365 51.1653C61.8608 57.1968 57.1985 61.8777 51.1672 62.6546C45.8171 63.3437 38.9086 64 32 64C25.1021 64 18.2042 63.3458 12.8576 62.6578C6.81386 61.8801 2.14516 57.1835 1.36926 51.1396C0.6715 45.7043 0 38.7262 0 32C0 25.2844 0.669378 18.3178 1.36595 12.8862Z" fill="#36BCD7"/>
<mask id="mask0" mask-type="alpha" maskUnits="userSpaceOnUse" x="0" y="0" width="64" height="64">
<path fill-rule="evenodd" clip-rule="evenodd" d="M1.36595 12.8862C2.14272 6.82931 6.82752 2.12595 12.8843 1.34795C18.2564 0.657892 25.1693 0 32 0C38.8412 0 45.7648 0.659913 51.1405 1.35113C57.1848 2.12833 61.8632 6.81605 62.6399 12.8605C63.3343 18.2657 64 25.2161 64 32C64 38.7947 63.3322 45.7564 62.6365 51.1653C61.8608 57.1968 57.1985 61.8777 51.1672 62.6546C45.8171 63.3437 38.9086 64 32 64C25.1021 64 18.2042 63.3458 12.8576 62.6578C6.81386 61.8801 2.14516 57.1835 1.36926 51.1396C0.6715 45.7043 0 38.7262 0 32C0 25.2844 0.669378 18.3178 1.36595 12.8862Z" fill="white"/>
</mask>
<g mask="url(#mask0)">
<path fill-rule="evenodd" clip-rule="evenodd" d="M48 38.6699C47.9985 43.1778 44.8618 47.0778 40.4592 48.0459L39.4384 44.9835C41.3312 44.6718 42.9847 43.528 43.944 41.8667H40C38.2327 41.8667 36.8 40.4341 36.8 38.6667V32.2667C36.8 30.4994 38.2327 29.0667 40 29.0667H44.7008C43.893 22.6673 38.4502 17.8685 32 17.8685C25.5498 17.8685 20.107 22.6673 19.2992 29.0667H24C25.7673 29.0667 27.2 30.4994 27.2 32.2667V38.6667C27.2 40.4341 25.7673 41.8667 24 41.8667H19.2C17.4327 41.8667 16 40.4341 16 38.6667V30.6667C16 21.8299 23.1632 14.6667 32 14.6667C40.8368 14.6667 48 21.8299 48 30.6667V38.6699ZM44.8 38.6667V32.2667H40V38.6667H44.8ZM19.2 38.6667V32.2667H24V38.6667H19.2Z" fill="white"/>
</g>
</svg>
