<svg width="64" height="64" viewBox="0 0 64 64" fill="none" xmlns="http://www.w3.org/2000/svg">
<path fill-rule="evenodd" clip-rule="evenodd" d="M1.36595 12.8862C2.14272 6.82931 6.82752 2.12595 12.8843 1.34795C18.2564 0.657892 25.1693 0 32 0C38.8412 0 45.7648 0.659913 51.1405 1.35113C57.1848 2.12833 61.8632 6.81605 62.6399 12.8605C63.3343 18.2657 64 25.2161 64 32C64 38.7947 63.3322 45.7564 62.6365 51.1653C61.8608 57.1968 57.1985 61.8777 51.1672 62.6546C45.8171 63.3437 38.9086 64 32 64C25.1021 64 18.2042 63.3458 12.8576 62.6578C6.81386 61.8801 2.14516 57.1835 1.36926 51.1396C0.6715 45.7043 0 38.7262 0 32C0 25.2844 0.669378 18.3178 1.36595 12.8862Z" fill="#489BEF"/>
<mask id="mask0" mask-type="alpha" maskUnits="userSpaceOnUse" x="0" y="0" width="64" height="64">
<path fill-rule="evenodd" clip-rule="evenodd" d="M1.36595 12.8862C2.14272 6.82931 6.82752 2.12595 12.8843 1.34795C18.2564 0.657892 25.1693 0 32 0C38.8412 0 45.7648 0.659913 51.1405 1.35113C57.1848 2.12833 61.8632 6.81605 62.6399 12.8605C63.3343 18.2657 64 25.2161 64 32C64 38.7947 63.3322 45.7564 62.6365 51.1653C61.8608 57.1968 57.1985 61.8777 51.1672 62.6546C45.8171 63.3437 38.9086 64 32 64C25.1021 64 18.2042 63.3458 12.8576 62.6578C6.81386 61.8801 2.14516 57.1835 1.36926 51.1396C0.6715 45.7043 0 38.7262 0 32C0 25.2844 0.669378 18.3178 1.36595 12.8862Z" fill="white"/>
</mask>
<g mask="url(#mask0)">
<path fill-rule="evenodd" clip-rule="evenodd" d="M17.392 15.2462L32 12L46.608 15.2462C47.4212 15.427 47.9999 16.1483 48 16.9813V34.736C47.9997 38.3023 46.2172 41.6326 43.2498 43.6107L32 51.1111L20.7502 43.6107C17.7833 41.6329 16.0009 38.3035 16 34.7378V16.9813C16.0001 16.1483 16.5788 15.427 17.392 15.2462ZM19.5556 18.4071V34.736C19.5556 37.1134 20.7437 39.3336 22.7218 40.6524L32 46.8391L41.2782 40.6524C43.2558 39.3339 44.4438 37.1146 44.4444 34.7378V18.4071L32 15.6444L19.5556 18.4071ZM26.7751 36.9689L32 34.2222L37.2231 36.9689L36.2276 31.152L40.4533 27.0311L34.6133 26.1813L32 20.8889L29.3884 26.1813L23.5467 27.0311L27.7724 31.152L26.7751 36.9689Z" fill="white"/>
</g>
</svg>
