<svg width="64" height="64" viewBox="0 0 64 64" fill="none" xmlns="http://www.w3.org/2000/svg">
<path fill-rule="evenodd" clip-rule="evenodd" d="M1.36595 12.8862C2.14272 6.82931 6.82752 2.12595 12.8843 1.34795C18.2564 0.657892 25.1693 0 32 0C38.8412 0 45.7648 0.659913 51.1405 1.35113C57.1848 2.12833 61.8632 6.81605 62.6399 12.8605C63.3343 18.2657 64 25.2161 64 32C64 38.7947 63.3322 45.7564 62.6365 51.1653C61.8608 57.1968 57.1985 61.8777 51.1672 62.6546C45.8171 63.3437 38.9086 64 32 64C25.1021 64 18.2042 63.3458 12.8576 62.6578C6.81386 61.8801 2.14516 57.1835 1.36926 51.1396C0.6715 45.7043 0 38.7262 0 32C0 25.2844 0.669378 18.3178 1.36595 12.8862Z" fill="#EA593D"/>
<mask id="mask0" mask-type="alpha" maskUnits="userSpaceOnUse" x="0" y="0" width="64" height="64">
<path fill-rule="evenodd" clip-rule="evenodd" d="M1.36595 12.8862C2.14272 6.82931 6.82752 2.12595 12.8843 1.34795C18.2564 0.657892 25.1693 0 32 0C38.8412 0 45.7648 0.659913 51.1405 1.35113C57.1848 2.12833 61.8632 6.81605 62.6399 12.8605C63.3343 18.2657 64 25.2161 64 32C64 38.7947 63.3322 45.7564 62.6365 51.1653C61.8608 57.1968 57.1985 61.8777 51.1672 62.6546C45.8171 63.3437 38.9086 64 32 64C25.1021 64 18.2042 63.3458 12.8576 62.6578C6.81386 61.8801 2.14516 57.1835 1.36926 51.1396C0.6715 45.7043 0 38.7262 0 32C0 25.2844 0.669378 18.3178 1.36595 12.8862Z" fill="white"/>
</mask>
<g mask="url(#mask0)">
<path fill-rule="evenodd" clip-rule="evenodd" d="M19.5556 33.3332C19.5556 24.2879 24.7165 16.5581 32.0001 13.4541C39.2836 16.5581 44.4445 24.2879 44.4445 33.3332C44.4445 34.7963 44.3094 36.2239 44.0534 37.6052L47.5023 40.8621C47.7955 41.1396 47.8649 41.5799 47.6712 41.9341L43.2356 50.0674C43.1015 50.3137 42.8591 50.4822 42.5815 50.5221C42.304 50.562 42.0239 50.4686 41.8259 50.2701L37.8543 46.2985C37.521 45.9651 37.0689 45.7778 36.5974 45.7777H27.4027C26.9313 45.7778 26.4792 45.9651 26.1459 46.2985L22.1743 50.2701C21.9762 50.4686 21.6962 50.562 21.4186 50.5221C21.1411 50.4822 20.8986 50.3137 20.7645 50.0674L16.329 41.9341C16.1353 41.5799 16.2047 41.1396 16.4979 40.8621L19.9467 37.6052C19.6925 36.2239 19.5556 34.7963 19.5556 33.3332ZM22.1796 45.2372L23.6321 43.7848C24.632 42.7845 25.9884 42.2224 27.4027 42.2221H36.5974C38.0118 42.2224 39.3681 42.7845 40.3681 43.7848L41.8205 45.2372L43.5663 42.0372L41.6107 40.1883C40.7325 39.3589 40.3355 38.1403 40.5565 36.9528C40.777 35.7723 40.889 34.5617 40.889 33.3332C40.889 26.4532 37.3423 20.3554 32.0001 17.4043C26.6579 20.3554 23.1112 26.4532 23.1112 33.3332C23.1112 34.5617 23.2232 35.7723 23.4436 36.9545C23.6647 38.1421 23.2676 39.3607 22.3894 40.1901L20.4339 42.0372L22.1796 45.2372ZM28.4445 29.7777C28.4445 31.7413 30.0364 33.3332 32.0001 33.3332C33.9638 33.3332 35.5556 31.7413 35.5556 29.7777C35.5556 27.814 33.9638 26.2221 32.0001 26.2221C30.0364 26.2221 28.4445 27.814 28.4445 29.7777Z" fill="white"/>
</g>
</svg>
