<svg width="64" height="64" viewBox="0 0 64 64" fill="none" xmlns="http://www.w3.org/2000/svg">
<path fill-rule="evenodd" clip-rule="evenodd" d="M1.36595 12.8862C2.14272 6.82931 6.82752 2.12595 12.8843 1.34795C18.2564 0.657892 25.1693 0 32 0C38.8412 0 45.7648 0.659913 51.1405 1.35113C57.1848 2.12833 61.8632 6.81605 62.6399 12.8605C63.3343 18.2657 64 25.2161 64 32C64 38.7947 63.3322 45.7564 62.6365 51.1653C61.8608 57.1968 57.1985 61.8777 51.1672 62.6546C45.8171 63.3437 38.9086 64 32 64C25.1021 64 18.2042 63.3458 12.8576 62.6578C6.81386 61.8801 2.14516 57.1835 1.36926 51.1396C0.6715 45.7043 0 38.7262 0 32C0 25.2844 0.669378 18.3178 1.36595 12.8862Z" fill="#F6A327"/>
<mask id="mask0" mask-type="alpha" maskUnits="userSpaceOnUse" x="0" y="0" width="64" height="64">
<path fill-rule="evenodd" clip-rule="evenodd" d="M1.36595 12.8862C2.14272 6.82931 6.82752 2.12595 12.8843 1.34795C18.2564 0.657892 25.1693 0 32 0C38.8412 0 45.7648 0.659913 51.1405 1.35113C57.1848 2.12833 61.8632 6.81605 62.6399 12.8605C63.3343 18.2657 64 25.2161 64 32C64 38.7947 63.3322 45.7564 62.6365 51.1653C61.8608 57.1968 57.1985 61.8777 51.1672 62.6546C45.8171 63.3437 38.9086 64 32 64C25.1021 64 18.2042 63.3458 12.8576 62.6578C6.81386 61.8801 2.14516 57.1835 1.36926 51.1396C0.6715 45.7043 0 38.7262 0 32C0 25.2844 0.669378 18.3178 1.36595 12.8862Z" fill="white"/>
</mask>
<g mask="url(#mask0)">
<path fill-rule="evenodd" clip-rule="evenodd" d="M24 22.4V17.6C24 16.7163 24.7163 16 25.6 16H38.4C39.2837 16 40 16.7163 40 17.6V22.4H46.4C47.2837 22.4 48 23.1163 48 24V46.4C48 47.2837 47.2837 48 46.4 48H17.6C16.7163 48 16 47.2837 16 46.4V24C16 23.1163 16.7163 22.4 17.6 22.4H24ZM27.2 35.2H19.2V44.8H44.8V35.2H36.8V40H27.2V35.2ZM19.2 25.6H44.8V32H36.8V28.8H27.2V32H19.2V25.6ZM30.4 32V36.8H33.6V32H30.4ZM27.2 22.4V19.2H36.8V22.4H27.2Z" fill="white"/>
</g>
</svg>
