<svg width="1225" height="716" viewBox="0 0 1225 716" fill="none" xmlns="http://www.w3.org/2000/svg">
<g opacity="0.07">
<path opacity="0.3" d="M769.387 522.873C783.518 578.875 838.12 621.436 883.97 651.864C961.597 703.783 1060.3 736.524 1151.46 701.335C1239.21 668.915 1305.59 584.12 1342.78 500.192C1353.19 476.548 1362.97 451.839 1369.33 426.28C1387.79 359.4 1415.82 283.143 1370.57 221.197C1314.01 142.859 1197.01 132.702 1134.25 210.255C1099.14 253.08 1050.86 334.246 1012.77 374.516C928.491 462.091 828.234 373.768 776.138 466.648C766.145 484.968 765.102 503.71 769.387 522.873Z" fill="url(#paint0_linear)"/>
<g opacity="0.4">
<path opacity="0.4" d="M854.216 579.67C926.262 624.772 1016.14 620.037 1096.65 616.585C1218.47 610.768 1368.91 486.328 1330.79 312.167C1316.01 244.248 1255.72 231.932 1206.33 252.188C1142.89 277.989 1107.2 355.944 1060.4 409.418C1034.88 439.243 1004.66 458.85 970.158 462.915C934.593 467.62 901.988 453.158 865.151 462.974C842.795 469.161 827.047 481.521 819.841 510.484C811.154 549.031 829.276 563.5 854.216 579.67Z" fill="url(#paint1_linear)"/>
</g>
<g opacity="0.6">
<path opacity="0.6" d="M856.081 590.474C917.989 636.707 999.473 644.338 1072.85 651.759C1184.2 663.21 1331.7 584.025 1313.18 439.901C1306.29 383.829 1251.88 365.736 1205.82 375.996C1145.69 388.183 1106.09 445.347 1058.79 482.473C1032.79 503.17 1003.8 514.06 972.228 513.438C938.955 512.391 911.209 496.415 876.874 499.633C855.548 501.563 840.841 509.674 831.696 531.853C820 560.644 834.734 574.282 856.081 590.474Z" fill="url(#paint2_linear)"/>
</g>
<path opacity="0.3" d="M-9.1333 594.178C1.28622 611.525 13.4423 627.138 29.0716 641.016C83.7774 688.72 161.059 704.333 231.394 693.924C266.126 688.72 310.412 679.179 340.805 661.833C408.532 622.801 484.948 529.126 463.238 446.727C452.818 409.431 418.087 386.879 381.618 386.012C300.864 383.41 151.504 523.055 116.773 386.012C107.225 347.848 94.1969 224.683 26.4635 281.929C-19.5529 320.093 -43 391.216 -43 448.462C-43 497.902 -34.317 550.81 -9.1333 594.178Z" fill="url(#paint3_linear)"/>
<path opacity="0.4" d="M7.93463 611.948C16.6012 626.694 26.1312 639.704 39.1343 650.98C84.2006 690.88 148.34 703.023 206.409 694.349C235.875 689.145 272.275 681.339 297.411 667.46C353.747 635.368 417.017 558.171 398.814 489.649C390.147 459.29 361.544 440.208 331.214 439.341C264.478 436.738 140.537 552.967 112.804 439.341C105 408.115 94.6005 305.765 38.2645 353.47C0.1315 385.563 -18.935 443.677 -18.935 491.383C-19.8049 532.15 -12.0017 575.519 7.93463 611.948Z" fill="url(#paint4_linear)"/>
<path opacity="0.6" d="M-18.4806 614.891C-12.4034 628.796 -4.5907 640.963 5.82187 652.261C41.395 692.238 96.9351 709.62 149.869 707.882C175.9 707.012 208.874 703.536 232.305 693.108C285.239 670.512 348.585 607.938 339.037 546.234C334.702 518.423 311.27 498.435 284.368 494.959C225.363 486.268 120.367 562.746 83.0517 489.744C70.0327 463.672 46.6013 416.742 11.0282 423.694C-58.3954 434.992 -37.5703 571.437 -18.4806 614.891Z" fill="url(#paint5_linear)"/>
<path opacity="0.4" d="M265.742 306.961C296.476 305.209 330.892 285.977 346.246 258.118C358.536 235.83 375.122 211.139 403.36 192.853C430.464 175.01 479.995 154.268 508.001 162.332C557.977 176.428 576.252 216.726 625.984 230.188C685 247.331 790.157 201.292 820.718 148.55C841.573 111.257 834.495 86.2958 822.435 55.2502C794.378 -16.9778 695.748 -109.141 520.427 -58.4022C300.422 5.35638 219.409 96.7011 195.504 193.533C189.088 220.828 203.926 279.238 226.18 296.102C237.188 304.218 251.51 307.394 265.742 306.961Z" fill="url(#paint6_linear)"/>
<path opacity="0.6" d="M305.421 230.987C331.122 229.739 360.099 213.362 372.141 190.453C383.137 171.594 396.165 151.217 420.105 135.343C442.904 119.912 483.6 103.353 507.211 110.207C548.403 121.884 564.217 155.829 605.41 167.506C656.533 181.153 744.892 142.405 769.959 99.1194C787.745 67.4138 781.005 46.7071 770.913 20.7432C747.529 -39.4161 633.63 -73.109 519.233 -37.3586C403.698 -1.16232 277.579 78.5198 258.089 159.732C252.471 182.329 253.129 207.59 271.884 222.164C281.262 229.451 293.709 231.169 305.421 230.987Z" fill="url(#paint7_linear)"/>
</g>
<defs>
<linearGradient id="paint0_linear" x1="1433.47" y1="241.038" x2="890.882" y2="70.373" gradientUnits="userSpaceOnUse">
<stop stop-color="#5F95FF"/>
<stop offset="0.4743" stop-color="#A4C2FF"/>
<stop offset="1" stop-color="#7D72FF"/>
</linearGradient>
<linearGradient id="paint1_linear" x1="1395.03" y1="315.102" x2="975.894" y2="115.165" gradientUnits="userSpaceOnUse">
<stop stop-color="#5F95FF"/>
<stop offset="0.4743" stop-color="#A4C2FF"/>
<stop offset="1" stop-color="#7D72FF"/>
</linearGradient>
<linearGradient id="paint2_linear" x1="1394.74" y1="425.695" x2="1058.74" y2="171.347" gradientUnits="userSpaceOnUse">
<stop stop-color="#5F95FF"/>
<stop offset="0.4743" stop-color="#A4C2FF"/>
<stop offset="1" stop-color="#7D72FF"/>
</linearGradient>
<linearGradient id="paint3_linear" x1="467.305" y1="266.807" x2="-42.6966" y2="266.807" gradientUnits="userSpaceOnUse">
<stop stop-color="#5F95FF"/>
<stop offset="0.4743" stop-color="#A4C2FF"/>
<stop offset="1" stop-color="#7D72FF"/>
</linearGradient>
<linearGradient id="paint4_linear" x1="402.248" y1="340.842" x2="-18.7481" y2="340.842" gradientUnits="userSpaceOnUse">
<stop stop-color="#5F95FF"/>
<stop offset="0.4743" stop-color="#A4C2FF"/>
<stop offset="1" stop-color="#7D72FF"/>
</linearGradient>
<linearGradient id="paint5_linear" x1="340.224" y1="422.875" x2="-36.7703" y2="422.875" gradientUnits="userSpaceOnUse">
<stop stop-color="#5F95FF"/>
<stop offset="0.4743" stop-color="#A4C2FF"/>
<stop offset="1" stop-color="#7D72FF"/>
</linearGradient>
<linearGradient id="paint6_linear" x1="605.394" y1="-172.754" x2="214.578" y2="258.773" gradientUnits="userSpaceOnUse">
<stop stop-color="#5F95FF"/>
<stop offset="0.4743" stop-color="#A4C2FF"/>
<stop offset="1" stop-color="#7D72FF"/>
</linearGradient>
<linearGradient id="paint7_linear" x1="579.113" y1="-138.444" x2="303.996" y2="231.288" gradientUnits="userSpaceOnUse">
<stop stop-color="#5F95FF"/>
<stop offset="0.4743" stop-color="#A4C2FF"/>
<stop offset="1" stop-color="#7D72FF"/>
</linearGradient>
</defs>
</svg>
