<svg width="64" height="64" viewBox="0 0 64 64" fill="none" xmlns="http://www.w3.org/2000/svg">
<path fill-rule="evenodd" clip-rule="evenodd" d="M32 64C14.3264 64 0 49.6736 0 32C0 14.3264 14.3264 0 32 0C49.6736 0 64 14.3264 64 32C64 49.6736 49.6736 64 32 64ZM32 57.6C46.1385 57.6 57.6 46.1385 57.6 32C57.6 17.8615 46.1385 6.4 32 6.4C17.8615 6.4 6.4 17.8615 6.4 32C6.4 46.1385 17.8615 57.6 32 57.6ZM15.232 31.2224L28.8096 44.8L51.4368 22.1728L46.9088 17.648L28.8096 35.7504L19.7568 26.6976L15.232 31.2224Z" fill="#3B83E5"/>
</svg>
