<svg width="16" height="16" viewBox="0 0 16 16" fill="none" xmlns="http://www.w3.org/2000/svg">
<path d="M1.93182 2.78763C5.65082 -1.54037 12.5468 -0.686371 15.1238 4.36963C13.3088 4.37063 10.4678 4.36863 8.92882 4.36963C7.81282 4.36963 7.09182 4.34463 6.31182 4.75563C5.39482 5.23863 4.70182 6.13363 4.46082 7.18563L1.93182 2.78763Z" fill="#F44336"/>
<path d="M5.33881 8.00058C5.33881 9.46758 6.53181 10.6606 7.99781 10.6606C9.46381 10.6606 10.6568 9.46758 10.6568 8.00058C10.6568 6.53358 9.46381 5.34058 7.99781 5.34058C6.53081 5.33958 5.33881 6.53358 5.33881 8.00058Z" fill="#2196F3"/>
<path d="M9.0288 11.4826C7.5368 11.9256 5.7898 11.4346 4.8338 9.78257C4.1038 8.52257 2.1738 5.16157 1.2978 3.63257C-1.7742 8.34057 0.872798 14.7556 6.4488 15.8506L9.0288 11.4826Z" fill="#4CAF50"/>
<path d="M10.4668 5.33962C11.7098 6.49562 11.9808 8.36762 11.1388 9.81862C10.5048 10.9126 8.47978 14.3296 7.49878 15.9836C13.2438 16.3376 17.4318 10.7076 15.5398 5.33862L10.4668 5.33962Z" fill="#FFC107"/>
</svg>
