<svg width="14" height="14" viewBox="0 0 14 14" fill="none" xmlns="http://www.w3.org/2000/svg">
<path fill-rule="evenodd" clip-rule="evenodd" d="M6.9987 13.6666C3.3167 13.6666 0.332031 10.682 0.332031 6.99998C0.332031 3.31798 3.3167 0.333313 6.9987 0.333313C10.6807 0.333313 13.6654 3.31798 13.6654 6.99998C13.6654 10.682 10.6807 13.6666 6.9987 13.6666ZM6.9987 12.3333C9.94422 12.3333 12.332 9.9455 12.332 6.99998C12.332 4.05446 9.94422 1.66665 6.9987 1.66665C4.05318 1.66665 1.66536 4.05446 1.66536 6.99998C1.66536 9.9455 4.05318 12.3333 6.9987 12.3333ZM10.332 6.99998H7.66536V3.66665H6.33203V8.33331H10.332V6.99998Z" fill="#828C9C"/>
</svg>
