<?xml version="1.0" encoding="UTF-8"?>
<svg width="24px" height="16px" viewBox="0 0 24 16" version="1.1" xmlns="http://www.w3.org/2000/svg" xmlns:xlink="http://www.w3.org/1999/xlink">
    <!-- Generator: Sketch 63.1 (92452) - https://sketch.com -->
    <title>Group 7</title>
    <desc>Created with Sketch.</desc>
    <defs>
        <rect id="path-1" x="0" y="0" width="24" height="16" rx="2"></rect>
    </defs>
    <g id="Page-1" stroke="none" stroke-width="1" fill="none" fill-rule="evenodd">
        <g id="8.-Статистика" transform="translate(-28.000000, -965.000000)">
            <g id="Навигация">
                <g id="Язык-интерфейса" transform="translate(28.000000, 965.000000)">
                    <g id="Флаги">
                        <g id="Английский">
                            <g id="Group-7" transform="translate(0.000000, -0.000000)">
                                <mask id="mask-2" fill="white">
                                    <use xlink:href="#path-1"></use>
                                </mask>
                                <g id="Rectangle"></g>
                                <g id="united-states-(1)" mask="url(#mask-2)">
                                    <g transform="translate(0.000000, -0.000000)">
                                        <path d="M23.5402105,15.7064327 L0.413005848,15.7064327 C0.184935673,15.7064327 0,15.5214971 0,15.2934269 L0,0.425918129 C0,0.197847953 0.184935673,0.0129122807 0.413005848,0.0129122807 L23.5402573,0.0129122807 C23.7683275,0.0129122807 23.9532632,0.197847953 23.9532632,0.425918129 L23.9532632,15.2934269 C23.9532632,15.5215439 23.7682807,15.7064327 23.5402105,15.7064327 Z" id="Path" fill="#F5F5F5" fill-rule="nonzero"></path>
                                        <g id="Group" stroke-width="1" fill="none" fill-rule="evenodd">
                                            <path d="M23.9532632,1.22016374 L0,1.22016374 L0,0.425918129 C0,0.197847953 0.184935673,0.0129122807 0.413005848,0.0129122807 L23.5402573,0.0129122807 C23.7683275,0.0129122807 23.9532632,0.197847953 23.9532632,0.425918129 L23.9532632,1.22016374 L23.9532632,1.22016374 Z" id="Path" fill="#FF4B55" fill-rule="nonzero"></path>
                                            <rect id="Rectangle" fill="#FF4B55" fill-rule="nonzero" x="0" y="4.84168421" width="23.9532164" height="1.20720468"></rect>
                                            <rect id="Rectangle" fill="#FF4B55" fill-rule="nonzero" x="0" y="2.42718129" width="23.9532164" height="1.20720468"></rect>
                                            <path d="M23.9532164,8.46329825 L0.413005848,8.46329825 C0.184935673,8.46329825 0,8.27836257 0,8.0502924 L0,7.25604678 L23.9532164,7.25604678 L23.9532164,8.46329825 Z" id="Path" fill="#FF4B55" fill-rule="nonzero"></path>
                                            <rect id="Rectangle" fill="#FF4B55" fill-rule="nonzero" x="0" y="12.085193" width="23.9532164" height="1.20720468"></rect>
                                            <path d="M23.5402105,15.7064327 L0.413005848,15.7064327 C0.184935673,15.7064327 0,15.5214971 0,15.2934269 L0,14.4992281 L23.9532164,14.4992281 L23.9532164,15.2934737 C23.9532164,15.5215439 23.7682807,15.7064327 23.5402105,15.7064327 Z" id="Path" fill="#FF4B55" fill-rule="nonzero"></path>
                                            <rect id="Rectangle" fill="#FF4B55" fill-rule="nonzero" x="0" y="9.67069006" width="23.9532164" height="1.20720468"></rect>
                                        </g>
                                        <path d="M10.7376374,0.0129590643 L0.413005848,0.0129590643 C0.184935673,0.0129590643 0,0.197847953 0,0.425918129 L0,8.05024561 C0,8.27831579 0.184935673,8.46325146 0.413005848,8.46325146 L10.7376842,8.46325146 C10.9657544,8.46325146 11.1506901,8.27831579 11.1506901,8.05024561 L11.1506901,0.425918129 C11.1506901,0.197847953 10.9657076,0.0129590643 10.7376374,0.0129590643 Z" id="Path" fill="#41479B" fill-rule="nonzero"></path>
                                        <g id="Group" stroke-width="1" fill="none" fill-rule="evenodd" transform="translate(0.654971, 0.888889)">
                                            <path d="M0.504748538,0.0719532164 L0.596163743,0.346105263 L0.885146199,0.348304094 C0.922573099,0.348631579 0.93805848,0.396350877 0.907976608,0.418573099 L0.675508772,0.590269006 L0.76271345,0.865777778 C0.774035088,0.901426901 0.733380117,0.930994152 0.702923977,0.909192982 L0.467836257,0.741192982 L0.232748538,0.909239766 C0.202292398,0.930994152 0.161730994,0.901473684 0.172959064,0.865824561 L0.260163743,0.590315789 L0.0276959064,0.418619883 C-0.00238596491,0.396350877 0.0130994152,0.348678363 0.0505263158,0.348350877 L0.339508772,0.346152047 L0.430923977,0.072 C0.44271345,0.0364444444 0.492865497,0.0364444444 0.504748538,0.0719532164 Z" id="Path" fill="#F5F5F5" fill-rule="nonzero"></path>
                                            <path d="M0.504748538,1.50605848 L0.596163743,1.78021053 L0.885146199,1.78240936 C0.922573099,1.78273684 0.93805848,1.83045614 0.907976608,1.85267836 L0.675508772,2.02437427 L0.76271345,2.29988304 C0.774035088,2.33553216 0.733380117,2.36509942 0.702923977,2.34329825 L0.467836257,2.17529825 L0.232748538,2.34334503 C0.202292398,2.36509942 0.161730994,2.33557895 0.172959064,2.29992982 L0.260163743,2.02442105 L0.0276959064,1.85272515 C-0.00238596491,1.83045614 0.0130994152,1.78278363 0.0505263158,1.78245614 L0.339508772,1.78025731 L0.430923977,1.50610526 C0.44271345,1.47059649 0.492865497,1.47059649 0.504748538,1.50605848 Z" id="Path" fill="#F5F5F5" fill-rule="nonzero"></path>
                                            <path d="M0.504748538,2.94016374 L0.596163743,3.21431579 L0.885146199,3.21651462 C0.922573099,3.21684211 0.93805848,3.2645614 0.907976608,3.28678363 L0.675508772,3.45847953 L0.76271345,3.7339883 C0.774035088,3.76963743 0.733380117,3.79920468 0.702923977,3.77740351 L0.467836257,3.60940351 L0.232748538,3.77745029 C0.202292398,3.79920468 0.161730994,3.76968421 0.172959064,3.73403509 L0.260163743,3.45852632 L0.0276959064,3.28683041 C-0.00238596491,3.2645614 0.0130994152,3.21688889 0.0505263158,3.2165614 L0.339508772,3.21436257 L0.430923977,2.94021053 C0.44271345,2.90470175 0.492865497,2.90470175 0.504748538,2.94016374 Z" id="Path" fill="#F5F5F5" fill-rule="nonzero"></path>
                                            <path d="M0.504748538,4.37431579 L0.596163743,4.64846784 L0.885146199,4.65066667 C0.922573099,4.65099415 0.93805848,4.69871345 0.907976608,4.72093567 L0.675508772,4.89263158 L0.76271345,5.16814035 C0.774035088,5.20378947 0.733380117,5.23335673 0.702923977,5.21155556 L0.467836257,5.04355556 L0.232748538,5.21160234 C0.202292398,5.23335673 0.161730994,5.20383626 0.172959064,5.16818713 L0.260163743,4.89267836 L0.0276959064,4.72098246 C-0.00238596491,4.69871345 0.0130994152,4.65104094 0.0505263158,4.65071345 L0.339508772,4.64851462 L0.430923977,4.37436257 C0.44271345,4.33880702 0.492865497,4.33880702 0.504748538,4.37431579 Z" id="Path" fill="#F5F5F5" fill-rule="nonzero"></path>
                                            <path d="M0.504748538,5.80842105 L0.596163743,6.0825731 L0.885146199,6.08477193 C0.922573099,6.08509942 0.93805848,6.13281871 0.907976608,6.15504094 L0.675508772,6.32673684 L0.76271345,6.60224561 C0.774035088,6.63789474 0.733380117,6.66746199 0.702923977,6.64566082 L0.467836257,6.47766082 L0.232748538,6.6457076 C0.202292398,6.66746199 0.161730994,6.63794152 0.172959064,6.6022924 L0.260163743,6.32678363 L0.0276959064,6.15508772 C-0.00238596491,6.13281871 0.0130994152,6.0851462 0.0505263158,6.08481871 L0.339508772,6.08261988 L0.430923977,5.80846784 C0.44271345,5.7728655 0.492865497,5.7728655 0.504748538,5.80842105 Z" id="Path" fill="#F5F5F5" fill-rule="nonzero"></path>
                                            <path d="M1.61787135,0.775064327 L1.70928655,1.04921637 L1.99826901,1.0514152 C2.03569591,1.05174269 2.05118129,1.09946199 2.02109942,1.12168421 L1.78863158,1.29338012 L1.87583626,1.56888889 C1.88715789,1.60453801 1.84650292,1.63410526 1.81604678,1.61230409 L1.58095906,1.44425731 L1.34587135,1.61230409 C1.3154152,1.63405848 1.2748538,1.60453801 1.28608187,1.56888889 L1.37328655,1.29338012 L1.14081871,1.12168421 C1.11073684,1.0994152 1.12622222,1.05174269 1.16364912,1.0514152 L1.45263158,1.04921637 L1.54404678,0.775064327 C1.55578947,0.739602339 1.60603509,0.739602339 1.61787135,0.775064327 Z" id="Path" fill="#F5F5F5" fill-rule="nonzero"></path>
                                            <path d="M1.61787135,2.20921637 L1.70928655,2.48336842 L1.99826901,2.48556725 C2.03569591,2.48589474 2.05118129,2.53361404 2.02109942,2.55583626 L1.78863158,2.72753216 L1.87583626,3.00304094 C1.88715789,3.03869006 1.84650292,3.06825731 1.81604678,3.04645614 L1.58095906,2.87840936 L1.34587135,3.04645614 C1.3154152,3.06821053 1.2748538,3.03873684 1.28608187,3.00304094 L1.37328655,2.72753216 L1.14081871,2.55583626 C1.11073684,2.53356725 1.12622222,2.48589474 1.16364912,2.48556725 L1.45263158,2.48336842 L1.54404678,2.20921637 C1.55578947,2.1737076 1.60603509,2.1737076 1.61787135,2.20921637 Z" id="Path" fill="#F5F5F5" fill-rule="nonzero"></path>
                                            <path d="M1.61787135,3.64332164 L1.70928655,3.91747368 L1.99826901,3.91967251 C2.03569591,3.92 2.05118129,3.9677193 2.02109942,3.98994152 L1.78863158,4.16163743 L1.87583626,4.4371462 C1.88715789,4.47279532 1.84650292,4.50236257 1.81604678,4.4805614 L1.58095906,4.31251462 L1.34587135,4.4805614 C1.3154152,4.50231579 1.2748538,4.47279532 1.28608187,4.4371462 L1.37328655,4.16163743 L1.14081871,3.98994152 C1.11073684,3.96767251 1.12622222,3.92 1.16364912,3.91967251 L1.45263158,3.91747368 L1.54404678,3.64332164 C1.55578947,3.60781287 1.60603509,3.60781287 1.61787135,3.64332164 Z" id="Path" fill="#F5F5F5" fill-rule="nonzero"></path>
                                            <path d="M1.61787135,5.0774269 L1.70928655,5.35157895 L1.99826901,5.35377778 C2.03569591,5.35410526 2.05118129,5.40182456 2.02109942,5.42404678 L1.78863158,5.59574269 L1.87583626,5.87125146 C1.88715789,5.90690058 1.84650292,5.93646784 1.81604678,5.91466667 L1.58095906,5.74661988 L1.34587135,5.91466667 C1.3154152,5.93642105 1.2748538,5.90690058 1.28608187,5.87125146 L1.37328655,5.59574269 L1.14081871,5.42404678 C1.11073684,5.40177778 1.12622222,5.35410526 1.16364912,5.35377778 L1.45263158,5.35157895 L1.54404678,5.0774269 C1.55578947,5.04196491 1.60603509,5.04196491 1.61787135,5.0774269 Z" id="Path" fill="#F5F5F5" fill-rule="nonzero"></path>
                                            <path d="M2.73099415,0.0719532164 L2.82240936,0.346105263 L3.11139181,0.348304094 C3.14881871,0.348631579 3.16430409,0.396350877 3.13422222,0.418573099 L2.90175439,0.590269006 L2.98895906,0.865777778 C3.0002807,0.901426901 2.95962573,0.930994152 2.92916959,0.909192982 L2.69408187,0.741146199 L2.45899415,0.909192982 C2.42853801,0.930947368 2.38797661,0.901426901 2.39920468,0.865777778 L2.48640936,0.590269006 L2.25394152,0.418573099 C2.22385965,0.396304094 2.23934503,0.348631579 2.27677193,0.348304094 L2.56575439,0.346105263 L2.65716959,0.0719532164 C2.66895906,0.0364444444 2.71915789,0.0364444444 2.73099415,0.0719532164 Z" id="Path" fill="#F5F5F5" fill-rule="nonzero"></path>
                                            <path d="M2.73099415,1.50605848 L2.82240936,1.78021053 L3.11139181,1.78240936 C3.14881871,1.78273684 3.16430409,1.83045614 3.13422222,1.85267836 L2.90175439,2.02437427 L2.98895906,2.29988304 C3.0002807,2.33553216 2.95962573,2.36509942 2.92916959,2.34329825 L2.69408187,2.17525146 L2.45899415,2.34329825 C2.42853801,2.36505263 2.38797661,2.33553216 2.39920468,2.29988304 L2.48640936,2.02437427 L2.25394152,1.85267836 C2.22385965,1.83040936 2.23934503,1.78273684 2.27677193,1.78240936 L2.56575439,1.78021053 L2.65716959,1.50605848 C2.66895906,1.47059649 2.71915789,1.47059649 2.73099415,1.50605848 Z" id="Path" fill="#F5F5F5" fill-rule="nonzero"></path>
                                            <path d="M2.73099415,2.94016374 L2.82240936,3.21431579 L3.11139181,3.21651462 C3.14881871,3.21684211 3.16430409,3.2645614 3.13422222,3.28678363 L2.90175439,3.45847953 L2.98895906,3.7339883 C3.0002807,3.76963743 2.95962573,3.79920468 2.92916959,3.77740351 L2.69408187,3.60935673 L2.45899415,3.77740351 C2.42853801,3.79915789 2.38797661,3.76963743 2.39920468,3.7339883 L2.48640936,3.45847953 L2.25394152,3.28678363 C2.22385965,3.26451462 2.23934503,3.21684211 2.27677193,3.21651462 L2.56575439,3.21431579 L2.65716959,2.94016374 C2.66895906,2.90470175 2.71915789,2.90470175 2.73099415,2.94016374 Z" id="Path" fill="#F5F5F5" fill-rule="nonzero"></path>
                                            <path d="M2.73099415,4.37431579 L2.82240936,4.64846784 L3.11139181,4.65066667 C3.14881871,4.65099415 3.16430409,4.69871345 3.13422222,4.72093567 L2.90175439,4.89263158 L2.98895906,5.16814035 C3.0002807,5.20378947 2.95962573,5.23335673 2.92916959,5.21155556 L2.69408187,5.04350877 L2.45899415,5.21155556 C2.42853801,5.23330994 2.38797661,5.20378947 2.39920468,5.16814035 L2.48640936,4.89263158 L2.25394152,4.72093567 C2.22385965,4.69866667 2.23934503,4.65099415 2.27677193,4.65066667 L2.56575439,4.64846784 L2.65716959,4.37431579 C2.66895906,4.33880702 2.71915789,4.33880702 2.73099415,4.37431579 Z" id="Path" fill="#F5F5F5" fill-rule="nonzero"></path>
                                            <path d="M2.73099415,5.80842105 L2.82240936,6.0825731 L3.11139181,6.08477193 C3.14881871,6.08509942 3.16430409,6.13281871 3.13422222,6.15504094 L2.90175439,6.32673684 L2.98895906,6.60224561 C3.0002807,6.63789474 2.95962573,6.66746199 2.92916959,6.64566082 L2.69408187,6.47761404 L2.45899415,6.64566082 C2.42853801,6.6674152 2.38797661,6.63789474 2.39920468,6.60224561 L2.48640936,6.32673684 L2.25394152,6.15504094 C2.22385965,6.13277193 2.23934503,6.08509942 2.27677193,6.08477193 L2.56575439,6.0825731 L2.65716959,5.80842105 C2.66895906,5.7728655 2.71915789,5.7728655 2.73099415,5.80842105 Z" id="Path" fill="#F5F5F5" fill-rule="nonzero"></path>
                                            <path d="M3.84416374,0.775064327 L3.93557895,1.04921637 L4.2245614,1.0514152 C4.2619883,1.05174269 4.27747368,1.09946199 4.24739181,1.12168421 L4.01492398,1.29338012 L4.10212865,1.56888889 C4.11345029,1.60453801 4.07279532,1.63410526 4.04233918,1.61230409 L3.80725146,1.44425731 L3.57216374,1.61230409 C3.5417076,1.63405848 3.5011462,1.60453801 3.51237427,1.56888889 L3.59957895,1.29338012 L3.36711111,1.12168421 C3.33702924,1.0994152 3.35251462,1.05174269 3.38994152,1.0514152 L3.67892398,1.04921637 L3.77033918,0.775064327 C3.78208187,0.739602339 3.83232749,0.739602339 3.84416374,0.775064327 Z" id="Path" fill="#F5F5F5" fill-rule="nonzero"></path>
                                            <path d="M3.84416374,2.20921637 L3.93557895,2.48336842 L4.2245614,2.48556725 C4.2619883,2.48589474 4.27747368,2.53361404 4.24739181,2.55583626 L4.01492398,2.72753216 L4.10212865,3.00304094 C4.11345029,3.03869006 4.07279532,3.06825731 4.04233918,3.04645614 L3.80725146,2.87840936 L3.57216374,3.04645614 C3.5417076,3.06821053 3.5011462,3.03873684 3.51237427,3.00304094 L3.59957895,2.72753216 L3.36711111,2.55583626 C3.33702924,2.53356725 3.35251462,2.48589474 3.38994152,2.48556725 L3.67892398,2.48336842 L3.77033918,2.20921637 C3.78208187,2.1737076 3.83232749,2.1737076 3.84416374,2.20921637 Z" id="Path" fill="#F5F5F5" fill-rule="nonzero"></path>
                                            <path d="M3.84416374,3.64332164 L3.93557895,3.91747368 L4.2245614,3.91967251 C4.2619883,3.92 4.27747368,3.9677193 4.24739181,3.98994152 L4.01492398,4.16163743 L4.10212865,4.4371462 C4.11345029,4.47279532 4.07279532,4.50236257 4.04233918,4.4805614 L3.80725146,4.31251462 L3.57216374,4.4805614 C3.5417076,4.50231579 3.5011462,4.47279532 3.51237427,4.4371462 L3.59957895,4.16163743 L3.36711111,3.98994152 C3.33702924,3.96767251 3.35251462,3.92 3.38994152,3.91967251 L3.67892398,3.91747368 L3.77033918,3.64332164 C3.78208187,3.60781287 3.83232749,3.60781287 3.84416374,3.64332164 Z" id="Path" fill="#F5F5F5" fill-rule="nonzero"></path>
                                            <path d="M3.84416374,5.0774269 L3.93557895,5.35157895 L4.2245614,5.35377778 C4.2619883,5.35410526 4.27747368,5.40182456 4.24739181,5.42404678 L4.01492398,5.59574269 L4.10212865,5.87125146 C4.11345029,5.90690058 4.07279532,5.93646784 4.04233918,5.91466667 L3.80725146,5.74661988 L3.57216374,5.91466667 C3.5417076,5.93642105 3.5011462,5.90690058 3.51237427,5.87125146 L3.59957895,5.59574269 L3.36711111,5.42404678 C3.33702924,5.40177778 3.35251462,5.35410526 3.38994152,5.35377778 L3.67892398,5.35157895 L3.77033918,5.0774269 C3.78208187,5.04196491 3.83232749,5.04196491 3.84416374,5.0774269 Z" id="Path" fill="#F5F5F5" fill-rule="nonzero"></path>
                                            <path d="M4.95728655,0.0719532164 L5.04870175,0.346105263 L5.33768421,0.348304094 C5.37511111,0.348631579 5.39059649,0.396350877 5.36051462,0.418573099 L5.12804678,0.590269006 L5.21525146,0.865777778 C5.2265731,0.901426901 5.18591813,0.930994152 5.15546199,0.909192982 L4.92032749,0.741146199 L4.68523977,0.909192982 C4.65478363,0.930947368 4.61422222,0.901426901 4.62545029,0.865777778 L4.71265497,0.590269006 L4.48018713,0.418573099 C4.45010526,0.396304094 4.46559064,0.348631579 4.50301754,0.348304094 L4.792,0.346105263 L4.8834152,0.0719532164 C4.89525146,0.0364444444 4.94545029,0.0364444444 4.95728655,0.0719532164 Z" id="Path" fill="#F5F5F5" fill-rule="nonzero"></path>
                                            <path d="M4.95728655,1.50605848 L5.04870175,1.78021053 L5.33768421,1.78240936 C5.37511111,1.78273684 5.39059649,1.83045614 5.36051462,1.85267836 L5.12804678,2.02437427 L5.21525146,2.29988304 C5.2265731,2.33553216 5.18591813,2.36509942 5.15546199,2.34329825 L4.92032749,2.17525146 L4.68523977,2.34329825 C4.65478363,2.36505263 4.61422222,2.33553216 4.62545029,2.29988304 L4.71265497,2.02437427 L4.48018713,1.85267836 C4.45010526,1.83040936 4.46559064,1.78273684 4.50301754,1.78240936 L4.792,1.78021053 L4.8834152,1.50605848 C4.89525146,1.47059649 4.94545029,1.47059649 4.95728655,1.50605848 Z" id="Path" fill="#F5F5F5" fill-rule="nonzero"></path>
                                            <path d="M4.95728655,2.94016374 L5.04870175,3.21431579 L5.33768421,3.21651462 C5.37511111,3.21684211 5.39059649,3.2645614 5.36051462,3.28678363 L5.12804678,3.45847953 L5.21525146,3.7339883 C5.2265731,3.76963743 5.18591813,3.79920468 5.15546199,3.77740351 L4.92032749,3.60935673 L4.68523977,3.77740351 C4.65478363,3.79915789 4.61422222,3.76963743 4.62545029,3.7339883 L4.71265497,3.45847953 L4.48018713,3.28678363 C4.45010526,3.26451462 4.46559064,3.21684211 4.50301754,3.21651462 L4.792,3.21431579 L4.8834152,2.94016374 C4.89525146,2.90470175 4.94545029,2.90470175 4.95728655,2.94016374 Z" id="Path" fill="#F5F5F5" fill-rule="nonzero"></path>
                                            <path d="M4.95728655,4.37431579 L5.04870175,4.64846784 L5.33768421,4.65066667 C5.37511111,4.65099415 5.39059649,4.69871345 5.36051462,4.72093567 L5.12804678,4.89263158 L5.21525146,5.16814035 C5.2265731,5.20378947 5.18591813,5.23335673 5.15546199,5.21155556 L4.92032749,5.04350877 L4.68523977,5.21155556 C4.65478363,5.23330994 4.61422222,5.20378947 4.62545029,5.16814035 L4.71265497,4.89263158 L4.48018713,4.72093567 C4.45010526,4.69866667 4.46559064,4.65099415 4.50301754,4.65066667 L4.792,4.64846784 L4.8834152,4.37431579 C4.89525146,4.33880702 4.94545029,4.33880702 4.95728655,4.37431579 Z" id="Path" fill="#F5F5F5" fill-rule="nonzero"></path>
                                            <path d="M4.95728655,5.80842105 L5.04870175,6.0825731 L5.33768421,6.08477193 C5.37511111,6.08509942 5.39059649,6.13281871 5.36051462,6.15504094 L5.12804678,6.32673684 L5.21525146,6.60224561 C5.2265731,6.63789474 5.18591813,6.66746199 5.15546199,6.64566082 L4.92032749,6.47761404 L4.68523977,6.64566082 C4.65478363,6.6674152 4.61422222,6.63789474 4.62545029,6.60224561 L4.71265497,6.32673684 L4.48018713,6.15504094 C4.45010526,6.13277193 4.46559064,6.08509942 4.50301754,6.08477193 L4.792,6.0825731 L4.8834152,5.80842105 C4.89525146,5.7728655 4.94545029,5.7728655 4.95728655,5.80842105 Z" id="Path" fill="#F5F5F5" fill-rule="nonzero"></path>
                                            <path d="M6.07040936,0.775064327 L6.16182456,1.04921637 L6.45080702,1.0514152 C6.48823392,1.05174269 6.5037193,1.09946199 6.47363743,1.12168421 L6.24116959,1.29338012 L6.32837427,1.56888889 C6.33969591,1.60453801 6.29904094,1.63410526 6.2685848,1.61230409 L6.03349708,1.44425731 L5.79840936,1.61230409 C5.76795322,1.63405848 5.72739181,1.60453801 5.73861988,1.56888889 L5.82582456,1.29338012 L5.59335673,1.12168421 C5.56327485,1.0994152 5.57876023,1.05174269 5.61618713,1.0514152 L5.90516959,1.04921637 L5.9965848,0.775064327 C6.00842105,0.739602339 6.0585731,0.739602339 6.07040936,0.775064327 Z" id="Path" fill="#F5F5F5" fill-rule="nonzero"></path>
                                            <path d="M6.07040936,2.20921637 L6.16182456,2.48336842 L6.45080702,2.48556725 C6.48823392,2.48589474 6.5037193,2.53361404 6.47363743,2.55583626 L6.24116959,2.72753216 L6.32837427,3.00304094 C6.33969591,3.03869006 6.29904094,3.06825731 6.2685848,3.04645614 L6.03349708,2.87840936 L5.79840936,3.04645614 C5.76795322,3.06821053 5.72739181,3.03873684 5.73861988,3.00304094 L5.82582456,2.72753216 L5.59335673,2.55583626 C5.56327485,2.53356725 5.57876023,2.48589474 5.61618713,2.48556725 L5.90516959,2.48336842 L5.9965848,2.20921637 C6.00842105,2.1737076 6.0585731,2.1737076 6.07040936,2.20921637 Z" id="Path" fill="#F5F5F5" fill-rule="nonzero"></path>
                                            <path d="M6.07040936,3.64332164 L6.16182456,3.91747368 L6.45080702,3.91967251 C6.48823392,3.92 6.5037193,3.9677193 6.47363743,3.98994152 L6.24116959,4.16163743 L6.32837427,4.4371462 C6.33969591,4.47279532 6.29904094,4.50236257 6.2685848,4.4805614 L6.03349708,4.31251462 L5.79840936,4.4805614 C5.76795322,4.50231579 5.72739181,4.47279532 5.73861988,4.4371462 L5.82582456,4.16163743 L5.59335673,3.98994152 C5.56327485,3.96767251 5.57876023,3.92 5.61618713,3.91967251 L5.90516959,3.91747368 L5.9965848,3.64332164 C6.00842105,3.60781287 6.0585731,3.60781287 6.07040936,3.64332164 Z" id="Path" fill="#F5F5F5" fill-rule="nonzero"></path>
                                            <path d="M6.07040936,5.0774269 L6.16182456,5.35157895 L6.45080702,5.35377778 C6.48823392,5.35410526 6.5037193,5.40182456 6.47363743,5.42404678 L6.24116959,5.59574269 L6.32837427,5.87125146 C6.33969591,5.90690058 6.29904094,5.93646784 6.2685848,5.91466667 L6.03349708,5.74661988 L5.79840936,5.91466667 C5.76795322,5.93642105 5.72739181,5.90690058 5.73861988,5.87125146 L5.82582456,5.59574269 L5.59335673,5.42404678 C5.56327485,5.40177778 5.57876023,5.35410526 5.61618713,5.35377778 L5.90516959,5.35157895 L5.9965848,5.0774269 C6.00842105,5.04196491 6.0585731,5.04196491 6.07040936,5.0774269 Z" id="Path" fill="#F5F5F5" fill-rule="nonzero"></path>
                                            <path d="M7.18357895,0.0719532164 L7.27499415,0.346105263 L7.56397661,0.348304094 C7.60140351,0.348631579 7.61688889,0.396350877 7.58680702,0.418573099 L7.35433918,0.590269006 L7.44154386,0.865777778 C7.4528655,0.901426901 7.41221053,0.930994152 7.38175439,0.909192982 L7.14666667,0.741146199 L6.91157895,0.909192982 C6.88112281,0.930947368 6.8405614,0.901426901 6.85178947,0.865777778 L6.93899415,0.590269006 L6.70652632,0.418573099 C6.67644444,0.396304094 6.69192982,0.348631579 6.72935673,0.348304094 L7.01833918,0.346105263 L7.10975439,0.0719532164 C7.12149708,0.0364444444 7.17174269,0.0364444444 7.18357895,0.0719532164 Z" id="Path" fill="#F5F5F5" fill-rule="nonzero"></path>
                                            <path d="M7.18357895,1.50605848 L7.27499415,1.78021053 L7.56397661,1.78240936 C7.60140351,1.78273684 7.61688889,1.83045614 7.58680702,1.85267836 L7.35433918,2.02437427 L7.44154386,2.29988304 C7.4528655,2.33553216 7.41221053,2.36509942 7.38175439,2.34329825 L7.14666667,2.17525146 L6.91157895,2.34329825 C6.88112281,2.36505263 6.8405614,2.33553216 6.85178947,2.29988304 L6.93899415,2.02437427 L6.70652632,1.85267836 C6.67644444,1.83040936 6.69192982,1.78273684 6.72935673,1.78240936 L7.01833918,1.78021053 L7.10975439,1.50605848 C7.12149708,1.47059649 7.17174269,1.47059649 7.18357895,1.50605848 Z" id="Path" fill="#F5F5F5" fill-rule="nonzero"></path>
                                            <path d="M7.18357895,2.94016374 L7.27499415,3.21431579 L7.56397661,3.21651462 C7.60140351,3.21684211 7.61688889,3.2645614 7.58680702,3.28678363 L7.35433918,3.45847953 L7.44154386,3.7339883 C7.4528655,3.76963743 7.41221053,3.79920468 7.38175439,3.77740351 L7.14666667,3.60935673 L6.91157895,3.77740351 C6.88112281,3.79915789 6.8405614,3.76963743 6.85178947,3.7339883 L6.93899415,3.45847953 L6.70652632,3.28678363 C6.67644444,3.26451462 6.69192982,3.21684211 6.72935673,3.21651462 L7.01833918,3.21431579 L7.10975439,2.94016374 C7.12149708,2.90470175 7.17174269,2.90470175 7.18357895,2.94016374 Z" id="Path" fill="#F5F5F5" fill-rule="nonzero"></path>
                                            <path d="M7.18357895,4.37431579 L7.27499415,4.64846784 L7.56397661,4.65066667 C7.60140351,4.65099415 7.61688889,4.69871345 7.58680702,4.72093567 L7.35433918,4.89263158 L7.44154386,5.16814035 C7.4528655,5.20378947 7.41221053,5.23335673 7.38175439,5.21155556 L7.14666667,5.04350877 L6.91157895,5.21155556 C6.88112281,5.23330994 6.8405614,5.20378947 6.85178947,5.16814035 L6.93899415,4.89263158 L6.70652632,4.72093567 C6.67644444,4.69866667 6.69192982,4.65099415 6.72935673,4.65066667 L7.01833918,4.64846784 L7.10975439,4.37431579 C7.12149708,4.33880702 7.17174269,4.33880702 7.18357895,4.37431579 Z" id="Path" fill="#F5F5F5" fill-rule="nonzero"></path>
                                            <path d="M7.18357895,5.80842105 L7.27499415,6.0825731 L7.56397661,6.08477193 C7.60140351,6.08509942 7.61688889,6.13281871 7.58680702,6.15504094 L7.35433918,6.32673684 L7.44154386,6.60224561 C7.4528655,6.63789474 7.41221053,6.66746199 7.38175439,6.64566082 L7.14666667,6.47761404 L6.91157895,6.64566082 C6.88112281,6.6674152 6.8405614,6.63789474 6.85178947,6.60224561 L6.93899415,6.32673684 L6.70652632,6.15504094 C6.67644444,6.13277193 6.69192982,6.08509942 6.72935673,6.08477193 L7.01833918,6.0825731 L7.10975439,5.80842105 C7.12149708,5.7728655 7.17174269,5.7728655 7.18357895,5.80842105 Z" id="Path" fill="#F5F5F5" fill-rule="nonzero"></path>
                                            <path d="M8.29670175,0.775064327 L8.38811696,1.04921637 L8.67709942,1.0514152 C8.71452632,1.05174269 8.7300117,1.09946199 8.69992982,1.12168421 L8.46746199,1.29338012 L8.55466667,1.56888889 C8.5659883,1.60453801 8.52533333,1.63410526 8.49487719,1.61230409 L8.25978947,1.44425731 L8.02470175,1.61230409 C7.99424561,1.63405848 7.95368421,1.60453801 7.96491228,1.56888889 L8.05211696,1.29338012 L7.81964912,1.12168421 C7.78956725,1.0994152 7.80505263,1.05174269 7.84247953,1.0514152 L8.13146199,1.04921637 L8.22287719,0.775064327 C8.23466667,0.739602339 8.28491228,0.739602339 8.29670175,0.775064327 Z" id="Path" fill="#F5F5F5" fill-rule="nonzero"></path>
                                            <path d="M8.29670175,2.20921637 L8.38811696,2.48336842 L8.67709942,2.48556725 C8.71452632,2.48589474 8.7300117,2.53361404 8.69992982,2.55583626 L8.46746199,2.72753216 L8.55466667,3.00304094 C8.5659883,3.03869006 8.52533333,3.06825731 8.49487719,3.04645614 L8.25978947,2.87840936 L8.02470175,3.04645614 C7.99424561,3.06821053 7.95368421,3.03873684 7.96491228,3.00304094 L8.05211696,2.72753216 L7.81964912,2.55583626 C7.78956725,2.53356725 7.80505263,2.48589474 7.84247953,2.48556725 L8.13146199,2.48336842 L8.22287719,2.20921637 C8.23466667,2.1737076 8.28491228,2.1737076 8.29670175,2.20921637 Z" id="Path" fill="#F5F5F5" fill-rule="nonzero"></path>
                                            <path d="M8.29670175,3.64332164 L8.38811696,3.91747368 L8.67709942,3.91967251 C8.71452632,3.92 8.7300117,3.9677193 8.69992982,3.98994152 L8.46746199,4.16163743 L8.55466667,4.4371462 C8.5659883,4.47279532 8.52533333,4.50236257 8.49487719,4.4805614 L8.25978947,4.31251462 L8.02470175,4.4805614 C7.99424561,4.50231579 7.95368421,4.47279532 7.96491228,4.4371462 L8.05211696,4.16163743 L7.81964912,3.98994152 C7.78956725,3.96767251 7.80505263,3.92 7.84247953,3.91967251 L8.13146199,3.91747368 L8.22287719,3.64332164 C8.23466667,3.60781287 8.28491228,3.60781287 8.29670175,3.64332164 Z" id="Path" fill="#F5F5F5" fill-rule="nonzero"></path>
                                            <path d="M8.29670175,5.0774269 L8.38811696,5.35157895 L8.67709942,5.35377778 C8.71452632,5.35410526 8.7300117,5.40182456 8.69992982,5.42404678 L8.46746199,5.59574269 L8.55466667,5.87125146 C8.5659883,5.90690058 8.52533333,5.93646784 8.49487719,5.91466667 L8.25978947,5.74661988 L8.02470175,5.91466667 C7.99424561,5.93642105 7.95368421,5.90690058 7.96491228,5.87125146 L8.05211696,5.59574269 L7.81964912,5.42404678 C7.78956725,5.40177778 7.80505263,5.35410526 7.84247953,5.35377778 L8.13146199,5.35157895 L8.22287719,5.0774269 C8.23466667,5.04196491 8.28491228,5.04196491 8.29670175,5.0774269 Z" id="Path" fill="#F5F5F5" fill-rule="nonzero"></path>
                                            <path d="M9.40987135,0.0719532164 L9.50128655,0.346105263 L9.79026901,0.348304094 C9.82769591,0.348631579 9.84318129,0.396350877 9.81309942,0.418573099 L9.58063158,0.590269006 L9.66783626,0.865777778 C9.67915789,0.901426901 9.63850292,0.930994152 9.60804678,0.909192982 L9.37295906,0.741146199 L9.13787135,0.909192982 C9.1074152,0.930947368 9.0668538,0.901426901 9.07808187,0.865777778 L9.16528655,0.590269006 L8.93281871,0.418573099 C8.90273684,0.396304094 8.91822222,0.348631579 8.95564912,0.348304094 L9.24463158,0.346105263 L9.33604678,0.0719532164 C9.34783626,0.0364444444 9.3979883,0.0364444444 9.40987135,0.0719532164 Z" id="Path" fill="#F5F5F5" fill-rule="nonzero"></path>
                                            <path d="M9.40987135,1.50605848 L9.50128655,1.78021053 L9.79026901,1.78240936 C9.82769591,1.78273684 9.84318129,1.83045614 9.81309942,1.85267836 L9.58063158,2.02437427 L9.66783626,2.29988304 C9.67915789,2.33553216 9.63850292,2.36509942 9.60804678,2.34329825 L9.37295906,2.17525146 L9.13787135,2.34329825 C9.1074152,2.36505263 9.0668538,2.33553216 9.07808187,2.29988304 L9.16528655,2.02437427 L8.93281871,1.85267836 C8.90273684,1.83040936 8.91822222,1.78273684 8.95564912,1.78240936 L9.24463158,1.78021053 L9.33604678,1.50605848 C9.34783626,1.47059649 9.3979883,1.47059649 9.40987135,1.50605848 Z" id="Path" fill="#F5F5F5" fill-rule="nonzero"></path>
                                            <path d="M9.40987135,2.94016374 L9.50128655,3.21431579 L9.79026901,3.21651462 C9.82769591,3.21684211 9.84318129,3.2645614 9.81309942,3.28678363 L9.58063158,3.45847953 L9.66783626,3.7339883 C9.67915789,3.76963743 9.63850292,3.79920468 9.60804678,3.77740351 L9.37295906,3.60935673 L9.13787135,3.77740351 C9.1074152,3.79915789 9.0668538,3.76963743 9.07808187,3.7339883 L9.16528655,3.45847953 L8.93281871,3.28678363 C8.90273684,3.26451462 8.91822222,3.21684211 8.95564912,3.21651462 L9.24463158,3.21431579 L9.33604678,2.94016374 C9.34783626,2.90470175 9.3979883,2.90470175 9.40987135,2.94016374 Z" id="Path" fill="#F5F5F5" fill-rule="nonzero"></path>
                                            <path d="M9.40987135,4.37431579 L9.50128655,4.64846784 L9.79026901,4.65066667 C9.82769591,4.65099415 9.84318129,4.69871345 9.81309942,4.72093567 L9.58063158,4.89263158 L9.66783626,5.16814035 C9.67915789,5.20378947 9.63850292,5.23335673 9.60804678,5.21155556 L9.37295906,5.04350877 L9.13787135,5.21155556 C9.1074152,5.23330994 9.0668538,5.20378947 9.07808187,5.16814035 L9.16528655,4.89263158 L8.93281871,4.72093567 C8.90273684,4.69866667 8.91822222,4.65099415 8.95564912,4.65066667 L9.24463158,4.64846784 L9.33604678,4.37431579 C9.34783626,4.33880702 9.3979883,4.33880702 9.40987135,4.37431579 Z" id="Path" fill="#F5F5F5" fill-rule="nonzero"></path>
                                            <path d="M9.40987135,5.80842105 L9.50128655,6.0825731 L9.79026901,6.08477193 C9.82769591,6.08509942 9.84318129,6.13281871 9.81309942,6.15504094 L9.58063158,6.32673684 L9.66783626,6.60224561 C9.67915789,6.63789474 9.63850292,6.66746199 9.60804678,6.64566082 L9.37295906,6.47761404 L9.13787135,6.64566082 C9.1074152,6.6674152 9.0668538,6.63789474 9.07808187,6.60224561 L9.16528655,6.32673684 L8.93281871,6.15504094 C8.90273684,6.13277193 8.91822222,6.08509942 8.95564912,6.08477193 L9.24463158,6.0825731 L9.33604678,5.80842105 C9.34783626,5.7728655 9.3979883,5.7728655 9.40987135,5.80842105 Z" id="Path" fill="#F5F5F5" fill-rule="nonzero"></path>
                                        </g>
                                    </g>
                                </g>
                            </g>
                        </g>
                    </g>
                </g>
            </g>
        </g>
    </g>
</svg>