<svg width="40" height="32" viewBox="0 0 40 32" fill="none" xmlns="http://www.w3.org/2000/svg">
<path fill-rule="evenodd" clip-rule="evenodd" d="M39.2337 16C37.5608 6.89778 29.5857 0 19.9999 0C10.4141 0 2.43722 6.89778 0.766113 16C2.439 25.1022 10.4141 32 19.9999 32C29.5857 32 37.5626 25.1022 39.2337 16ZM35.6034 16C33.9409 23.2794 27.4668 28.4428 19.9999 28.4444C12.533 28.4428 6.05887 23.2794 4.39634 16C6.06493 8.72657 12.5375 3.57072 19.9999 3.57072C27.4623 3.57072 33.9349 8.72657 35.6034 16ZM19.9999 24C15.5816 24 11.9999 20.4183 11.9999 16C11.9999 11.5817 15.5816 8 19.9999 8C24.4182 8 27.9999 11.5817 27.9999 16C27.9999 20.4183 24.4182 24 19.9999 24ZM24.4443 16C24.4443 18.4546 22.4545 20.4444 19.9999 20.4444C17.5453 20.4444 15.5554 18.4546 15.5554 16C15.5554 13.5454 17.5453 11.5556 19.9999 11.5556C22.4545 11.5556 24.4443 13.5454 24.4443 16Z" fill="#3B83E5"/>
</svg>
