<svg width="44" height="36" viewBox="0 0 44 36" fill="none" xmlns="http://www.w3.org/2000/svg">
<path fill-rule="evenodd" clip-rule="evenodd" d="M43.6393 18C41.7573 7.76 32.7853 0 22.0013 0C11.2173 0 2.24328 7.76 0.363281 18C2.24528 28.24 11.2173 36 22.0013 36C32.7853 36 41.7593 28.24 43.6393 18ZM39.5553 18C37.6849 26.1894 30.4015 31.9982 22.0013 32C13.601 31.9982 6.31763 26.1894 4.44728 18C6.32445 9.8174 13.6061 4.01706 22.0013 4.01706C30.3964 4.01706 37.6781 9.8174 39.5553 18ZM22.0013 27C17.0307 27 13.0013 22.9706 13.0013 18C13.0013 13.0294 17.0307 9 22.0013 9C26.9718 9 31.0013 13.0294 31.0013 18C31.0013 22.9706 26.9718 27 22.0013 27ZM27.0013 18C27.0013 20.7614 24.7627 23 22.0013 23C19.2399 23 17.0013 20.7614 17.0013 18C17.0013 15.2386 19.2399 13 22.0013 13C24.7627 13 27.0013 15.2386 27.0013 18Z" fill="#3F8EFA"/>
</svg>
