<svg width="32" height="29" viewBox="0 0 32 29" fill="none" xmlns="http://www.w3.org/2000/svg">
<path fill-rule="evenodd" clip-rule="evenodd" d="M1.5872 0C0.712896 0.00697343 0.00609252 0.714489 0 1.5888V27.2112C0 28.088 0.710355 28.7991 1.5872 28.8H30.4128C31.2871 28.793 31.9939 28.0855 32 27.2112V1.5888C32 0.712 31.2896 0 30.4128 0H1.5872ZM9.6 25.6V3.2H22.4V25.6H9.6ZM3.2 3.2V6.4H6.4V3.2H3.2ZM25.6 6.4V3.2H28.8V6.4H25.6ZM3.2 9.6V12.8H6.4V9.6H3.2ZM25.6 12.8V9.6H28.8V12.8H25.6ZM3.2 16V19.2H6.4V16H3.2ZM25.6 19.2V16H28.8V19.2H25.6ZM3.2 22.4V25.6H6.4V22.4H3.2ZM25.6 25.6V22.4H28.8V25.6H25.6Z" fill="#ACB1C1"/>
</svg>
