<svg width="16" height="17" viewBox="0 0 16 17" fill="none" xmlns="http://www.w3.org/2000/svg">
<path fill-rule="evenodd" clip-rule="evenodd" d="M13.711 3.49065C14.2597 3.77434 14.9604 4.67178 15.3058 5.50296C15.808 6.77036 15.9853 8.14321 15.8215 9.4966C15.8185 9.52277 15.8156 9.54881 15.8127 9.57476C15.804 9.65156 15.7954 9.72764 15.7854 9.80429C15.084 13.871 11.3878 16.725 7.27587 16.3748C3.16399 16.0246 0.00361341 12.5866 0 8.45988V8.41885C0.0163105 8.05087 0.0594334 7.68457 0.129026 7.32285C0.129237 7.32081 0.129521 7.31882 0.129802 7.31684C0.130341 7.31306 0.130872 7.30933 0.130872 7.30542C0.140103 7.22932 0.194051 6.87896 0.209026 6.80901L0.219692 6.7565C0.412697 5.891 0.775229 5.0723 1.28636 4.34767V4.34788C1.50876 4.03042 1.75735 3.73215 2.02954 3.45619C2.2684 3.21181 2.52842 2.98906 2.80656 2.79055C2.88981 2.73432 2.97879 2.68708 3.072 2.64962C3.05395 2.9247 3.0318 4.24162 3.34687 4.64101H3.35056C3.87923 4.02091 4.53086 3.5173 5.2642 3.16203C5.09769 3.8001 5.10541 4.47115 5.28656 5.10521C5.3577 5.1533 5.42618 5.2052 5.49169 5.2607C6.11967 4.76611 6.88211 4.47224 7.67959 4.41742C7.74195 3.33475 8.41949 1.17024 10.4164 0.0010081L10.4133 0.00634144C10.4142 0.00594917 10.4153 0.0053225 10.4163 0.00473037C10.4174 0.00408392 10.4184 0.00347864 10.4191 0.00326451C10.4196 0.0030803 10.4203 0.00260661 10.4209 0.00214052C10.4217 0.00156858 10.4224 0.0010081 10.423 0.0010081C10.4279 -0.000336034 10.433 -0.000336034 10.4379 0.0010081C10.4483 0.00225986 10.4561 0.0110876 10.456 0.0215209C10.4831 0.130732 10.5229 0.236404 10.5746 0.336393C10.599 0.386239 10.6271 0.440393 10.6622 0.500495C10.7235 0.605726 10.7865 0.705418 10.8494 0.804906C11.351 1.5976 11.8979 2.21759 12.4309 2.82192C13.2211 3.71764 13.9808 4.57894 14.5175 5.91711L14.5161 5.90378C14.374 5.06265 14.1024 4.24862 13.711 3.49065ZM6.18626 11.7478C6.17188 11.7405 6.1575 11.7332 6.14277 11.7261C6.18133 11.7461 6.2199 11.7653 6.25846 11.7838L6.25292 11.7803C6.22991 11.77 6.20809 11.7589 6.18626 11.7478Z" fill="url(#paint0_linear)"/>
<path d="M15.3058 5.50291C14.9604 4.67173 14.2597 3.77429 13.711 3.4906C14.1024 4.24857 14.3739 5.0626 14.5161 5.90373V5.91132L14.5175 5.91973C15.1303 7.67326 15.0417 9.59576 14.2702 11.2855C13.359 13.2405 11.1534 15.2444 7.70113 15.147C3.97087 15.0414 0.685744 12.2734 0.0715897 8.64793C-0.0402051 8.07624 0.0715897 7.7864 0.127795 7.32178C0.0511236 7.68268 0.00833936 8.04995 0 8.41881V8.45983C0.00361341 12.5866 3.16399 16.0246 7.27587 16.3748C11.3878 16.725 15.084 13.871 15.7854 9.80424C15.7988 9.70168 15.8096 9.60014 15.8215 9.49655C15.9853 8.14316 15.808 6.77031 15.3058 5.50291Z" fill="url(#paint1_radial)"/>
<path d="M15.3058 5.50291C14.9604 4.67173 14.2597 3.77429 13.711 3.4906C14.1024 4.24857 14.3739 5.0626 14.5161 5.90373V5.91132L14.5175 5.91973C15.1303 7.67326 15.0417 9.59576 14.2702 11.2855C13.359 13.2405 11.1534 15.2444 7.70113 15.147C3.97087 15.0414 0.685744 12.2734 0.0715897 8.64793C-0.0402051 8.07624 0.0715897 7.7864 0.127795 7.32178C0.0511236 7.68268 0.00833936 8.04995 0 8.41881V8.45983C0.00361341 12.5866 3.16399 16.0246 7.27587 16.3748C11.3878 16.725 15.084 13.871 15.7854 9.80424C15.7988 9.70168 15.8096 9.60014 15.8215 9.49655C15.9853 8.14316 15.808 6.77031 15.3058 5.50291Z" fill="url(#paint2_radial)"/>
<path d="M11.4424 6.43749C11.4597 6.44959 11.4757 6.46169 11.4919 6.4738C11.2922 6.11968 11.0436 5.79547 10.7534 5.51072C8.28244 3.03934 10.1058 0.152156 10.4133 0.00548938L10.4164 0.000976562C8.41946 1.17021 7.74192 3.33472 7.67957 4.41739C7.77228 4.41103 7.86418 4.40323 7.95895 4.40323C9.40135 4.40588 10.7313 5.18255 11.4424 6.43749V6.43749Z" fill="url(#paint3_radial)"/>
<path d="M7.9641 6.93112C7.95098 7.12886 7.25231 7.81091 7.008 7.81091C4.74728 7.81091 4.38031 9.1785 4.38031 9.1785C4.48041 10.3301 5.28287 11.2786 6.25293 11.7803C6.29723 11.8033 6.34216 11.824 6.38708 11.8443C6.46489 11.8788 6.5427 11.9107 6.62052 11.9399C6.95343 12.0578 7.30212 12.125 7.65498 12.1395C11.6174 12.3254 12.385 7.40106 9.52554 5.97214C10.2001 5.88437 10.8832 6.05024 11.4425 6.43758C10.7314 5.18264 9.40138 4.40596 7.95898 4.40332C7.86462 4.40332 7.77231 4.41112 7.67959 4.41747C6.88212 4.47229 6.11967 4.76616 5.49169 5.26076C5.61293 5.36332 5.74975 5.50035 6.03795 5.78445C6.57744 6.31594 7.96103 6.8665 7.9641 6.93112V6.93112Z" fill="url(#paint4_radial)"/>
<path d="M7.9641 6.93112C7.95098 7.12886 7.25231 7.81091 7.008 7.81091C4.74728 7.81091 4.38031 9.1785 4.38031 9.1785C4.48041 10.3301 5.28287 11.2786 6.25293 11.7803C6.29723 11.8033 6.34216 11.824 6.38708 11.8443C6.46489 11.8788 6.5427 11.9107 6.62052 11.9399C6.95343 12.0578 7.30212 12.125 7.65498 12.1395C11.6174 12.3254 12.385 7.40106 9.52554 5.97214C10.2001 5.88437 10.8832 6.05024 11.4425 6.43758C10.7314 5.18264 9.40138 4.40596 7.95898 4.40332C7.86462 4.40332 7.77231 4.41112 7.67959 4.41747C6.88212 4.47229 6.11967 4.76616 5.49169 5.26076C5.61293 5.36332 5.74975 5.50035 6.03795 5.78445C6.57744 6.31594 7.96103 6.8665 7.9641 6.93112V6.93112Z" fill="url(#paint5_radial)"/>
<path d="M5.12102 4.99624C5.18543 5.03727 5.23856 5.07296 5.28512 5.10517C5.10397 4.4711 5.09625 3.80005 5.26276 3.16199C4.52942 3.51725 3.87779 4.02087 3.34912 4.64096C3.38789 4.63994 4.54112 4.61922 5.12102 4.99624V4.99624Z" fill="url(#paint6_radial)"/>
<path d="M0.0726253 8.64804C0.686164 12.2735 3.97191 15.0415 7.70216 15.1471C11.1545 15.2448 13.36 13.2407 14.2712 11.2856C15.0427 9.59587 15.1313 7.67337 14.5186 5.91984V5.91225C14.5186 5.9063 14.5173 5.90281 14.5186 5.90466L14.52 5.91799C14.8021 7.75943 13.8654 9.54343 12.4012 10.7498L12.3967 10.76C9.5438 13.0835 6.81355 12.1619 6.26093 11.7857C6.22237 11.7672 6.1838 11.748 6.14524 11.728C4.48186 10.933 3.79468 9.41748 3.94196 8.11778C3.13528 8.12969 2.39725 7.66545 2.05868 6.93317C2.94652 6.38925 4.05296 6.34483 4.98155 6.81584C5.92306 7.24325 6.99442 7.28537 7.96657 6.93317C7.9635 6.86855 6.57991 6.31778 6.04042 5.7865C5.75221 5.5024 5.61539 5.36558 5.49416 5.26281C5.42865 5.20731 5.36017 5.15541 5.28904 5.10732C5.24186 5.07512 5.18873 5.04025 5.12493 4.9984C4.54504 4.62137 3.3918 4.64209 3.35365 4.64312H3.34996C3.03488 4.24373 3.05704 2.92681 3.07509 2.65173C2.98188 2.68919 2.8929 2.73643 2.80965 2.79266C2.53151 2.99117 2.27148 3.21392 2.03263 3.4583C1.75947 3.73348 1.50984 4.03107 1.28637 4.34794V4.34917V4.34773C0.775239 5.07236 0.412707 5.89106 0.219702 6.75655C0.215805 6.77276 -0.0666567 8.00763 0.0726253 8.64804Z" fill="url(#paint7_radial)"/>
<path d="M10.7539 5.51075C11.0441 5.79582 11.2927 6.12038 11.4923 6.47485C11.536 6.50788 11.5768 6.5407 11.6115 6.5725C13.414 8.23403 12.4696 10.5828 12.3992 10.7499C13.8634 9.54357 14.7992 7.75957 14.518 5.91814C13.6187 3.67609 12.0944 2.7725 10.8495 0.804906C10.7865 0.705418 10.7235 0.605726 10.6622 0.500495C10.6271 0.440393 10.599 0.386239 10.5746 0.336393C10.523 0.236404 10.4832 0.130732 10.456 0.0215209C10.4561 0.0110876 10.4483 0.00225986 10.438 0.0010081C10.4331 -0.000336034 10.4279 -0.000336034 10.423 0.0010081C10.422 0.0010081 10.4203 0.00285426 10.4191 0.00326451C10.4179 0.00367477 10.4152 0.00552092 10.4134 0.00634144C10.1059 0.152188 8.28248 3.03937 10.7539 5.51075V5.51075Z" fill="url(#paint8_radial)"/>
<path d="M11.6102 6.57143C11.5756 6.53964 11.5347 6.50682 11.491 6.47379C11.4748 6.46169 11.4588 6.44959 11.4416 6.43748C10.8824 6.05014 10.1993 5.88427 9.52469 5.97205C12.3842 7.40179 11.617 12.3253 7.65413 12.1394C7.30127 12.1249 6.95258 12.0577 6.61966 11.9398C6.54185 11.9107 6.46404 11.8789 6.38623 11.8443C6.34131 11.8237 6.29638 11.8032 6.25208 11.7803L6.25761 11.7837C6.81023 12.161 9.53966 13.0826 12.3934 10.7581L12.3979 10.7478C12.4691 10.5817 13.4135 8.23235 11.6102 6.57143V6.57143Z" fill="url(#paint9_radial)"/>
<path d="M4.38032 9.17844C4.38032 9.17844 4.74729 7.81085 7.00801 7.81085C7.25232 7.81085 7.9516 7.1288 7.96411 6.93106C6.99196 7.28325 5.92059 7.24114 4.97909 6.81373C4.0505 6.34272 2.94405 6.38714 2.05621 6.93106C2.39478 7.66334 3.13282 8.12758 3.9395 8.11567C3.79221 9.41557 4.47939 10.9311 6.14278 11.7259C6.17991 11.7438 6.21478 11.7631 6.25293 11.7801C5.28206 11.2785 4.48042 10.33 4.38032 9.17844V9.17844Z" fill="url(#paint10_radial)"/>
<path d="M15.3058 5.50296C14.9604 4.67178 14.2597 3.77434 13.711 3.49065C14.1024 4.24862 14.3739 5.06265 14.5161 5.90378L14.5175 5.91711C13.6187 3.67609 12.0944 2.7725 10.8494 0.804906C10.7865 0.705418 10.7235 0.605726 10.6622 0.500495C10.6271 0.440393 10.599 0.386239 10.5746 0.336393C10.5229 0.236404 10.4831 0.130732 10.456 0.0215209C10.4561 0.0110876 10.4483 0.00225986 10.4379 0.0010081C10.433 -0.000336034 10.4279 -0.000336034 10.423 0.0010081C10.4219 0.0010081 10.4203 0.00285426 10.4191 0.00326451C10.4178 0.00367477 10.4152 0.00552092 10.4133 0.00634144L10.4164 0.0010081C8.41949 1.17024 7.74195 3.33475 7.67959 4.41742C7.77231 4.41106 7.86421 4.40326 7.95897 4.40326C9.40138 4.40591 10.7314 5.18258 11.4425 6.43752C10.8832 6.05018 10.2001 5.88431 9.52554 5.97208C12.385 7.40183 11.6178 12.3253 7.65497 12.1395C7.30212 12.125 6.95343 12.0577 6.62051 11.9399C6.5427 11.9108 6.46489 11.8789 6.38708 11.8443C6.34215 11.8238 6.29723 11.8033 6.25292 11.7803L6.25846 11.7838C6.2199 11.7653 6.18133 11.7461 6.14277 11.7261C6.1799 11.744 6.21477 11.7633 6.25292 11.7803C5.28205 11.2785 4.48041 10.33 4.38031 9.17844C4.38031 9.17844 4.74728 7.81085 7.008 7.81085C7.25231 7.81085 7.95159 7.1288 7.9641 6.93106C7.96103 6.86644 6.57744 6.31567 6.03795 5.78439C5.74974 5.50029 5.61292 5.36347 5.49169 5.2607C5.42618 5.2052 5.3577 5.1533 5.28656 5.10521C5.10541 4.47115 5.09769 3.8001 5.2642 3.16203C4.53086 3.5173 3.87923 4.02091 3.35056 4.64101H3.34687C3.03179 4.24162 3.05395 2.9247 3.072 2.64962C2.97879 2.68708 2.88981 2.73432 2.80656 2.79055C2.52842 2.98906 2.2684 3.21181 2.02954 3.45619C1.75735 3.73215 1.50876 4.03042 1.28636 4.34788V4.34911V4.34767C0.775229 5.0723 0.412697 5.891 0.219692 6.7565L0.209026 6.80901C0.194051 6.87896 0.126974 7.23424 0.117333 7.31055C0.117333 7.31629 0.117333 7.3046 0.117333 7.31055C0.0559816 7.67729 0.0167994 8.0474 0 8.41885V8.45988C0.00361341 12.5866 3.16399 16.0246 7.27587 16.3748C11.3878 16.725 15.084 13.871 15.7854 9.80429C15.7988 9.70173 15.8096 9.60019 15.8215 9.4966C15.9853 8.14321 15.808 6.77036 15.3058 5.50296Z" fill="url(#paint11_linear)"/>
<defs>
<linearGradient id="paint0_linear" x1="8.0899" y1="-4.27492" x2="-5.50541" y2="8.01875" gradientUnits="userSpaceOnUse">
<stop offset="0.048" stop-color="#FFF44F"/>
<stop offset="0.111" stop-color="#FFE847"/>
<stop offset="0.225" stop-color="#FFC830"/>
<stop offset="0.368" stop-color="#FF980E"/>
<stop offset="0.401" stop-color="#FF8B16"/>
<stop offset="0.462" stop-color="#FF672A"/>
<stop offset="0.534" stop-color="#FF3647"/>
<stop offset="0.705" stop-color="#E31587"/>
</linearGradient>
<radialGradient id="paint1_radial" cx="0" cy="0" r="1" gradientUnits="userSpaceOnUse" gradientTransform="translate(13.6437 1.82042) scale(16.5737 13.4767)">
<stop offset="0.129" stop-color="#FFBD4F"/>
<stop offset="0.186" stop-color="#FFAC31"/>
<stop offset="0.247" stop-color="#FF9D17"/>
<stop offset="0.283" stop-color="#FF980E"/>
<stop offset="0.403" stop-color="#FF563B"/>
<stop offset="0.467" stop-color="#FF3750"/>
<stop offset="0.71" stop-color="#F5156C"/>
<stop offset="0.782" stop-color="#EB0878"/>
<stop offset="0.86" stop-color="#E50080"/>
</radialGradient>
<radialGradient id="paint2_radial" cx="0" cy="0" r="1" gradientUnits="userSpaceOnUse" gradientTransform="translate(7.58751 8.59626) scale(16.5737 13.4767)">
<stop offset="0.3" stop-color="#960E18"/>
<stop offset="0.351" stop-color="#B11927" stop-opacity="0.74"/>
<stop offset="0.435" stop-color="#DB293D" stop-opacity="0.343"/>
<stop offset="0.497" stop-color="#F5334B" stop-opacity="0.094"/>
<stop offset="0.53" stop-color="#FF3750" stop-opacity="0.01"/>
</radialGradient>
<radialGradient id="paint3_radial" cx="0" cy="0" r="1" gradientUnits="userSpaceOnUse" gradientTransform="translate(9.58558 -1.94077) scale(12.007 20.3863)">
<stop offset="0.132" stop-color="#FFF44F"/>
<stop offset="0.252" stop-color="#FFDC3E"/>
<stop offset="0.506" stop-color="#FF9D12"/>
<stop offset="0.526" stop-color="#FF980E"/>
</radialGradient>
<radialGradient id="paint4_radial" cx="0" cy="0" r="1" gradientUnits="userSpaceOnUse" gradientTransform="translate(5.75428 12.9255) scale(7.89149 8.65042)">
<stop offset="0.353" stop-color="#3A8EE6"/>
<stop offset="0.472" stop-color="#5C79F0"/>
<stop offset="0.669" stop-color="#9059FF"/>
<stop offset="1" stop-color="#C139E6"/>
</radialGradient>
<radialGradient id="paint5_radial" cx="0" cy="0" r="1" gradientUnits="userSpaceOnUse" gradientTransform="translate(8.49316 7.23808) rotate(-13.5916) scale(4.18402 4.54391)">
<stop offset="0.206" stop-color="#9059FF" stop-opacity="0.01"/>
<stop offset="0.278" stop-color="#8C4FF3" stop-opacity="0.064"/>
<stop offset="0.747" stop-color="#7716A8" stop-opacity="0.45"/>
<stop offset="0.975" stop-color="#6E008B" stop-opacity="0.6"/>
</radialGradient>
<radialGradient id="paint6_radial" cx="0" cy="0" r="1" gradientUnits="userSpaceOnUse" gradientTransform="translate(7.37825 1.14233) scale(5.67713 5.69818)">
<stop stop-color="#FFE226"/>
<stop offset="0.121" stop-color="#FFDB27"/>
<stop offset="0.295" stop-color="#FFC82A"/>
<stop offset="0.502" stop-color="#FFA930"/>
<stop offset="0.732" stop-color="#FF7E37"/>
<stop offset="0.792" stop-color="#FF7139"/>
</radialGradient>
<radialGradient id="paint7_radial" cx="0" cy="0" r="1" gradientUnits="userSpaceOnUse" gradientTransform="translate(11.8406 -2.45851) scale(24.2217 20.3353)">
<stop offset="0.113" stop-color="#FFF44F"/>
<stop offset="0.456" stop-color="#FF980E"/>
<stop offset="0.622" stop-color="#FF5634"/>
<stop offset="0.716" stop-color="#FF3647"/>
<stop offset="0.904" stop-color="#E31587"/>
</radialGradient>
<radialGradient id="paint8_radial" cx="0" cy="0" r="1" gradientUnits="userSpaceOnUse" gradientTransform="translate(9.79917 -1.11171) rotate(83.976) scale(17.7527 8.72683)">
<stop stop-color="#FFF44F"/>
<stop offset="0.06" stop-color="#FFE847"/>
<stop offset="0.168" stop-color="#FFC830"/>
<stop offset="0.304" stop-color="#FF980E"/>
<stop offset="0.356" stop-color="#FF8B16"/>
<stop offset="0.455" stop-color="#FF672A"/>
<stop offset="0.57" stop-color="#FF3647"/>
<stop offset="0.737" stop-color="#E31587"/>
</radialGradient>
<radialGradient id="paint9_radial" cx="0" cy="0" r="1" gradientUnits="userSpaceOnUse" gradientTransform="translate(7.24453 3.24511) scale(15.1221 14.8392)">
<stop offset="0.137" stop-color="#FFF44F"/>
<stop offset="0.48" stop-color="#FF980E"/>
<stop offset="0.592" stop-color="#FF5634"/>
<stop offset="0.655" stop-color="#FF3647"/>
<stop offset="0.904" stop-color="#E31587"/>
</radialGradient>
<radialGradient id="paint10_radial" cx="0" cy="0" r="1" gradientUnits="userSpaceOnUse" gradientTransform="translate(11.2363 4.13017) scale(16.551 14.8219)">
<stop offset="0.094" stop-color="#FFF44F"/>
<stop offset="0.231" stop-color="#FFE141"/>
<stop offset="0.509" stop-color="#FFAF1E"/>
<stop offset="0.626" stop-color="#FF980E"/>
</radialGradient>
<linearGradient id="paint11_linear" x1="8.65916" y1="-3.32672" x2="-2.92245" y2="7.52781" gradientUnits="userSpaceOnUse">
<stop offset="0.167" stop-color="#FFF44F" stop-opacity="0.8"/>
<stop offset="0.266" stop-color="#FFF44F" stop-opacity="0.634"/>
<stop offset="0.489" stop-color="#FFF44F" stop-opacity="0.217"/>
<stop offset="0.6" stop-color="#FFF44F" stop-opacity="0.01"/>
</linearGradient>
</defs>
</svg>
