<svg width="17" height="24" viewBox="0 0 17 24" fill="none" xmlns="http://www.w3.org/2000/svg">
<path fill-rule="evenodd" clip-rule="evenodd" d="M1.16327 0H15.1224C15.7649 0 16.2857 0.520812 16.2857 1.16327V22.102C16.2857 22.7445 15.7649 23.2653 15.1224 23.2653H1.16327C0.520812 23.2653 0 22.7445 0 22.102V1.16327C0 0.520812 0.520812 0 1.16327 0ZM2.32653 2.32653V20.9388H13.9592V2.32653H2.32653ZM9.30612 18.6122C9.30612 17.9698 8.78531 17.449 8.14286 17.449C7.5004 17.449 6.97959 17.9698 6.97959 18.6122C6.97959 19.2547 7.5004 19.7755 8.14286 19.7755C8.78531 19.7755 9.30612 19.2547 9.30612 18.6122Z" fill="#8DFF67"/>
</svg>
