<svg width="1438" height="789" viewBox="0 0 1438 789" fill="none" xmlns="http://www.w3.org/2000/svg">
<g opacity="0.07">
<path opacity="0.3" d="M812.387 595.873C826.518 651.875 881.12 694.436 926.97 724.864C1004.6 776.783 1103.3 809.524 1194.46 774.335C1282.21 741.915 1348.59 657.12 1385.78 573.192C1396.19 549.548 1405.97 524.839 1412.33 499.28C1430.79 432.4 1458.82 356.143 1413.57 294.197C1357.01 215.859 1240.01 205.702 1177.25 283.255C1142.14 326.08 1093.86 407.246 1055.77 447.516C971.491 535.091 871.234 446.768 819.138 539.648C809.145 557.968 808.102 576.71 812.387 595.873Z" fill="url(#paint0_linear)"/>
<g opacity="0.4">
<path opacity="0.4" d="M897.215 652.67C969.261 697.772 1059.14 693.037 1139.65 689.585C1261.47 683.768 1411.91 559.328 1373.79 385.167C1359.01 317.248 1298.72 304.932 1249.33 325.188C1185.89 350.989 1150.2 428.944 1103.4 482.418C1077.88 512.243 1047.66 531.85 1013.16 535.915C977.592 540.62 944.987 526.158 908.15 535.974C885.794 542.161 870.046 554.521 862.84 583.484C854.153 622.031 872.275 636.5 897.215 652.67Z" fill="url(#paint1_linear)"/>
</g>
<g opacity="0.6">
<path opacity="0.6" d="M899.082 663.474C960.99 709.707 1042.47 717.337 1115.85 724.759C1227.2 736.21 1374.7 657.025 1356.18 512.901C1349.29 456.829 1294.88 438.736 1248.82 448.996C1188.69 461.183 1149.09 518.347 1101.79 555.473C1075.79 576.17 1046.8 587.06 1015.23 586.438C981.956 585.39 954.21 569.415 919.875 572.632C898.549 574.563 883.842 582.673 874.697 604.853C863.001 633.644 877.735 647.281 899.082 663.474Z" fill="url(#paint2_linear)"/>
</g>
<path opacity="0.3" d="M33.8667 667.178C44.2862 684.525 56.4423 700.138 72.0716 714.016C126.777 761.72 204.059 777.333 274.394 766.924C309.126 761.72 353.412 752.179 383.805 734.833C451.532 695.801 527.948 602.126 506.238 519.727C495.818 482.431 461.087 459.879 424.618 459.012C343.864 456.41 194.504 596.055 159.773 459.012C150.225 420.848 137.197 297.683 69.4635 354.929C23.4472 393.093 0 464.216 0 521.462C0 570.902 8.68295 623.81 33.8667 667.178Z" fill="url(#paint3_linear)"/>
<path opacity="0.4" d="M50.9346 684.948C59.6012 699.694 69.1312 712.704 82.1343 723.98C127.201 763.88 191.34 776.023 249.409 767.349C278.875 762.145 315.275 754.339 340.411 740.46C396.747 708.368 460.017 631.171 441.814 562.649C433.147 532.29 404.544 513.208 374.214 512.341C307.478 509.738 183.537 625.967 155.804 512.341C148 481.115 137.6 378.765 81.2645 426.47C43.1315 458.563 24.065 516.677 24.065 564.383C23.1951 605.15 30.9983 648.519 50.9346 684.948Z" fill="url(#paint4_linear)"/>
<path opacity="0.6" d="M24.5194 687.891C30.5966 701.796 38.4093 713.963 48.8219 725.261C84.3949 765.238 139.935 782.62 192.869 780.882C218.9 780.012 251.874 776.536 275.305 766.108C328.239 743.512 391.585 680.938 382.037 619.234C377.702 591.423 354.27 571.435 327.368 567.959C268.363 559.268 163.367 635.746 126.052 562.744C113.033 536.672 89.6012 489.742 54.0282 496.694C-15.3955 507.992 5.42969 644.437 24.5194 687.891Z" fill="url(#paint5_linear)"/>
<path opacity="0.4" d="M308.742 379.961C339.476 378.209 373.892 358.977 389.246 331.118C401.536 308.83 418.122 284.139 446.36 265.853C473.464 248.01 522.995 227.268 551.001 235.332C600.977 249.428 619.252 289.726 668.984 303.188C728 320.331 833.157 274.292 863.718 221.55C884.573 184.257 877.495 159.296 865.435 128.25C837.378 56.0223 738.748 -36.141 563.427 14.5978C343.422 78.3564 262.409 169.701 238.504 266.533C232.088 293.828 246.926 352.238 269.18 369.102C280.188 377.218 294.51 380.394 308.742 379.961Z" fill="url(#paint6_linear)"/>
<path opacity="0.6" d="M348.421 303.987C374.122 302.739 403.099 286.362 415.141 263.453C426.137 244.594 439.165 224.217 463.105 208.343C485.904 192.912 526.6 176.353 550.211 183.207C591.403 194.884 607.217 228.829 648.41 240.506C699.533 254.153 787.892 215.405 812.959 172.119C830.745 140.414 824.005 119.707 813.913 93.7432C790.529 33.5839 676.63 -0.108997 562.233 35.6414C446.698 71.8377 320.579 151.52 301.089 232.732C295.471 255.329 296.129 280.59 314.884 295.164C324.262 302.451 336.709 304.169 348.421 303.987Z" fill="url(#paint7_linear)"/>
</g>
<defs>
<linearGradient id="paint0_linear" x1="1476.47" y1="314.038" x2="933.882" y2="143.373" gradientUnits="userSpaceOnUse">
<stop stop-color="#5F95FF"/>
<stop offset="0.4743" stop-color="#A4C2FF"/>
<stop offset="1" stop-color="#7D72FF"/>
</linearGradient>
<linearGradient id="paint1_linear" x1="1438.03" y1="388.102" x2="1018.89" y2="188.165" gradientUnits="userSpaceOnUse">
<stop stop-color="#5F95FF"/>
<stop offset="0.4743" stop-color="#A4C2FF"/>
<stop offset="1" stop-color="#7D72FF"/>
</linearGradient>
<linearGradient id="paint2_linear" x1="1437.74" y1="498.694" x2="1101.74" y2="244.347" gradientUnits="userSpaceOnUse">
<stop stop-color="#5F95FF"/>
<stop offset="0.4743" stop-color="#A4C2FF"/>
<stop offset="1" stop-color="#7D72FF"/>
</linearGradient>
<linearGradient id="paint3_linear" x1="510.305" y1="339.807" x2="0.303417" y2="339.807" gradientUnits="userSpaceOnUse">
<stop stop-color="#5F95FF"/>
<stop offset="0.4743" stop-color="#A4C2FF"/>
<stop offset="1" stop-color="#7D72FF"/>
</linearGradient>
<linearGradient id="paint4_linear" x1="445.248" y1="413.842" x2="24.2519" y2="413.842" gradientUnits="userSpaceOnUse">
<stop stop-color="#5F95FF"/>
<stop offset="0.4743" stop-color="#A4C2FF"/>
<stop offset="1" stop-color="#7D72FF"/>
</linearGradient>
<linearGradient id="paint5_linear" x1="383.224" y1="495.875" x2="6.22968" y2="495.875" gradientUnits="userSpaceOnUse">
<stop stop-color="#5F95FF"/>
<stop offset="0.4743" stop-color="#A4C2FF"/>
<stop offset="1" stop-color="#7D72FF"/>
</linearGradient>
<linearGradient id="paint6_linear" x1="648.394" y1="-99.7535" x2="257.578" y2="331.773" gradientUnits="userSpaceOnUse">
<stop stop-color="#5F95FF"/>
<stop offset="0.4743" stop-color="#A4C2FF"/>
<stop offset="1" stop-color="#7D72FF"/>
</linearGradient>
<linearGradient id="paint7_linear" x1="622.113" y1="-65.4437" x2="346.996" y2="304.288" gradientUnits="userSpaceOnUse">
<stop stop-color="#5F95FF"/>
<stop offset="0.4743" stop-color="#A4C2FF"/>
<stop offset="1" stop-color="#7D72FF"/>
</linearGradient>
</defs>
</svg>
