<svg width="24" height="24" viewBox="0 0 24 24" fill="none" xmlns="http://www.w3.org/2000/svg">
<path fill-rule="evenodd" clip-rule="evenodd" d="M14.3342 2.68912C18.6045 3.75955 21.5995 7.59749 21.6 12V13.8C21.6 14.7941 20.7941 15.6 19.8 15.6C18.8059 15.6 18 14.7941 18 13.8V7.2H15.6C13.0251 5.26901 9.38533 5.71355 7.35091 8.2075C5.31648 10.7014 5.61216 14.3563 8.02103 16.4908C10.4299 18.6253 14.0938 18.479 16.3248 16.1592C17.3606 17.6854 19.2709 18.3572 21.034 17.8152C22.7971 17.2733 24.0003 15.6445 24 13.8V12C24 5.3724 18.6276 0 12 0C5.3724 0 0 5.3724 0 12C0 18.6276 5.3724 24 12 24C14.3699 24.0038 16.6874 23.3025 18.6576 21.9852L17.3256 19.9884C13.6626 22.4307 8.8079 22.0684 5.54797 19.1096C2.28803 16.1507 1.45851 11.3537 3.53554 7.47191C5.61258 3.59015 10.0638 1.61869 14.3342 2.68912ZM8.4 12C8.4 10.0118 10.0118 8.4 12 8.4C13.9882 8.4 15.6 10.0118 15.6 12C15.6 13.9882 13.9882 15.6 12 15.6C10.0118 15.6 8.4 13.9882 8.4 12Z" fill="#FFD129"/>
</svg>
