<svg width="32" height="32" viewBox="0 0 32 32" fill="none" xmlns="http://www.w3.org/2000/svg">
<path fill-rule="evenodd" clip-rule="evenodd" d="M0.64065 6.77757C1.04412 3.54585 3.54393 1.03536 6.77563 0.63173C9.41097 0.302581 12.7244 0 16 0C19.281 0 22.5999 0.303578 25.2374 0.633356C28.4625 1.03661 30.959 3.53848 31.3622 6.76358C31.6937 9.41524 32 12.7459 32 16C32 19.2596 31.6926 22.5961 31.3605 25.25C30.9577 28.4682 28.4701 30.9665 25.2519 31.3694C22.6264 31.6981 19.3132 32 16 32C12.6923 32 9.38458 31.6991 6.76108 31.3711C3.53632 30.9678 1.0454 28.4608 0.642347 25.236C0.309117 22.5699 0 19.227 0 16C0 12.7785 0.308068 9.44148 0.64065 6.77757Z" fill="white"/>
<mask id="mask0" mask-type="alpha" maskUnits="userSpaceOnUse" x="0" y="0" width="32" height="32">
<path fill-rule="evenodd" clip-rule="evenodd" d="M0.64065 6.77757C1.04412 3.54585 3.54393 1.03536 6.77563 0.63173C9.41097 0.302581 12.7244 0 16 0C19.281 0 22.5999 0.303578 25.2374 0.633356C28.4625 1.03661 30.959 3.53848 31.3622 6.76358C31.6937 9.41524 32 12.7459 32 16C32 19.2596 31.6926 22.5961 31.3605 25.25C30.9577 28.4682 28.4701 30.9665 25.2519 31.3694C22.6264 31.6981 19.3132 32 16 32C12.6923 32 9.38458 31.6991 6.76108 31.3711C3.53632 30.9678 1.0454 28.4608 0.642347 25.236C0.309117 22.5699 0 19.227 0 16C0 12.7785 0.308068 9.44148 0.64065 6.77757Z" fill="white"/>
</mask>
<g mask="url(#mask0)">
<path d="M10.9892 17.8776L10.3626 20.2166L8.07258 20.2651C7.3882 18.9957 7 17.5434 7 16C7 14.5076 7.36295 13.1002 8.00631 11.861H8.0068L10.0456 12.2348L10.9387 14.2613C10.7518 14.8063 10.6499 15.3913 10.6499 16C10.65 16.6607 10.7696 17.2937 10.9892 17.8776Z" fill="#FBBB00"/>
<path d="M24.8426 14.3187C24.946 14.8631 24.9999 15.4254 24.9999 16C24.9999 16.6444 24.9321 17.2729 24.8031 17.8791C24.365 19.9422 23.2202 21.7437 21.6343 23.0185L21.6338 23.018L19.0659 22.887L18.7024 20.6182C19.7547 20.0011 20.5771 19.0353 21.0103 17.8791H16.1978V14.3187H21.0805H24.8426Z" fill="#518EF8"/>
<path d="M21.6338 23.018L21.6343 23.0185C20.092 24.2582 18.1327 25 15.9999 25C12.5725 25 9.59263 23.0843 8.07251 20.2651L10.9891 17.8777C11.7492 19.9061 13.7059 21.3501 15.9999 21.3501C16.986 21.3501 17.9097 21.0835 18.7024 20.6182L21.6338 23.018Z" fill="#28B446"/>
<path d="M21.7447 9.07197L18.8291 11.4589C18.0087 10.9461 17.039 10.6499 16 10.6499C13.6541 10.6499 11.6607 12.1601 10.9388 14.2613L8.00684 11.861H8.00635C9.50421 8.97307 12.5217 7 16 7C18.1838 7 20.186 7.77787 21.7447 9.07197Z" fill="#F14336"/>
</g>
</svg>
