<?xml version="1.0" encoding="UTF-8"?>
<svg width="299px" height="397px" viewBox="0 0 299 397" version="1.1" xmlns="http://www.w3.org/2000/svg" xmlns:xlink="http://www.w3.org/1999/xlink">
    <!-- Generator: Sketch 61.2 (89653) - https://sketch.com -->
    <title>Иллюстрация 2</title>
    <desc>Created with Sketch.</desc>
    <defs>
        <linearGradient x1="0.0207878599%" y1="49.995507%" x2="100.041576%" y2="49.995507%" id="linearGradient-1">
            <stop stop-color="#348BFF" offset="0%"></stop>
            <stop stop-color="#1466FF" offset="100%"></stop>
        </linearGradient>
        <linearGradient x1="50.0797149%" y1="100.049843%" x2="50.0797149%" y2="0%" id="linearGradient-2">
            <stop stop-color="#0015CC" offset="0%"></stop>
            <stop stop-color="#0062E5" offset="100%"></stop>
        </linearGradient>
        <linearGradient x1="0.000154172791%" y1="49.993125%" x2="99.9454727%" y2="49.993125%" id="linearGradient-3">
            <stop stop-color="#1466FF" offset="0%"></stop>
            <stop stop-color="#348BFF" offset="100%"></stop>
        </linearGradient>
        <linearGradient x1="5.08262744%" y1="64.5397185%" x2="88.0393737%" y2="28.2572248%" id="linearGradient-4">
            <stop stop-color="#FFCD66" offset="0%"></stop>
            <stop stop-color="#FFC052" offset="15%"></stop>
            <stop stop-color="#FEA326" offset="53%"></stop>
            <stop stop-color="#FD920A" offset="83%"></stop>
            <stop stop-color="#FD8B00" offset="100%"></stop>
        </linearGradient>
        <linearGradient x1="0.0255512135%" y1="49.9759142%" x2="100.032122%" y2="49.9759142%" id="linearGradient-5">
            <stop stop-color="#EEF1FF" offset="0%"></stop>
            <stop stop-color="#E7EEFC" offset="30%"></stop>
            <stop stop-color="#D5E6F3" offset="73%"></stop>
            <stop stop-color="#C6E0EC" offset="100%"></stop>
        </linearGradient>
        <linearGradient x1="-0.0227427792%" y1="50.0209684%" x2="100%" y2="50.0209684%" id="linearGradient-6">
            <stop stop-color="#1466FF" offset="0%"></stop>
            <stop stop-color="#1B6EFF" offset="16%"></stop>
            <stop stop-color="#2D83FF" offset="67%"></stop>
            <stop stop-color="#348BFF" offset="100%"></stop>
        </linearGradient>
        <linearGradient x1="0.0166011717%" y1="49.9822683%" x2="99.9974504%" y2="49.9822683%" id="linearGradient-7">
            <stop stop-color="#0362E2" offset="0%"></stop>
            <stop stop-color="#0116CB" offset="100%"></stop>
        </linearGradient>
        <linearGradient x1="-0.0564750635%" y1="50.0126403%" x2="99.8946989%" y2="50.0126403%" id="linearGradient-8">
            <stop stop-color="#0362E2" offset="0%"></stop>
            <stop stop-color="#0116CB" offset="100%"></stop>
        </linearGradient>
        <linearGradient x1="0.0264291021%" y1="49.8166455%" x2="100.021069%" y2="49.8166455%" id="linearGradient-9">
            <stop stop-color="#81AFF0" offset="0%"></stop>
            <stop stop-color="#A3BFEA" offset="42%"></stop>
            <stop stop-color="#D7D7E0" offset="100%"></stop>
        </linearGradient>
        <linearGradient x1="0.0740760945%" y1="49.9838418%" x2="99.9975936%" y2="49.9838418%" id="linearGradient-10">
            <stop stop-color="#81AFF0" offset="0%"></stop>
            <stop stop-color="#A3BFEA" offset="42%"></stop>
            <stop stop-color="#D7D7E0" offset="100%"></stop>
        </linearGradient>
        <linearGradient x1="0.0112021657%" y1="50.1028334%" x2="99.8112232%" y2="50.1028334%" id="linearGradient-11">
            <stop stop-color="#81AFF0" offset="0%"></stop>
            <stop stop-color="#A3BFEA" offset="42%"></stop>
            <stop stop-color="#D7D7E0" offset="100%"></stop>
        </linearGradient>
        <linearGradient x1="28.716198%" y1="36.11288%" x2="62.1595789%" y2="57.8050499%" id="linearGradient-12">
            <stop stop-color="#6F97CF" offset="0%"></stop>
            <stop stop-color="#91ACD5" offset="36%"></stop>
            <stop stop-color="#D7D7E0" offset="100%"></stop>
        </linearGradient>
        <linearGradient x1="41.6217856%" y1="52.2187919%" x2="58.2831079%" y2="48.1689602%" id="linearGradient-13">
            <stop stop-color="#81AFF0" offset="0%"></stop>
            <stop stop-color="#A3BFEA" offset="42%"></stop>
            <stop stop-color="#D7D7E0" offset="100%"></stop>
        </linearGradient>
        <linearGradient x1="33.5426013%" y1="-1.33223794%" x2="68.3462361%" y2="106.090548%" id="linearGradient-14">
            <stop stop-color="#EEF1FF" offset="0%"></stop>
            <stop stop-color="#E7EDFA" offset="34%"></stop>
            <stop stop-color="#D5E3ED" offset="81%"></stop>
            <stop stop-color="#CCDEE6" offset="100%"></stop>
        </linearGradient>
        <linearGradient x1="-0.0106067034%" y1="50.0122419%" x2="100.042427%" y2="50.0122419%" id="linearGradient-15">
            <stop stop-color="#3670DD" offset="0%"></stop>
            <stop stop-color="#3674E2" offset="11%"></stop>
            <stop stop-color="#3485F7" offset="65%"></stop>
            <stop stop-color="#348BFF" offset="100%"></stop>
        </linearGradient>
        <linearGradient x1="-0.141239716%" y1="49.9781654%" x2="99.842592%" y2="49.9781654%" id="linearGradient-16">
            <stop stop-color="#0362E2" offset="0%"></stop>
            <stop stop-color="#0116CB" offset="100%"></stop>
        </linearGradient>
        <linearGradient x1="0%" y1="50.0274424%" x2="100.039625%" y2="50.0274424%" id="linearGradient-17">
            <stop stop-color="#0362E2" offset="0%"></stop>
            <stop stop-color="#0116CB" offset="100%"></stop>
        </linearGradient>
        <linearGradient x1="0.0702897164%" y1="50.0351688%" x2="100.2871%" y2="50.0351688%" id="linearGradient-18">
            <stop stop-color="#348BFF" offset="0%"></stop>
            <stop stop-color="#3485F7" offset="35%"></stop>
            <stop stop-color="#3674E2" offset="89%"></stop>
            <stop stop-color="#3670DD" offset="100%"></stop>
        </linearGradient>
        <linearGradient x1="0.00377922905%" y1="50.0034631%" x2="99.8516718%" y2="50.0034631%" id="linearGradient-19">
            <stop stop-color="#2E60BD" offset="0%"></stop>
            <stop stop-color="#348BFF" offset="100%"></stop>
        </linearGradient>
        <linearGradient x1="0.0150402616%" y1="49.9461872%" x2="99.9934158%" y2="49.9461872%" id="linearGradient-20">
            <stop stop-color="#2E60BD" offset="0%"></stop>
            <stop stop-color="#348BFF" offset="100%"></stop>
        </linearGradient>
        <linearGradient x1="0.0851241998%" y1="49.9349443%" x2="99.908413%" y2="49.9349443%" id="linearGradient-21">
            <stop stop-color="#2E60BD" offset="0%"></stop>
            <stop stop-color="#348BFF" offset="100%"></stop>
        </linearGradient>
        <linearGradient x1="0%" y1="50%" x2="100%" y2="50%" id="linearGradient-22">
            <stop stop-color="#FFCD66" offset="0%"></stop>
            <stop stop-color="#FFCD65" offset="1%"></stop>
            <stop stop-color="#FFBE3A" offset="32%"></stop>
            <stop stop-color="#FFB41A" offset="60%"></stop>
            <stop stop-color="#FFAD07" offset="84%"></stop>
            <stop stop-color="#FFAB00" offset="100%"></stop>
        </linearGradient>
        <linearGradient x1="0%" y1="50%" x2="100%" y2="50%" id="linearGradient-23">
            <stop stop-color="#FFAB00" offset="0%"></stop>
            <stop stop-color="#FC7700" offset="100%"></stop>
        </linearGradient>
        <linearGradient x1="0%" y1="49.9828473%" x2="100%" y2="49.9828473%" id="linearGradient-24">
            <stop stop-color="#FFDD99" offset="0%"></stop>
            <stop stop-color="#FFDB92" offset="13%"></stop>
            <stop stop-color="#FFD580" offset="30%"></stop>
            <stop stop-color="#FFCB62" offset="51%"></stop>
            <stop stop-color="#FFBD38" offset="74%"></stop>
            <stop stop-color="#FFAC02" offset="99%"></stop>
            <stop stop-color="#FFAB00" offset="100%"></stop>
        </linearGradient>
        <linearGradient x1="0%" y1="49.98626%" x2="100%" y2="49.98626%" id="linearGradient-25">
            <stop stop-color="#E2EBEF" offset="0%"></stop>
            <stop stop-color="#D3E2E9" offset="54%"></stop>
            <stop stop-color="#CCDEE6" offset="100%"></stop>
        </linearGradient>
        <linearGradient x1="0%" y1="49.98626%" x2="100%" y2="49.98626%" id="linearGradient-26">
            <stop stop-color="#BDD2DD" offset="0%"></stop>
            <stop stop-color="#A5C2D1" offset="100%"></stop>
        </linearGradient>
        <linearGradient x1="0%" y1="50%" x2="100%" y2="50%" id="linearGradient-27">
            <stop stop-color="#EEF1FF" offset="0%"></stop>
            <stop stop-color="#E7EDFA" offset="34%"></stop>
            <stop stop-color="#D5E3ED" offset="81%"></stop>
            <stop stop-color="#CCDEE6" offset="100%"></stop>
        </linearGradient>
    </defs>
    <g id="Desktop" stroke="none" stroke-width="1" fill="none" fill-rule="evenodd">
        <g id="Иллюстрации" transform="translate(-2250.000000, -38.000000)" fill-rule="nonzero">
            <g id="Иллюстрация-2" transform="translate(2250.000000, 38.000000)">
                <g id="Chat_bot" transform="translate(129.088223, 0.000000)">
                    <path d="M167.622021,50.1999052 C166.761902,48.2791274 165.626027,46.49418 164.250314,44.901508 C163.169748,43.6492673 161.894671,42.579113 160.474001,41.7321031 L91.623738,1.97485714 C89.2250091,0.587640418 87.038216,0.472039024 85.4679638,1.38721672 L79.4566913,4.87452544 C77.886439,5.78006969 76.9038272,7.69712613 76.9038272,10.4233923 L76.4028878,188.016033 C76.4028878,193.487833 80.2562676,200.221614 85.0729923,202.97678 L153.913622,242.762927 C156.321985,244.14051 158.479877,244.256111 160.069397,243.350567 L160.069397,243.350567 L166.090302,239.853625 C167.622021,238.909547 168.585366,236.982857 168.585366,234.275858 L169.086305,56.6832167 C169.048413,54.4445121 168.549969,52.2375869 167.622021,50.1999052 Z" id="Path" fill="url(#linearGradient-1)"></path>
                    <g id="Group" opacity="0.5" transform="translate(156.061882, 64.544111)" fill="#C4BAF6">
                        <polygon id="Path" points="13.0436906 0.423871777 13.0436906 1.82072195 1.31014913 8.59303693 0.693608362 7.54299094"></polygon>
                        <polygon id="Path" points="12.5909185 159.414322 12.5909185 160.811172 1.31014913 167.323384 0.693608362 166.273338"></polygon>
                    </g>
                    <path d="M154.472362,45.2772125 C159.24092,48.0323791 163.142467,54.7565268 163.142467,60.2283261 L162.641528,237.820967 C162.641528,243.3024 158.720714,245.527727 153.971423,242.77256 L85.0537254,202.97678 C80.2948014,200.221614 76.3836209,193.497466 76.3836209,188.016033 L76.8845603,10.4233923 C76.8845603,4.95159303 80.8150077,2.71663275 85.5546648,5.4717993 L154.472362,45.2772125 Z" id="Path" fill="#DED5FF"></path>
                    <path d="M153.798021,54.3711889 C155.835541,55.6970379 157.117085,57.9164726 157.246796,60.3439275 L156.765123,232.965709 C156.765123,234.613029 155.589843,235.277737 154.154459,234.44926 L83.5701742,193.690135 C82.0347699,192.700654 81.0673593,191.034558 80.9691429,189.210581 L81.4604488,16.5888 C81.4604488,14.402007 83.030701,13.5060962 84.938124,14.6139429 L153.798021,54.3711889 Z" id="Path" fill="#0021D0"></path>
                    <g id="Group" opacity="0.5" transform="translate(98.261185, 62.617422)" fill="#E9BBF1">
                        <polygon id="Path" points="3.43914146 1.31978258 3.41987456 9.76831777 2.45652962 9.2095777 2.47579652 1.8303554 2.45652962 1.8110885 1.17528084 1.87852265 0.982611847 0.886277352 2.59139791 0.828476655"></polygon>
                        <path d="M8.59303693,4.15201672 C10.1343889,5.03829408 11.0206662,7.13838606 11.011025,9.83575192 C11.011025,12.7257868 10.0476878,13.7469324 8.43890174,12.8124878 C7.01315122,11.9840111 6.03053937,9.87428571 6.01127247,7.03241812 C5.99200557,4.19055052 7.09985226,3.29463972 8.59303693,4.15201672 Z M8.50633589,11.9647443 C9.46968084,12.5427512 9.99952056,11.4638049 10.009154,9.3059122 C10.0187875,7.14801951 9.56601533,5.59703415 8.52560279,4.99012683 C7.66822578,4.49882091 7.03241812,5.35619791 7.02278467,7.65859233 C7.01315122,9.96098676 7.60079164,11.444538 8.50633589,11.9647443 L8.50633589,11.9647443 Z" id="Shape"></path>
                        <path d="M14.4501742,7.50445714 C15.9915261,8.39073449 16.8778035,10.4908265 16.86817,13.1881923 C16.86817,16.0782272 15.9048251,17.0993728 14.296039,16.1649282 C12.8606551,15.3364516 11.8780432,13.2267261 11.8684098,10.3848585 C11.8587763,7.54299094 12.9088223,6.63744669 14.4501742,7.50445714 Z M14.3538397,15.3171847 C15.3653519,15.8951916 15.8566578,14.8162453 15.8662913,12.6583526 C15.8759247,10.5004599 15.4231526,8.94947456 14.3731066,8.34256725 C13.5157296,7.85126132 12.879922,8.70863833 12.8702885,11.0110328 C12.8606551,13.3134272 13.4482955,14.7969784 14.3538397,15.3171847 L14.3538397,15.3171847 Z" id="Shape"></path>
                        <path d="M20.2302439,10.8568976 C21.7619624,11.7431749 22.6578732,13.8432669 22.6482397,16.5406328 C22.6482397,19.4306676 21.6848948,20.4518132 20.0761087,19.5173686 C18.6407247,18.688892 17.6581129,16.5791666 17.638846,13.737299 C17.6195791,10.8954314 18.7081589,9.98988711 20.2302439,10.8568976 Z M20.1339094,18.6696251 C21.0972544,19.2476321 21.6367275,18.1686857 21.6367275,16.010793 C21.6367275,13.8529003 21.1935889,12.301915 20.1531763,11.6950077 C19.2957993,11.2037017 18.6599916,12.0610787 18.6503582,14.3634732 C18.6407247,16.6658676 19.2283652,18.1494188 20.1339094,18.6696251 L20.1339094,18.6696251 Z" id="Shape"></path>
                        <polygon id="Path" points="26.6653882 14.7295443 26.6364878 23.1780794 25.6827763 22.6193394 25.7020432 15.2304836 25.6827763 15.2208502 24.3918941 15.2786509 24.2088585 14.296039 25.8176446 14.2382383"></polygon>
                        <path d="M31.7903833,17.5617784 C33.3221017,18.4480557 34.2180125,20.5481477 34.2083791,23.2455136 C34.2083791,26.1355484 33.2450341,27.1566941 31.6362481,26.2222495 C30.2008641,25.3937728 29.2182523,23.2840474 29.2086188,20.4421798 C29.1989854,17.6003122 30.3164655,16.6947679 31.7903833,17.5617784 Z M31.7036822,25.3745059 C32.6670272,25.9525129 33.1968669,24.8735666 33.1968669,22.7156739 C33.1968669,20.5577812 32.7537282,18.9971624 31.7229491,18.3998885 C30.8559387,17.8989491 30.220131,18.7563261 30.2104976,21.068354 C30.2008641,23.3803819 30.798138,24.8542997 31.7036822,25.3745059 L31.7036822,25.3745059 Z" id="Shape"></path>
                        <path d="M37.6186202,20.9142188 C39.1599721,21.8004962 40.0462495,23.9005882 40.0462495,26.597954 C40.0462495,29.4879889 39.0829045,30.5091345 37.4741185,29.5746899 C36.0387345,28.7462132 35.0561226,26.6364878 35.0368557,23.7946202 C35.0175889,20.9527526 36.135069,20.0472084 37.6186202,20.9142188 Z M37.5319192,28.7269463 C38.5434314,29.3049533 39.0251038,28.2163735 39.0347373,26.0681143 C39.0443707,23.9198551 38.5915986,22.3496028 37.5511861,21.7523289 C36.6938091,21.261023 36.0483679,22.1087666 36.0483679,24.4207944 C36.0483679,26.7328223 36.6263749,28.2067401 37.5319192,28.7269463 Z" id="Shape"></path>
                        <polygon id="Path" points="3.40060767 16.9259707 3.37170732 25.3841394 2.41799582 24.8253993 2.43726272 17.4365436 2.40836237 17.4269101 1.13674704 17.4750774 0.934444599 16.4924655 2.55286411 16.4346648"></polygon>
                        <polygon id="Path" points="9.2095777 20.2784111 9.18067735 28.7269463 8.2173324 28.1778397 8.2365993 20.788984 8.2173324 20.7793505 6.93608362 20.8275178 6.74341463 19.8449059 8.36183415 19.7871052"></polygon>
                        <polygon id="Path" points="15.0089143 23.6308516 14.9896474 32.0793868 14.0263024 31.5302801 14.0455693 24.1414244 14.0263024 24.1317909 12.7450537 24.1799582 12.5523847 23.1973463 14.1611707 23.1395456"></polygon>
                        <path d="M20.1628098,26.4630857 C21.7041617,27.3493631 22.590439,29.4494551 22.5807978,32.1468209 C22.5807978,35.0368557 21.6174606,36.0580014 20.0086746,35.1235568 C18.5732906,34.2950801 17.6003122,32.233522 17.5810453,29.3434871 C17.5617784,26.4534523 18.6696251,25.5960753 20.1628098,26.4630857 Z M20.0664753,34.2758132 C21.0298202,34.8538202 21.5692934,33.7748739 21.5789268,31.6169812 C21.5885603,29.4590885 21.1357882,27.9081031 20.0857422,27.3011958 C19.2283652,26.8098899 18.5925575,27.6576334 18.582924,29.9696613 C18.5732906,32.2816892 19.160931,33.7459735 20.0664753,34.2758132 Z" id="Shape"></path>
                        <path d="M26.0103136,29.8636934 C27.5420321,30.7499707 28.4379429,32.8500627 28.4283094,35.5377951 C28.4283094,38.42783 27.4649645,39.4586091 25.8561784,38.5241645 C24.4207944,37.6956878 23.4381826,35.5859624 23.4189157,32.7440948 C23.3996488,29.9022272 24.4689617,28.9485157 26.0103136,29.8636934 Z M25.9139791,37.6764209 C26.877324,38.2544279 27.4167972,37.1658481 27.4167972,35.0175889 C27.4167972,32.8693296 26.9736585,31.3087108 25.933246,30.7114369 C25.075869,30.2104976 24.4400613,31.0582411 24.4304279,33.370269 C24.4207944,35.6822969 25.0084348,37.1562146 25.9139791,37.6764209 Z" id="Shape"></path>
                        <path d="M31.7903833,33.1679666 C33.3317352,34.0542439 34.2180125,36.1543359 34.2083791,38.8420683 C34.2083791,41.7321031 33.2450341,42.7628822 31.6458815,41.8284376 C30.2008641,40.999961 29.2278857,38.8806021 29.2086188,36.0483679 C29.1893519,33.2161338 30.2779317,32.3009561 31.7903833,33.1679666 Z M31.7036822,40.9806941 C32.6670272,41.558701 33.1968669,40.4701213 33.2065003,38.3122286 C33.2161338,36.1543359 32.7633617,34.612984 31.7229491,34.0157101 C30.8559387,33.5147707 30.220131,34.3625143 30.220131,36.6649087 C30.220131,38.9673031 30.798138,40.4508544 31.7036822,40.9806941 L31.7036822,40.9806941 Z" id="Shape"></path>
                        <path d="M37.570453,36.5107735 C39.1021714,37.4066843 39.9980822,39.5067763 39.9884488,42.1945087 C39.9884488,45.0845436 39.0251038,46.1153226 37.4163178,45.180878 C35.9809338,44.3524014 34.998322,42.2330425 34.9886885,39.4008084 C34.9790551,36.5685742 36.0869017,35.6437631 37.570453,36.5107735 Z M37.4837519,44.3331345 C38.4470969,44.9111415 38.9769366,43.8225617 38.9769366,41.664669 C38.9769366,39.5067763 38.5337979,37.9654244 37.5030188,37.3585171 C36.6360084,36.8672111 36.0002007,37.7149547 35.9905672,40.0173491 C35.9809338,42.3197436 36.5782077,43.8032948 37.4837519,44.3331345 L37.4837519,44.3331345 Z" id="Shape"></path>
                        <polygon id="Path" points="3.35244042 32.5321589 3.33317352 40.9806941 2.36982857 40.4315875 2.38909547 33.0427317 2.36982857 33.0330983 1.08857979 33.0812655 0.895910801 32.0986537 2.50469686 32.040853"></polygon>
                        <polygon id="Path" points="9.16141045 35.8845993 9.14214355 44.3331345 8.17879861 43.7840279 8.19806551 36.3951721 8.17879861 36.3855387 6.89754983 36.4337059 6.70488084 35.4510941 8.3136669 35.3932934"></polygon>
                        <path d="M14.3153059,38.7168334 C15.8470244,39.6031108 16.7429352,41.7032028 16.7333017,44.3909352 C16.7333017,47.28097 15.7699568,48.3117491 14.1611707,47.3773045 C12.7257868,46.5488279 11.7431749,44.429469 11.7335415,41.5972348 C11.723908,38.7650007 12.8124878,37.849823 14.3153059,38.7168334 Z M14.2189714,46.529561 C15.2304836,47.1075679 15.7217895,46.0189882 15.7217895,43.8707289 C15.7217895,41.7224697 15.2786509,40.1618509 14.2382383,39.5549436 C13.3808613,39.0636376 12.7450537,39.9210146 12.7354202,42.2137756 C12.7257868,44.5065366 13.3134272,46.0093547 14.2189714,46.529561 Z" id="Shape"></path>
                        <polygon id="Path" points="20.7697171 42.5894801 20.7504502 51.0380153 19.7871052 50.4792753 19.8063721 43.100053 19.7871052 43.0904195 18.5058564 43.1385868 18.3131875 42.1559749 19.9219735 42.0981742"></polygon>
                        <polygon id="Path" points="26.5786871 45.9419206 26.5497868 54.3904557 25.5864418 53.8317157 25.6153422 46.4524934 25.5864418 46.4332265 24.305193 46.4910272 24.1221575 45.5084153 25.7309436 45.4506146"></polygon>
                        <polygon id="Path" points="32.3780237 49.294361 32.3587568 57.7428962 31.3954118 57.1841561 31.4146787 49.8049338 31.3954118 49.7856669 30.1141631 49.8434676 29.9214941 48.8608557 31.5302801 48.8030551"></polygon>
                        <polygon id="Path" points="38.1869937 52.6468014 38.1677268 61.0953366 37.2043819 60.5365965 37.2236488 53.1573742 37.2043819 53.1381073 35.9231331 53.195908 35.7304641 52.2132962 37.3392502 52.1554955"></polygon>
                        <polygon id="Path" points="3.31390662 48.138347 3.28500627 56.5868822 2.32166132 56.0281422 2.35056167 48.6489199 2.32166132 48.629653 1.04041254 48.6970871 0.847743554 47.7048418 2.46616307 47.6470411"></polygon>
                        <polygon id="Path" points="9.11324321 51.4907875 9.09397631 59.9393226 8.13063136 59.3805826 8.14989826 52.0013603 8.13063136 51.9820934 6.84938258 52.0398941 6.65671359 51.0572822 8.26549965 50.9994815"></polygon>
                        <path d="M14.2671387,54.3230216 C15.8084906,55.209299 16.6947679,57.3093909 16.6851345,60.0067568 C16.6851345,62.8967916 15.7217895,63.9179373 14.1130035,62.9834927 C12.6776195,62.155016 11.6950077,60.0452906 11.6853742,57.203423 C11.6757408,54.3615554 12.773954,53.4560111 14.2671387,54.3230216 Z M14.1708042,62.1357491 C15.1341491,62.7137561 15.6736223,61.6348098 15.6832557,59.4672836 C15.6928892,57.2997575 15.2401171,55.768039 14.1900711,55.1611317 C13.3326941,54.6698258 12.6968864,55.5272028 12.6968864,57.8295972 C12.6968864,60.1319916 13.2652599,61.6059094 14.1708042,62.1357491 L14.1708042,62.1357491 Z" id="Shape"></path>
                        <path d="M20.0761087,57.675462 C21.6078272,58.5617394 22.503738,60.6618314 22.4941045,63.3591972 C22.4941045,66.2492321 21.5307596,67.2703777 19.9219735,66.3359331 C18.4865895,65.5074564 17.5039777,63.397731 17.4943443,60.5558634 C17.4847108,57.7139958 18.5732906,56.8373519 20.0761087,57.675462 Z M19.9797742,65.4881895 C20.9912864,66.0661965 21.4825923,64.9872502 21.4825923,62.819724 C21.4825923,60.6521979 21.0394537,59.110846 19.9990411,58.5135721 C19.1416641,58.0126328 18.5058564,58.8796432 18.496223,61.1820376 C18.4865895,63.4844321 19.07423,64.9583498 19.9797742,65.4881895 Z" id="Shape"></path>
                        <path d="M25.8754453,61.0279024 C27.4167972,61.9141798 28.3030746,64.0142718 28.3030746,66.7116376 C28.3030746,69.6016725 27.3397296,70.6228181 25.7309436,69.6883735 C24.2955596,68.8598969 23.3129477,66.7983387 23.2936808,63.9083038 C23.2744139,61.018269 24.3822606,60.160892 25.8754453,61.0279024 Z M25.7887443,68.84063 C26.7520892,69.4186369 27.2819289,68.3396906 27.2915624,66.1721645 C27.3011958,64.0046383 26.8484237,62.4632864 25.8080111,61.8660125 C24.9506341,61.3650732 24.3148265,62.2224502 24.305193,64.534478 C24.2955596,66.8465059 24.8832,68.3204237 25.7887443,68.84063 Z" id="Shape"></path>
                        <path d="M31.6844153,64.3803429 C33.2257672,65.2666202 34.1120446,67.3667122 34.1024034,70.0544446 C34.1024034,72.9444794 33.1390662,73.9752585 31.5399136,73.0408139 C30.0948962,72.2027038 29.1219178,70.1026118 29.1026509,67.2607443 C29.083384,64.4188767 30.1912307,63.5133324 31.6844153,64.3803429 Z M31.5977143,72.1930704 C32.5610592,72.7710774 33.090899,71.6824976 33.1005324,69.5246049 C33.1101659,67.3667122 32.6573937,65.8157268 31.6169812,65.218453 C30.7499707,64.7175136 30.1141631,65.5748906 30.1045296,67.8869185 C30.0948962,70.1989463 30.69217,71.6728641 31.5977143,72.1930704 Z" id="Shape"></path>
                        <polygon id="Path" points="38.1484599 68.2529895 38.1195596 76.7015247 37.1658481 76.1427847 37.185115 68.7635624 37.1562146 68.7442955 35.8749659 68.8020962 35.6919303 67.8194843 37.3007164 67.7616836"></polygon>
                        <polygon id="Path" points="3.26573937 63.7445352 3.24647247 72.1930704 2.28312753 71.6439638 2.30239443 64.255108 2.27349408 64.2454746 1.00187875 64.2936418 0.809209756 63.31103 2.41799582 63.2532293"></polygon>
                        <polygon id="Path" points="9.07470941 67.0969756 9.04580906 75.5455108 8.09209756 74.9964042 8.11136446 67.6075484 8.09209756 67.597915 6.80121533 67.6460822 6.60854634 66.6634704 8.22696585 66.6056697"></polygon>
                        <path d="M14.2286049,69.9292098 C15.7603233,70.8154871 16.6562341,72.9155791 16.6466007,75.6033115 C16.6466007,78.4933463 15.6832557,79.5241254 14.0744697,78.5896808 C12.6390857,77.7612042 11.6564739,75.6418453 11.637207,72.8096111 C11.6179401,69.977377 12.7257868,69.0621993 14.2286049,69.9292098 Z M14.1322704,77.7323038 C15.0956153,78.3199443 15.6350885,77.2313645 15.6350885,75.0831052 C15.6350885,72.934846 15.1919498,71.3742272 14.1515373,70.7673199 C13.2941603,70.2760139 12.6583526,71.1237575 12.6487192,73.4357854 C12.6390857,75.7478132 13.2267261,77.2120976 14.1322704,77.7323038 L14.1322704,77.7323038 Z" id="Shape"></path>
                        <path d="M20.0279415,73.2816502 C21.5692934,74.1679275 22.4555707,76.2680195 22.4459295,78.9557519 C22.4459295,81.8457868 21.4825923,82.8765659 19.8738063,81.9421213 C18.4384223,81.1136446 17.4654439,78.9942857 17.446177,76.1620516 C17.4269101,73.3298174 18.5347568,72.4146397 20.0279415,73.2816502 Z M19.931607,81.0847443 C20.9431192,81.6723847 21.4344251,80.5838049 21.4440585,78.4355456 C21.453692,76.2872864 21.0009199,74.7266676 19.9508739,74.1197603 C19.0934969,73.6284544 18.4576892,74.4761979 18.4576892,76.7785923 C18.4576892,79.0809868 19.0260627,80.564538 19.931607,81.0847443 L19.931607,81.0847443 Z" id="Shape"></path>
                        <path d="M25.8369115,76.6340906 C27.36863,77.5203679 28.2645408,79.6204599 28.2549073,82.3081923 C28.2549073,85.1982272 27.2915624,86.2290063 25.6827763,85.2945617 C24.2473923,84.466085 23.2647805,82.3467261 23.255147,79.514492 C23.2455136,76.6822578 24.3340934,75.7670801 25.8369115,76.6340906 Z M25.7502105,84.4468181 C26.7135554,85.0248251 27.2433951,83.9362453 27.2433951,81.7783526 C27.2433951,79.6204599 26.8002564,78.079108 25.7694774,77.4818341 C24.9024669,76.9808948 24.2666592,77.8286383 24.2570258,80.1310328 C24.2473923,82.4334272 24.8446662,83.9169784 25.7502105,84.4468181 L25.7502105,84.4468181 Z" id="Shape"></path>
                        <path d="M31.6362481,79.9576307 C33.1776,80.8535415 34.0638774,82.9536334 34.0638774,85.6413659 C34.0638774,88.5314007 33.1005324,89.5621798 31.4917463,88.6277352 C30.0563624,87.7992585 29.0737505,85.6798997 29.0544836,82.8476655 C29.0352167,80.0154314 30.1430634,79.1195206 31.6362481,79.9576307 Z M31.549547,87.7799916 C32.512892,88.3579986 33.0427317,87.2694188 33.0523652,85.1115261 C33.0619986,82.9536334 32.6092265,81.4122815 31.5688139,80.8053742 C30.7114369,80.3140683 30.0756293,81.1618118 30.0659958,83.4642063 C30.0563624,85.7666007 30.6440028,87.2501519 31.549547,87.7799916 Z" id="Shape"></path>
                        <polygon id="Path" points="38.1002927 83.8591777 38.0810258 92.3077129 37.1176808 91.7586063 37.1369477 84.3697505 37.1080474 84.3504836 35.8267986 84.4082843 35.6437631 83.4256725 37.2525491 83.3678718"></polygon>
                        <polygon id="Path" points="3.22720557 79.3507233 3.19830523 87.7992585 2.23496028 87.2405185 2.25422718 79.8612962 2.23496028 79.8420293 0.953711498 79.89983 0.761042509 78.9172181 2.37946202 78.8594174"></polygon>
                        <path d="M8.3714676,82.173324 C9.91281951,83.0692348 10.7990969,85.1693268 10.7894557,87.8570592 C10.7894557,90.7470941 9.82611847,91.7778732 8.22696585,90.8434286 C6.79158188,90.0149519 5.80897003,87.895593 5.78970314,85.0633589 C5.77043624,82.2311247 6.87828293,81.315947 8.3714676,82.173324 Z M8.28476655,89.995685 C9.2481115,90.573692 9.77795122,89.4947456 9.78758467,87.3272195 C9.79721812,85.1596934 9.34444599,83.6279749 8.30403345,83.0210676 C7.44665645,82.5297617 6.81084878,83.3871387 6.80121533,85.6798997 C6.79158188,87.9726606 7.3792223,89.4754787 8.28476655,89.995685 Z" id="Shape"></path>
                        <path d="M14.1804376,85.5257645 C15.7217895,86.4216753 16.6080669,88.5217672 16.5984334,91.2094997 C16.5984334,94.0995345 15.6350885,95.1303136 14.0263024,94.195869 C12.5909185,93.3673923 11.6083066,91.2480334 11.5986732,88.4157993 C11.5890397,85.5835652 12.687253,84.6683875 14.1804376,85.5257645 Z M14.0841031,93.3481254 C15.0474481,93.9261324 15.5869213,92.8471861 15.5965547,90.6796599 C15.6061882,88.5121338 15.153416,86.9804153 14.10337,86.373508 C13.245993,85.8822021 12.6101854,86.7395791 12.6005519,89.0323401 C12.5909185,91.325101 13.1785589,92.8279192 14.0841031,93.3481254 L14.0841031,93.3481254 Z" id="Shape"></path>
                        <path d="M19.9894077,88.8782049 C21.5211261,89.7741157 22.4170369,91.8742077 22.4074035,94.5619401 C22.4074035,97.4519749 21.4440585,98.482754 19.8352725,97.5483094 C18.3998885,96.7198328 17.4172767,94.6004739 17.3980098,91.7682397 C17.3787429,88.9360056 18.4865895,88.0208279 19.9894077,88.8782049 Z M19.8930732,96.7005659 C20.8564181,97.2785728 21.3958913,96.1996265 21.3958913,94.0321003 C21.3958913,91.8645742 20.9527526,90.3328557 19.9123401,89.7259484 C19.0549631,89.2346425 18.4191554,90.0920195 18.409522,92.3847805 C18.3998885,94.6775415 18.9875289,96.1803596 19.8930732,96.7005659 L19.8930732,96.7005659 Z" id="Shape"></path>
                        <path d="M25.7887443,92.2306453 C27.3300962,93.1169226 28.2163735,95.2266481 28.2067323,97.9143805 C28.2067323,100.804415 27.2433951,101.835194 25.6442425,100.90075 C24.1992251,100.072273 23.2262467,97.9529143 23.2069798,95.1206801 C23.1877129,92.288446 24.2955596,91.3732683 25.7887443,92.2306453 Z M25.7020432,100.053006 C26.6653882,100.631013 27.1952279,99.5520669 27.2048613,97.3845408 C27.2144948,95.2170146 26.7617226,93.6852962 25.7213101,93.0783889 C24.8542997,92.5774495 24.218492,93.4444599 24.218492,95.7372209 C24.218492,98.0299819 24.796499,99.5328 25.7020432,100.053006 Z" id="Shape"></path>
                        <path d="M31.5977143,95.5830857 C33.1294328,96.4693631 34.0253436,98.5790885 34.0157101,101.266821 C34.0157101,104.156856 33.0523652,105.187635 31.4435791,104.25319 C30.0081951,103.424714 29.0255833,101.305355 29.0159498,98.4731206 C29.0063164,95.6408864 30.0948962,94.7257087 31.5977143,95.5830857 Z M31.5110132,103.405447 C32.4743582,103.983454 33.0041979,102.904507 33.0041979,100.736981 C33.0041979,98.5694551 32.5610592,97.0281031 31.5302801,96.4308293 C30.6632697,95.9298899 30.027462,96.7872669 30.0178286,99.0896613 C30.0081951,101.392056 30.605469,102.88524 31.5110132,103.405447 L31.5110132,103.405447 Z" id="Shape"></path>
                        <polygon id="Path" points="3.17903833 94.9569115 3.15977143 103.405447 2.19642648 102.846707 2.21569338 95.4674843 2.18679303 95.4482174 0.9151777 95.5060181 0.722508711 94.5234063 2.33129477 94.4656056"></polygon>
                        <polygon id="Path" points="8.98800836 98.3093519 8.95910801 106.757887 7.99576307 106.199147 8.01502997 98.8199247 7.99576307 98.8006578 6.71451429 98.8584585 6.5218453 97.8758467 8.13063136 97.818046"></polygon>
                        <path d="M14.1322704,101.15122 C15.6736223,102.037497 16.5598997,104.137589 16.5598997,106.834955 C16.5598997,109.72499 15.5965547,110.746135 13.9877686,109.811691 C12.5523847,108.983214 11.5697728,106.863855 11.5505059,104.031621 C11.531239,101.199387 12.6390857,100.274576 14.1322704,101.15122 Z M14.0455693,108.963947 C15.0089143,109.541954 15.538754,108.463008 15.5483875,106.295482 C15.5580209,104.127955 15.1052488,102.586603 14.0648362,101.98933 C13.2074592,101.48839 12.5716516,102.345767 12.5620181,104.657795 C12.5523847,106.969823 13.1400251,108.434107 14.0455693,108.963947 Z" id="Shape"></path>
                        <path d="M19.9412404,104.494026 C21.4825923,105.380304 22.3688697,107.480396 22.3592285,110.177762 C22.3592285,113.067797 21.3958913,114.088942 19.7871052,113.154498 C18.3517213,112.326021 17.3787429,110.264463 17.359476,107.374428 C17.3402091,104.484393 18.4480557,103.627016 19.9412404,104.494026 Z M19.8449059,112.306754 C20.8082509,112.884761 21.347724,111.805815 21.3573575,109.638289 C21.3669909,107.470762 20.9142188,105.92941 19.8641728,105.332137 C19.0067958,104.831197 18.3709882,105.688574 18.3613547,108.000602 C18.3517213,110.31263 18.9393617,111.776914 19.8449059,112.306754 Z" id="Shape"></path>
                        <polygon id="Path" points="26.3956516 108.366673 26.3763847 116.805575 25.4130397 116.256468 25.4323066 108.867613 25.4130397 108.857979 24.1317909 108.91578 23.9487554 107.933168 25.547908 107.875367"></polygon>
                        <polygon id="Path" points="32.2046216 111.70948 32.1757213 120.158015 31.2220098 119.608909 31.2412767 112.220053 31.2220098 112.21042 29.940761 112.26822 29.748092 111.285608 31.356878 111.227808"></polygon>
                    </g>
                    <path d="M126.949597,31.6940488 C127.637379,32.1463457 128.072636,32.8955583 128.124878,33.7170732 C128.124878,34.4684822 127.585405,34.7671192 126.93033,34.3914146 L111.112206,25.2589045 C110.409352,24.806124 109.968128,24.0420531 109.927292,23.2069798 C109.927292,22.4555707 110.466765,22.1473003 111.112206,22.5326383 L126.949597,31.6940488 Z" id="Path" fill="#2A7FFF"></path>
                    <path d="M102.008597,80.4971038 L116.526205,80.4971038 C118.934567,80.4971038 121.34293,81.8554202 123.337054,84.5335192 C123.710302,85.0389261 124.057557,85.563023 124.377466,86.1037714 C128.741419,93.617862 128.741419,105.833076 124.377466,113.3857 C122.18104,117.190913 119.300638,119.088702 116.420237,119.079105 L101.970063,119.079105 L102.008597,80.4971038 Z" id="Path" fill="url(#linearGradient-2)"></path>
                    <path d="M95.1977477,53.2729756 C96.5175303,53.5908794 100.631013,54.5734913 103.10681,58.0897003 C103.800035,58.9765799 104.26927,60.0174894 104.47476,61.1242369 C105.014233,64.7753143 101.835194,68.6190606 99.147462,69.9292098 C91.0842648,73.8596571 77.3854997,63.8890369 78.271777,58.4365045 C78.9942857,54.3711889 88.3965324,51.6449226 95.1977477,53.2729756 Z" id="Path" fill="#FC7D00"></path>
                    <path d="M1.56061882,87.0093157 C2.03999756,88.5228598 2.66929275,89.9847609 3.43914146,91.3732683 C3.99788153,92.5292822 4.74929059,94.195869 5.84750383,96.9510355 C6.30027596,98.0781491 6.72414774,99.1667289 7.11911916,100.207141 C9.81648502,107.364794 11.1940683,112.460889 11.9358439,114.763284 C15.924092,127.720273 28.9003484,149.992808 45.2675791,151.062121 C49.679699,151.341491 52.9743387,149.992808 58.7544084,147.565179 C63.177998,145.697143 67.3187114,143.219848 71.0563233,140.205224 C76.1620516,136.216976 79.8227624,132.633332 85.8822021,131.881923 C86.7010453,131.785589 88.4928669,131.62182 90.9782969,131.159415 C92.5100153,130.870411 94.2922035,130.47544 96.2670606,129.9167 C99.0511275,129.117123 101.170486,128.29828 101.787027,128.04781 C108.790545,125.157776 116.786308,115.697728 119.69561,104.156856 C121.658553,96.9692026 121.399956,89.3557224 118.953834,82.3178258 C116.661073,76.0753505 112.82696,71.4801951 105.255069,64.9776167 C90.3328557,52.2229296 78.8305171,42.3871777 59.9778564,38.6590328 C52.7335024,37.2236488 37.7534885,34.2565463 22.6193394,41.6550355 C5.30207233,49.394227 -3.66837898,68.7076128 1.58951916,86.9322481 L1.56061882,87.0093157 Z" id="Path" fill="#BDCEED"></path>
                    <path d="M43.3505226,125.581647 C48.629653,127.970743 54.3037547,126.814729 56.0281422,122.999883 C56.6412733,121.583151 56.6997251,119.987763 56.1919108,118.529962 C55.015911,115.471897 52.6326927,113.032931 49.6026314,111.786548 C48.7660684,111.408344 47.8950408,111.11155 47.0016,110.90027 C42.5798467,109.850224 38.3314955,111.189274 36.9250118,114.377946 C35.2391582,118.173525 38.1195596,123.202185 43.3505226,125.581647 Z" id="Path" fill="#E6EDF8"></path>
                    <path d="M12.5234843,105.736741 C14.402007,110.110328 18.303554,114.127476 19.738938,113.443501 C20.8467847,112.904028 20.5096139,109.590121 19.5270021,106.314748 C19.2444549,105.329467 18.8968884,104.364004 18.4865895,103.424714 C17.8091353,101.889913 16.9831465,100.425074 16.0204265,99.0511275 C14.4694411,96.854701 12.8028544,95.2748153 11.8587763,95.6505199 C10.3848585,96.2574272 10.7509296,101.613625 12.5234843,105.736741 Z" id="Path" fill="#E6EDF8"></path>
                    <path d="M45.566216,115.736262 C45.6203433,116.082286 45.7008568,116.423664 45.8070523,116.757408 C46.5052853,118.862612 48.3109443,120.40873 50.4985422,120.774556 C51.1109187,120.875896 51.7357879,120.875896 52.3481645,120.774556 C53.8778752,120.548975 55.2598104,119.737088 56.2015443,118.510695 C55.0326738,115.451359 52.6515794,113.010998 49.6218983,111.767281 C48.7853353,111.389077 47.9143077,111.092283 47.0208669,110.881003 C45.8404749,112.20391 45.3076793,113.982248 45.566216,115.736262 Z" id="Path" fill="#1A6DFF"></path>
                    <path d="M15.1341491,102.519169 C15.1743486,102.80037 15.2388122,103.077563 15.3268181,103.347646 C15.7227883,104.577746 16.6435772,105.569093 17.8411484,106.054645 C18.3739834,106.262261 18.9482254,106.341467 19.5173686,106.285848 C19.2316412,105.317302 18.8841245,104.368067 18.4769561,103.44398 C17.7961618,101.908934 16.9669539,100.444108 16.0011596,99.0703944 C15.2569865,100.055112 14.9441268,101.299598 15.1341491,102.519169 Z" id="Path" fill="#1A6DFF"></path>
                    <path d="M87.1730843,115.273856 C87.4864128,118.230841 88.6850787,121.02437 90.6122258,123.288886 C94.1766021,127.142266 99.8603373,127.142266 105.688574,122.527844 C114.291245,115.736262 119.994247,101.43059 118.385461,90.6314927 C116.776675,79.8323958 108.482275,76.5859233 99.8699707,83.3775052 L99.8699707,83.4256725 C91.2480334,90.2365213 85.5739317,104.50366 87.1730843,115.273856 Z" id="Path" fill="#E6EDF8"></path>
                    <path d="M87.1730843,115.273856 C87.4864128,118.230841 88.6850787,121.02437 90.6122258,123.288886 C93.7527303,124.907306 97.8854801,124.252231 102.095298,120.909424 C109.908025,114.744017 115.081187,101.748493 113.655437,91.9512753 C112.383822,83.416039 106.507417,80.0732321 99.8507038,83.4256725 C91.2480334,90.2365213 85.5739317,104.50366 87.1730843,115.273856 Z" id="Path" fill="url(#linearGradient-3)"></path>
                    <path d="M58.2149352,100.708081 C58.1378676,95.717954 58.7929422,86.1519387 65.0739512,77.3565993 C73.6573547,65.3340544 90.9975638,57.1263554 101.575091,62.3862188 C102.351985,62.7677731 103.090688,63.2226076 103.781151,63.7445352 C103.549948,62.4054857 103.328379,61.0664362 103.097176,59.7273868 C100.794782,58.5810063 84.0036794,50.5274425 67.8580181,58.7640418 C64.361076,60.54623 53.6583136,66.0180293 51.3559192,78.0309408 C49.0535247,90.0438523 57.0492878,99.3882983 58.2149352,100.708081 Z" id="Path" fill="#FC7D00"></path>
                    <path d="M102.056764,56.5290815 C102.740739,57.4924265 103.289845,58.3498035 103.723351,59.0626787 C98.5265587,57.766081 93.1108738,57.6083426 87.8474258,58.6002732 C73.7825895,61.3265394 60.5076962,72.8385115 57.8103303,87.4524544 C57.0192928,91.8508617 57.1571128,96.3661067 58.2149352,100.708081 C39.5260432,104.561461 21.540393,96.4500962 14.2864056,81.9613882 C7.12875261,67.6653491 12.0321784,50.431108 21.1165213,41.2889645 C40.6724237,21.5981937 85.6028321,33.3606355 102.056764,56.5290815 Z" id="Path" fill="url(#linearGradient-4)"></path>
                    <path d="M24.3918941,135.648602 C26.4245519,138.683139 28.7943805,142.218615 32.1660878,141.987412 C33.2084474,141.899066 34.207291,141.529494 35.0561226,140.918099 C37.7920223,138.991409 39.5260432,135.138029 38.5723317,133.442542 C37.6186202,131.747055 34.4299484,133.307674 28.6498787,131.226849 C27.4035526,130.771279 26.1982375,130.210517 25.0469686,129.550629 C23.2936808,128.587284 22.3496028,127.816608 21.8197631,128.259746 C20.7697171,129.088223 22.696407,133.134272 24.3918941,135.648602 Z" id="Path" fill="#1A6DFF"></path>
                    <path d="M25.0469686,129.550629 C25.6904976,131.327896 26.5546331,133.017329 27.6190997,134.579289 C29.5457895,137.469324 31.8578174,140.898832 35.0561226,140.918099 C37.7920223,138.991409 39.5260432,135.138029 38.5723317,133.442542 C37.6186202,131.747055 34.4299484,133.307674 28.6498787,131.226849 C27.4035526,130.771279 26.1982375,130.210517 25.0469686,129.550629 Z" id="Path" fill="#6B1949"></path>
                    <path d="M74.8711693,130.167169 C74.6032692,131.126429 74.9585623,132.151246 75.7627361,132.738829 C76.5669099,133.326412 77.6512307,133.353473 78.4837129,132.806734 C80.695747,131.225264 83.2631863,130.212846 85.9592697,129.858899 L85.9592697,129.858899 C86.8193212,129.75884 87.5579225,129.201278 87.8898066,128.401558 C88.2216907,127.601837 88.0949069,126.68514 87.5584223,126.005519 C86.7300863,124.943018 86.0043316,123.804389 85.3908962,122.604911 C83.532589,118.783493 82.7056699,114.542627 82.9921672,110.302997 C83.2115186,103.393075 85.29885,96.6716684 89.0323401,90.853062 C84.6340848,94.6542189 81.2952669,99.5296896 79.3410899,105.004599 C77.6552362,109.985093 78.0116739,113.04853 76.9519944,120.321784 C76.4727218,123.645248 75.7776443,126.933995 74.8711693,130.167169 L74.8711693,130.167169 Z" id="Path" fill="#E6EDF8"></path>
                    <path d="M3.43914146,91.3732683 C3.99788153,92.5292822 4.74929059,94.195869 5.84750383,96.9510355 C6.30027596,98.0781491 6.72414774,99.1667289 7.11911916,100.207141 C5.05703948,88.5710201 5.01467519,76.6666537 6.99388432,65.0161505 C3.55246688,73.3473893 2.32777881,82.4280033 3.43914146,91.3732683 L3.43914146,91.3732683 Z" id="Path" fill="#E6EDF8"></path>
                    <path d="M45.2772125,44.7859066 C46.3220825,45.4203861 47.5058149,45.7907158 48.7259875,45.864853 C50.9609477,45.9804544 52.2421965,44.901508 55.6620711,43.7936613 C56.9556792,43.3623646 58.2747805,43.0116767 59.6117854,42.7436153 L59.8237213,44.2657003 C59.8973422,45.52019 59.2995317,46.7194785 58.253469,47.4158383 C55.3292304,49.5317103 51.5685248,50.1190967 48.138347,48.995724 C46.5488279,48.3888167 45.6529171,47.4062049 45.4891484,46.3079916 L45.2772125,44.7859066 Z" id="Path" fill="#BDCEED"></path>
                    <path d="M46.8763652,41.6357686 C49.8016353,39.5216789 53.5629617,38.9377778 56.9914871,40.0655164 C60.0741909,41.2407972 60.54623,43.851462 58.0511666,45.8455861 C55.1275446,47.962955 51.3660916,48.5504581 47.9360446,47.4254718 C44.8533408,46.2983582 44.3716683,43.6876934 46.8763652,41.6357686 Z" id="Path" fill="#E6EDF8"></path>
                    <path d="M48.436984,7.76456028 C50.7939679,19.7999498 53.1477408,31.8289171 55.4983024,43.851462 C54.7822477,44.8537773 53.6622934,45.4912356 52.4348655,45.5951164 C51.3836019,45.6566926 50.3488958,45.3117906 49.5448307,44.6317714 C48.3502829,32.2238885 47.1589463,19.8160056 45.9708209,7.40812265 L48.436984,7.76456028 Z" id="Path" fill="#BDCEED"></path>
                    <path d="M43.2349213,8.43890174 C43.3644976,9.37319679 43.8179433,10.232357 44.51617,10.866531 C45.6614641,11.9748922 47.3458685,12.3178907 48.8333859,11.7456541 C50.3209034,11.1734174 51.3411529,9.78995899 51.4483385,8.19977846 C51.555524,6.60959793 50.7301627,5.10173679 49.3328948,4.33505226 L49.3328948,4.33505226 C47.9782528,3.525188 46.2782498,3.56822237 44.9663189,4.44558904 C43.654388,5.3229557 42.9653151,6.87763925 43.1963875,8.43890174 L43.2349213,8.43890174 Z" id="Path" fill="#FC7D00"></path>
                    <path d="M43.2349213,8.43890174 C43.3644976,9.37319679 43.8179433,10.232357 44.51617,10.866531 C45.2192843,11.1582334 45.9880968,11.2547509 46.7414969,11.145901 C48.2364397,10.9248569 49.4973955,9.91776451 50.0434876,8.50868745 C50.5895797,7.0996104 50.3366143,5.50579329 49.381062,4.33505226 L49.381062,4.33505226 C48.0264201,3.525188 46.326417,3.56822237 45.0144861,4.44558904 C43.7025552,5.3229557 43.0134824,6.87763925 43.2445547,8.43890174 L43.2349213,8.43890174 Z" id="Path" fill="#FF9209"></path>
                    <path d="M45.8070523,116.757408 C46.5052853,118.862612 48.3109443,120.40873 50.4985422,120.774556 C50.4613794,119.600006 49.9316291,118.495322 49.0390096,117.731005 C48.1463901,116.966688 46.9733225,116.613312 45.8070523,116.757408 L45.8070523,116.757408 Z" id="Path" fill="#6B1949"></path>
                    <path d="M15.3268181,103.347646 C15.7227883,104.577746 16.6435772,105.569093 17.8411484,106.054645 C17.8887856,105.342001 17.633414,104.642352 17.1379066,104.127955 C16.652201,103.651759 16.0065246,103.373569 15.3268181,103.347646 Z" id="Path" fill="#6B1949"></path>
                    <path d="M166.581608,140.744697 C166.200555,139.887755 165.694066,139.092307 165.07879,138.384502 C164.600505,137.824723 164.034377,137.346443 163.40257,136.968385 L86.4987429,92.5774495 C85.7007045,91.9949708 84.6493475,91.8916796 83.7532098,92.3077129 L78.3970118,95.4289505 L78.3970118,95.4289505 C77.5985159,95.9837068 77.1634134,96.9276581 77.2602648,97.8951136 L78.2236098,136.00504 C78.3788301,138.709745 79.8088727,141.180143 82.0769895,142.661753 L101.902629,153.258548 C101.902629,153.374149 107.355161,164.510417 97.0859038,167.477519 C98.3507256,168.60468 99.7255777,169.601932 101.189753,170.454255 C102.265728,171.089139 103.405544,171.608998 104.590361,172.00524 C107.885001,173.09382 110.717235,172.804817 112.875128,171.4465 L112.663192,171.591002 L118.01939,168.479398 C119.146503,167.824323 120.080948,165.791666 120.822723,164.626018 L157.882603,187.110489 C158.773162,187.778408 159.997681,187.778408 160.88824,187.110489 C160.808486,187.192133 160.721421,187.266299 160.628137,187.332059 L165.984334,184.210821 C166.777605,183.656868 167.208877,182.716918 167.111448,181.754291 L167.217416,143.644365 C167.210731,142.643966 166.994125,141.65611 166.581608,140.744697 Z" id="Path" fill="url(#linearGradient-5)"></path>
                    <path d="M158.036739,140.089622 C160.308323,141.567944 161.739477,144.040262 161.890118,146.746336 L161.784151,184.846629 C161.784151,187.283891 160.030863,188.276137 157.930771,187.052689 L117.287247,163.585606 C116.323902,170.598757 111.507178,174.1824 104.638528,171.957073 C103.453711,171.560831 102.313895,171.040972 101.237921,170.406088 C99.7737449,169.553765 98.3988928,168.556513 97.1340711,167.429352 C100.457611,165.319626 102.076031,160.685937 101.045252,154.539797 C101.045252,154.414562 100.997084,154.289327 100.977817,154.173725 L81.0269436,142.613586 C78.7588267,141.131976 77.3287841,138.661577 77.1735638,135.956872 L77.2891652,97.8469463 C77.2891652,95.4193171 79.0328195,94.4270718 81.1425449,95.6505199 L158.036739,140.089622 Z" id="Path" fill="url(#linearGradient-6)"></path>
                    <path d="M111.931049,142.286049 C113.974047,143.617007 115.25897,145.843253 115.389458,148.278054 C115.389458,150.474481 113.819206,151.360758 111.911783,150.262545 L91.8549408,138.702406 C89.8119435,137.371448 88.5270202,135.145202 88.3965324,132.7104 C88.3965324,130.523607 89.9667847,129.627696 91.8742077,130.725909 L111.931049,142.286049 Z" id="Path" fill="#0039D8"></path>
                    <path d="M131.785589,153.749854 C133.828586,155.080812 135.113509,157.307057 135.243997,159.741859 C135.243997,161.938286 133.673745,162.824563 131.766322,161.72635 L124.252231,157.381664 C122.205723,156.054036 120.919671,153.825835 120.793823,151.389659 C120.793823,149.202866 122.364075,148.306955 124.271498,149.462969 L131.785589,153.749854 Z" id="Path" fill="#0039D8"></path>
                    <path d="M126.814729,137.565659 C128.849645,138.904256 130.131992,141.126038 130.273137,143.557664 C130.273137,145.754091 128.702885,146.650001 126.795462,145.542155 L91.8934746,125.398612 C89.8648218,124.076449 88.582043,121.871785 88.4350662,119.454774 C88.4350662,117.258347 90.0053185,116.37207 91.9127415,117.470283 L126.814729,137.565659 Z" id="Path" fill="#0039D8"></path>
                    <path d="M139.685017,158.219774 C139.30336,157.623444 139.093374,156.933491 139.07811,156.22565 L138.721672,138.49047 C138.655847,137.900889 138.947586,137.328778 139.463448,137.035819 C140.060846,136.78578 140.745901,136.870039 141.264903,137.257388 C142.012875,137.707601 142.630478,138.345127 143.056725,139.10701 C143.509628,139.795273 143.763044,140.595533 143.788867,141.419038 L143.384262,158.759247 C143.415341,159.273338 143.144529,159.758544 142.690654,160.001962 C142.199553,160.205529 141.63802,160.139895 141.207102,159.82856 C140.56465,159.438498 140.038927,158.882829 139.685017,158.219774 L139.685017,158.219774 Z" id="Path" fill="#0039D8"></path>
                    <path d="M143.413162,163.0943 C143.963679,163.920917 144.270783,164.885621 144.29944,165.878367 C144.385536,166.595816 144.03226,167.29477 143.403529,167.650921 C142.700143,167.940386 141.896686,167.84178 141.28417,167.390818 C140.840061,167.131235 140.4374,166.806507 140.089622,166.427473 C139.724677,166.042153 139.401746,165.619114 139.126277,165.165491 C138.853659,164.727304 138.633776,164.258436 138.471203,163.768641 C138.322659,163.321024 138.244659,162.853022 138.24,162.381424 C138.225438,161.99773 138.308293,161.616597 138.480836,161.273578 C138.618166,160.989281 138.84961,160.76124 139.135911,160.628137 C139.439113,160.497576 139.771856,160.450992 140.099256,160.493268 C140.523397,160.558338 140.929841,160.709115 141.293803,160.936407 C142.171568,161.464659 142.900811,162.20716 143.413162,163.0943 Z" id="Path" fill="#0039D8"></path>
                </g>
                <g id="_08" transform="translate(0.000000, 169.548711)">
                    <path d="M12.0129115,117.942322 C14.5176084,116.593639 22.0605993,112.672825 27.0218258,112.48979 C27.9370035,112.48979 29.9118606,112.374188 30.6343693,113.530202 C31.0188887,114.308397 31.0470038,115.215109 30.7114369,116.015632 C29.3723875,120.302517 23.1106453,122.344808 21.3284571,122.922815 C17.9952836,124.011395 13.6216976,125.417879 11.9647443,123.365954 C10.5967944,121.747534 11.6564739,118.867133 12.0129115,117.942322 Z" id="Path" fill="#5F2547"></path>
                    <path d="M11.444538,122.807214 C13.1303916,124.493068 17.3883763,122.807214 18.9297282,122.152139 C21.0972544,121.265862 23.3514815,120.360318 24.3340934,118.202425 C25.2396376,116.275735 24.5845631,115.119721 23.6790188,107.942801 C23.3758461,105.695164 23.4769831,103.411426 23.9776557,101.199387 C24.3533603,99.4364655 24.9410007,97.4134411 25.7309436,94.773876 C28.4861101,85.5642983 30.6151024,78.4451791 31.7229491,72.7807108 C33.0523652,65.969862 32.8789631,61.2783721 30.499501,57.6272948 C27.6672669,53.2633422 21.8293965,50.6334105 19.3632334,52.0880613 C17.4365436,53.2151749 17.0801059,57.0300209 16.781469,60.2764934 C16.6186402,62.0420907 16.6186402,63.8189267 16.781469,65.584524 C17.1571735,69.3897366 16.0974941,75.3721087 13.9781352,87.1923512 C11.9454774,98.5116544 11.3289366,100.004839 11.4734383,104.330258 C11.5408725,106.314748 11.7528084,107.663431 11.7720753,109.570854 C11.7720753,110.139228 11.7720753,110.746135 11.7046411,111.902149 C11.2807693,119.522208 10.2403568,121.583766 11.444538,122.807214 Z" id="Path" fill="url(#linearGradient-7)"></path>
                    <path d="M31.2798105,130.128636 C33.7845073,128.779953 41.3274983,124.859139 46.2887247,124.66647 C47.2520697,124.66647 49.1787596,124.560502 49.9012683,125.716516 C50.2854008,126.491399 50.3135296,127.395038 49.9783359,128.192312 C48.6392864,132.488831 42.3775443,134.521489 40.5953561,135.109129 C37.2621826,136.188075 32.8885965,137.604192 31.2316432,135.542634 C29.8636934,133.904948 30.9233728,131.014913 31.2798105,130.128636 Z" id="Path" fill="#5F2547"></path>
                    <path d="M42.5605798,122.807214 C42.9459178,124.425633 43.466124,126.236722 42.7050815,128.259746 C40.9132599,133.076471 33.1486997,135.841271 30.8077714,133.721912 C29.6806578,132.700767 30.1815972,130.880045 30.499501,127.941843 C31.7325826,116.68034 27.4264307,114.936686 28.4861101,103.578849 C29.0352167,97.5868432 30.2971986,97.4230746 30.2008641,92.1535777 C30.1430634,89.0227066 29.6517575,87.0863833 29.2375192,80.8631749 C29.0448502,78.1947094 28.9485157,76.0464502 28.9099819,74.5725324 C24.9656973,69.6589253 23.6446159,63.1396758 25.3648725,57.0781882 C28.0036866,58.7031084 31.0629905,59.5140082 34.1602118,59.4094829 C37.8081911,59.2379278 41.2868701,57.8199326 44.0152307,55.3923345 C46.0273278,65.2276752 46.2329798,75.3470597 44.622138,85.2560279 C43.7936613,90.1401868 43.292722,90.0727526 42.6954481,94.8894774 C41.4238328,103.935286 40.2196516,112.971462 42.5605798,122.807214 Z" id="Path" fill="url(#linearGradient-8)"></path>
                    <path d="M34.6804181,18.688892 L33.8712084,21.068354 C31.9445185,20.7697171 30.9811735,20.4421798 30.9330063,20.1050091 C30.884839,19.7678383 32.1371875,19.1994648 34.6804181,18.688892 Z" id="Path" fill="#ABABC3"></path>
                    <path d="M18.303554,42.2908432 C21.8197631,43.7262272 22.2725352,50.151738 20.9623861,50.8549798 C20.2206105,51.2595847 18.775593,49.8916348 17.2824084,48.5044181 C15.7892237,47.1172014 13.1689254,44.6510383 13.8721672,43.1289533 C14.4501742,42.0018397 16.7236683,41.6357686 18.303554,42.2908432 Z" id="Path" fill="#F8D0C9"></path>
                    <path d="M7.15765296,27.9370035 C10.8183638,28.5535443 12.9858899,31.3279777 15.8951916,35.0657561 C18.8044934,38.8035345 21.0490871,41.664669 20.0375749,44.2657003 C19.4446429,45.7486657 18.1242311,46.8173968 16.5502662,47.088301 C13.9974021,47.4062049 12.6968864,44.708839 5.48143275,36.22177 C2.08082509,32.233522 0.587640418,30.7596042 1.13674704,29.4783554 C1.80145505,27.8310355 4.97085993,27.5227652 7.15765296,27.9370035 Z" id="Path" fill="url(#linearGradient-9)"></path>
                    <path d="M16.0204265,15.6061882 C14.0455693,14.4501742 9.93208641,18.303554 6.92645017,21.068354 C4.6144223,23.2166132 -0.0578006969,27.561299 1.14638049,30.4609672 C1.4907383,31.1776614 2.08266881,31.7456409 2.81296725,32.0601199 C6.23284181,33.7459735 12.0803456,30.6440028 14.8644125,26.2800502 C17.3402091,22.4459373 17.9663833,16.7525686 16.0204265,15.6061882 Z" id="Path" fill="url(#linearGradient-10)"></path>
                    <path d="M18.7563261,50.6334105 C18.9999097,47.8734465 18.8702964,45.0932411 18.3709882,42.3679108 C17.4076432,37.1658481 15.6928892,35.7111972 14.0552028,30.3935331 C12.6487192,25.8176446 10.5967944,19.1705645 13.4868293,16.2130955 C15.8277575,13.8432669 20.3362118,14.8933129 24.7001645,15.9144585 C28.3512418,16.7622021 35.5859624,18.4384223 39.3333742,24.5845631 C40.6627902,26.7520892 41.2600641,29.0159498 41.6068683,35.2680585 C41.9937418,42.7085144 41.7164853,50.1686473 40.7783916,57.5598606 C32.7090934,60.4165921 23.722592,57.6068388 18.7177923,50.6623108 L18.7563261,50.6334105 Z" id="Path" fill="#D7D7E0"></path>
                    <path d="M44.2464334,55.0262634 L44.8533408,57.8103303 C39.8307247,59.9096106 34.2609123,60.3154257 28.9870495,58.9663443 C24.9788126,57.9039815 21.3039396,55.8461852 18.303554,52.9839721 C18.2175159,52.9022498 18.1777889,52.783069 18.1975861,52.6660683 C18.2842871,51.9820934 18.3806216,51.2981185 18.4673226,50.6141436 C18.4853331,50.4699604 18.5848694,50.349089 18.7229212,50.3037585 C18.860973,50.2584281 19.0127871,50.2967666 19.1127638,50.4022077 C25.5969122,57.2711619 35.7779301,59.1601419 44.2946007,55.0744307 L44.2464334,55.0262634 Z" id="Path" fill="#000B75"></path>
                    <path d="M33.649639,15.7988571 C33.8615749,17.918216 34.0831443,20.0375749 34.2950801,22.1665672 C32.2299885,22.8536478 30.0200848,22.9832512 27.8888362,22.5422718 C26.0333125,22.1529913 24.2946631,21.3348034 22.8120084,20.1531763 L23.0721115,14.0937366 L33.649639,15.7988571 Z" id="Path" fill="#EAC5C1"></path>
                    <path d="M34.6804181,18.6599916 C35.3822242,18.9755856 35.9777468,19.4874674 36.3951721,20.1339094 C36.721648,20.6406994 36.9200139,21.2192665 36.9731791,21.8197631 C35.6415864,22.591882 34.1988788,23.1540181 32.6959275,23.4863498 C30.3844191,24.1219234 27.9318866,24.0174886 25.6827763,23.1877129 C24.7194314,22.783108 22.4459373,21.8582969 21.8293965,19.8160056 C21.4247916,18.4287889 21.8293965,16.8392697 22.3207024,16.781469 C22.8120084,16.7236683 22.8698091,18.5443902 24.2473923,19.9990411 C26.3690298,22.0390769 29.5471799,22.5179233 32.1757213,21.1935889 C33.2327395,20.6020231 34.1010173,19.7237267 34.6804181,18.6599916 L34.6804181,18.6599916 Z" id="Path" fill="url(#linearGradient-11)"></path>
                    <path d="M25.4226732,8.67010453 C24.4593282,12.1670467 24.6808976,15.2786509 25.8369115,16.8970704 C26.3057437,17.5525213 26.9145088,18.095474 27.6190997,18.4865895 C28.3151845,18.9695752 29.1836583,19.134165 30.0081951,18.9393617 C30.3867302,18.8104235 30.7208244,18.5765576 30.9715401,18.2650202 L31.9926857,18.6792585 C35.8460655,18.881561 38.8517017,17.3113087 39.4586091,15.4905868 C39.7395337,14.5962221 39.792517,13.6458349 39.6127443,12.7257868 C39.4882543,12.2180311 39.2833648,11.7334511 39.0058369,11.2904028 C39.5202367,11.2652393 39.9658128,10.9253932 40.1261078,10.435959 C40.2864029,9.94652481 40.1281971,9.40893361 39.7283456,9.08434286 C39.0829045,8.43890174 38.3411289,8.77607247 37.7149547,8.17879861 C37.4325492,7.85881854 37.2485644,7.46408742 37.185115,7.04205157 C36.9442787,6.24247526 36.2699373,5.18279582 34.2950801,4.15201672 C32.6346506,4.07128345 30.9800083,4.4022119 29.4783554,5.11536167 C27.8326007,5.91582152 26.4319484,7.14347161 25.4226732,8.67010453 L25.4226732,8.67010453 Z" id="Path" fill="#F8D0C9"></path>
                    <path d="M31.9445185,0.751409059 C33.1308139,1.13128289 34.1509203,1.90656379 34.8345533,2.94783554 C35.8316207,4.60441073 35.8316207,6.67635861 34.8345533,8.3329338 C33.8712084,9.77795122 32.6092265,9.45041394 32.1082871,10.8279972 C31.6940488,11.9358439 32.3972906,12.4271498 32.1082871,14.2767721 C31.9252516,15.2882843 31.4532125,16.6177003 30.8944725,16.6273338 C30.3357324,16.6369672 30.3935331,15.7988571 29.5265226,15.3749854 C28.8725607,15.0303168 28.0790549,15.0902041 27.4842314,15.5291206 C26.9158578,16.1456613 27.6865338,17.0512056 27.2530286,17.7640808 C26.6557547,18.7274258 24.2088585,18.7274258 22.4363038,17.7640808 C20.0279415,16.502099 19.3536,13.6987652 18.9875289,12.195947 C18.7177923,11.0495666 17.5425115,6.18467456 20.3554787,3.32354007 C21.3188237,2.36019512 22.7156739,1.93632334 25.4708404,1.16564739 C28.0622383,0.491305923 29.8636934,-1.11022302e-16 31.9445185,0.751409059 Z" id="Path" fill="#000B75"></path>
                    <path d="M41.7706369,61.2494718 C42.2812098,61.6733436 45.479515,64.4959443 44.8051735,67.3089115 C44.6414049,67.9736195 44.150099,69.12 43.4372237,69.1778007 C42.9459178,69.2259679 42.5509463,68.7250286 41.5105338,67.1162425 C38.9769366,63.2628627 39.0154704,62.7908237 39.1696056,62.453653 C39.2370397,62.260984 39.6705449,61.4325073 41.7706369,61.2494718 Z" id="Path" fill="#F8D0C9"></path>
                    <path d="M42.1270746,63.86977 C41.542552,64.3305608 40.7876007,64.516665 40.0558829,64.3803429 C39.7379791,64.2936418 39.0058369,63.9853714 38.3892962,62.453653 C37.4259512,60.0452906 38.0713923,57.9259317 38.3892962,55.1803986 C38.6353758,53.0134139 38.6353758,50.825538 38.3892962,48.6585533 L46.72223,49.4677631 C46.6960329,52.5125487 46.2552659,55.5395811 45.4120808,58.4654049 C44.7570063,60.6907317 43.8996293,62.7619233 42.1270746,63.86977 Z" id="Path" fill="url(#linearGradient-12)"></path>
                    <path d="M39.4971429,25.16257 C40.9806941,25.268538 42.0885408,27.2915624 43.186754,30.0659958 C47.2520697,40.2678188 48.0034787,51.6641895 45.1616111,53.003239 C44.476098,53.3075745 43.7344836,53.4650856 42.9844516,53.4656446 C42.1122411,53.4025171 41.265724,53.1423036 40.5086551,52.7046021 C38.5819652,51.5389547 37.8787233,47.8878774 36.7227094,43.4275902 C35.4607275,38.6108655 34.0542439,34.2372794 34.7960195,30.6729031 C34.8943764,30.2011706 35.0462847,29.7422137 35.2487916,29.3049533 C36.0002007,27.5998328 37.6956878,25.0469686 39.4971429,25.16257 Z" id="Path" fill="url(#linearGradient-13)"></path>
                    <path d="M148.875328,83.5412739 C148.470629,82.6200565 147.928163,81.7657541 147.266542,81.0076767 C146.757076,80.4104992 146.151476,79.9025766 145.474721,79.5048585 L101.883362,54.3326551 C101.446897,50.7888982 100.47234,47.3324699 98.9933268,44.0826648 C97.3143045,40.2717734 95.0665917,36.737797 92.3269798,33.6014718 C91.1185752,32.2139061 89.8010045,30.9253284 88.386899,29.748092 C87.2555197,28.8013858 86.04715,27.9506935 84.7743554,27.2048613 C83.3984333,26.3709358 81.9180462,25.723064 80.371869,25.2781714 L74.5917993,28.6209784 C76.8749268,32.7151944 82.7898648,39.4104418 83.2619038,43.3890564 L62.9545923,31.8289171 C62.1113334,31.223515 61.0081635,31.1168753 60.0645575,31.549547 L54.2844878,34.892354 L54.2844878,34.892354 C53.4293443,35.5017498 52.9720246,36.5270309 53.0899401,37.570453 L55.3056334,77.2698983 C55.4668114,80.1695906 56.9975415,82.8197566 59.4287498,84.4082843 L139.579049,133.192072 C140.879565,133.943482 142.035579,133.895314 142.796622,133.24024 C142.715022,133.330258 142.620942,133.408117 142.517252,133.471443 L148.297321,130.128636 C149.14691,129.530874 149.610324,128.523131 149.511136,127.48907 L149.626737,86.6239777 C149.587341,85.556165 149.331715,84.507445 148.875328,83.5412739 Z" id="Path" fill="url(#linearGradient-14)"></path>
                    <path d="M78.9942857,30.5476683 C80.2807323,31.2947547 81.502063,32.1487194 82.6453631,33.1005324 C89.9764181,39.1503387 95.1688474,49.0535247 96.1321923,57.675462 L139.685017,82.8476655 C142.117384,84.4350967 143.648484,87.0859038 143.808134,89.9860516 L143.692532,130.851144 C143.692532,133.461809 141.81401,134.521489 139.540516,133.211339 L57.0974551,85.5931986 C54.6699159,84.0025341 53.1429663,81.3527223 52.9839721,78.4548125 L53.0899401,37.570453 C53.0899401,34.9501547 55.01663,33.8904753 57.2419568,35.2006244 L78.6474815,47.5603401 C78.6474815,47.4640056 78.7052822,47.3676711 78.7245491,47.2617031 C79.8612962,41.9536725 78.1561756,35.0079554 74.6110662,28.6402453 C76.1489775,29.0824374 77.6225221,29.7236722 78.9942857,30.5476683 Z" id="Path" fill="url(#linearGradient-15)"></path>
                    <path d="M81.1136446,81.4508153 L62.7137561,70.8540209 C60.6618314,69.6691066 58.9856111,70.6324516 58.9759777,72.9830132 C59.1199962,75.592817 60.4970065,77.9784426 62.6848557,79.408524 L81.0847443,90.0053185 C83.136669,91.1805993 84.8128892,90.2268878 84.8225226,87.8763261 C84.6785041,85.2665223 83.3014939,82.8808968 81.1136446,81.4508153 Z" id="Path" fill="#023AD6"></path>
                    <path d="M62.7233895,65.1221185 L108.857979,91.7682397 C110.90027,92.953154 112.586124,91.9898091 112.586124,89.6392474 C112.446708,87.0280757 111.068582,84.6405165 108.877246,83.2137366 L62.7522899,56.5676153 C60.7003652,55.382701 59.0241449,56.346046 59.0145115,58.6966077 C59.1630924,61.3050512 60.5390001,63.6887668 62.7233895,65.1221185 L62.7233895,65.1221185 Z" id="Path" fill="#023AD6"></path>
                    <path d="M114.19491,100.544312 L95.7950216,89.9475178 C93.7430969,88.7626035 92.0668767,89.716315 92.0572432,92.0668767 C92.1966589,94.6780483 93.5747853,97.0656075 95.7661213,98.4923875 L114.16601,109.089182 C116.217934,110.274096 117.894155,109.320385 117.903788,106.96019 C117.752226,104.355212 116.37667,101.975677 114.19491,100.544312 Z" id="Path" fill="#023AD6"></path>
                    <path d="M124.97474,108.63641 C124.316592,108.142799 123.452012,108.019287 122.681979,108.308872 C121.998307,108.694843 121.617207,109.457042 121.718634,110.235562 C121.76264,111.300023 122.095667,112.332409 122.681979,113.221932 C123.222743,114.192841 124.010345,115.003705 124.965107,115.572493 C125.632097,116.07354 126.512136,116.190391 127.286768,115.880764 C127.97044,115.494793 128.35154,114.732594 128.250113,113.954074 C128.211763,112.891603 127.878177,111.860825 127.286768,110.977338 C126.728135,110.012782 125.932282,109.206981 124.97474,108.63641 L124.97474,108.63641 Z" id="Path" fill="#023AD6"></path>
                    <path d="M133.192072,92.9916878 C132.777616,91.5876388 132.181734,90.2436678 131.419518,88.9938063 C130.632906,87.7167001 129.694876,86.5393101 128.625817,85.4872307 C127.548275,84.4109882 126.333644,83.4813906 125.013274,82.7224307 C124.153629,82.2321855 123.258417,81.8071209 122.335175,81.4508153 C121.450144,81.086891 120.525414,80.8282254 119.580008,80.6801394 C118.852006,80.5441456 118.100354,80.6176405 117.412482,80.8920753 C116.812594,81.1822286 116.461176,81.8194164 116.535838,82.4815944 C116.551127,83.3694047 116.840496,84.2307817 117.364315,84.9477575 C117.813843,85.6563498 118.416191,86.2554068 119.127236,86.7010453 C119.497881,86.9671119 119.956454,87.0808932 120.408485,87.0189491 C120.780298,86.9267876 121.162176,86.88148 121.545232,86.8840808 C122.085096,86.912838 122.616113,87.0333755 123.115484,87.2405185 C123.629529,87.4385968 124.128561,87.6736249 124.608669,87.9437603 C125.816247,88.6056108 126.816653,89.5893432 127.498704,90.7856279 C128.093878,91.7738839 128.425566,92.8983057 128.462049,94.0513672 C128.483953,94.6444586 128.368563,95.2345942 128.124878,95.7757547 C127.924725,96.2203758 127.654795,96.6301491 127.325302,96.9895693 C127.04407,97.3172514 126.720052,97.6056278 126.361957,97.8469463 C126.015153,98.0781491 125.687615,98.2708181 125.398612,98.4345868 C125.026159,98.650827 124.668892,98.8922236 124.329299,99.1570955 C123.971331,99.4391116 123.64797,99.7624721 123.365954,100.12044 C123.060171,100.488102 122.819113,100.905068 122.653079,101.353522 C122.458243,101.840212 122.363238,102.361104 122.373709,102.88524 C122.362076,103.42183 122.443561,103.956374 122.614545,104.465126 C122.937905,105.369877 123.461515,106.18987 124.146263,106.863855 C124.435166,107.142179 124.758989,107.381808 125.109608,107.57673 C125.641239,107.95401 126.319991,108.057609 126.939964,107.8561 C127.536621,107.575569 127.894489,106.952187 127.835875,106.295482 C127.838262,106.059985 127.857578,105.824965 127.893675,105.59224 C127.904204,105.397783 127.994896,105.216397 128.144145,105.0913 L129.261625,104.455493 C129.63733,104.25319 130.147902,103.91602 130.802977,103.492148 C131.664786,102.89619 132.40122,102.136845 132.970503,101.257187 C133.657009,100.013593 133.974492,98.5999584 133.885681,97.1822383 C133.863293,95.7587457 133.629538,94.3464779 133.192072,92.9916878 Z" id="Path" fill="#023AD6"></path>
                </g>
                <g id="man-7" transform="translate(172.878606, 210.009199)">
                    <path d="M28.5568223,134.743058 C28.2699586,135.650351 28.3893836,136.637364 28.8843596,137.450057 C29.8477045,138.760206 31.95743,138.49047 32.2560669,138.413402 C33.9419206,138.182199 34.9823331,137.112886 36.6778202,135.311431 C38.2288056,133.664111 39.7316237,132.026425 40.3288976,129.454294 C40.5986341,128.26938 41.0128725,126.477558 40.0495275,125.53348 C39.0861826,124.589402 36.9379233,124.965107 35.6277742,125.639448 C33.5276822,126.737661 34.1345895,128.124878 31.2638216,131.169048 C29.8862383,132.662233 28.9228934,133.230606 28.5568223,134.743058 Z" id="Path" fill="#5F2547"></path>
                    <path d="M2.74881115,130.697009 C2.46700649,131.609056 2.58976724,132.598157 3.08598188,133.413642 C4.04932683,134.714157 6.15905226,134.444421 6.4576892,134.376987 C8.14354286,134.155417 9.1839554,133.076471 10.8794425,131.284649 C12.4207944,129.63733 13.933246,127.99001 14.5208864,125.417879 C14.8002564,124.232964 15.2144948,122.441143 14.2415164,121.497065 C13.268538,120.552987 11.1395456,120.928691 9.82939652,121.612666 C7.72930453,122.701246 8.3265784,124.088463 5.45581045,127.132633 C4.08786063,128.625817 3.11488223,129.184557 2.74881115,130.697009 Z" id="Path" fill="#5F2547"></path>
                    <path d="M5.34020906,68.2915233 C5.08973937,70.4397826 2.7199108,90.6122258 1.69876516,105.861976 C0.53311777,123.115484 2.10337003,119.127236 1.36159443,122.604911 C0.840353307,124.864447 0.984220911,127.226552 1.77583275,129.406127 C2.18043763,130.417639 2.85477909,132.055325 4.43466481,132.720033 C6.73705923,133.683378 9.29955679,131.87229 9.74269547,131.56402 C10.7060404,130.889678 12.7579652,129.088223 13.7213101,123.597157 C14.2917121,119.937795 14.2069023,116.20616 13.4708404,112.576491 C12.2666592,104.455493 14.5690537,96.1996265 19.183476,79.5819261 C20.1468209,76.2969199 20.9463972,73.6188209 21.5051373,71.8751666 C21.6592725,71.2104585 23.2680585,63.7156348 20.5417923,62.1742829 C19.8000167,61.7600446 18.7210704,61.7793115 11.3418481,65.3244209 C8.83715122,66.4708014 6.79485993,67.5208474 5.34020906,68.2915233 Z" id="Path" fill="url(#linearGradient-16)"></path>
                    <path d="M19.3279777,72.2508711 C20.8250178,74.0404236 21.9779657,76.0915605 22.7285854,78.3006774 C23.2969589,80.0346983 23.3451261,81.0558439 23.6919303,84.4371847 C24.4626063,91.325101 24.7227094,91.0842648 25.0117129,94.8798439 C25.3488836,99.2052627 25.0117129,99.9566718 25.185115,103.838952 C25.464485,111.054406 26.6686662,111.324142 27.1118049,117.431749 C27.8150467,127.585405 24.8768446,132.45993 28.1811178,135.5041 C29.2635715,136.447282 30.6470143,136.973332 32.0826648,136.987652 C35.1268348,136.900951 37.4677631,133.876047 38.3829408,131.525486 C39.760524,127.980376 38.2866063,125.013274 37.3039944,121.159894 C35.3773045,113.771038 38.0168697,113.63617 38.04577,96.0454913 C38.04577,90.0053185 37.7567666,90.1787206 37.7182328,81.701285 C37.7182328,75.4010091 37.8338341,70.2278467 37.9687024,66.7790718 L19.3279777,72.2508711 Z" id="Path" fill="url(#linearGradient-17)"></path>
                    <path d="M14.1066481,11.9262105 C13.7694774,11.9840111 13.6153422,12.5331178 13.5190077,12.8895554 C13.2781714,13.7565659 13.3841394,15.153416 14.2704167,15.538754 C14.7569681,15.7664485 15.3338981,15.6664473 15.7154341,15.2882843 C16.418676,14.3634732 14.877324,11.7913422 14.1066481,11.9262105 Z" id="Path" fill="#F8D0C9"></path>
                    <path d="M27.5742105,12.003278 C28.8458258,12.388616 28.8169254,14.8933129 28.8169254,15.153416 C28.8169254,15.7699568 28.8169254,17.0801059 28.1136836,17.3980098 C27.2274063,17.7929812 25.3488836,16.4346648 25.1273143,14.7391777 C25.020938,14.0553211 25.2022601,13.3579283 25.6282537,12.8124878 C26.0796016,12.2065261 26.8262788,11.8960266 27.5742105,12.003278 L27.5742105,12.003278 Z" id="Path" fill="#F8D0C9"></path>
                    <path d="M34.529561,26.405285 C34.529561,26.0103136 35.8204432,25.827278 36.4562509,25.7983745 C37.8871455,25.7970096 39.2846932,26.2303838 40.4637659,27.0410927 C41.2055415,27.4649645 43.6909714,28.8810815 43.4308683,29.8540599 C43.3249003,30.2008641 42.9010286,30.3646328 42.8143275,30.4031666 C41.7450146,30.798138 40.7431359,29.5650564 38.710478,28.3897756 C36.2732153,26.9736585 34.4717603,26.8965909 34.529561,26.405285 Z" id="Path" fill="#F8D0C9"></path>
                    <path d="M11.9776557,22.0605993 C7.58480279,20.9527526 3.72178955,21.6752613 2.19007108,23.9872892 C1.5726647,25.0994215 1.30413483,26.3715817 1.41939512,27.6383666 C1.41939512,31.0582411 3.03781463,32.6573937 4.46356516,36.3662718 C5.36655923,38.8993278 5.93964433,41.5381094 6.16868571,44.2175331 C6.69985256,47.6186838 6.77436781,51.0755434 6.39025505,54.4964237 C6.03381742,57.4442592 5.17644042,61.3169059 4.73330174,67.019908 C4.65889237,67.5522369 4.67845584,68.0934928 4.79110244,68.6190606 C5.75444739,72.5398746 12.411161,74.0330592 15.734701,74.5917993 C17.1061689,71.7796455 17.9827942,68.752192 18.326099,65.6423247 C18.4320669,67.1740432 18.499501,68.7539289 18.5476683,70.3916153 C18.5958355,72.0293017 18.6151024,73.4935861 18.605469,74.9771373 C22.6818216,76.2984947 27.0982152,76.1035029 31.0422523,74.4280307 C32.6028711,73.7247889 36.0998132,72.16417 37.7856669,68.647961 C39.4715206,65.1317519 37.7856669,62.7522899 36.629653,53.3982105 C35.7819094,46.4717603 35.3580376,43.0133519 36.244315,38.6397659 C37.2750941,33.5147707 39.1343498,31.5206467 38.0072362,29.0063164 C36.6585533,25.8561784 32.1115652,24.7868655 28.614623,24.3629937 C23.0810476,26.9426776 16.5485903,26.0337155 11.9294885,22.0413324 L11.9776557,22.0605993 Z" id="Path" fill="url(#linearGradient-18)"></path>
                    <path d="M28.335253,26.597954 C24.3470049,30.0563624 27.9017477,40.0269826 31.3216223,40.6916906 C32.8340739,40.9806941 33.4602481,39.285207 38.1710049,37.9268906 C39.1428211,37.783627 40.058018,37.3809403 40.8202035,36.7612432 C42.0324307,35.4551098 42.5098519,33.6286121 42.0918188,31.8963512 C41.6506123,30.2749907 40.6199762,28.876761 39.201784,27.9755373 C36.3984502,25.8658118 31.0904195,24.1992251 28.335253,26.597954 Z" id="Path" fill="url(#linearGradient-19)"></path>
                    <path d="M27.285207,23.3225812 C27.6500638,22.8915462 28.142685,22.5878756 28.6916906,22.4555707 C29.3274983,22.3207024 30.0114732,22.590439 31.3408892,23.1588125 C33.6818174,24.1221575 33.7781519,24.1895916 33.7877854,24.3148265 C33.8744864,25.1722035 30.3101101,26.5016195 26.8709686,26.9254913 C25.1947484,27.1374272 23.1139233,26.9254913 18.9522732,26.4727192 C16.120039,26.1740822 13.933246,25.827278 11.9102216,24.4400613 C10.2243679,23.2840474 10.2243679,22.5133714 10.2436348,22.2436348 C10.3730987,21.6890664 10.7202969,21.2099329 11.2069798,20.9142188 C11.8108717,20.5693976 12.5141133,20.4403001 13.2011038,20.5481477 C14.7424557,20.6926495 17.3434871,20.8275178 20.9945645,21.0009199 L27.285207,23.3225812 Z" id="Path" fill="url(#linearGradient-20)"></path>
                    <path d="M15.5131317,20.7119164 C14.5497868,21.3573575 13.9525129,21.8101296 14.019947,22.3303359 C14.2993171,24.5845631 27.5067763,25.8080111 28.2389185,23.5248836 C28.5857226,22.4363038 25.9654244,20.7504502 24.8768446,20.1724432 C21.8946044,18.6133355 18.2965837,18.8206288 15.5131317,20.7119164 Z" id="Path" fill="#C9EFFF"></path>
                    <path d="M14.8676906,22.8698091 C18.555052,24.2966811 22.5946969,24.5424261 26.42783,23.5730509 C26.42783,23.3707484 26.42783,23.168446 26.3700293,22.9468767 C26.2568684,21.3548224 26.3247368,19.7550686 26.5723317,18.1783192 C26.9962035,15.7506899 27.5356767,15.4809533 27.2370397,14.7006439 C26.4856307,12.8317547 22.699685,12.773954 20.4936251,12.7065199 C17.9022272,12.6583526 15.6769003,12.6101854 14.8965909,13.910701 C14.1162815,15.2112167 15.561299,16.3768641 15.6865338,19.2187317 C15.7331139,20.4860172 15.451026,21.7437975 14.8676906,22.8698091 L14.8676906,22.8698091 Z" id="Path" fill="#EAC5C1"></path>
                    <path d="M13.7694774,12.1766801 C13.8090344,13.4946006 14.1206136,14.790114 14.6846551,15.9818927 C15.4589346,17.5950972 16.700959,18.9378263 18.2490314,19.8352725 C18.8736328,20.253732 19.5793327,20.5360119 20.320223,20.6637491 C22.8538202,21.0009199 24.9346453,18.881561 25.7920223,18.0145505 C27.0688725,16.6791624 28.0070461,15.0571791 28.527922,13.2845268 C29.4917126,11.062316 29.6651075,8.57698869 29.0192279,6.24247526 C28.8169254,5.59703415 27.5356767,1.93632334 24.135069,0.934444599 C23.0796911,0.637498805 21.9665442,0.610995306 20.89823,0.857377003 C18.8266975,1.37284982 17.0227417,2.64420918 15.840669,4.42175331 C14.246191,6.67637578 13.5114733,9.42729539 13.7694774,12.1766801 L13.7694774,12.1766801 Z" id="Path" fill="#5F2547"></path>
                    <path d="M28.2389185,23.5248836 C27.5164098,25.7983777 14.2993171,24.5845631 14.019947,22.3303359 C14.019947,21.9738983 14.2511498,21.6559944 14.7328223,21.2802899 C14.8477077,21.4001915 14.9699693,21.512801 15.0988934,21.6174606 C16.2694153,22.5601653 17.7108386,23.1036528 19.2123763,23.168446 C23.0657561,23.6597519 24.992446,23.9005882 26.6782997,22.9468767 C27.0414313,22.7396842 27.3920529,22.5112976 27.7283456,22.2629017 C28.1233171,22.7060404 28.3545199,23.1202787 28.2389185,23.5248836 Z" id="Path" fill="#C9EFFF"></path>
                    <path d="M5.64847944,21.83903 C5.5617784,21.6559944 4.31906341,21.83903 3.26901742,22.503738 C0.745053659,24.1606913 0.321181882,28.2067401 1.47719582,30.326099 C1.72766551,30.7885045 1.8625338,30.8077714 1.92033449,30.798138 C2.44054077,30.6825366 1.03405714,26.7424557 2.82587875,24.1317909 C3.91445854,22.5519052 5.75444739,22.0798662 5.64847944,21.83903 Z" id="Path" fill="url(#linearGradient-21)"></path>
                </g>
                <g id="cube-6" transform="translate(47.280000, 122.880000)">
                    <polygon id="Path" fill="url(#linearGradient-22)" points="48.882008 13.7778585 25.0914393 54.0132657 1.13476101 40.5583979 1.13476101 13.7870868"></polygon>
                    <polygon id="Path" fill="url(#linearGradient-23)" points="25.0914393 27.2327263 48.882008 13.7778585 48.882008 40.5583979 25.0914393 54.0132657"></polygon>
                    <polygon id="Path" fill="url(#linearGradient-24)" points="1.13476101 13.7870868 24.9714713 0.332218959 48.882008 13.7778585 25.0914393 27.2327263"></polygon>
                </g>
                <g id="cube-3" transform="translate(240.000000, 337.200000)">
                    <polygon id="Path" fill="url(#linearGradient-25)" points="52.152 15.756 26.328 59.424 0.324 44.82 0.324 15.756"></polygon>
                    <polygon id="Path" fill="url(#linearGradient-26)" points="26.328 30.36 52.152 15.756 52.152 44.82 26.328 59.424"></polygon>
                    <polygon id="Path" fill="url(#linearGradient-27)" points="0.324 15.756 26.196 1.152 52.152 15.756 26.328 30.36"></polygon>
                </g>
            </g>
        </g>
    </g>
</svg>