<?xml version="1.0" encoding="UTF-8"?>
<svg width="300px" height="346px" viewBox="0 0 300 346" version="1.1" xmlns="http://www.w3.org/2000/svg" xmlns:xlink="http://www.w3.org/1999/xlink">
    <!-- Generator: Sketch 61.2 (89653) - https://sketch.com -->
    <title>Иллюстрация 1</title>
    <desc>Created with Sketch.</desc>
    <defs>
        <linearGradient x1="58.3482634%" y1="49.1121469%" x2="38.5119385%" y2="47.3731996%" id="linearGradient-1">
            <stop stop-color="#2A71CF" offset="0%"></stop>
            <stop stop-color="#2B6AC7" offset="49%"></stop>
            <stop stop-color="#2D5EBA" offset="100%"></stop>
        </linearGradient>
        <linearGradient x1="100.000092%" y1="49.9978915%" x2="-0.0201779748%" y2="49.9978915%" id="linearGradient-2">
            <stop stop-color="#348BFF" offset="0%"></stop>
            <stop stop-color="#3485F7" offset="35%"></stop>
            <stop stop-color="#3674E2" offset="89%"></stop>
            <stop stop-color="#3670DD" offset="100%"></stop>
        </linearGradient>
        <linearGradient x1="99.9451689%" y1="50.1137157%" x2="-0.0924379169%" y2="50.1137157%" id="linearGradient-3">
            <stop stop-color="#FFCD66" offset="0%"></stop>
            <stop stop-color="#FC7700" offset="100%"></stop>
        </linearGradient>
        <linearGradient x1="99.9123405%" y1="50.0191049%" x2="-0.015141615%" y2="50.0191049%" id="linearGradient-4">
            <stop stop-color="#FD9D2D" offset="0%"></stop>
            <stop stop-color="#FC7700" offset="100%"></stop>
        </linearGradient>
        <linearGradient x1="0.123258681%" y1="50.0367233%" x2="100.134063%" y2="50.0367233%" id="linearGradient-5">
            <stop stop-color="#EE2F70" offset="0%"></stop>
            <stop stop-color="#D1374A" offset="100%"></stop>
        </linearGradient>
        <linearGradient x1="-0.0158233329%" y1="49.9309999%" x2="100.008379%" y2="49.9309999%" id="linearGradient-6">
            <stop stop-color="#D1374A" offset="23%"></stop>
            <stop stop-color="#EE2F70" offset="100%"></stop>
        </linearGradient>
        <linearGradient x1="-0.29221647%" y1="50.009468%" x2="99.9010982%" y2="50.009468%" id="linearGradient-7">
            <stop stop-color="#EE2F70" offset="0%"></stop>
            <stop stop-color="#D1374A" offset="100%"></stop>
        </linearGradient>
        <linearGradient x1="0.0119659503%" y1="49.9864341%" x2="99.9976194%" y2="49.9864341%" id="linearGradient-8">
            <stop stop-color="#348BFF" offset="0%"></stop>
            <stop stop-color="#3485F7" offset="35%"></stop>
            <stop stop-color="#3674E2" offset="89%"></stop>
            <stop stop-color="#3670DD" offset="100%"></stop>
        </linearGradient>
        <linearGradient x1="0.0867535166%" y1="50.0476642%" x2="100.013371%" y2="50.0476642%" id="linearGradient-9">
            <stop stop-color="#348BFF" offset="0%"></stop>
            <stop stop-color="#3485F7" offset="35%"></stop>
            <stop stop-color="#3674E2" offset="89%"></stop>
            <stop stop-color="#3670DD" offset="100%"></stop>
        </linearGradient>
        <linearGradient x1="-0.0524331779%" y1="50.220627%" x2="100.055868%" y2="50.220627%" id="linearGradient-10">
            <stop stop-color="#348BFF" offset="0%"></stop>
            <stop stop-color="#3485F7" offset="35%"></stop>
            <stop stop-color="#3674E2" offset="89%"></stop>
            <stop stop-color="#3670DD" offset="100%"></stop>
        </linearGradient>
        <linearGradient x1="-5.98867171e-13%" y1="49.8247214%" x2="100.033459%" y2="49.8247214%" id="linearGradient-11">
            <stop stop-color="#348BFF" offset="0%"></stop>
            <stop stop-color="#3485F7" offset="35%"></stop>
            <stop stop-color="#3674E2" offset="89%"></stop>
            <stop stop-color="#3670DD" offset="100%"></stop>
        </linearGradient>
        <linearGradient x1="62.0266334%" y1="39.9745443%" x2="37.931752%" y2="60.6484062%" id="linearGradient-12">
            <stop stop-color="#7A88E1" offset="0%"></stop>
            <stop stop-color="#FFFFFF" offset="23%"></stop>
            <stop stop-color="#FFFFFF" offset="100%"></stop>
        </linearGradient>
        <linearGradient x1="65.6646364%" y1="6.59511132%" x2="30.0378681%" y2="90.7946357%" id="linearGradient-13">
            <stop stop-color="#7A88E1" offset="0%"></stop>
            <stop stop-color="#FFFFFF" offset="11%"></stop>
            <stop stop-color="#FFFFFF" offset="53%"></stop>
            <stop stop-color="#C9D0F3" offset="65%"></stop>
            <stop stop-color="#C7CEF2" offset="75%"></stop>
            <stop stop-color="#BFC7F1" offset="80%"></stop>
            <stop stop-color="#B1BBEE" offset="84%"></stop>
            <stop stop-color="#9EAAEA" offset="88%"></stop>
            <stop stop-color="#8594E4" offset="91%"></stop>
            <stop stop-color="#6778DD" offset="95%"></stop>
            <stop stop-color="#4358D5" offset="97%"></stop>
            <stop stop-color="#1A34CC" offset="100%"></stop>
            <stop stop-color="#1832CC" offset="100%"></stop>
        </linearGradient>
        <linearGradient x1="60.0507041%" y1="5.61110917%" x2="27.8350192%" y2="83.7331705%" id="linearGradient-14">
            <stop stop-color="#7A88E1" offset="0%"></stop>
            <stop stop-color="#FFFFFF" offset="9%"></stop>
            <stop stop-color="#FFFFFF" offset="53%"></stop>
            <stop stop-color="#C9D0F3" offset="60%"></stop>
            <stop stop-color="#C7CEF2" offset="71%"></stop>
            <stop stop-color="#BFC7F1" offset="77%"></stop>
            <stop stop-color="#B1BBEE" offset="82%"></stop>
            <stop stop-color="#9EAAEA" offset="87%"></stop>
            <stop stop-color="#8594E4" offset="90%"></stop>
            <stop stop-color="#6778DD" offset="94%"></stop>
            <stop stop-color="#4358D5" offset="97%"></stop>
            <stop stop-color="#1A34CC" offset="100%"></stop>
            <stop stop-color="#1832CC" offset="100%"></stop>
        </linearGradient>
        <linearGradient x1="100%" y1="49.9909074%" x2="1.78752889e-13%" y2="49.9909074%" id="linearGradient-15">
            <stop stop-color="#E2EBEF" offset="0%"></stop>
            <stop stop-color="#D3E2E9" offset="54%"></stop>
            <stop stop-color="#CCDEE6" offset="100%"></stop>
        </linearGradient>
        <linearGradient x1="100%" y1="49.9909074%" x2="3.58746727e-13%" y2="49.9909074%" id="linearGradient-16">
            <stop stop-color="#BDD2DD" offset="0%"></stop>
            <stop stop-color="#A5C2D1" offset="100%"></stop>
        </linearGradient>
        <linearGradient x1="100%" y1="50%" x2="1.78752889e-13%" y2="50%" id="linearGradient-17">
            <stop stop-color="#EEF1FF" offset="0%"></stop>
            <stop stop-color="#E7EDFA" offset="34%"></stop>
            <stop stop-color="#D5E3ED" offset="81%"></stop>
            <stop stop-color="#CCDEE6" offset="100%"></stop>
        </linearGradient>
        <linearGradient x1="100%" y1="50.0450693%" x2="0%" y2="50.0450693%" id="linearGradient-18">
            <stop stop-color="#0116CB" offset="0%"></stop>
            <stop stop-color="#0362E2" offset="100%"></stop>
        </linearGradient>
        <linearGradient x1="100%" y1="50.0150564%" x2="0.0497883993%" y2="50.0150564%" id="linearGradient-19">
            <stop stop-color="#0116CB" offset="0%"></stop>
            <stop stop-color="#0362E2" offset="100%"></stop>
        </linearGradient>
        <linearGradient x1="99.5221344%" y1="50.0044641%" x2="-0.437962034%" y2="50.0044641%" id="linearGradient-20">
            <stop stop-color="#3670DD" offset="0%"></stop>
            <stop stop-color="#348BFF" offset="100%"></stop>
        </linearGradient>
        <linearGradient x1="100.029939%" y1="50.0068984%" x2="0.0145780065%" y2="50.0068984%" id="linearGradient-21">
            <stop stop-color="#3670DD" offset="0%"></stop>
            <stop stop-color="#3674E2" offset="11%"></stop>
            <stop stop-color="#3485F7" offset="65%"></stop>
            <stop stop-color="#348BFF" offset="100%"></stop>
        </linearGradient>
        <linearGradient x1="29.1954228%" y1="103.303969%" x2="70.7824125%" y2="-3.30396905%" id="linearGradient-22">
            <stop stop-color="#8B9DBD" offset="0%"></stop>
            <stop stop-color="#9DB2D6" offset="100%"></stop>
        </linearGradient>
        <linearGradient x1="100.169305%" y1="49.9984556%" x2="0.108093463%" y2="49.9984556%" id="linearGradient-23">
            <stop stop-color="#348BFF" offset="0%"></stop>
            <stop stop-color="#3670DD" offset="100%"></stop>
        </linearGradient>
        <linearGradient x1="0%" y1="50%" x2="100%" y2="50%" id="linearGradient-24">
            <stop stop-color="#FFCD66" offset="0%"></stop>
            <stop stop-color="#FFCD65" offset="1%"></stop>
            <stop stop-color="#FFBE3A" offset="32%"></stop>
            <stop stop-color="#FFB41A" offset="60%"></stop>
            <stop stop-color="#FFAD07" offset="84%"></stop>
            <stop stop-color="#FFAB00" offset="100%"></stop>
        </linearGradient>
        <linearGradient x1="0%" y1="50%" x2="100%" y2="50%" id="linearGradient-25">
            <stop stop-color="#FFAB00" offset="0%"></stop>
            <stop stop-color="#FC7700" offset="100%"></stop>
        </linearGradient>
        <linearGradient x1="0%" y1="49.9828473%" x2="100%" y2="49.9828473%" id="linearGradient-26">
            <stop stop-color="#FFDD99" offset="0%"></stop>
            <stop stop-color="#FFDB92" offset="13%"></stop>
            <stop stop-color="#FFD580" offset="30%"></stop>
            <stop stop-color="#FFCB62" offset="51%"></stop>
            <stop stop-color="#FFBD38" offset="74%"></stop>
            <stop stop-color="#FFAC02" offset="99%"></stop>
            <stop stop-color="#FFAB00" offset="100%"></stop>
        </linearGradient>
    </defs>
    <g id="Desktop" stroke="none" stroke-width="1" fill="none" fill-rule="evenodd">
        <g id="Иллюстрации" transform="translate(-2686.000000, -63.000000)" fill-rule="nonzero">
            <g id="Иллюстрация-1" transform="translate(2686.000000, 63.000000)">
                <g id="man_on_the_stairs" transform="translate(21.693023, 0.000000)">
                    <path d="M0.460545999,22.2139117 L29.1535153,115.697457 L32.6892296,117.742988 L35.0402019,115.891829 L33.1149963,106.636032 L52.9686799,95.1681002 L54.7550486,100.98074 L58.3000187,103.035527 L60.650991,101.184368 L32.3560209,5.74784966 L29.3663987,5.49794316 L26.0898467,7.34910247 L26.0898467,7.34910247 L26.3582648,8.20989155 L5.2920718,20.3720082 L3.75560957,20.2424271 L0.460545999,22.2139117 Z M25.9972887,86.3288145 L46.7858078,74.8701384 L51.1915669,89.2073672 L31.3286275,100.675299 L25.9972887,86.3288145 Z M19.7866492,66.104899 L40.5659125,54.6091997 L44.9716717,68.9556844 L25.117988,80.4143605 L19.7866492,66.104899 Z M13.5760097,45.8809835 L34.355273,34.4130516 L38.7610322,48.7502805 L18.9073485,60.1626776 L13.5760097,45.8809835 Z M7.36537023,25.6015333 L28.1446335,14.1336013 L32.5503927,28.480086 L12.6967091,39.948018 L7.36537023,25.6015333 Z" id="Shape" fill="#022E7F"></path>
                    <path d="M3.45942408,22.4267951 L32.716997,117.696709 L35.993549,115.84555 L33.1427636,106.589753 L55.4955123,93.6223822 L58.3555535,102.878179 L61.6321055,101.027019 L32.3560209,5.74784966 L29.079469,7.64528796 L29.3478871,8.50607704 L6.99513837,21.3994016 L6.73597607,20.5386126 L3.45942408,22.4267951 Z M26.9228684,86.2917913 L49.2571055,73.3984667 L54.1811892,89.4295064 L31.8469521,102.322831 L26.9228684,86.2917913 Z M20.7122289,66.0678758 L43.046466,53.1745512 L47.9705497,69.1963351 L25.6363126,82.0896597 L20.7122289,66.0678758 Z M14.5015894,45.8439604 L36.8358265,32.9506358 L41.7506545,48.9724196 L19.3979058,61.8564884 L14.5015894,45.8439604 Z M8.29094989,25.6015333 L30.625187,12.7082087 L35.540015,28.7392483 L13.2150337,41.6510845 L8.29094989,25.6015333 Z" id="Shape" fill="#3567BF"></path>
                    <g id="man" transform="translate(4.588631, 0.000000)">
                        <path d="M53.0634817,17.0214099 C52.1357272,17.0232521 51.2087662,17.0757799 50.2867427,17.1787584 C48.6299551,17.3546185 48.2967464,17.5304787 47.9172588,17.4194091 C46.9916791,17.150991 46.1494016,15.2813201 46.4918661,8.21914734 C44.496709,5.64794329 41.515821,4.02993877 38.2727188,3.7578534 C36.3429336,3.66804258 34.4245828,4.0996715 32.7192408,5.00738594 C32.7192408,5.99775617 32.7192408,7.46942782 32.895101,9.24654076 C32.9255736,10.1637375 33.0308217,11.0769197 33.2097981,11.9770007 C33.6064095,13.6666437 34.4916557,15.2021435 35.7551421,16.3920157 C37.078721,17.5952693 37.5507666,17.150991 38.2079282,18.0025243 C39.7906694,20.0665669 37.2823485,22.9080965 38.4763463,24.703721 C39.6703441,26.4993455 44.0761032,26.1568811 46.9639117,24.796279 C51.3789267,22.6952132 52.7580404,18.0488033 53.0634817,17.0214099 Z" id="Path" fill="#F8D0C9"></path>
                        <path d="M33.5430067,1.46241586 C34.6814697,0.870044877 38.4393231,-1.0829282 42.5581526,0.83302169 C45.5290297,2.1714825 47.5585163,4.99511596 47.8802356,8.23765894 C47.9357704,9.21877337 47.5192595,10.5886313 46.676982,13.3376028 C46.2974944,14.5686238 45.9365183,15.5219708 45.1034966,15.8459237 C44.5712739,15.9773771 44.0112206,15.9385294 43.5022438,15.7348542 C42.2644689,15.5419741 41.0511113,15.2161364 39.8832274,14.7629955 C37.4674645,13.5412304 36.7547681,11.3198392 36.1346298,11.5790015 C35.5144914,11.8381638 35.9495138,13.4301608 35.6348168,13.5227188 C35.3201197,13.6152767 34.9128646,12.4120232 34.5611444,11.4771877 C34.0057966,10.0240277 34.1631451,10.0332835 33.8206806,9.36686612 C33.1264959,7.99700823 32.4600785,7.96924084 32.3119858,6.9881264 C32.2009162,6.1828721 32.6081713,5.93296559 32.3119858,5.34985041 C31.9510097,4.53534031 30.9698953,4.62789828 30.8032909,4.10957367 C30.618175,3.45241212 32.0805909,2.23064697 33.5430067,1.46241586 Z" id="Path" fill="#5F2547"></path>
                        <path d="M34.2464473,74.8701384 C30.6274308,72.2137248 27.3693904,70.973448 26.2124159,71.7601907 C25.7845783,72.0514075 25.4374879,72.4462627 25.203534,72.9079095 C24.956135,73.4931938 24.9073673,74.1434299 25.0646971,74.7590688 C25.4071616,76.480647 27.3045999,77.4062266 29.5167352,79.5628272 C31.7288706,81.7194278 32.4971017,83.4780292 34.6814697,84.1907255 C35.2018041,84.3966387 35.7773403,84.4162592 36.3104899,84.2462603 C37.717371,83.7279357 38.0135565,81.7009162 38.0413239,81.4695213 C36.7825355,79.2543007 35.5175767,77.0545064 34.2464473,74.8701384 Z" id="Path" fill="#5F2547"></path>
                        <path d="M45.2515894,47.2971204 C43.2473539,46.5299745 41.0164102,46.6169379 39.0779731,47.5377711 C38.5966717,47.7876776 36.9306283,48.7687921 35.625561,51.9712977 C33.487472,57.2285901 36.1346298,59.2185864 34.8758414,65.0775056 C33.8299364,69.9645662 31.5992895,70.4181002 31.7011032,74.8146036 C31.7011032,75.9438108 31.802917,79.5443156 34.3390052,81.4232423 C34.8295625,81.7842184 36.4123037,82.9504488 37.717371,82.4784031 C40.9198766,81.3399402 37.9950449,72.065632 41.7991773,62.6524869 C43.225252,59.2036693 45.3492058,56.0870664 48.0375841,53.4985041 L45.2515894,47.2971204 Z" id="Path" fill="url(#linearGradient-1)"></path>
                        <path d="M52.0083209,123.333489 C52.9339005,125.869577 52.2397158,126.869203 52.0083209,127.146877 C51.4066941,127.887341 50.5829282,127.683714 46.1308901,127.665202 C42.7988033,127.665202 41.9102468,127.748504 40.5774121,127.072831 C40.0775991,126.813669 38.3837883,125.915856 38.3560209,124.555254 C38.4655292,123.66225 38.9678187,122.864696 39.7258788,122.380142 C40.901365,121.454562 41.7899215,121.815539 43.3819185,121.047307 C44.1578143,120.668688 44.8599191,120.154647 45.4552169,119.529357 L52.0083209,123.333489 Z" id="Path" fill="#5F2547"></path>
                        <path d="M35.4219334,63.7446709 C35.0884559,66.4782992 34.9092266,69.2285418 34.8850972,71.9823298 C34.7925393,78.6094802 34.6814697,86.032629 36.6899776,94.631264 C38.7817876,103.53534 41.3178758,105.73822 42.1879207,115.058807 C42.3931261,117.175009 42.4827319,119.300831 42.4563388,121.426795 C43.992801,124.536743 46.5936799,126.545251 49.2223261,126.452693 C50.1997624,126.480345 51.1538587,126.151346 51.9065071,125.527113 C53.5725505,123.92586 52.7025056,120.825168 51.9065071,116.956245 C49.9257666,107.413519 51.4344615,108.098448 49.4259536,100.675299 C48.5228477,97.3482116 47.3560084,94.0983938 45.9365183,90.9567128 C47.315632,80.710546 49.0649776,76.4621354 50.499626,74.5461855 C51.4667627,73.2865035 52.2750199,71.9124662 52.9061331,70.4551234 C53.3440342,69.4570321 53.6939968,68.4226294 53.9520381,67.3636874 C54.1742985,66.5281023 54.7731156,65.8437399 55.5718025,65.512528 C59.2064419,63.9627118 61.3527621,60.1706267 60.8105834,56.2567315 L37.4304413,53.68362 C36.512665,56.9829266 35.8413141,60.3458686 35.4219334,63.7446709 L35.4219334,63.7446709 Z" id="Path" fill="url(#linearGradient-2)"></path>
                        <path d="M53.68362,61.3936986 C48.5281414,63.0782536 48.1301421,63.8927636 45.5107517,64.1704375 C44.2797307,64.3185303 39.7721578,64.8646223 37.1805348,62.5691847 C34.4037958,60.1071429 36.3660247,56.6084518 36.0235602,48.1579095 C35.5700262,36.9676515 31.7473822,32.0991025 35.2368175,26.388276 C35.8649548,25.3522028 36.6449489,24.4162099 37.5507666,23.611537 C38.6989469,23.5827668 39.8421256,23.4495508 40.9661556,23.2135378 C47.2786088,21.8621915 51.5177636,17.4934555 51.3141361,17.1787584 C51.2586013,17.0862004 50.8513463,17.3546185 49.7128833,17.4471765 C49.3981862,17.4471765 48.5929319,17.5397345 48.5744203,17.4471765 C48.5559088,17.3546185 51.5177636,15.8274121 54.4703628,16.5215969 C55.661598,16.8633825 56.7597535,17.4710075 57.6821242,18.2987098 C62.3100224,22.5748878 58.0153328,29.7296185 59.1537958,42.3082461 C59.9960733,51.5640426 63.1337883,56.5714286 60.2274682,59.237098 C59.237098,60.236724 58.7187734,59.736911 53.68362,61.3936986 Z" id="Path" fill="url(#linearGradient-3)"></path>
                        <path d="M27.5174832,38.5503927 L24.5648841,42.7710359 L8.83002992,41.0957367 C8.34747824,39.7237672 7.29921252,38.624942 5.95147719,38.078347 C5.13696709,37.8376963 4.10031788,37.8654637 4.0447831,38.1431376 C3.98924832,38.4208115 5.45166417,39.0687173 5.34985041,39.5500187 C5.19250187,40.1979245 1.93446148,39.3926702 1.0644166,40.7902954 C0.89860407,41.1813008 0.837976571,41.6088843 0.88855647,42.0305722 C0.88855647,43.5670344 0.88855647,45.8532162 2.10106582,46.5196335 C2.46204188,46.723261 2.78599476,46.6954936 4.87780479,46.2512154 C6.16436051,45.9827973 7.28431189,45.723635 8.19137996,45.5200075 C12.2361631,46.0938669 15.5960172,46.7417726 17.9747569,47.2600972 C23.6022812,48.4633508 25.5737659,49.2408377 27.887715,48.2597233 C30.5626402,47.1305161 31.9972887,44.3537771 32.7747756,42.0305722 L27.5174832,38.5503927 Z" id="Path" fill="#F8D0C9"></path>
                        <path d="M41.7899215,32.9876589 C41.5492708,34.0150524 41.0587135,34.4315632 39.7073672,36.0050486 C34.5241212,42.0490838 33.9502618,44.9924271 31.2660808,45.1867988 C30.2156968,45.2196818 29.1829589,44.9111594 28.3227375,44.3074981 C26.8591508,43.3363622 25.9001952,41.7674703 25.703347,40.0220643 C25.4904637,37.5692782 27.387902,36.6344428 31.802917,30.9791511 C35.1535153,26.6844615 35.5052356,25.3793942 36.8936051,25.3516268 C39.5037397,25.2868362 42.5766642,29.7018512 41.7899215,32.9876589 Z" id="Path" fill="url(#linearGradient-4)"></path>
                    </g>
                </g>
                <g id="girl_with_phone" transform="translate(0.365424, 218.436799)">
                    <path d="M91.0585266,57.8950075 C91.6508975,54.8961294 92.7523373,53.7854338 93.7149402,53.3504114 C95.0847981,52.7395288 96.3713538,53.4152019 97.7412117,52.4988781 C98.5617534,51.887872 99.1389805,51.0056329 99.3702319,50.0090688 C99.4501558,49.4813019 99.3206126,48.9431994 99.0092558,48.5096298 C98.5853513,48.0766606 98.0046816,47.8330463 97.3987472,47.8339566 C94.8441473,47.6025617 93.2891735,48.1393979 91.1048055,48.0931189 C88.5687173,48.0375841 87.5876028,47.2508414 86.6342558,48.0098168 C85.9918587,48.6324902 85.6537338,49.5048522 85.7086761,50.3978123 C85.6068624,51.091997 85.5235602,51.8232049 85.4495138,52.5821803 C85.3569559,53.5818063 85.3014211,54.5444091 85.2829095,55.4514772 C85.5182127,56.1330391 85.9302471,56.7399115 86.4769073,57.2100785 C88.3373224,58.7557966 90.854899,57.9597981 91.0585266,57.8950075 Z" id="Path" fill="#5F2547"></path>
                    <path d="M43.8261967,118.215034 C43.2245699,116.502711 44.2056844,115.614155 43.6040576,114.512715 C43.0712428,113.778727 42.2690212,113.286076 41.3734106,113.142857 C39.8008944,112.653004 38.0877885,112.975512 36.8010471,114.003646 C35.3756545,115.373504 36.4585826,116.891455 35.03319,118.631545 C33.9317502,119.973635 32.8210546,119.307218 31.2012902,120.806657 C30.2016642,121.732236 28.9521316,123.46307 29.479712,124.508975 C30.118362,125.749252 33.1357517,125.304974 33.987285,125.184648 C35.6283328,124.726543 37.2313209,124.141668 38.7817876,123.435303 C40.1692775,122.853114 41.5013523,122.146805 42.7617801,121.324981 C43.4189417,120.899215 44.177917,120.353123 44.2612191,119.547868 C44.3074981,119.057311 44.0575916,118.862939 43.8261967,118.215034 Z" id="Path" fill="#5F2547"></path>
                    <path d="M85.1996073,53.9798055 C80.6534785,57.8311219 76.4480949,62.067473 72.6302356,66.6417352 C72.6302356,66.6417352 67.289641,73.1207928 65.2255984,78.979712 C64.2497159,81.7678312 63.9918769,84.7568534 64.4758788,87.670905 C64.7535527,89.216623 64.9479245,90.3735976 65.6791324,90.6420157 C67.6321055,91.3639678 71.3899589,84.9959798 74.8793942,80.1829656 C79.3155919,74.1012175 84.5593596,68.651934 90.4661556,63.9853216 C91.1058919,63.4752851 91.5102776,62.7266702 91.586107,61.9120232 C91.6601533,61.1437921 91.7156881,60.3477936 91.7619671,59.5240277 C91.8175019,58.5244016 91.8452693,57.5617988 91.8545251,56.6362191 C90.6421708,56.3846729 89.4555176,56.0221705 88.309555,55.5532909 C87.2319996,55.1138931 86.1919283,54.5876665 85.1996073,53.9798055 Z" id="Path" fill="url(#linearGradient-5)"></path>
                    <path d="M65.2626215,79.0074794 C65.2070868,79.1555722 65.151552,79.3221765 65.0775056,79.5535714 C64.6976291,80.782581 64.4494145,82.0484752 64.3370419,83.3299364 C64.8614541,83.636344 65.4294906,83.8610618 66.0215969,83.9963538 C66.6711854,84.1431517 67.3411208,84.1775877 68.0023373,84.0981675 C69.8082022,81.3236003 70.6145872,78.0164425 70.2885191,74.7220456 C70.1444949,73.5094243 69.8330014,72.3226342 69.3629394,71.1955871 C68.5761967,72.3433059 67.9653141,73.3614435 67.5117801,74.1481862 C66.6126152,75.6945013 65.8596346,77.3213112 65.2626215,79.0074794 L65.2626215,79.0074794 Z" id="Path" fill="#DC3458" opacity="0.2" style="mix-blend-mode: multiply;"></path>
                    <path d="M39.3741586,55.5810583 C38.0634618,58.2471261 38.2352961,61.4032648 39.8276926,63.9112752 C40.8643418,65.5773186 41.993549,65.9290389 43.6595924,67.1693156 C49.1297681,71.2326103 47.6766081,75.2588818 53.6003179,81.4602655 C54.2389678,82.1174271 53.6003179,81.4139865 59.3111444,86.2547681 C63.4484854,89.7719708 65.1237846,91.2899215 66.6324794,90.7715969 C67.5020715,90.3282297 68.1440673,89.5383397 68.4003366,88.5964847 C68.7613126,87.670905 69.927543,84.3203067 64.512902,73.2318624 C62.828347,69.7609387 62.2174645,69.0852655 60.8105834,65.8272251 C59.5888182,62.8653702 59.5240277,62.1249065 58.4688669,60.0516081 C57.1360322,57.4970082 55.8309648,54.9794316 53.4985041,53.4799925 C49.4444652,50.7772999 41.8917352,51.1012528 39.3741586,55.5810583 Z" id="Path" fill="url(#linearGradient-6)"></path>
                    <path d="M45.631077,54.5536649 C44.03908,53.1560396 41.2068063,51.9805535 38.9391361,52.9246447 C33.4597046,55.2015707 33.5985415,68.9556844 34.9961668,75.8142296 C35.5422588,78.4521316 36.2456993,79.9793381 36.5418848,83.6076103 C36.7917913,86.7268138 36.5418848,88.5964847 37.1064884,89.7904824 C37.2823485,98.4353964 36.2827225,103.118829 35.2553291,105.849289 C35.2553291,105.849289 32.8117988,112.096952 34.8203067,113.957367 C35.1275172,114.209966 35.3768788,114.525614 35.5515146,114.882947 C35.986537,115.808527 35.5515146,116.30834 35.8477001,116.854432 C36.3845363,117.983639 39.0316941,117.928104 40.6514585,117.585639 C41.8268612,117.333556 42.936601,116.838587 43.9094989,116.132479 C45.3494393,113.028786 46.3733374,109.748577 46.9546559,106.37687 C47.9873665,100.190434 47.5433616,93.8475066 45.6588444,87.8652767 C46.6399589,85.3569559 47.3341436,80.2940352 47.8061892,69.0945213 C48.1764211,59.598074 47.954282,56.5899402 45.631077,54.5536649 Z" id="Path" fill="url(#linearGradient-7)"></path>
                    <path d="M37.4859761,18.6689417 C33.9317502,18.4930815 34.5056096,19.4371728 25.3146036,21.066193 C23.4171653,21.3994016 21.926982,21.6215408 20.7514959,21.8807031 C18.978939,22.1275509 17.2459505,22.6035783 15.5960172,23.2968399 C11.0884443,24.9813949 -0.138836948,29.1742708 0.342464473,33.8114248 C0.6770162,35.6108584 2.08713254,37.0172929 3.88743455,37.3471391 C5.46091997,37.5692782 6.12733732,36.3567689 9.82965595,34.1538893 C11.840734,32.9967474 13.9210406,31.9643218 16.058807,31.0624533 C17.9655011,30.21092 19.5852655,29.57227 20.7977749,29.118736 C21.7233545,28.9984106 23.0006545,28.7392483 24.6852094,28.4985976 C30.0905946,27.7025991 36.2086761,26.8140426 39.0872289,29.7481301 C39.8924832,30.571896 40.0128085,31.303104 40.9383882,31.4697083 C42.6229432,31.7751496 44.4093119,29.4056657 46.4918661,26.6659499 C47.7969334,24.9443717 48.4448392,24.0650711 48.3430254,23.4079095 C48.0746073,20.7977749 42.2156881,18.8910808 37.4859761,18.6689417 Z" id="Path" fill="url(#linearGradient-8)"></path>
                    <path d="M57.8857517,28.2116679 C55.8309648,23.9910247 50.8976253,22.7600037 49.6018138,22.4915856 C46.0938669,21.7696335 41.2715969,22.3157255 38.624439,25.2683246 C37.4396971,26.6104151 38.1061144,26.84181 35.7181189,31.4974757 C33.6355647,35.5422588 32.8117988,35.9680254 32.94138,37.4952319 C33.1727749,39.7536462 35.0979806,40.1146223 36.0883508,43.3819185 C36.4363893,44.7223079 36.570708,46.1092265 36.48635,47.4914921 C36.48635,54.8498504 35.2275617,56.0716156 36.0883508,57.6080778 C38.5318811,62.0138369 53.6743642,60.6254675 55.6273373,55.2108265 C56.3215221,53.2948766 54.7943156,52.4340875 54.8868736,48.407816 C54.9701758,44.7980553 56.2289641,43.9835453 57.4044503,39.263089 C58.5799364,34.5426328 59.4129581,31.3401272 57.8857517,28.2116679 Z" id="Path" fill="url(#linearGradient-9)"></path>
                    <path d="M55.0905011,29.618549 C53.4892483,31.6918474 54.1649215,35.4959798 56.4048242,38.8743455 C57.05273,38.670718 58.0153328,38.3837883 59.1815632,38.0505797 C60.5684869,37.6307836 61.9775077,37.2877983 63.4022064,37.0231862 C67.5950823,36.3567689 69.1963351,38.9298803 71.3436799,37.8191847 C73.0710165,36.7440959 73.8936061,34.6669633 73.3706993,32.7007292 C72.6209798,30.3405011 69.3444278,29.7296185 65.6883882,28.9984106 C61.0882573,28.0820868 56.9416604,27.2398093 55.0905011,29.618549 Z" id="Path" fill="url(#linearGradient-10)"></path>
                    <path d="M1.36985789,31.8677076 C0.777486911,32.1176141 0.601626776,33.0431937 0.601626776,33.5800299 C0.770165832,35.5147722 2.36262154,37.0156617 4.3039454,37.0694652 C5.06292072,37.0694652 6.15510471,36.6807218 6.30319746,36.0050486 C6.4512902,35.3293755 5.70157068,34.7184929 4.22064323,33.4689604 C2.73971578,32.2194278 1.99925206,31.5992895 1.36985789,31.8677076 Z" id="Path" fill="#000B75"></path>
                    <path d="M4.8315258,36.0976066 C4.88023914,35.7447523 5.04655341,35.4186459 5.30357143,35.1720269 C5.09068811,35.0239342 4.86854899,34.8758414 4.66492147,34.7184929 C4.20213164,34.3760284 3.73934181,34.0243082 3.30431937,33.6818437 L2.98036649,33.441193 C2.63518392,34.0219348 2.36463054,34.6438966 2.17511219,35.2923523 C1.67529918,36.9213725 1.50869484,39.6703441 3.10069185,40.8458302 C3.94296933,41.4752244 5.34059461,41.6510845 5.80338444,41.1049925 C5.98850037,40.8828534 6.00701197,40.5681563 5.80338444,39.6055535 C5.29431563,37.3193717 4.72971204,36.8010471 4.8315258,36.0976066 Z" id="Path" fill="#F8D0C9"></path>
                    <path d="M5.74784966,34.8203067 C5.39612939,34.4500748 4.87780479,34.0150524 4.22989903,33.4689604 L3.43390052,32.802543 C2.8742035,33.5437025 2.44821092,34.3768939 2.17511219,35.2645849 C2.09181002,35.5422588 2.01776365,35.8477001 1.95297307,36.1901645 C2.60148366,36.7746329 3.44026309,37.103566 4.3132012,37.1157442 C4.53800745,37.1024556 4.76109956,37.0683721 4.97961855,37.0139304 C4.84787016,36.7243496 4.7967074,36.4045823 4.8315258,36.0883508 C4.93457204,35.5510268 5.2700292,35.0868083 5.74784966,34.8203067 Z" id="Path" fill="#F8D0C9"></path>
                    <path d="M40.401552,20.6311705 L40.6977375,28.0820868 L41.7714099,33.4226814 L45.5847981,33.1264959 L51.8046933,28.072831 L54.7572924,26.2216717 C54.7572924,26.2216717 52.9986911,24.6204188 52.9061331,24.5833957 C52.8135752,24.5463725 47.3526552,20.6311705 47.3526552,20.6311705 L40.401552,20.6311705 Z" id="Path" fill="#F8D0C9"></path>
                    <path d="M1.6105086,35.0517016 C1.6105086,35.1997943 1.55497382,35.3108639 1.53646223,35.3849102 C1.30028739,36.5329495 1.30028739,37.7170505 1.53646223,38.8650898 L2.6934368,39.7906694 C2.46740939,38.5617853 2.51162699,37.2984253 2.82301795,36.0883508 C3.06756622,35.1224048 3.48120519,34.2073853 4.0447831,33.3856582 L3.00813388,32.5433807 C2.35159022,33.258019 1.87276477,34.117368 1.6105086,35.0517016 L1.6105086,35.0517016 Z" id="Path" fill="#F8D0C9"></path>
                    <path d="M58.4873785,6.26617427 C58.2467277,6.26617427 57.9690539,7.006638 57.9135191,7.19175393 C57.6821242,7.82114809 57.3304039,9.36686612 58.6262154,11.9862565 L59.690632,11.3846298 C59.3414151,10.3031902 59.0813831,9.19495845 58.9131451,8.0710546 C58.7835639,7.12696335 58.7280292,6.29394166 58.4873785,6.26617427 Z" id="Path" fill="#F8D0C9"></path>
                    <path d="M39.3741586,20.6959611 C39.1982984,20.7700075 38.6984854,21.0754488 38.6429506,22.8803291 C38.6429506,24.3334892 38.8280666,27.6748317 41.7714099,33.4226814 C41.5312811,31.0171237 41.5034061,28.5950955 41.6881077,26.1846485 C41.7899215,24.8147906 41.9565258,23.5467464 42.1601533,22.3620045 C41.0957367,21.0754488 40.0220643,20.4090314 39.3741586,20.6959611 Z" id="Path" fill="#348AFE"></path>
                    <path d="M58.2282162,27.7673897 C57.8487285,27.8784592 57.3026365,28.0635752 56.5621728,28.3227375 C52.8135752,29.7388743 51.2586013,31.4697083 49.1575355,32.5248691 C46.8064776,33.6312924 44.1628661,33.9556619 41.6140613,33.4504488 C42.904024,33.0807837 44.146511,32.5620454 45.31638,31.9047307 C47.0249394,30.8548282 48.6330053,29.6495534 50.1201384,28.3042259 C51.3419035,27.3045999 52.3692969,26.4530666 53.1190165,25.8236724 C52.3947937,24.7908451 51.4028319,23.9748764 50.2497195,23.4634443 C49.907255,23.3338631 49.1112565,23.065445 48.8706058,22.3897719 C48.8706058,22.3249813 48.6947457,21.8807031 48.8706058,21.6678197 C49.407442,21.019914 52.6932498,22.5933994 55.0905011,24.4445587 C56.2809443,25.4061672 57.3363496,26.5238384 58.2282162,27.7673897 L58.2282162,27.7673897 Z" id="Path" fill="#348AFE"></path>
                    <path d="M39.4111818,5.31282723 C37.5600224,7.02514959 36.9861631,10.6534218 37.5600224,13.1987659 C37.8099289,14.3742521 38.4022999,15.7903889 37.6896036,17.0491773 C37.3841623,17.5860135 36.7640239,18.2061518 36.9954188,18.6411743 C37.2268138,19.0761967 37.6618362,18.8540576 37.9209985,19.2798242 C38.1801608,19.7055909 37.9209985,19.7981488 37.9209985,20.3534966 C37.9209985,20.9088444 38.2542072,20.9643792 38.4856021,21.5474944 C38.7910434,22.3712603 38.4856021,22.7507479 38.6984854,23.1394914 C39.1797868,24.0650711 41.7436425,23.6393044 42.1694091,23.565258 C47.3248878,22.6396784 49.8979993,22.2139117 51.2493455,20.56638 C54.8868736,16.1235976 51.2493455,5.94222139 45.4644727,4.23915482 C43.6410808,3.70231862 41.0124346,3.82264398 39.4111818,5.31282723 Z" id="Path" fill="#F8D0C9"></path>
                    <path d="M39.2445774,6.47905759 C39.85546,7.11770755 40.4755984,7.75635752 41.0957367,8.40426328 C42.2202725,8.75418316 43.2093879,9.4426851 43.9280105,10.3757479 C44.7610322,11.5234667 44.9461481,12.8655572 44.7795438,15.3923897 C44.5813466,18.2890927 44.0343877,21.1513039 43.1505236,23.9169783 C44.733605,24.4670065 46.412443,24.6874918 48.0838631,24.5648841 C48.9984222,24.4947787 49.9020412,24.3208863 50.7772999,24.0465595 C52.6609291,22.7366131 54.2759125,21.0776418 55.5347794,19.1594989 C56.9046372,17.0862004 58.7928197,14.2169035 58.237472,10.5886313 C57.5710546,6.1921279 53.776178,3.78562079 53.0542259,3.35059835 C51.4567113,1.48632216 49.1957976,0.317685375 46.7510284,0.0925579656 C42.2712229,-0.157348542 38.5596485,3.4986911 37.3286275,7.24728871 C36.5727851,9.70112595 36.7071726,12.3429885 37.7081152,14.7074607 C37.7366819,12.7520933 37.9976768,10.8070604 38.4856021,8.91333209 C38.6932221,8.08845084 38.946606,7.27576844 39.2445774,6.47905759 L39.2445774,6.47905759 Z" id="Path" fill="#000B75"></path>
                    <path d="M59.237098,28.0820868 C59.6628646,28.6837135 60.1626776,29.3038519 60.6439791,29.9332461 C62.8995149,32.6206031 65.6327798,34.8674661 68.7057779,36.5603964 C69.725849,34.3923101 69.7629457,31.889967 68.8075916,29.6925954 C67.882012,29.4426889 66.789828,29.2390613 65.7068998,29.0169222 C63.5836446,28.5069697 61.4178622,28.1940312 59.237098,28.0820868 Z" id="Path" fill="#BBBBBB" opacity="0.5" style="mix-blend-mode: multiply;"></path>
                    <path d="M61.6250935,16.6604338 C61.5789981,16.5559544 61.501309,16.4685541 61.4029544,16.4105273 C60.4773747,15.8089005 58.5058901,16.9010845 57.5432872,18.2616866 C57.2193343,18.7337322 57.2563575,18.881825 57.2841249,18.9558714 C57.4877524,19.3631264 58.9316567,19.2242895 60.0053291,18.6411743 C60.8846298,18.1598728 61.8472326,17.19727 61.6250935,16.6604338 Z" id="Path" fill="#000B75"></path>
                    <path d="M61.6250935,16.6604338 C60.6014818,18.0473625 59.0061811,18.8977361 57.2841249,18.9743829 C58.4040763,21.7511219 65.3829469,38.7355086 71.6398654,37.9209985 C72.8437007,37.7823517 73.9178644,37.100343 74.5554413,36.0698392 C75.8234854,33.5892857 72.8893979,29.7758975 69.0760097,24.9628833 C66.7850303,22.0283722 64.2955543,19.2543847 61.6250935,16.6604338 L61.6250935,16.6604338 Z" id="Path" fill="url(#linearGradient-11)"></path>
                    <path d="M60.8105834,17.5119671 C60.5153275,16.7728447 60.3192514,15.9978772 60.2274682,15.2072737 C60.1071429,14.059555 60.144166,12.1436051 59.7739342,11.2920718 C59.6258414,10.9588631 59.4314697,10.6256545 59.4314697,10.6256545 C59.0635953,9.99960236 58.6120727,9.42663575 58.0893792,8.92258788 C56.5436612,7.30282349 57.006451,5.53496634 55.5440352,4.74822364 C55.4514772,4.74822364 54.96092,4.44278235 54.8313388,4.5816193 C54.7017577,4.72045625 55.0442221,5.27580404 55.1738033,5.50719895 C55.7467119,6.57023573 56.1259373,7.7267163 56.2937547,8.92258788 L56.1086387,8.92258788 C55.2756171,7.34910247 53.6373411,4.78524682 52.8043194,5.00738594 C52.685598,5.03483995 52.5824951,5.10800977 52.5173897,5.21101346 C52.2674832,5.6367801 53.0819933,6.40501122 53.7113874,7.37686986 C54.1502098,8.15895775 54.4625944,9.00551995 54.6369671,9.88519073 L54.4888743,10.0332835 C53.4985041,8.95961107 51.1752992,6.54384817 50.3422775,6.95110322 C50.2403091,6.99548616 50.1603241,7.07880381 50.1201384,7.18249813 C49.9720456,7.61752057 51.045718,8.10807779 51.8046933,8.97812266 C52.4293307,9.63827786 52.9759322,10.3681152 53.4337135,11.1532349 L53.3318998,11.4031414 C52.6006918,10.9958863 49.8979993,9.70933059 49.2871167,10.0055161 C49.2315819,10.0055161 49.0834892,10.1073298 49.0557218,10.236911 C49.0279544,10.3664921 49.4814884,10.8015146 49.6295812,10.8940726 C50.7958115,11.6437921 53.3318998,13.5319746 54.1464099,14.2354151 C55.5903141,15.4479245 55.2478497,15.8089005 57.0897532,17.4379207 C57.5862093,17.8751525 58.1052462,18.2860567 58.644727,18.6689417 C59.0680476,18.5449345 59.475086,18.3709333 59.8572364,18.1506171 C60.1972186,17.9729024 60.516878,17.7587616 60.8105834,17.5119671 L60.8105834,17.5119671 Z" id="Path" fill="#F8D0C9"></path>
                    <polygon id="Path" fill="#444443" points="1.17548616 32.7377524 7.21026552 40.1609013 8.09882199 43.7058714 2.06404263 36.2827225"></polygon>
                    <path d="M2.06404263,36.2827225 L8.09884649,43.6873598 C8.10084176,43.9012125 7.97784348,44.0965627 7.78412491,44.1871728 C7.60826477,44.2797307 7.43240464,44.2797307 7.35835826,44.1871728 L1.3328347,36.7825355 C1.40688108,36.8750935 1.57348542,36.8750935 1.74934555,36.7825355 C1.92520568,36.6899776 2.10106582,36.4400711 2.06404263,36.2919783 L2.06404263,36.2827225 Z" id="Path" fill="#575756"></path>
                    <path d="M2.06404263,36.2827225 C2.06404263,36.4308153 1.96222887,36.6529544 1.74934555,36.7732797 C1.53646223,36.8936051 1.3328347,36.8750935 1.29581152,36.717745 L0.416510845,33.1727749 C0.370231862,33.0246821 0.518324607,32.802543 0.721952132,32.6729619 C0.925579656,32.5433807 1.13846298,32.5804039 1.17548616,32.7377524 L2.06404263,36.2827225 Z" id="Path" fill="#3D3D3C"></path>
                    <path d="M2.39725131,33.4134256 C1.86967091,33.9224944 2.52683246,35.2645849 2.73971578,35.7366305 C3.43390052,37.1897906 4.72045625,38.3282536 5.01664174,38.1338818 C5.15547868,38.0505797 5.08143231,37.6896036 5.01664174,37.3841623 C4.85929319,36.5974196 4.43352655,36.3567689 4.52608452,35.8662117 C4.5816193,35.5885378 4.72045625,35.625561 4.80375841,35.3386313 C4.92641471,34.5865889 4.55340639,33.8405723 3.87817876,33.487472 C3.48017951,33.3208676 2.77673897,33.0802169 2.39725131,33.4134256 Z" id="Path" fill="#F8D0C9"></path>
                    <path d="M6.80301047,41.7158751 C6.66009096,40.6855946 6.17426163,39.7334995 5.42389678,39.0131825 C4.8407816,38.4208115 4.18362004,37.7451384 3.64678384,37.9209985 C2.94334331,38.1616492 2.92483171,39.7721578 2.72120419,39.7258788 C2.51757666,39.6795999 2.55459985,39.4296933 2.53608826,38.309742 C2.2620954,38.4175795 1.96972328,38.4710239 1.67529918,38.4670905 L1.51792798,38.4670905 C1.51491999,39.4358787 1.81599531,40.3811904 2.37873972,41.1697831 C3.03392176,41.9190699 3.85471477,42.5053506 4.77599102,42.8821055 C5.49794316,43.2708489 5.9237098,43.4096859 6.21063949,43.2245699 C6.42516563,43.0425302 6.5746149,42.795614 6.63640613,42.5211294 C6.73241047,42.2627003 6.7885865,41.9911829 6.80301047,41.7158751 L6.80301047,41.7158751 Z" id="Path" fill="#F8D0C9"></path>
                    <polygon id="Path" fill="#FFFFFF" opacity="0.25" style="mix-blend-mode: screen;" points="1.62902019 33.6540763 3.46166791 21.0014024 5.24803665 26.9436238 15.5312266 23.9354899 10.1165856 28.4985976 19.2798242 30.9328721 12.2176515 33.2745886 14.4945774 37.9765333 6.1828721 37.5600224 5.69231488 39.7906694 2.09181002 35.2275617"></polygon>
                    <polygon id="Path" fill="#FFFFFF" opacity="0.25" style="mix-blend-mode: screen;" points="1.62902019 33.6540763 3.66529544 26.2124159 4.66492147 29.8314323 9.49644727 26.9251122 6.84003366 30.9143605 12.0325355 31.0994764 7.95998504 33.4597046 11.0051421 35.579282 4.74822364 35.7458863 4.85929319 37.5600224 2.09181002 35.2275617"></polygon>
                </g>
                <g id="like" transform="translate(56.846939, 42.428571)">
                    <path d="M173.391429,79.6040816 L152.177143,67.2896939 C151.556703,66.9409184 150.866703,66.7339186 150.156735,66.6835714 C148.434154,66.6389164 146.719136,66.9270393 145.105714,67.5321429 C140.987221,69.0434639 137.025421,70.9516238 133.276224,73.2296939 C130.703571,74.7113265 127.891837,76.4421429 124.84102,78.4221429 L146.055306,90.7264286 C149.085918,88.7666327 151.91449,87.0290816 154.49051,85.5440816 C158.227941,83.2593258 162.17567,81.3378946 166.279592,79.8061224 C167.891947,79.1979466 169.608234,78.913043 171.330612,78.9676531 C171.721626,78.9917817 172.108299,79.0630109 172.482245,79.1797959 L172.957041,79.3515306 L173.179286,79.452551 L173.391429,79.5737755 L173.391429,79.6040816 Z" id="Path" fill="#967DF9"></path>
                    <path d="M173.391429,79.6040816 L152.177143,67.2896939 C151.556703,66.9409184 150.866703,66.7339186 150.156735,66.6835714 C148.434154,66.6389164 146.719136,66.9270393 145.105714,67.5321429 C140.987221,69.0434639 137.025421,70.9516238 133.276224,73.2296939 C130.703571,74.7113265 127.891837,76.4421429 124.84102,78.4221429 L146.055306,90.7264286 C149.085918,88.7666327 151.91449,87.0290816 154.49051,85.5440816 C158.227941,83.2593258 162.17567,81.3378946 166.279592,79.8061224 C167.891947,79.1979466 169.608234,78.913043 171.330612,78.9676531 C171.721626,78.9917817 172.108299,79.0630109 172.482245,79.1797959 L172.957041,79.3515306 L173.179286,79.452551 L173.391429,79.5737755 L173.391429,79.6040816 Z" id="Path" fill="url(#linearGradient-12)" opacity="0.5" style="mix-blend-mode: multiply;"></path>
                    <path d="M175.250204,82.0184694 C174.75274,80.2559323 173.161617,79.0256824 171.330612,78.9878571 C169.608234,78.933247 167.891947,79.2181507 166.279592,79.8263265 C162.162908,81.3460439 158.201584,83.2573576 154.450102,85.5339796 C151.874082,87.0189796 149.04551,88.7565306 146.014898,90.7163265 C146.763574,86.168427 147.135246,81.5664491 147.126122,76.9573469 C147.214485,73.4170496 147.004971,69.8755917 146.499796,66.3704082 C146.251227,64.7543431 145.703055,63.1989074 144.883469,61.7840816 C144.087762,60.4141869 142.740513,59.4534436 141.186122,59.147449 C138.873906,58.8795817 136.540124,59.4184212 134.579388,60.6728571 C132.041364,62.182155 129.933435,64.3179112 128.457551,66.8755102 C127.18686,68.9715498 126.451367,71.3480233 126.315918,73.7954082 C126.280673,75.2198985 126.385566,76.6444034 126.629082,78.0483673 C127.083334,80.695748 127.134422,83.3966201 126.780612,86.0592857 C126.315918,89.5242857 125.28551,92.2619388 122.800408,98.8585714 C120.807764,104.600558 118.235298,110.12459 115.122857,115.345102 C112.378267,119.822542 109.138715,123.977031 105.465306,127.730204 L102.727653,130.508265 L102.727653,168.572755 L105.606735,168.057551 C110.80848,167.102576 115.921134,165.713745 120.891122,163.905612 C127.871366,161.365952 134.609531,158.204796 141.02449,154.460204 C147.370397,150.767555 153.468188,146.664116 159.278878,142.176122 C162.078459,140.033593 164.306134,137.233384 165.764388,134.023776 C166.575197,132.226651 167.10337,130.315003 167.330204,128.356531 C167.61622,126.632421 167.463354,124.864043 166.885714,123.214592 C168.066802,121.26734 168.955179,119.157019 169.522347,116.951327 C170.184576,114.578285 170.236698,112.076421 169.673878,109.677857 C171.453796,106.995409 172.606999,103.946672 173.047959,100.757755 C173.296508,99.0631679 173.1478,97.334003 172.613571,95.7067347 C173.031099,95.0062853 173.412118,94.2847091 173.755102,93.544898 C176.189694,88.3726531 175.836122,83.8469388 175.250204,82.0184694 Z M170.340612,92.6256122 C169.416908,94.5661137 168.029011,96.2489387 166.299796,97.525102 C168.158571,97.8584694 169.168776,99.8283673 168.865714,102.485204 C168.366511,105.87206 166.500743,108.906215 163.703571,110.88 C165.592653,111.789184 166.309898,114.516735 165.511837,117.719082 C164.743361,120.496893 163.185244,122.991986 161.026531,124.901633 C162.700076,125.994024 163.546484,127.99027 163.168163,129.952653 C162.856623,133.110245 161.190827,135.977476 158.602041,137.812041 C153.009494,142.121741 147.144879,146.066352 141.044694,149.621327 C134.8776,153.217722 128.403785,156.260246 121.699286,158.713163 C116.917956,160.430664 112.00132,161.745146 107.000816,162.642857 C107.000816,152.24449 107.000816,141.84949 107.000816,131.457857 C111.190658,127.172011 114.884356,122.427811 118.012041,117.315 C121.461888,111.557807 124.318564,105.465369 126.538163,99.1313265 C129.114184,92.2821429 130.407245,88.857551 130.993163,84.4833673 C132.21551,75.4622449 129.154592,72.6235714 131.457857,68.6736735 C132.230457,67.4128293 133.311755,66.3697768 134.599592,65.6430612 C135.860009,64.8387196 137.354798,64.4828173 138.842449,64.6328571 C142.782245,65.3703061 142.883265,72.5730612 142.883265,79.4828571 C142.870486,86.1951957 142.042798,92.8811555 140.418367,99.3939796 C144.004592,96.9492857 149.298061,93.4438776 154.500612,90.4435714 C162.440816,85.8572449 170.148673,82.4528571 171.209388,85.8067347 C171.699019,88.1125476 171.392771,90.5162348 170.340612,92.6256122 L170.340612,92.6256122 Z" id="Shape" fill="#365EDD"></path>
                    <path d="M170.340612,92.6256122 C171.379109,90.5114941 171.671088,88.1080078 171.16898,85.8067347 C170.108265,82.4528571 162.400408,85.8572449 154.460204,90.4435714 C149.257653,93.4741837 143.964184,96.9492857 140.377959,99.3939796 C142.011635,92.872153 142.846128,86.1758563 142.863061,79.452551 C142.863061,72.5427551 142.772143,65.3096939 138.822245,64.602551 C137.334594,64.4525111 135.839805,64.8084134 134.579388,65.6127551 C133.29116,66.3353666 132.212204,67.3795173 131.447755,68.6433673 C129.134388,72.5831633 132.195306,75.4218367 130.983061,84.4429592 C130.387041,88.8171429 129.09398,92.2417347 126.517959,99.0909184 C124.29836,105.424961 121.441684,111.517399 117.991837,117.274592 C114.864926,122.385238 111.174833,127.12916 106.990714,131.417449 L106.990714,162.642857 C111.985864,161.727601 116.895727,160.396228 121.66898,158.662653 C128.373478,156.209736 134.847294,153.167212 141.014388,149.570816 C147.124952,146.016953 152.999719,142.072322 158.602041,137.761531 C161.190827,135.926966 162.856623,133.059734 163.168163,129.902143 C163.546484,127.93976 162.700076,125.943514 161.026531,124.851122 C163.185244,122.941476 164.743361,120.446383 165.511837,117.668571 C166.309898,114.466224 165.592653,111.738673 163.703571,110.82949 C166.500743,108.855705 168.366511,105.82155 168.865714,102.434694 C169.168776,99.7778571 168.158571,97.8079592 166.299796,97.4745918 C168.022601,96.2126041 169.409983,94.5477461 170.340612,92.6256122 L170.340612,92.6256122 Z" id="Path" fill="#E0E9F5"></path>
                    <path d="M142.852959,59.7737755 C142.33646,59.4750156 141.772752,59.2666145 141.186122,59.157551 C138.873906,58.8896837 136.540124,59.4285232 134.579388,60.6829592 C132.041364,62.1922571 129.933435,64.3280133 128.457551,66.8856122 C127.18686,68.9816519 126.451367,71.3581253 126.315918,73.8055102 C126.28571,75.2298733 126.390566,76.6538936 126.629082,78.0584694 C127.083334,80.70585 127.134422,83.4067222 126.780612,86.0693878 C126.315918,89.5343878 125.28551,92.2720408 122.800408,98.8686735 C120.807764,104.61066 118.235298,110.134692 115.122857,115.355204 C114.597551,116.193673 114.112653,117.022041 113.516633,117.840306 C111.13624,121.384265 108.430657,124.698604 105.435,127.740306 L102.697347,130.518367 L81.4830612,118.214082 L84.2106122,115.43602 C87.1697645,112.422294 89.844664,109.142076 92.2013265,105.637041 C92.7771429,104.788469 93.3327551,103.919694 93.8681633,103.050918 C96.9827835,97.8315597 99.5553557,92.3072996 101.545714,86.5643878 C104.030816,79.9576531 105.061224,77.230102 105.53602,73.755 C105.882039,71.0915807 105.827559,68.3913761 105.374388,65.7440816 C105.135906,64.3429004 105.031048,62.9222353 105.061224,61.5012245 C105.203554,59.051911 105.938485,56.6737844 107.202857,54.5712245 C108.684774,52.0208865 110.791543,49.8897822 113.324694,48.3786735 C115.285431,47.1242375 117.619212,46.585398 119.931429,46.8532653 C120.522583,46.9573991 121.090444,47.1660708 121.608367,47.4694898 L142.852959,59.7737755 Z" id="Path" fill="#967DF9"></path>
                    <path d="M142.852959,59.7737755 C142.33646,59.4750156 141.772752,59.2666145 141.186122,59.157551 C138.873906,58.8896837 136.540124,59.4285232 134.579388,60.6829592 C132.041364,62.1922571 129.933435,64.3280133 128.457551,66.8856122 C127.18686,68.9816519 126.451367,71.3581253 126.315918,73.8055102 C126.28571,75.2298733 126.390566,76.6538936 126.629082,78.0584694 C127.083334,80.70585 127.134422,83.4067222 126.780612,86.0693878 C126.315918,89.5343878 125.28551,92.2720408 122.800408,98.8686735 C120.807764,104.61066 118.235298,110.134692 115.122857,115.355204 C114.597551,116.193673 114.112653,117.022041 113.516633,117.840306 C111.13624,121.384265 108.430657,124.698604 105.435,127.740306 L102.697347,130.518367 L81.4830612,118.214082 L84.2106122,115.43602 C87.1697645,112.422294 89.844664,109.142076 92.2013265,105.637041 C92.7771429,104.788469 93.3327551,103.919694 93.8681633,103.050918 C96.9827835,97.8315597 99.5553557,92.3072996 101.545714,86.5643878 C104.030816,79.9576531 105.061224,77.230102 105.53602,73.755 C105.882039,71.0915807 105.827559,68.3913761 105.374388,65.7440816 C105.135906,64.3429004 105.031048,62.9222353 105.061224,61.5012245 C105.203554,59.051911 105.938485,56.6737844 107.202857,54.5712245 C108.684774,52.0208865 110.791543,49.8897822 113.324694,48.3786735 C115.285431,47.1242375 117.619212,46.585398 119.931429,46.8532653 C120.522583,46.9573991 121.090444,47.1660708 121.608367,47.4694898 L142.852959,59.7737755 Z" id="Path" fill="url(#linearGradient-13)" opacity="0.5" style="mix-blend-mode: multiply;"></path>
                    <path d="M109.970816,127.154388 C109.970816,123.315612 107.233163,121.759898 103.909592,123.689388 L82.1902041,136.22602 C78.612982,138.545114 76.3602503,142.434831 76.1289796,146.691735 L76.23,183.442959 C76.23,187.281735 78.9676531,188.837449 82.2912245,186.907959 L104.05102,174.371327 C107.631027,172.050171 109.884136,168.156048 110.112245,163.89551 L109.970816,127.154388 Z M104.05102,169.471837 L82.3417347,182.008469 C81.3315306,182.584286 80.5334694,182.119592 80.5334694,180.998265 L80.432449,144.257143 C80.4957372,142.993481 81.1605581,141.836618 82.2205102,141.145714 L103.939898,128.609082 C104.950102,128.033265 105.738061,128.497959 105.748163,129.619286 L105.849184,166.360408 C105.781991,167.625471 105.113592,168.782026 104.05102,169.471837 L104.05102,169.471837 Z" id="Shape" fill="#365EDD"></path>
                    <path d="M105.707755,129.619286 C105.707755,128.477755 104.88949,128.013061 103.89949,128.609082 L82.180102,141.145714 C81.1201499,141.836618 80.455329,142.993481 80.3920408,144.257143 L80.4930612,180.998265 C80.4930612,182.139796 81.3113265,182.60449 82.3013265,182.008469 L104.05102,169.471837 C105.113592,168.782026 105.781991,167.625471 105.849184,166.360408 L105.707755,129.619286 Z" id="Path" fill="#E0E9F5"></path>
                    <path d="M84.3722449,109.425306 C83.2610204,108.778776 81.7356122,108.869694 80.0586735,109.83949 L58.3392857,122.376122 C54.7592789,124.697278 52.5061701,128.591401 52.2780612,132.851939 L52.3790816,169.593061 C52.3580824,170.423996 52.5237846,171.249055 52.8639796,172.007449 C52.9338297,172.169718 53.018365,172.325263 53.1165306,172.472143 C53.1165306,172.542857 53.207449,172.613571 53.2579592,172.684286 C53.5011157,173.001422 53.802906,173.268918 54.1469388,173.472245 L77.9776531,187.322143 C76.8866327,186.695816 76.2097959,185.301735 76.2097959,183.442959 L76.1087755,146.691735 C76.3400462,142.434831 78.5927779,138.545114 82.17,136.22602 L103.889388,123.689388 C104.82614,123.081085 105.938099,122.80043 107.051327,122.891327 C107.295965,122.922191 107.536483,122.97978 107.768571,123.063061 L107.990816,123.15398 L108.202959,123.275204 L108.202959,123.275204 L84.3722449,109.425306 Z" id="Path" fill="#967DF9"></path>
                    <path d="M84.3722449,109.425306 C83.2610204,108.778776 81.7356122,108.869694 80.0586735,109.83949 L58.3392857,122.376122 C54.7592789,124.697278 52.5061701,128.591401 52.2780612,132.851939 L52.3790816,169.593061 C52.3580824,170.423996 52.5237846,171.249055 52.8639796,172.007449 C52.9338297,172.169718 53.018365,172.325263 53.1165306,172.472143 C53.1165306,172.542857 53.207449,172.613571 53.2579592,172.684286 C53.5011157,173.001422 53.802906,173.268918 54.1469388,173.472245 L77.9776531,187.322143 C76.8866327,186.695816 76.2097959,185.301735 76.2097959,183.442959 L76.1087755,146.691735 C76.3400462,142.434831 78.5927779,138.545114 82.17,136.22602 L103.889388,123.689388 C104.82614,123.081085 105.938099,122.80043 107.051327,122.891327 C107.295965,122.922191 107.536483,122.97978 107.768571,123.063061 L107.990816,123.15398 L108.202959,123.275204 L108.202959,123.275204 L84.3722449,109.425306 Z" id="Path" fill="url(#linearGradient-14)" opacity="0.5" style="mix-blend-mode: multiply;"></path>
                    <path d="M25.8915306,107.718061 C24.3100501,108.747611 23.3153422,110.47052 23.2144898,112.354898 C23.2144898,114.052041 24.4267347,114.73898 25.9117347,113.890408 C27.4905914,112.859766 28.4817217,111.136551 28.5786735,109.253571 C28.5786735,107.546327 27.3765306,106.859388 25.8915306,107.718061 Z" id="Path" fill="#FF201B" opacity="0.3"></path>
                    <path d="M29.6090816,108.596939 C28.9896687,108.309937 28.263599,108.379454 27.709898,108.778776 C26.135384,109.804126 25.1446114,111.519214 25.0429592,113.395408 C24.9858178,114.04883 25.2680861,114.685841 25.7905102,115.082449 L23.9923469,114.072245 C23.4421643,113.682099 23.1448859,113.02577 23.2144898,112.354898 C23.2144898,112.26398 23.2144898,112.162959 23.2144898,112.072041 C23.2144898,111.981122 23.2144898,112.011429 23.2144898,111.981122 C23.2812553,111.272931 23.4908846,110.585622 23.8307143,109.960714 C24.1095314,109.410784 24.4706254,108.906615 24.9015306,108.465612 C25.1995638,108.165204 25.5398936,107.909957 25.9117347,107.707959 C26.4619207,107.301123 27.1904563,107.227494 27.8109184,107.51602 L29.6090816,108.596939 Z" id="Path" fill="#FF201B" opacity="0.5"></path>
                    <path d="M27.709898,108.778776 C26.135384,109.804126 25.1446114,111.519214 25.0429592,113.395408 C25.0429592,115.092551 26.2552041,115.769388 27.730102,114.920816 C29.3056853,113.89787 30.2940655,112.180418 30.3869388,110.304184 C30.3869388,108.607041 29.1847959,107.930204 27.709898,108.778776 Z" id="Path" fill="#FF4440" opacity="0.5"></path>
                    <path d="M3.25285714,144.98449 C1.66800886,146.006126 0.671691231,147.728064 0.575816327,149.611224 C0.575816327,151.318469 1.78806122,152.005408 3.26295918,151.146735 C4.84813016,150.120688 5.8440264,148.395721 5.94,146.509898 C5.94,144.812755 4.7277551,144.125816 3.25285714,144.98449 Z" id="Path" fill="#FF201B" opacity="0.3"></path>
                    <path d="M6.97040816,145.853265 C6.35099524,145.566263 5.62492556,145.63578 5.07122449,146.035102 C3.49792897,147.061608 2.50754689,148.776019 2.40428571,150.651735 C2.33954099,151.309251 2.62301516,151.952814 3.15183673,152.348878 L1.35367347,151.338673 C0.803490806,150.948528 0.506212468,150.292199 0.575816327,149.621327 C0.570773931,149.523739 0.570773931,149.425955 0.575816327,149.328367 C0.575816327,149.328367 0.575816327,149.267755 0.575816327,149.237449 C0.649375892,148.547964 0.855172106,147.879126 1.18193878,147.267551 C1.46985534,146.717597 1.83372905,146.210894 2.26285714,145.762347 C2.54666078,145.471303 2.86565292,145.216788 3.21244898,145.004694 C3.77005286,144.605634 4.498827,144.536227 5.12173469,144.822857 L6.97040816,145.853265 Z" id="Path" fill="#FF201B" opacity="0.5"></path>
                    <path d="M5.05102041,146.035102 C3.47772489,147.061608 2.48734281,148.776019 2.38408163,150.651735 C2.38408163,152.348878 3.59632653,153.035816 5.07122449,152.177143 C6.64648579,151.158604 7.63528611,149.444182 7.72806122,147.570612 C7.74826531,145.873469 6.54612245,145.186531 5.05102041,146.035102 Z" id="Path" fill="#FF4440" opacity="0.5"></path>
                    <path d="M50.6617347,110.728469 C49.0805882,111.753629 48.0854683,113.473497 47.9846939,115.355204 C47.9846939,117.062449 49.1969388,117.749388 50.6819388,116.890714 C52.260464,115.864461 53.2520061,114.144286 53.3488776,112.26398 C53.3488776,110.556735 52.1467347,109.869796 50.6617347,110.728469 Z" id="Path" fill="#FF201B" opacity="0.3"></path>
                    <path d="M54.3792857,111.597245 C53.7588237,111.308719 53.0302881,111.382347 52.480102,111.789184 C50.9083637,112.812465 49.9179652,114.523154 49.8131633,116.395714 C49.7543911,117.052263 50.0366381,117.69304 50.5607143,118.092857 L48.762551,117.082653 C48.2157302,116.689744 47.9193847,116.035474 47.9846939,115.365306 C47.9846939,115.274388 47.9846939,115.173367 47.9846939,115.072347 C47.9846939,114.971327 47.9846939,115.072347 47.9846939,114.981429 C48.0583342,114.290614 48.2677532,113.62116 48.6009184,113.011531 C48.8797355,112.4616 49.2408295,111.957431 49.6717347,111.516429 C49.9540894,111.216819 50.2771461,110.958373 50.6314286,110.748673 C51.1851296,110.349352 51.9111993,110.279835 52.5306122,110.566837 L54.3792857,111.597245 Z" id="Path" fill="#FF201B" opacity="0.5"></path>
                    <path d="M52.5306122,111.789184 C50.9564341,112.810148 49.9652509,114.522192 49.8636735,116.395714 C49.8636735,118.092857 51.0759184,118.779796 52.5508163,117.931224 C54.1241118,116.904719 55.1144939,115.190308 55.2177551,113.314592 C55.1571429,111.617449 53.955,110.93051 52.5306122,111.789184 Z" id="Path" fill="#FF4440" opacity="0.5"></path>
                    <path d="M73.8964286,80.200102 C72.3154321,81.2240105 71.323094,82.9455668 71.2294898,84.8268367 C71.2294898,86.5340816 72.4316327,87.2210204 73.9166327,86.3623469 C75.4981131,85.3327976 76.4928211,83.6098884 76.5936735,81.7255102 C76.5835714,80.0283673 75.3814286,79.3414286 73.8964286,80.200102 Z" id="Path" fill="#FF201B" opacity="0.3"></path>
                    <path d="M77.6240816,81.0688776 C77.0046687,80.7818754 76.278599,80.8513927 75.724898,81.2507143 C74.1454637,82.2713926 73.1531056,83.9892245 73.0579592,85.8673469 C72.9952326,86.5245389 73.2782899,87.1671554 73.8055102,87.5644898 L72.0073469,86.5542857 C71.4553755,86.1702632 71.1570732,85.5155479 71.2294898,84.8470408 C71.2244474,84.7494528 71.2244474,84.6516696 71.2294898,84.5540816 C71.2245873,84.5239738 71.2245873,84.4932711 71.2294898,84.4631633 C71.2981419,83.7726804 71.504226,83.102907 71.8356122,82.4932653 C72.1175864,81.9396699 72.4820534,81.432141 72.9165306,80.9880612 C73.1982266,80.6946977 73.517533,80.4399319 73.8661224,80.2304082 C74.4213692,79.8250939 75.1536346,79.7553543 75.7754082,80.0485714 L77.6240816,81.0688776 Z" id="Path" fill="#FF201B" opacity="0.5"></path>
                    <path d="M75.7653061,81.2507143 C74.189569,82.2749052 73.1984037,83.9906724 73.0983673,85.8673469 C73.0983673,87.5644898 74.3005102,88.2514286 75.7754082,87.3927551 C77.3495863,86.3717908 78.3407695,84.6597471 78.4423469,82.7862245 C78.3918367,81.0890816 77.1997959,80.4021429 75.7653061,81.2507143 Z" id="Path" fill="#FF4440" opacity="0.5"></path>
                    <path d="M97.9291837,72.5932653 C96.3440127,73.6193118 95.3481165,75.3442793 95.2521429,77.230102 C95.2521429,78.9373469 96.4643878,79.6141837 97.9392857,78.7656122 C99.5207662,77.7360629 100.515474,76.0131537 100.616327,74.1287755 C100.616327,72.4316327 99.4040816,71.7244898 97.9291837,72.5932653 Z" id="Path" fill="#FF201B" opacity="0.3"></path>
                    <path d="M101.646735,73.4721429 C101.027322,73.1851407 100.301252,73.254658 99.747551,73.6539796 C98.1742555,74.6804851 97.1838734,76.3948965 97.0806122,78.2706122 C97.0154479,78.9253447 97.2993787,79.5661075 97.8281633,79.9576531 L96.03,78.947449 C95.4780285,78.5634264 95.1797263,77.9087111 95.2521429,77.2402041 C95.2471005,77.1426161 95.2471005,77.0448329 95.2521429,76.9472449 C95.2521429,76.9472449 95.2521429,76.8866327 95.2521429,76.8563265 C95.3218251,76.1500365 95.5276569,75.4639306 95.8582653,74.8359184 C96.1462998,74.2890939 96.510208,73.7857442 96.9391837,73.3408163 C97.2229873,73.049772 97.5419794,72.795257 97.8887755,72.5831633 C98.4429085,72.1766434 99.1741,72.1031373 99.7980612,72.3912245 L101.646735,73.4721429 Z" id="Path" fill="#FF201B" opacity="0.5"></path>
                    <path d="M99.747551,73.6539796 C98.1742555,74.6804851 97.1838734,76.3948965 97.0806122,78.2706122 C97.0806122,79.9677551 98.2827551,80.6546939 99.7576531,79.7960204 C101.338329,78.776524 102.33109,77.0579955 102.424592,75.1793878 C102.424592,73.4923469 101.222449,72.8054082 99.747551,73.6539796 Z" id="Path" fill="#FF4440" opacity="0.5"></path>
                    <path d="M121.891224,44.0044898 C120.308849,45.0284808 119.313332,46.7490342 119.214184,48.6312245 C119.214184,50.3384694 120.426429,51.0254082 121.901327,50.1667347 C123.486175,49.1450981 124.482492,47.4231605 124.578367,45.54 C124.578367,43.8327551 123.366122,43.1458163 121.891224,44.0044898 Z" id="Path" fill="#FF201B" opacity="0.3"></path>
                    <path d="M125.608776,44.8833673 C124.991338,44.5850761 124.259211,44.6551734 123.709592,45.0652041 C122.135078,46.090555 121.144305,47.8056423 121.042653,49.6818367 C120.981556,50.335911 121.264639,50.9747616 121.790204,51.3688776 L119.992041,50.3586735 C119.441858,49.9685278 119.14458,49.312199 119.214184,48.6413265 C119.214184,48.5504082 119.214184,48.4493878 119.214184,48.3483673 C119.214184,48.2473469 119.214184,48.3483673 119.214184,48.267551 C119.282596,47.561011 119.4885,46.874665 119.820306,46.2471429 C120.105835,45.6987679 120.469991,45.1950758 120.901224,44.7520408 C121.183579,44.4524311 121.506636,44.1939857 121.860918,43.9842857 C122.414619,43.5849641 123.140689,43.5154468 123.760102,43.802449 L125.608776,44.8833673 Z" id="Path" fill="#FF201B" opacity="0.5"></path>
                    <path d="M123.709592,45.0652041 C122.135078,46.090555 121.144305,47.8056423 121.042653,49.6818367 C121.042653,51.3688776 122.254898,52.0558163 123.729796,51.2072449 C125.302911,50.1819613 126.290499,48.465887 126.386633,46.5906122 C126.386633,44.8934694 125.18449,44.2065306 123.709592,45.0652041 Z" id="Path" fill="#FF4440" opacity="0.5"></path>
                    <path d="M145.913878,38.5190816 C144.335021,39.5497237 143.343891,41.2729389 143.246939,43.1559184 C143.246939,44.8631633 144.449082,45.54 145.934082,44.6914286 C147.515562,43.6618793 148.51027,41.93897 148.611122,40.0545918 C148.60102,38.3877551 147.398878,37.6705102 145.913878,38.5190816 Z" id="Path" fill="#FF201B" opacity="0.3"></path>
                    <path d="M149.641531,39.3979592 C149.022118,39.110957 148.296048,39.1804743 147.742347,39.5797959 C146.162913,40.6004742 145.170555,42.3183061 145.075408,44.1964286 C145.010244,44.8511611 145.294175,45.4919238 145.822959,45.8834694 L144.024796,44.8732653 C143.472824,44.4892428 143.174522,43.8345274 143.246939,43.1660204 C143.241896,43.0684324 143.241896,42.9706492 143.246939,42.8730612 C143.242036,42.8429534 143.242036,42.8122507 143.246939,42.7821429 C143.311663,42.0748831 143.517779,41.387827 143.853061,40.7617347 C144.137716,40.2128206 144.50196,39.7090064 144.93398,39.2666327 C145.215676,38.9732691 145.534982,38.7185033 145.883571,38.5089796 C146.433191,38.0989489 147.165318,38.0288516 147.782755,38.3271429 L149.641531,39.3979592 Z" id="Path" fill="#FF201B" opacity="0.5"></path>
                    <path d="M147.732245,39.5797959 C146.161579,40.6073949 145.174775,42.3221084 145.075408,44.1964286 C145.075408,45.8935714 146.277551,46.5805102 147.752449,45.7218367 C149.326963,44.6964858 150.317736,42.9813985 150.419388,41.1052041 C150.409286,39.3979592 149.217245,38.7312245 147.732245,39.5797959 Z" id="Path" fill="#FF4440" opacity="0.5"></path>
                    <path d="M169.855714,1.36377551 C168.276671,2.39563309 167.282744,4.11719064 167.178673,6.00061224 C167.178673,7.6977551 168.390918,8.38469388 169.875918,7.52602041 C171.459528,6.50320387 172.455444,4.78196042 172.552959,2.89928571 C172.542857,1.19204082 171.340714,0.505102041 169.855714,1.36377551 Z" id="Path" fill="#FF201B" opacity="0.3"></path>
                    <path d="M173.583367,2.24265306 C172.961594,1.94943597 172.229328,2.01917552 171.674082,2.4244898 C170.090063,3.45358475 169.100539,5.18431086 169.017245,7.07142857 C168.952081,7.72616105 169.236011,8.36692384 169.764796,8.75846939 C169.512245,8.62714286 167.966633,7.74826531 167.966633,7.74826531 C167.41263,7.36052508 167.111293,6.70376365 167.178673,6.03091837 C167.178673,5.94 167.178673,5.83897959 167.178673,5.73795918 C167.184409,5.7113257 167.184409,5.68377634 167.178673,5.65714286 C167.245439,4.94895095 167.455068,4.26164203 167.794898,3.63673469 C168.073715,3.0868042 168.434809,2.58263521 168.865714,2.14163265 C169.168839,1.84426879 169.508251,1.58631566 169.875918,1.37387755 C170.429619,0.974555935 171.155689,0.905038625 171.775102,1.19204082 L173.583367,2.24265306 Z" id="Path" fill="#FF201B" opacity="0.5"></path>
                    <path d="M171.674082,2.4244898 C170.090063,3.45358475 169.100539,5.18431086 169.017245,7.07142857 C169.017245,8.76857143 170.219388,9.44540816 171.694286,8.59683673 C173.2688,7.57148584 174.259572,5.85639854 174.361224,3.98020408 C174.351122,2.2527551 173.159082,1.57591837 171.674082,2.4244898 Z" id="Path" fill="#FF4440" opacity="0.5"></path>
                    <polygon id="Path" fill="#BFC8F4" opacity="0.3" points="171.86602 5.23285714 148.237347 41.9133673 124.29551 47.2876531 100.303163 76.0077551 76.2603061 83.5135714 52.4295918 114.153061 28.3059184 111.061837 3.96 148.843469 4.91969388 149.59102 28.4473469 113.072143 52.4295918 116.143163 76.5229592 85.1703061 100.515306 77.6745918 124.457143 49.0252041 148.580816 43.6105102 172.957041 5.85918367"></polygon>
                    <polygon id="Path" fill="#D9E1FA" opacity="0.75" points="181.028571 10.5566327 171.876122 5.23285714 148.237347 41.9133673 157.399898 47.2371429"></polygon>
                    <polygon id="Path" fill="#A0ACEE" opacity="0.7" points="157.399898 47.2371429 148.237347 41.9133673 124.305612 47.2876531 133.458061 52.6013265"></polygon>
                    <polygon id="Path" fill="#D9E1FA" opacity="0.75" points="133.458061 52.6013265 124.305612 47.2876531 100.313265 76.0077551 109.465714 81.3214286"></polygon>
                    <polygon id="Path" fill="#A0ACEE" opacity="0.7" points="109.465714 81.3214286 100.313265 76.0077551 76.2603061 83.5135714 85.4228571 88.8373469"></polygon>
                    <polygon id="Path" fill="#D9E1FA" opacity="0.75" points="85.4228571 88.8373469 76.2603061 83.5135714 52.4396939 114.153061 61.5921429 119.476837"></polygon>
                    <polygon id="Path" fill="#A0ACEE" opacity="0.7" points="61.5921429 119.476837 52.4396939 114.153061 28.3160204 111.061837 37.4684694 116.385612"></polygon>
                    <polygon id="Path" fill="#BFC8F4" opacity="0.75" points="181.028571 10.5566327 157.399898 47.2371429 133.458061 52.6013265 109.465714 81.3214286 85.4228571 88.8373469 61.5921429 119.476837 37.4684694 116.385612 13.122551 154.167245 14.0822449 154.914796 37.609898 118.385816 61.6022449 121.466939 85.6855102 90.4940816 109.687959 82.9983673 133.619694 54.3388776 157.743367 48.9342857 181.988265 11.3041837"></polygon>
                    <polygon id="Path" fill="#D9E1FA" opacity="0.75" points="37.4684694 116.385612 28.3160204 111.061837 3.97010204 148.843469 13.122551 154.167245"></polygon>
                    <polygon id="Path" fill="#A0ACEE" points="13.122551 154.167245 3.97010204 148.843469 4.91969388 149.59102 14.0822449 154.914796"></polygon>
                </g>
                <g id="man-3" transform="translate(217.500000, 167.142857)">
                    <polygon id="Path" fill="url(#linearGradient-15)" points="0.272158498 62.0052138 30.012513 113.612096 59.9593326 96.3534932 59.9593326 62.0052138"></polygon>
                    <polygon id="Path" fill="url(#linearGradient-16)" points="30.012513 79.2638165 0.272158498 62.0052138 0.272158498 96.3441084 30.012513 113.612096"></polygon>
                    <polygon id="Path" fill="url(#linearGradient-17)" points="59.9593326 62.0052138 30.1626694 44.7466111 0.272158498 62.0052138 30.012513 79.2638165"></polygon>
                    <path d="M46.7267987,108.938478 C48.3034411,110.214807 47.1960375,111.75391 49.1574557,116.502607 C50.0959333,118.820647 50.9124088,119.684046 50.5745568,120.932221 C50.047576,122.454932 48.5803251,123.448383 46.9708029,123.372263 C44.3618352,123.203337 42.5505735,119.806048 41.189781,117.281543 C39.5849844,114.2878 38.2711157,111.866528 39.3972888,109.980188 C40.7768509,107.746611 44.7935349,107.37122 46.7267987,108.938478 Z" id="Path" fill="#5F2547"></path>
                    <path d="M67.0542231,104.940563 C67.7862357,106.226277 68.7528676,106.245047 72.2721585,107.5683 C77.1522419,109.445255 78.4098019,110.543274 79.9489051,109.698644 C80.8801614,109.208403 81.4987265,108.278788 81.5912409,107.230448 C81.5912409,106.226277 80.8029197,105.456726 77.3305527,103.194995 C73.2950991,100.557873 71.8498436,100.098019 70.6767466,99.9009385 C69.278415,99.6663191 67.9739312,99.4692388 67.1386861,100.332638 C66.1157456,101.355579 66.2471324,103.561001 67.0542231,104.940563 Z" id="Path" fill="#5F2547"></path>
                    <path d="M26.1929093,43.1699687 C35.1616352,43.4988038 43.9809942,45.5673849 52.1605839,49.2606882 C57.894682,51.8508863 60.1376434,53.1178311 61.7987487,54.7320125 C67.6736184,60.447341 69.1001043,68.4150156 70.1887383,74.4400417 C71.2304484,80.2210636 70.6392075,81.9478624 72.3190824,94.6079249 C72.6569343,97.1324296 72.9666319,99.1970803 73.173097,100.539103 C71.9137581,100.88911 70.7168407,101.433739 69.6256517,102.153285 C68.0490094,103.194995 67.8706986,103.776851 67.2419187,103.739312 C65.3649635,103.607925 64.3514077,96.0062565 64.2950991,95.5839416 C63.5724713,90.084463 61.7987487,81.6006257 57.096976,68.6871741 C52.4131254,68.2908797 47.7565416,67.6202815 43.1511992,66.6788321 C35.045293,65.035624 27.1230414,62.589786 19.5015641,59.3774765 C21.0657671,56.7039285 22.4302747,53.9184509 23.5839416,51.0437956 C24.623107,48.4784234 25.4945963,45.8482812 26.1929093,43.1699687 Z" id="Path" fill="url(#linearGradient-18)"></path>
                    <path d="M16.0010428,48.0782065 C42.0813347,59.0396246 45.4410845,70.1324296 46.088634,74.1397289 C46.4171011,76.1668405 46.7924922,82.5015641 47.3086548,95.1240876 C47.5901981,101.956204 47.7966632,107.58707 47.9186653,111.387904 C46.8600454,112.542996 45.4467105,113.312404 43.9019812,113.574557 C42.0615167,113.856169 40.1832319,113.419358 38.6558916,112.354536 C38.3320407,105.656809 37.5828772,98.9864328 36.4129301,92.3837331 C35.4744526,87.1845673 34.3576642,82.3701773 33.1470282,77.987487 C25.5086335,74.835312 18.6464492,70.0609224 13.0354536,63.9947862 C12.0218978,62.8873827 11.092805,61.7799791 10.2200209,60.6725756 L16.0010428,48.0782065 Z" id="Path" fill="url(#linearGradient-19)"></path>
                    <g id="Group" transform="translate(13.561001, 44.108446)">
                        <path d="M0.938477581,21.0782065 C0.938477581,21.0782065 0.938477581,21.012513 0.938477581,20.9843587 L0.938477581,22.1199166 C0.965422564,22.4146402 1.14801301,22.6724149 1.41710115,22.7956204 L21.8196038,34.6485923 C22.5564681,35.0246218 23.4289333,35.0246218 24.1657977,34.6485923 L57.3315954,15.5036496 C57.6084291,15.3830913 57.7961268,15.1195926 57.8196038,14.818561 L57.8196038,13.6830031 L57.8196038,13.6830031 C57.7928103,13.3854475 57.6056381,13.126286 57.3315954,13.0072993 L36.9290928,2.54327424 C36.1933572,2.16257862 35.3186345,2.16257862 34.5828989,2.54327424 L1.42648592,20.2805005 C1.10663958,20.4107954 0.908845312,20.7341129 0.938477581,21.0782065 L0.938477581,21.0782065 Z" id="Path" fill="#91A5C6"></path>
                        <path d="M1.45464025,20.2898853 L34.6110532,1.15432742 C35.3467888,0.773631804 36.2215115,0.773631804 36.9572471,1.15432742 L57.3597497,13.016684 C57.6568976,13.1101238 57.8590383,13.3855874 57.8590383,13.6970803 C57.8590383,14.0085732 57.6568976,14.2840367 57.3597497,14.3774765 L24.2033368,33.5224192 C23.4664724,33.8984487 22.5940072,33.8984487 21.8571429,33.5224192 L1.45464025,21.6600626 C0.797705944,21.2752868 0.797705944,20.6465068 1.45464025,20.2898853 Z" id="Path" fill="#C4D0E6"></path>
                        <path d="M19.5766423,29.8717414 L21.3315954,28.8488008 C21.5842655,28.7301689 21.8766312,28.7301689 22.1293014,28.8488008 L23.8561001,29.8529718 C24.0719499,29.9749739 24.0719499,30.181439 23.8561001,30.3128259 L22.0917623,31.3263816 C21.8443246,31.4533448 21.5508788,31.4533448 21.3034411,31.3263816 L19.5766423,30.3222106 C19.3514077,30.2095933 19.3514077,30.0312826 19.5766423,29.8717414 Z" id="Path" fill="#3676E5"></path>
                        <path d="M22.5234619,31.5891554 L53.8592284,13.4953076 C54.1099451,13.3682203 54.4062176,13.3682203 54.6569343,13.4953076 L55.1261731,13.7674661 C55.3420229,13.898853 55.3420229,14.105318 55.1261731,14.2273201 L23.7810219,32.3305527 C23.5309873,32.4462681 23.2427353,32.4462681 22.9927007,32.3305527 L22.5234619,32.0583942 C22.3076121,31.9082377 22.3076121,31.7111575 22.5234619,31.5891554 Z" id="Path" fill="#3676E5"></path>
                        <path d="M16.620438,28.1543274 L20.1960375,26.0896767 C20.4422831,25.9578714 20.7381131,25.9578714 20.9843587,26.0896767 L22.7111575,27.084463 C22.9270073,27.2158498 22.9270073,27.4223149 22.7111575,27.5537018 L19.1449426,29.6089677 C18.894226,29.736055 18.5979534,29.736055 18.3472367,29.6089677 L16.620438,28.6047967 C16.3952033,28.4921794 16.3952033,28.2857143 16.620438,28.1543274 Z" id="Path" fill="#3676E5"></path>
                        <path d="M26.9436913,28.5297185 L25.1793535,29.5432742 C24.9286368,29.6703616 24.6323642,29.6703616 24.3816475,29.5432742 L22.6548488,28.5391032 C22.438999,28.4077164 22.4483837,28.2012513 22.6548488,28.0698644 L24.4191867,27.0563087 C24.6687527,26.9244942 24.9673266,26.9244942 25.2168926,27.0563087 L26.9436913,28.0604797 C27.2158498,28.1543274 27.1595412,28.3983316 26.9436913,28.5297185 Z" id="Path" fill="#3676E5"></path>
                        <path d="M30.0312826,26.7372263 L28.2763295,27.7601668 C28.0256128,27.8872542 27.7293403,27.8872542 27.4786236,27.7601668 L25.7518248,26.7559958 C25.535975,26.6339937 25.535975,26.4275287 25.7518248,26.2961418 L27.5161627,25.282586 C27.7636003,25.1556229 28.0570462,25.1556229 28.3044838,25.282586 L30.0312826,26.2773723 C30.2565172,26.4087591 30.2565172,26.6152242 30.0312826,26.7372263 Z" id="Path" fill="#3676E5"></path>
                        <path d="M33.1282586,24.9541189 L31.3639208,25.9676747 C31.1164831,26.0946378 30.8230373,26.0946378 30.5755996,25.9676747 L28.8488008,24.9635036 C28.632951,24.8415016 28.632951,24.6350365 28.8488008,24.5036496 L30.6037539,23.4900938 C30.8544706,23.3630065 31.1507432,23.3630065 31.4014599,23.4900938 L33.1282586,24.4942649 C33.3534932,24.6162669 33.3534932,24.822732 33.1282586,24.9541189 Z" id="Path" fill="#3676E5"></path>
                        <path d="M36.2252346,23.1710115 L34.4608968,24.1845673 C34.2113307,24.3163817 33.9127569,24.3163817 33.6631908,24.1845673 L31.9082377,23.189781 C31.8109252,23.1552115 31.7459135,23.0631244 31.7459135,22.959854 C31.7459135,22.8565836 31.8109252,22.7644966 31.9082377,22.729927 L33.6725756,21.7069864 C33.9221416,21.575172 34.2207155,21.575172 34.4702815,21.7069864 L36.1970803,22.7111575 C36.4504692,22.8331595 36.4410845,23.0396246 36.2252346,23.1710115 Z" id="Path" fill="#3676E5"></path>
                        <path d="M39.3128259,21.3785193 L37.5391032,22.4014599 C37.2864331,22.5200917 36.9940674,22.5200917 36.7413973,22.4014599 L35.0145985,21.3972888 C34.7987487,21.2752868 34.7987487,21.0688217 35.0145985,20.9374348 L36.7789364,19.923879 C37.0263741,19.7969159 37.3198199,19.7969159 37.5672576,19.923879 L39.2940563,20.9280501 C39.5380605,21.0500521 39.5380605,21.2565172 39.3128259,21.3785193 Z" id="Path" fill="#3676E5"></path>
                        <path d="M42.4098019,19.5954119 L40.645464,20.6465068 C40.3980264,20.7734699 40.1045805,20.7734699 39.8571429,20.6465068 L38.1303441,19.6423358 C37.9144943,19.5203337 37.9144943,19.3138686 38.1303441,19.1824818 L39.8852972,18.1595412 C40.1379673,18.0409093 40.430333,18.0409093 40.6830031,18.1595412 L42.4098019,19.1637122 C42.6350365,19.25756 42.6350365,19.464025 42.4098019,19.5954119 Z" id="Path" fill="#3676E5"></path>
                        <path d="M45.5067779,17.831074 L43.74244,18.8446298 C43.492874,18.9764442 43.1943001,18.9764442 42.9447341,18.8446298 L41.2179353,17.831074 C41.1206228,17.7965045 41.0556111,17.7044175 41.0556111,17.601147 C41.0556111,17.4978766 41.1206228,17.4057896 41.2179353,17.37122 L42.9822732,16.3482795 C43.2329899,16.2211921 43.5292624,16.2211921 43.7799791,16.3482795 L45.5067779,17.3524505 C45.7320125,17.4744526 45.7226277,17.6809176 45.5067779,17.831074 Z" id="Path" fill="#3676E5"></path>
                        <path d="M46.923879,14.5557873 L48.6506778,15.5599583 C48.8665276,15.6913452 48.8665276,15.8978102 48.6506778,16.0198123 L46.8957247,17.0427529 C46.645008,17.1698402 46.3487355,17.1698402 46.0980188,17.0427529 L44.37122,16.0385819 C44.1553702,15.9165798 44.1553702,15.7101147 44.37122,15.5787278 L46.1355579,14.5651721 C46.3814815,14.4352531 46.6749322,14.4317597 46.923879,14.5557873 Z" id="Path" fill="#3676E5"></path>
                        <path d="M42.6913452,12.5849844 L40.9270073,13.6079249 C40.6774413,13.7397393 40.3788674,13.7397393 40.1293014,13.6079249 L38.4025026,12.6037539 C38.1866528,12.4817518 38.1960375,12.2752868 38.4025026,12.1438999 L40.1668405,11.1303441 C40.4175572,11.0032568 40.7138297,11.0032568 40.9645464,11.1303441 L42.6913452,12.1345151 C42.7822726,12.1724015 42.8415016,12.261245 42.8415016,12.3597497 C42.8415016,12.4582544 42.7822726,12.5470979 42.6913452,12.5849844 L42.6913452,12.5849844 Z" id="Path" fill="#3676E5"></path>
                        <path d="M21.4442127,25.3388947 L23.2085506,24.3159541 C23.4612207,24.1973222 23.7535864,24.1973222 24.0062565,24.3159541 L25.7330553,25.3201251 C25.9489051,25.4421272 25.9395203,25.6485923 25.7330553,25.7799791 L23.9687174,26.7935349 C23.7180007,26.9206223 23.4217282,26.9206223 23.1710115,26.7935349 L21.4442127,25.7893639 C21.3532853,25.7514775 21.2940563,25.662634 21.2940563,25.5641293 C21.2940563,25.4656246 21.3532853,25.3767811 21.4442127,25.3388947 L21.4442127,25.3388947 Z" id="Path" fill="#3676E5"></path>
                        <path d="M28.8112617,24.0250261 L27.0563087,25.0385819 C26.8067426,25.1703963 26.5081687,25.1703963 26.2586027,25.0385819 L24.531804,24.0437956 C24.3159541,23.9124088 24.3159541,23.7059437 24.531804,23.5745568 L26.2773723,22.5234619 C26.5269383,22.3916475 26.8255122,22.3916475 27.0750782,22.5234619 L28.7924922,23.5182482 C29.092805,23.6871741 29.0364964,23.8936392 28.8112617,24.0250261 Z" id="Path" fill="#3676E5"></path>
                        <path d="M31.9082377,22.2325339 L30.1438999,23.2554745 C29.8938653,23.3711899 29.6056133,23.3711899 29.3555787,23.2554745 L27.62878,22.2513034 C27.4129301,22.1293014 27.4129301,21.9228363 27.62878,21.7914494 L29.3837331,20.7778936 C29.6344498,20.6508063 29.9307223,20.6508063 30.181439,20.7778936 L31.9082377,21.7726799 C32.1334724,21.9040667 32.1334724,22.1105318 31.9082377,22.2325339 Z" id="Path" fill="#3676E5"></path>
                        <path d="M35.0052138,20.4494265 L33.2408759,21.4629823 C32.9901592,21.5900696 32.6938867,21.5900696 32.44317,21.4629823 L30.725756,20.4588113 C30.5099062,20.3274244 30.5099062,20.1209593 30.725756,19.9989572 L32.4900938,18.9760167 C32.742764,18.8573848 33.0351297,18.8573848 33.2877998,18.9760167 L35.0145985,19.9801877 C35.2304484,20.1115746 35.2304484,20.3180396 35.0052138,20.4494265 Z" id="Path" fill="#3676E5"></path>
                        <path d="M38.1021898,18.6663191 L36.3378519,19.7080292 C36.0882859,19.8398436 35.789712,19.8398436 35.540146,19.7080292 L33.7851929,18.6850886 C33.5693431,18.5537018 33.5693431,18.3472367 33.7851929,18.2158498 L35.5495308,17.2022941 C35.7990968,17.0704796 36.0976707,17.0704796 36.3472367,17.2022941 L38.0646507,18.1970803 C38.1637448,18.2276879 38.2341827,18.3155939 38.2424533,18.418977 C38.250724,18.5223602 38.1951575,18.6203466 38.1021898,18.6663191 Z" id="Path" fill="#3676E5"></path>
                        <path d="M36.919708,16.4327424 L38.6840459,15.4191867 C38.9314836,15.2922235 39.2249294,15.2922235 39.472367,15.4191867 L41.1991658,16.4233577 C41.4150156,16.5547445 41.4150156,16.7612096 41.1991658,16.8832117 L39.4160584,17.8967675 C39.1660238,18.0124829 38.8777718,18.0124829 38.6277372,17.8967675 L36.9103233,16.8925965 C36.6944734,16.7705944 36.6944734,16.5641293 36.919708,16.4327424 Z" id="Path" fill="#3676E5"></path>
                        <path d="M44.286757,15.0907195 L42.5224192,16.1042753 C42.2717025,16.2313626 41.9754299,16.2313626 41.7247132,16.1042753 L39.9979145,15.1001043 C39.900602,15.0655347 39.8355902,14.9734477 39.8355902,14.8701773 C39.8355902,14.7669068 39.900602,14.6748198 39.9979145,14.6402503 L41.7622523,13.6173097 C42.0149225,13.4986778 42.3072882,13.4986778 42.5599583,13.6173097 L44.286757,14.6214807 C44.5119917,14.7528676 44.5026069,14.9593326 44.286757,15.0907195 Z" id="Path" fill="#3676E5"></path>
                        <path d="M50.4713243,11.5151199 L45.6193952,14.3305527 C45.3698292,14.4623671 45.0712553,14.4623671 44.8216893,14.3305527 L43.0948905,13.3263816 C42.8790407,13.2043796 42.8790407,12.9979145 43.0948905,12.8665276 L47.9562044,10.0510949 C48.2036421,9.92413173 48.4970879,9.92413173 48.7445255,10.0510949 L50.4713243,11.0552659 C50.6777894,11.1866528 50.6777894,11.3931178 50.4713243,11.5151199 Z" id="Path" fill="#3676E5"></path>
                        <path d="M53.4275287,13.2325339 L49.9270073,15.2502607 C49.6795696,15.3772238 49.3861238,15.3772238 49.1386861,15.2502607 L47.4118874,14.2460897 C47.1960375,14.1240876 47.1960375,13.9176225 47.4118874,13.7862357 L50.903024,11.7685089 C51.1537407,11.6414215 51.4500132,11.6414215 51.7007299,11.7685089 L53.4275287,12.7726799 C53.6527633,12.9040667 53.6527633,13.1386861 53.4275287,13.2325339 Z" id="Path" fill="#3676E5"></path>
                        <path d="M13.6642336,26.4369135 L18.5161627,23.6214807 C18.7668794,23.4943934 19.0631519,23.4943934 19.3138686,23.6214807 L21.0406674,24.6256517 C21.2565172,24.7476538 21.2565172,24.9541189 21.0406674,25.0855057 L16.1887383,27.9009385 C15.9380216,28.0280258 15.641749,28.0280258 15.3910323,27.9009385 L13.6642336,26.8967675 C13.438999,26.7653806 13.438999,26.5683003 13.6642336,26.4369135 Z" id="Path" fill="#3676E5"></path>
                        <path d="M10.7080292,24.7194995 L14.2836288,22.6548488 C14.5343455,22.5277615 14.830618,22.5277615 15.0813347,22.6548488 L16.7987487,23.6590198 C17.0239833,23.7810219 17.0145985,23.987487 16.7987487,24.1188738 L13.2231491,26.1835245 C12.970479,26.3021564 12.6781133,26.3021564 12.4254432,26.1835245 L10.6986444,25.1793535 C10.4827946,25.0573514 10.4827946,24.8508863 10.7080292,24.7194995 Z" id="Path" fill="#3676E5"></path>
                        <path d="M19.8488008,22.8613139 L21.6131387,21.8477581 C21.8638554,21.7206708 22.1601279,21.7206708 22.4108446,21.8477581 L24.1376434,22.8519291 C24.2349559,22.8864987 24.2999676,22.9785857 24.2999676,23.0818561 C24.2999676,23.1851265 24.2349559,23.2772135 24.1376434,23.3117831 L22.3733055,24.3347237 C22.1225888,24.461811 21.8263163,24.461811 21.5755996,24.3347237 L19.8488008,23.3305527 C19.6235662,23.1991658 19.632951,22.9927007 19.8488008,22.8613139 Z" id="Path" fill="#3676E5"></path>
                        <path d="M22.9457769,21.0782065 L24.7101147,20.0646507 C24.9575524,19.9376875 25.2509982,19.9376875 25.4984359,20.0646507 L27.2252346,21.0688217 C27.4410845,21.1908238 27.4410845,21.3972888 27.2252346,21.5286757 L25.4608968,22.5234619 C25.2082267,22.6420938 24.9158609,22.6420938 24.6631908,22.5234619 L22.9363921,21.5849844 C22.7205422,21.4160584 22.7205422,21.2095933 22.9457769,21.0782065 Z" id="Path" fill="#3676E5"></path>
                        <path d="M26.0427529,19.2950991 L27.7977059,18.2721585 C28.0484226,18.1450712 28.3446952,18.1450712 28.5954119,18.2721585 L30.3222106,19.2763295 C30.5380605,19.3983316 30.5380605,19.6047967 30.3222106,19.7361835 L28.5578728,20.7497393 C28.3083067,20.8815537 28.0097329,20.8815537 27.7601668,20.7497393 L26.0427529,19.7549531 C25.8175182,19.6235662 25.8175182,19.4171011 26.0427529,19.2950991 Z" id="Path" fill="#3676E5"></path>
                        <path d="M29.092805,17.5026069 L30.8571429,16.4890511 C31.1067089,16.3572367 31.4052828,16.3572367 31.6548488,16.4890511 L33.3722628,17.4838373 C33.4695753,17.5184069 33.534587,17.6104939 33.534587,17.7137643 C33.534587,17.8170348 33.4695753,17.9091218 33.3722628,17.9436913 L31.6079249,18.9666319 C31.3583589,19.0984463 31.059785,19.0984463 30.810219,18.9666319 L29.092805,17.9624609 C28.9051095,17.831074 28.9144943,17.6339937 29.092805,17.5026069 Z" id="Path" fill="#3676E5"></path>
                        <path d="M32.2273201,15.7194995 L33.991658,14.7059437 C34.2390957,14.5789805 34.5325415,14.5789805 34.7799791,14.7059437 L36.5067779,15.7101147 C36.7226277,15.8321168 36.7226277,16.0385819 36.5067779,16.1699687 L34.7236705,17.1741397 C34.4729538,17.3012271 34.1766812,17.3012271 33.9259645,17.1741397 L32.1991658,16.1699687 C32.0020855,16.0573514 32.0020855,15.8508863 32.2273201,15.7194995 Z" id="Path" fill="#3676E5"></path>
                        <path d="M35.3242961,13.9363921 L37.0792492,12.9134515 C37.3299659,12.7863642 37.6262385,12.7863642 37.8769552,12.9134515 L39.6037539,13.9176225 C39.8196038,14.0396246 39.8196038,14.2460897 39.6037539,14.3774765 L37.8394161,15.3910323 C37.58985,15.5228467 37.2912762,15.5228467 37.0417101,15.3910323 L35.3242961,14.3962461 C35.0896767,14.2648592 35.0990615,14.0771637 35.3242961,13.9363921 Z" id="Path" fill="#3676E5"></path>
                        <path d="M19.8112617,22.3733055 L18.0469239,23.3868613 C17.7994862,23.5138245 17.5060404,23.5138245 17.2586027,23.3868613 L15.531804,22.3826903 C15.3159541,22.2513034 15.3159541,22.0448384 15.531804,21.9228363 L17.2961418,20.8998957 C17.5461764,20.7841803 17.8344284,20.7841803 18.084463,20.8998957 L19.8112617,21.9040667 C20.0364964,22.0354536 20.0364964,22.2419187 19.8112617,22.3733055 Z" id="Path" fill="#3676E5"></path>
                        <path d="M35.286757,13.438999 L21.1438999,21.5849844 C20.8943339,21.7167988 20.59576,21.7167988 20.346194,21.5849844 L18.6193952,20.6465068 C18.5220827,20.6119372 18.4570709,20.5198502 18.4570709,20.4165798 C18.4570709,20.3133093 18.5220827,20.2212223 18.6193952,20.1866528 L32.7622523,12.0218978 C33.012969,11.8948105 33.3092416,11.8948105 33.5599583,12.0218978 L35.2773723,13.0260688 C35.3493496,13.0691101 35.3941793,13.1460995 35.396148,13.2299425 C35.3979903,13.3137856 35.3567046,13.3927321 35.286757,13.438999 L35.286757,13.438999 Z" id="Path" fill="#3676E5"></path>
                        <path d="M38.3743483,11.6558916 L36.6006257,12.6694473 C36.353188,12.7964105 36.0597422,12.7964105 35.8123045,12.6694473 L34.0855057,11.6652763 C33.8696559,11.5338895 33.8696559,11.3368092 34.0855057,11.2054223 L35.8404588,10.1918665 C36.0911755,10.0647792 36.3874481,10.0647792 36.6381648,10.1918665 L38.3649635,11.1960375 C38.5995829,11.3180396 38.5995829,11.5245047 38.3743483,11.6558916 Z" id="Path" fill="#3676E5"></path>
                        <path d="M38.9092805,10.8863399 L38.6652763,10.7455683 C38.4494265,10.6235662 38.4494265,10.4171011 38.6652763,10.2857143 L40.4202294,9.2721585 C40.6709461,9.14507117 40.9672187,9.14507117 41.2179353,9.2721585 L41.4713243,9.42231491 C41.6871741,9.544317 41.6871741,9.75078206 41.4713243,9.88216893 L39.7069864,10.8957247 C39.4558721,11.0246134 39.1572931,11.0211007 38.9092805,10.8863399 L38.9092805,10.8863399 Z" id="Path" fill="#3676E5"></path>
                        <path d="M39.9885297,9.00938478 L38.2335766,10.0323253 C37.9809065,10.1509572 37.6885408,10.1509572 37.4358707,10.0323253 L37.1918665,9.8915537 C37.094554,9.85698413 37.0295423,9.76489712 37.0295423,9.66162669 C37.0295423,9.55835626 37.094554,9.46626926 37.1918665,9.43169969 L38.9562044,8.40875912 C39.2057704,8.27694471 39.5043443,8.27694471 39.7539103,8.40875912 L39.9979145,8.54953076 C40.2137643,8.68091762 40.2137643,8.88738269 39.9885297,9.00938478 Z" id="Path" fill="#3676E5"></path>
                        <path d="M44.5683003,8.08029197 L42.8039625,9.10323253 C42.5532458,9.23031986 42.2569732,9.23031986 42.0062565,9.10323253 L40.2794578,8.09906152 C40.0636079,7.97705944 40.0636079,7.77059437 40.2794578,7.63920751 L42.0437956,6.62565172 C42.2912333,6.49868856 42.5846791,6.49868856 42.8321168,6.62565172 L44.5589155,7.62982273 C44.7841502,7.75182482 44.7841502,7.95828989 44.5683003,8.08029197 Z" id="Path" fill="#3676E5"></path>
                        <path d="M47.5151199,9.79770594 L44.0239833,11.8154327 C43.7732666,11.9425201 43.4769941,11.9425201 43.2262774,11.8154327 L41.4994786,10.8112617 C41.2836288,10.6798749 41.2836288,10.4827946 41.4994786,10.3514077 L45,8.33368092 C45.2474377,8.20671776 45.5408835,8.20671776 45.7883212,8.33368092 L47.5151199,9.33785193 C47.7403545,9.46923879 47.7403545,9.67570386 47.5151199,9.79770594 Z" id="Path" fill="#3676E5"></path>
                        <path d="M13.6923879,14.3023983 L26.3806048,6.97288843 C26.6301708,6.84107401 26.9287447,6.84107401 27.1783107,6.97288843 L33.278415,10.5203337 C33.5036496,10.6423358 33.4942649,10.8488008 33.278415,10.9801877 L20.5901981,18.3096976 C20.3401636,18.425413 20.0519115,18.425413 19.801877,18.3096976 L13.6923879,14.7622523 C13.4671533,14.6308655 13.4671533,14.4244004 13.6923879,14.3023983 Z" id="Path" fill="#A5B9D6"></path>
                    </g>
                    <path d="M34.1042753,48.9509906 C33.2887983,49.9458383 32.2920409,50.7770002 31.1668405,51.4004171 C30.3070946,51.8773316 29.384636,52.2311513 28.4264859,52.451512 C31.2419187,40.2513034 29.3649635,32.3962461 27.1126173,27.4410845 C25.6298227,24.2596455 21.4817518,17.0239833 23.6965589,13.18561 C24.485858,11.8872903 25.5107337,10.7478322 26.7184567,9.82586027 C27.7570474,9.03469007 28.9492943,8.46893215 30.2189781,8.16475495 C31.8249215,7.81393625 33.4932512,7.87202123 35.0709072,8.33368092 C37.2850383,8.71940283 39.3030593,9.84420144 40.7956204,11.5245047 C41.9839331,13.0861013 42.6416269,14.9868366 42.6725756,16.9489051 C42.8508863,20.2711157 41.5745568,22.1105318 40.0636079,25.9301356 C39.5755996,27.1595412 38.6652763,30.6882169 36.8540146,37.7643379 C36.084463,40.7768509 35.1459854,44.5589155 34.1042753,48.9509906 Z" id="Path" fill="#D7D7E0"></path>
                    <path d="M47.346194,41.4337852 C48.0868728,42.4845142 48.7698423,43.5747591 49.3920751,44.6996872 C51.1657977,47.9092805 51.1657977,49.0542231 51.1376434,49.5328467 C51.1094891,50.0114703 50.9968717,51.8039625 49.7862357,52.3482795 C49.124091,52.5829631 48.3946277,52.5354631 47.7685089,52.2168926 C47.7899626,52.913423 47.5930806,53.5992288 47.2054223,54.1783107 C47.008342,54.4692388 46.6423358,54.9947862 46.3701773,54.9290928 C46.0980188,54.8633994 46.0417101,54.0563087 46.0229406,51.6068822 C46.0229406,49.4483837 46.088634,48.4254432 45.4129301,47.4025026 C45.2346194,47.1397289 44.9343066,46.6798749 44.6058394,46.717414 C43.7612096,46.8300313 43.8738269,50.3023983 43.3576642,50.3305527 C42.8415016,50.358707 42.1282586,48.3691345 42.4191867,46.3138686 C42.531804,45.4692388 42.7570386,45.168926 43.1699687,43.3388947 C43.3576642,42.4754953 43.4796663,41.7622523 43.5641293,41.2836288 L47.346194,41.4337852 Z" id="Path" fill="#F8D0C9"></path>
                    <path d="M40.9270073,10.2200209 C43.3388947,10.6423358 44.6809176,12.9603754 45.4786236,14.4150156 C47.5714286,18.168926 46.8206465,20.6183525 47.3555787,27.2721585 C47.9186653,34.8925965 49.6079249,41.2085506 47.7966632,41.9593326 C47.1209593,42.2408759 46.2294056,41.649635 44.7372263,42.2502607 C43.6110532,42.7007299 43.4890511,43.282586 43.076121,43.2733133 C41.5088634,43.2262774 41.9781022,35.0333681 39.1720542,26.5589155 C39.096976,26.3618352 38.8435871,26.1366006 38.9655892,25.9582899 C42.1564129,21.0594369 41.1616267,20.8248175 42.6350365,17.7372263 C43.5922836,15.6162669 38.552659,9.79770594 40.9270073,10.2200209 Z" id="Path" fill="url(#linearGradient-20)"></path>
                    <path d="M44.8592284,14.6777894 C42.9822732,9.71324296 35.4744526,6.92596455 29.9937435,7.85505735 C28.379562,8.12721585 27.2440042,8.73722628 24.9822732,9.95724713 C21.4348279,11.8342023 14.0490094,15.822732 10.5297185,23.5933264 C9.35600149,26.2865851 8.68184324,29.1708376 8.54014599,32.105318 C7.70572058,42.5450529 7.74653039,53.0363114 8.66214807,63.4692388 C10.0714232,63.4882616 11.4595127,63.1250232 12.6788321,62.4181439 C15.1751825,60.9165798 14.9405631,59.0208551 17.2304484,57.0031283 C19.5203337,54.9854015 22.9457769,54.8540146 24.1657977,54.8446298 C27.7507821,54.7977059 29.9280501,56.3743483 30.7351408,55.4264859 C31.2325339,54.8070907 30.6225235,53.7559958 30.2095933,52.451512 C29.7966632,51.1470282 29.5432742,49.4671533 31.0823775,42.362878 C32.8936392,34.0010428 33.5787278,34.7236705 33.531804,32.0396246 C33.3811954,28.5790522 32.3368586,25.2164817 30.5005214,22.2794578 C27.9290928,18.1876955 25.3482795,17.5870699 25.2544317,14.6965589 C25.2993,12.5726367 26.3920629,10.6084745 28.173097,9.45046924 C32.3211679,6.6350365 39.2471324,9.74139729 40.6173097,13.6736184 C40.9363921,14.6120959 40.8237748,15.2127216 39.9134515,19.4452555 C38.5714286,25.6767466 37.9051095,28.8300313 37.6423358,29.6746611 C36.3190824,34.2075078 36.0187696,33.6725756 33.8884254,40.2606882 C32.6965589,43.9395203 31.7486966,47.3274244 32.9499479,50.9311783 C33.1001043,51.3816475 33.6350365,53.0239833 34.3482795,53.0239833 C35.0615224,53.0239833 35.4369135,50.7904067 36.8821689,48.5662148 C37.9374418,47.0016969 39.3537568,45.7141377 41.0114703,44.8123045 C40.1773,42.778823 39.6399932,40.6359168 39.4160584,38.4494265 C38.177268,26.6339937 47.346194,21.2377477 44.8592284,14.6777894 Z" id="Path" fill="url(#linearGradient-21)"></path>
                    <path d="M29.3086548,7.50782065 C28.4452555,8.25860271 28.9520334,9.86339937 27.3472367,12.1345151 C27.1287879,12.4462495 26.8872325,12.7411354 26.624609,13.016684 C26.5122896,13.708069 26.5507055,14.4155612 26.7372263,15.0907195 C27.7507821,18.6006257 33.3065693,21.3785193 36.2064651,19.3607925 C38.5151199,17.7559958 38.6277372,13.4765381 36.9290928,10.717414 C34.995829,7.61105318 30.6600626,6.35349322 29.3086548,7.50782065 Z" id="Path" fill="#EAC5C1"></path>
                    <path d="M45.7038582,13.4953076 C45.6179575,14.226203 45.3917083,14.9336301 45.0375391,15.5787278 C44.2304484,17.0239833 43.451512,16.8644421 42.6256517,18.1501564 C41.6308655,19.7080292 42.0437956,21.0875912 41.3023983,21.3034411 C40.561001,21.5192909 40.1949948,20.5057351 39.3034411,20.637122 C38.4118874,20.7685089 38.3649635,21.6506778 37.8112617,21.9697602 C35.6715328,23.1240876 29.2054223,15.7007299 29.7872784,15.0531804 C29.9562044,14.8467153 30.6694473,15.4567258 31.1668405,15.1001043 C31.6642336,14.7434828 31.645464,13.2794578 31.0542231,12.2846715 C30.2002086,10.8206465 28.6611053,10.9144943 28.6235662,10.4077164 C28.5109489,9 39.6319082,4.63607925 43.7893639,8.94369135 C45.028009,10.1318907 45.7208063,11.7789825 45.7038582,13.4953076 L45.7038582,13.4953076 Z" id="Path" fill="#F8D0C9"></path>
                    <path d="M28.3420229,11.8342023 C27.7320125,11.6558916 27.4880083,8.29614181 28.923879,5.44316997 C30.1157456,3.07820647 33.0062565,-0.046923879 37.0604797,0.046923879 C41.2554745,0.131386861 43.7049009,3.59436913 44.5683003,4.73931178 C46.8112617,7.92075078 47.9186653,12.8383733 46.0604797,14.4619395 C45.3378519,15.0907195 44.2492179,15.1470282 42.991658,15.2033368 C40.7017727,15.3159541 40.101147,14.4713243 38.4212722,14.9593326 C37.1543274,15.3253389 37.004171,15.9541189 36.0093848,15.8978102 C35.0145985,15.8415016 34.7612096,15.2408759 33.6068822,15.2314911 C32.7810219,15.2314911 32.6027112,15.5130344 32.274244,15.3159541 C31.6173097,14.9217935 32.274244,13.6923879 31.5234619,12.3222106 C31.4765381,12.2283629 30.7914494,10.9989572 29.8623566,10.9989572 C28.9332638,10.9989572 28.6892596,11.9374348 28.3420229,11.8342023 Z" id="Path" fill="#000B75"></path>
                    <path d="M41.5933264,66.6976017 C40.8613139,67.1480709 39.4066736,65.4025026 39.0031283,65.7028154 C38.7778936,65.8623566 38.8717414,66.641293 39.2846715,67.4202294 L37.2857143,63.5161627 C37.8708344,63.5208198 38.4511487,63.6222955 39.0031283,63.8164755 C39.7542694,64.082711 40.4507001,64.4833971 41.0583942,64.9989572 C41.6402503,65.4400417 41.9124088,65.7497393 41.903024,66.1063608 C41.8978842,66.3410159 41.7833013,66.559765 41.5933264,66.6976017 Z" id="Path" fill="#F8D0C9"></path>
                    <path d="M36.2440042,78.1470282 L37.1824818,79.0855057 L37.1824818,79.0855057 C37.3044838,79.2168926 37.5860271,79.1887383 37.9895725,78.9635036 L70.1511992,58.8800834 C70.8340473,58.4777629 71.3801158,57.8793764 71.7184567,57.1626694 L79.7049009,39.9416058 C79.7987487,39.6882169 79.7705944,39.5192909 79.7049009,39.4442127 L79.7049009,39.4442127 L78.7664234,38.5057351 C78.6444213,38.3837331 78.3534932,38.4212722 77.9593326,38.6465068 L44.3993743,58.0260688 C44.2648357,58.1005861 44.136201,58.1852967 44.0145985,58.2794578 C43.7103574,58.5210632 43.4362358,58.7983356 43.198123,59.105318 C43.047656,59.2969945 42.924482,59.5086011 42.8321168,59.734098 L36.2627737,77.6684046 C36.1501564,77.8936392 36.1595412,78.0531804 36.2440042,78.1470282 Z" id="Path" fill="#CCD6E5"></path>
                    <path d="M45.3096976,58.9551616 C44.6268494,59.3574822 44.0807809,59.9558686 43.74244,60.6725756 L37.173097,78.5974974 C36.9666319,79.1699687 37.3326382,79.3201251 37.9895725,78.9447341 L71.5495308,59.5651721 C72.2305537,59.1606066 72.7760454,58.5628523 73.1167883,57.8477581 L79.6861314,39.9228363 C79.8925965,39.350365 79.5265902,39.2002086 78.8790407,39.5755996 L45.3096976,58.9551616 Z" id="Path" fill="url(#linearGradient-22)"></path>
                    <path d="M32.44317,62.7747654 C33.3453428,63.050581 34.2679319,63.2545547 35.2022941,63.3847758 C37.0229406,63.62878 37.6423358,63.3847758 39.0031283,63.8164755 C39.2535675,63.9037836 39.4980843,64.007233 39.7351408,64.1261731 L39.7351408,65.9562044 C39.4160584,65.7403545 39.1438999,65.5995829 39.0031283,65.7028154 C38.6558916,65.9562044 39.0031283,67.7768509 40.270073,68.4525547 C41.2085506,68.9968717 42.1470282,68.4525547 42.5036496,68.9781022 C42.8602711,69.5036496 42.4379562,70.8550574 41.5651721,71.5776851 C40.0354536,72.8633994 37.5109489,71.9812304 36.8727842,71.7747654 C34.5078206,70.9489051 33.1188738,69.1188738 31.8050052,67.4014599 C31.0971877,66.4971883 30.46918,65.5331965 29.9280501,64.5203337 L32.44317,62.7747654 Z" id="Path" fill="#F8D0C9"></path>
                    <path d="M11.346194,22.4296142 C14.527633,21.1626694 20.4588113,29.5338895 20.7872784,30.012513 C20.7872784,31.354536 20.7872784,33.3816475 20.6652763,35.8404588 C20.2054223,43.0667362 19.0417101,43.198123 19.5015641,45.62878 C20.1397289,48.9416058 23.6965589,51.9635036 30.7632951,57.9885297 C31.8706986,58.9270073 34.6579771,61.2450469 34.1511992,63.1220021 C33.8082725,63.8967326 33.3317773,64.6051222 32.7434828,65.2148071 C32.240704,65.9840077 31.605161,66.6576833 30.8665276,67.2043796 C28.9895725,68.1428571 25.2356621,64.1637122 23.5182482,62.3055266 C15.8602711,54.1126173 12.012513,49.983316 11.3180396,48.2283629 C9.60062565,44.0709072 9.49739312,40.7205422 9.32846715,34.8175182 C9.15954119,28.9144943 9.01876955,23.3493222 11.346194,22.4296142 Z" id="Path" fill="url(#linearGradient-23)"></path>
                </g>
                <g id="cube-6" transform="translate(150.918367, 295.989796)">
                    <polygon id="Path" fill="url(#linearGradient-24)" points="43.9705989 12.6860862 22.0652203 49.7331966 0.0068949075 37.344507 0.0068949075 12.6945833"></polygon>
                    <polygon id="Path" fill="url(#linearGradient-25)" points="22.0652203 25.0747759 43.9705989 12.6860862 43.9705989 37.344507 22.0652203 49.7331966"></polygon>
                    <polygon id="Path" fill="url(#linearGradient-26)" points="0.0068949075 12.6945833 21.9547587 0.305893572 43.9705989 12.6860862 22.0652203 25.0747759"></polygon>
                </g>
            </g>
        </g>
    </g>
</svg>