<svg width="420" height="211" viewBox="0 0 420 211" fill="none" xmlns="http://www.w3.org/2000/svg">
<path d="M266.066 41.816C270.855 39.0477 278.69 39.0477 283.473 41.816L360.258 86.1407C365.047 88.9029 365.047 93.4262 360.258 96.1945L186.667 196.677C181.884 199.44 174.048 199.44 169.266 196.677L92.4868 152.365C87.7039 149.597 87.7039 145.073 92.4868 142.311L266.066 41.816Z" fill="#D4DBDF"/>
<path d="M92.4867 152.365L169.265 196.677C174.048 199.439 181.884 199.439 186.667 196.677L360.258 96.1944C362.581 94.8473 363.768 93.1047 363.836 91.3188V103.227C363.836 105.08 362.637 106.872 360.245 108.257L186.667 208.752C181.884 211.514 174.048 211.514 169.265 208.752L92.4867 164.427C90.0953 163.043 88.8965 161.226 88.8965 159.403V147.341C88.9027 149.164 90.0953 150.981 92.4867 152.365Z" fill="#95C4DF"/>
<path d="M100.026 137.948L194.206 192.321L359.485 96.6329L265.305 42.2544L100.026 137.948Z" fill="url(#paint0_linear)"/>
<path d="M192.549 191.369L194.206 192.321L359.485 96.6331L357.823 95.6753L192.549 191.369Z" fill="url(#paint1_linear)"/>
<path d="M194.206 199.606L359.485 103.913V96.6333L194.206 192.321V199.606Z" fill="url(#paint2_linear)"/>
<path d="M18.8285 52.3022C19.6332 53.1786 20.6262 53.8611 21.7328 54.2982C23.2591 54.7616 20.2807 59.1181 20.2807 59.1181C20.2807 59.1181 13.5946 56.1396 12.0374 56.0593C10.4802 55.979 14.4473 52.3022 18.8285 52.3022Z" fill="#D9A782"/>
<path d="M30.4952 50.3063C30.4952 50.3063 30.6683 53.5072 31.1873 54.6689C31.7064 55.8307 30.6374 57.7277 28.8268 57.8204C27.0162 57.9131 26.0152 55.2622 25.7371 54.1746C25.459 53.087 23.5249 49.5709 22.6845 49.2311C21.8441 48.8912 28.2274 47.0621 30.4952 50.3063Z" fill="#D9A782"/>
<path d="M73.6335 66.3233C73.6335 66.3233 70.8404 63.2336 66.9783 63.4808C63.1162 63.728 60.045 66.5025 60.045 66.5025C60.045 66.5025 54.7616 66.5458 51.8759 67.2996C48.9901 68.0535 46.2032 68.6344 46.2032 68.6344C46.2032 68.6344 38.3925 58.7474 31.8485 56.8936C25.3045 55.0398 20.9295 53.4764 20.9295 53.4764C20.9295 53.4764 20.2622 53.0747 19.3723 54.0511C18.4825 55.0274 16.5298 57.4744 16.845 58.3766C17.1601 59.2788 25.768 62.8196 30.1183 66.2368C34.4686 69.654 43.2804 77.2052 46.1847 78.9848C49.089 80.7645 72.9723 69.8764 73.6335 66.3233Z" fill="#8304A0"/>
<path d="M66.5457 71.755C59.0749 75.8519 48.125 80.1466 46.2032 78.9787C43.2804 77.199 34.4624 69.654 30.1369 66.2306C25.8113 62.8072 17.1602 59.2603 16.8635 58.3705C16.7029 57.9194 17.1354 57.0604 17.7163 56.1953C23.6176 58.3272 34.3018 63.3325 35.7663 64.933C37.6201 66.9289 42.3473 70.5933 43.6326 70.2225C44.9179 69.8517 44.5904 70.6365 44.6337 71.5943C44.6769 72.5521 46.3021 73.2195 49.503 72.1628C52.7039 71.1062 58.3334 69.7652 58.3334 69.7652L66.5457 71.755Z" fill="#770094"/>
<path d="M67.1513 69.2093C67.1513 69.2093 62.937 66.6757 59.4271 67.2133C55.1239 67.9295 51.4603 70.7426 49.6575 74.7151C49.6575 74.7151 44.2382 76.8902 40.821 79.4238C40.821 79.4238 40.2896 71.6069 37.7993 67.8745C35.309 64.1422 31.1874 53.4889 31.1874 53.4889C29.1374 53.0595 27.001 53.4075 25.1934 54.4653C25.1934 54.4653 28.0297 68.7211 29.0987 72.4967C30.1678 76.2723 33.0906 87.284 34.6602 89.4591C36.2297 91.6342 38.0217 92.246 42.6377 91.6775C47.2537 91.109 57.0666 90.2995 62.5724 85.9492C68.0782 81.5989 67.1513 69.2093 67.1513 69.2093Z" fill="#9D1EBA"/>
<path d="M56.6093 75.1475C58.1974 69.3759 65.9587 66.8115 69.4933 65.7795C73.0279 64.7476 73.4357 65.1616 74.2885 66.002C75.1412 66.8424 76.4513 68.035 79.1084 66.9598L79.5286 86.6102C77.7458 87.1287 75.8979 87.3888 74.0413 87.3827C70.9145 87.3827 65.3469 86.4434 63.9257 86.9934C62.5044 87.5433 60.8792 88.7236 60.3478 87.8708C59.8164 87.0181 54.9965 80.919 56.6093 75.1475Z" fill="#FFC615"/>
<path d="M60.3478 87.8709C59.4666 86.6316 58.6757 85.3305 57.9811 83.9778C58.8065 83.7506 59.6537 83.6118 60.5084 83.5638C64.7908 83.2734 71.2173 81.0921 73.0402 81.0921C74.8631 81.0921 74.1711 74.2577 76.6799 72.5831C77.372 72.1196 78.2989 73.1021 79.2752 74.7582L79.5286 86.5979C77.7458 87.1163 75.8979 87.3765 74.0413 87.3703C70.9145 87.3703 65.3469 86.4311 63.9256 86.981C62.5044 87.531 60.8792 88.7236 60.3478 87.8709Z" fill="#F19C3C"/>
<path d="M31.2553 43.8981C29.9143 44.3739 29.0739 44.5161 26.5033 43.5953C23.9327 42.6746 18.3651 39.8877 16.8079 39.2141C15.2507 38.5406 13.7676 37.762 17.0056 37.3294C20.2436 36.8969 22.2457 37.0328 24.5568 38.5653C26.8679 40.0978 27.0286 40.5798 28.5178 41.2348C30.007 41.8898 32.5406 43.4285 31.2553 43.8981Z" fill="#D4DBDF"/>
<path d="M14.3238 46.7965C13.78 47.5874 13.193 48.4649 10.7583 48.848C9.02318 49.0913 7.32254 49.5372 5.69123 50.1766C4.64074 50.6091 1.30388 52.1231 0.747731 52.4135C0.191587 52.7039 1.07524 51.8759 2.71277 50.4856C4.35031 49.0952 6.18558 46.9509 7.65628 46.5184C9.60444 46.0286 11.5913 45.7082 13.5947 45.5606C14.6328 45.5421 15.158 45.5729 14.3238 46.7965Z" fill="#D4DBDF"/>
<path d="M7.34114 51.4619C8.79329 51.2951 9.27528 50.3373 10.8634 49.9851C12.4515 49.6328 13.5638 49.9047 14.8614 49.4722C16.0479 49.0767 16.3198 48.3413 16.3445 47.8408C16.8018 48.3722 17.5495 49.2559 17.9202 49.812C18.4764 50.6463 19.4156 51.74 18.8286 52.7905C18.2416 53.841 18.1242 54.0264 16.3569 54.323C14.5895 54.6196 12.5133 55.3426 12.7728 56.0656C13.0323 56.7886 13.607 56.8689 13.3228 57.079C13.0385 57.2891 10.9993 56.0347 9.61515 55.6207C8.23097 55.2066 6.74174 54.4898 5.1042 54.5516C3.46667 54.6134 1.07525 54.0573 0.95166 53.427C1.74111 53.1252 2.49701 52.7421 3.20713 52.2838C4.39357 51.5361 5.88898 51.6597 7.34114 51.4619Z" fill="#0382D9"/>
<path d="M0.778632 52.4134C1.30388 52.1229 4.64074 50.609 5.72214 50.1764C7.35345 49.5371 9.05408 49.0912 10.7892 48.8479C13.2239 48.4648 13.8109 47.612 14.3547 46.7963C14.7008 46.2834 14.812 45.9868 14.7502 45.8076C15.3125 46.0548 16.363 47.2412 16.3754 47.7356C16.3877 48.2299 16.19 49.0641 14.8923 49.4967C13.5947 49.9293 12.4824 49.6512 10.8943 50.0096C9.30617 50.368 8.82418 51.3196 7.37203 51.4865C5.91988 51.6533 4.42447 51.5359 3.21949 52.3083C2.50936 52.7666 1.75347 53.1497 0.964013 53.4515C0.964013 53.4515 0.339896 52.8583 0.778632 52.4134Z" fill="#BBC2C6"/>
<path d="M15.7203 39.7645C16.0981 40.1537 16.5442 40.47 17.0365 40.6976C18.6724 41.4721 20.1927 42.4704 21.5536 43.6637C22.3137 44.4917 24.4888 44.3928 25.1933 44.5226C26.0516 44.6803 26.8422 45.0939 27.4611 45.709C28.1223 46.4011 29.7722 47.5258 30.7918 47.4269C31.0946 47.396 31.3047 47.1056 31.4468 46.6916C31.4468 47.2539 30.9587 50.9492 30.8289 51.5115C30.6991 52.0738 29.9082 51.771 28.7217 51.7092C27.5353 51.6474 25.7865 49.6947 24.563 49.5279C23.3395 49.3611 23.3766 49.8925 22.944 50.288C22.5114 50.6834 21.9244 49.0027 21.5907 48.2117C21.257 47.4207 19.4527 44.053 18.1303 43.1631C16.8079 42.2733 15.5287 40.7408 15.7265 39.7583L15.7203 39.7645Z" fill="#0382D9"/>
<path d="M15.0776 38.0527C15.0776 38.4111 15.9366 38.819 16.8078 39.2145C18.3651 39.9065 23.9327 42.6749 26.5033 43.5956C29.0739 44.5164 29.9143 44.3742 31.2552 43.8984C31.521 43.7996 31.6198 43.6574 31.6013 43.4906C31.7743 44.2877 31.8052 47.3218 30.7856 47.4207C29.766 47.5195 28.1161 46.3949 27.4549 45.7028C26.836 45.0876 26.0454 44.674 25.1871 44.5164C24.4826 44.3866 22.3075 44.4855 21.5474 43.6574C20.1865 42.4642 18.6662 41.4659 17.0303 40.6913C15.7203 40.1043 14.676 38.7386 15.0776 38.0527Z" fill="#BBC2C6"/>
<path d="M39.2762 71.106C40.0818 73.8165 40.5996 76.6044 40.821 79.4234C40.2031 80.0413 37.2926 84.0147 36.7797 84.75C36.2668 85.4854 35.7663 83.9961 36.2297 83.0816C36.6314 82.2845 39.4183 76.3214 39.2762 71.106Z" fill="#770094"/>
<path d="M80.7459 58.0859C78.1345 59.3713 76.0854 61.57 74.9868 64.2653C74.3688 65.909 74.9868 69.1532 74.9868 69.1532C74.9868 69.1532 75.0486 65.6557 76.3771 64.8709C76.3771 64.8709 75.7097 66.4405 75.9569 67.3426C76.2041 68.2448 75.8333 71.4458 74.1464 72.1069C75.7721 71.2285 77.2989 70.1782 78.7006 68.974C80.2948 67.4353 90.8183 59.7791 90.8183 59.7791L80.7459 58.0859Z" fill="#6D2D10"/>
<path d="M104.024 66.9599C104.024 66.9599 99.8155 66.9599 100.217 72.1011C100.619 77.2424 100.835 79.7388 98.7588 81.6483C96.6825 83.5577 92.8637 82.5875 91.5598 84.1695C90.256 85.7514 87.0118 88.6804 83.8418 88.2355C80.6718 87.7906 76.3091 71.372 77.4956 68.8693C78.682 66.3667 84.1816 61.7445 89.3661 59.7856C94.5506 57.8268 102.627 64.1359 104.024 66.9599Z" fill="#F19C3C"/>
<path d="M144.95 80.5792C145.463 81.0859 145.568 84.9419 145.629 86.0418C145.691 87.1417 145.419 87.4383 145.042 87.4198C144.665 87.4013 144.486 86.8019 144.486 86.8019C144.486 86.8019 144.017 88.9276 143.646 88.9276C143.275 88.9276 143.151 88.1366 143.151 88.1366C143.151 88.1366 142.218 88.1799 142.608 87.5866C142.893 87.1017 143.131 86.5906 143.318 86.0603L143.133 83.8419C143.133 83.8419 139.209 82.3836 138.857 82.2909C138.505 82.1982 139.042 79.6152 139.042 79.6152C139.042 79.6152 144.672 80.3011 144.95 80.5792Z" fill="#FFCDA8"/>
<path d="M144.95 80.5789C145.21 81.0728 145.35 81.6212 145.358 82.1793C144.907 81.9841 144.434 81.847 143.949 81.7715C143.739 81.8395 143.739 83.0074 143.782 83.0815C144.112 84.2974 144.347 85.537 144.486 86.7892C144.486 86.7892 144.017 88.9149 143.646 88.9149C143.275 88.9149 143.151 88.1239 143.151 88.1239C143.151 88.1239 142.218 88.1672 142.608 87.5739C142.893 87.089 143.131 86.5779 143.318 86.0476L143.133 83.8292C143.133 83.8292 139.209 82.3709 138.857 82.2782C138.505 82.1855 139.042 79.6025 139.042 79.6025C139.042 79.6025 144.672 80.3008 144.95 80.5789Z" fill="#D9A782"/>
<path d="M135.804 77.7056L136.743 77.3472C138.289 77.4266 139.83 77.5854 141.359 77.823C143.108 78.1505 145.419 79.856 146.47 80.4369C147.52 81.0177 148.521 82.1053 148.286 82.2907C148.052 82.4761 147.168 82.371 146.562 82.0682C145.506 81.5451 144.414 81.099 143.294 80.7335C142.526 80.5566 141.744 80.447 140.958 80.406C140.395 80.406 139.654 80.1279 139.444 81.1537C139.234 82.1794 139.067 82.2969 139.302 82.8345C139.536 83.3721 139.351 84.6883 138.721 84.8428C138.091 84.9972 137.738 83.6625 137.578 83.0755C137.417 82.4884 136.96 81.2216 136.428 81.2216C135.897 81.2216 134.661 80.0167 135.804 77.7056Z" fill="#FFCDA8"/>
<path d="M103.733 58.0859C103.733 58.0859 105.402 58.5123 109.109 61.948C112.817 65.3838 122.16 74.4613 122.16 74.4613C124.631 75.2493 127.149 75.8808 129.699 76.3522C133.042 76.896 136.743 77.3471 136.743 77.3471C136.743 77.3471 135.254 79.516 136.428 81.2339C136.428 81.2339 125.454 82.7231 121.388 82.1793C117.322 81.6355 115.295 78.8363 113.577 77.7116C111.859 76.587 99.2161 64.9018 99.2161 64.9018L103.733 58.0859Z" fill="#FFC615"/>
<path d="M104.889 65.1614C106.78 67.2006 112.051 73.1575 114.473 74.7703C116.895 76.3832 119.311 75.8208 119.62 76.3832C119.929 76.9455 119.25 77.996 119.25 78.1814C119.25 78.3667 131.021 80.1897 135.983 79.7695C135.982 80.2911 136.137 80.8011 136.428 81.234C136.428 81.234 125.454 82.7232 121.388 82.1794C117.322 81.6356 115.295 78.8364 113.577 77.7117C111.859 76.5871 99.2161 64.9019 99.2161 64.9019L100.773 62.5537C102.355 63.3014 104.03 64.2407 104.889 65.1614Z" fill="#F19C3C"/>
<path d="M94.0131 99.2592C94.0131 99.2592 94.8102 99.117 95.0574 99.117C95.3045 99.117 99.42 98.5732 100.186 98.5732C100.952 98.5732 102.578 98.5362 103.437 98.9193C104.296 99.3024 108.998 100.279 108.813 100.996C108.627 101.712 108.151 101.613 107.676 101.613C107.2 101.613 102.955 100.532 101.886 101.033C101.886 101.033 103.548 102.133 104.543 102.658C105.538 103.183 108.25 104.598 107.676 105.092C107.205 105.446 106.573 105.499 106.05 105.228C105.661 105.092 100.946 102.757 100.946 102.757C101.351 103.235 101.836 103.638 102.38 103.949C103.344 104.524 106.088 106.044 105.772 106.625C105.457 107.206 104.308 106.538 103.678 106.403C102.478 105.874 101.316 105.265 100.199 104.58C100.199 104.58 102.022 106.155 102.67 106.594C103.319 107.033 104.073 107.978 103.875 108.17C103.43 108.621 102.306 107.867 101.7 107.397C101.095 106.928 99.1296 105.877 98.5796 105.544C98.0297 105.21 94.7608 104.036 93.7412 103.492C92.7216 102.948 93.3766 99.8956 94.0131 99.2592Z" fill="#FFCDA8"/>
<path d="M100.724 64.9018C100.724 64.9018 97.5168 68.3128 97.3376 70.5744C97.1584 72.8361 97.2696 74.6837 94.6495 74.0967C92.0295 73.5096 90.6515 67.5465 89.0881 63.9378C88.1426 61.775 88.2292 58.4258 92.1778 57.4309C96.1264 56.436 100.724 64.9018 100.724 64.9018Z" fill="#D9A782"/>
<path d="M106.903 56.8688C107.203 57.6141 107.247 58.438 107.027 59.2108C106.88 59.9922 106.686 60.7639 106.446 61.5219C106.446 61.5219 106.588 62.3993 106.384 62.5415C106.27 62.6193 106.163 62.7061 106.063 62.801C105.719 63.1008 105.464 63.4901 105.328 63.9257C105.155 64.5868 104.543 67.0153 102.473 66.9597C100.403 66.9041 95.5394 64.3953 93.1047 60.6877C90.67 56.98 89.0943 51.7152 90.3982 48.0014C91.702 44.2876 96.3242 42.6315 99.9577 43.7747C103.591 44.9179 106.755 49.4165 107.323 52.0427C107.892 54.6689 107.515 55.7194 107.323 56.0964C107.132 56.4733 106.903 56.8688 106.903 56.8688Z" fill="#FFCDA8"/>
<path d="M107.286 56.1396C107.101 56.5042 106.885 56.8688 106.885 56.8688C107.185 57.6142 107.228 58.438 107.008 59.2108C106.861 59.9922 106.667 60.764 106.427 61.5219C106.127 60.9151 105.883 60.2822 105.698 59.631C105.612 59.0625 105.383 57.944 105.698 57.3261C106.137 56.8217 106.678 56.4171 107.286 56.1396Z" fill="#D9A782"/>
<path d="M104.778 63.0172C104.938 62.7577 105.97 62.8689 105.97 62.8689C105.66 63.1567 105.432 63.5212 105.309 63.9256C105.136 64.5868 104.524 67.0153 102.454 66.9597L102.077 66.9226C103.844 65.8412 104.635 63.2397 104.778 63.0172Z" fill="#D9A782"/>
<path fill-rule="evenodd" clip-rule="evenodd" d="M93.2962 60.6817C93.3838 60.712 93.4755 60.7287 93.5681 60.7312C93.6606 60.7287 93.7515 60.7055 93.8338 60.6632C94.6557 60.1936 94.3776 58.5128 94.0068 57.7836C93.6608 57.11 92.4187 55.5034 91.3744 55.5034C91.0176 55.4814 90.6752 55.6478 90.4722 55.9421C90.2258 56.5243 90.2764 57.1898 90.6082 57.728C91.0346 58.6858 92.3817 60.3851 93.2962 60.6817ZM90.7812 56.0843C90.925 55.8887 91.1566 55.7775 91.3991 55.7877C92.2828 55.7877 93.4507 57.3078 93.7658 57.8948C94.1057 58.5622 94.3343 60.0329 93.7164 60.3666C93.6181 60.4107 93.5057 60.4107 93.4074 60.3666C92.6474 60.1009 91.3373 58.4695 90.9357 57.5797C90.6581 57.1311 90.6012 56.5801 90.7812 56.0843Z" fill="#00FF00"/>
<path d="M77.0754 63.0358C79.2877 60.0141 84.1694 59.8225 84.1694 59.8225C82.111 60.4619 80.2456 61.607 78.7439 63.1532C84.1694 59.8225 88.9584 60.5455 92.0481 60.8112C95.1378 61.0769 96.9607 58.4136 99.2471 55.9233C101.533 53.433 105.253 54.2673 105.253 54.2673C105.253 54.2673 106.489 51.95 107.799 52.673C107.636 50.5524 106.72 48.56 105.216 47.0559C102.627 44.3308 100.223 41.8529 94.9833 43.4224C89.7432 44.992 88.8781 49.058 88.3899 50.8377C87.9017 52.6174 85.2075 55.3857 82.1611 56.8317C79.1146 58.2777 75.2587 61.8679 74.9868 64.247C75.8833 62.1276 77.57 60.4409 79.6893 59.5444C79.6893 59.5444 77.3226 61.664 77.0754 63.0358Z" fill="#7A3A1D"/>
<path d="M92.0728 60.811L91.0717 60.7245C94.112 60.1498 95.4652 58.8275 95.4652 58.8275C93.6678 59.4102 91.7322 59.4102 89.9347 58.8275C95.1686 59.9645 98.7279 54.3474 100.551 53.6121C102.374 52.8767 105.278 54.2671 105.278 54.2671C105.278 54.2671 101.57 53.439 99.2717 55.9232C96.973 58.4073 95.1624 61.0829 92.0728 60.811Z" fill="#6D2D10"/>
<path d="M94.6804 43.5151L94.9832 43.4224C100.223 41.8529 102.627 44.3308 105.216 47.0559C106.72 48.56 107.636 50.5524 107.799 52.673C106.489 51.95 105.253 54.2673 105.253 54.2673C105.253 54.2673 103.875 45.2824 94.6804 43.5151Z" fill="#6D2D10"/>
<path d="M85.2198 69.475C86.8635 72.3299 85.7574 82.0438 86.2085 86.0666C86.6596 90.0894 87.0675 95.552 87.0675 95.552C88.4849 96.4238 89.9636 97.1921 91.4919 97.8507C92.9379 98.3512 95.0574 99.1175 95.0574 99.1175C95.0574 99.1175 92.8946 101.015 93.8215 103.591C93.8215 103.591 83.0261 102.683 81.3083 101.738C79.5904 100.792 79.2753 96.9485 78.6882 94.5138C78.1012 92.0791 76.4513 78.5278 75.7468 75.71C74.8385 72.1877 80.0291 60.4407 85.2198 69.475Z" fill="#FFC615"/>
<path d="M320.994 44.1209C320.685 44.0776 318.034 43.5956 316.959 43.4226C315.884 43.2496 314.586 43.1878 314.45 43.6389C314.314 44.09 314.567 44.5596 315.927 44.8192C317.286 45.0787 318.942 45.4927 318.942 45.4927C318.942 45.4927 317.948 47.019 317.601 47.4145C317.255 47.81 316.712 49.3239 317.262 49.4969C317.812 49.67 318.664 48.6813 318.924 48.3599C319.183 48.0386 320.673 46.4073 320.673 46.4073L320.87 46.605C320.87 46.605 320.469 48.0942 320.308 48.9284C320.147 49.7627 320.005 50.8935 320.586 50.8379C321.167 50.7823 321.649 49.602 321.822 48.9841C321.995 48.3661 322.372 47.2415 322.372 47.2415C322.372 47.2415 322.798 47.328 322.842 47.4701C322.885 47.6122 322.885 49.2312 322.885 49.3919C322.885 49.5526 322.601 49.8368 322.545 49.8862C322.489 49.9357 321.47 50.7205 321.019 51.0665C320.568 51.4126 320.098 52.4383 320.568 52.8338C321.037 53.2293 322.285 52.6732 323.07 51.9996C323.762 51.391 324.549 50.9004 325.4 50.5474C326.248 50.1867 327.074 49.774 327.872 49.3116C328.397 49.0026 329.386 48.1622 329.762 48.1869C330.139 48.2116 332.37 48.9161 332.37 48.9161L333.316 44.6647C332.487 44.4285 331.639 44.2672 330.782 44.1827C329.997 44.1827 328.045 44.0097 327.074 43.8799C326.104 43.7501 324.059 43.1631 323.46 43.1631C322.86 43.1631 320.994 44.1209 320.994 44.1209Z" fill="#FFCDA8"/>
<path d="M318.924 48.3721C319.19 48.0508 320.673 46.4194 320.673 46.4194L320.87 46.6172C320.87 46.6172 320.469 48.1064 320.308 48.9406C320.147 49.7748 320.005 50.9057 320.586 50.85C321.167 50.7944 321.649 49.6142 321.822 48.9962C321.995 48.3783 322.372 47.2536 322.372 47.2536H322.434C322.434 47.2536 321.136 46.4812 320.827 46.2588C320.21 45.9654 319.574 45.7135 318.924 45.5049C318.924 45.5049 317.929 47.0312 317.583 47.4267C317.237 47.8221 316.693 49.3361 317.243 49.5091C317.793 49.6821 318.664 48.6811 318.924 48.3721Z" fill="#D9A782"/>
<path d="M329.775 48.2118C330.158 48.2118 332.383 48.9409 332.383 48.9409L332.506 48.4033C331.709 48.1623 330.516 47.7854 329.794 47.6432C328.626 47.3837 328.026 47.8039 327.198 48.5084C326.37 49.2128 324.461 50.4858 324.053 50.7638C323.645 51.0419 322.069 52.4755 320.642 52.871C321.149 53.18 322.335 52.6485 323.114 51.9997C323.805 51.3912 324.592 50.9006 325.443 50.5476C326.292 50.1868 327.117 49.7741 327.915 49.3117C328.409 49.0274 329.398 48.187 329.775 48.2118Z" fill="#D9A782"/>
<path d="M330.516 44.0468C330.516 44.0468 329.688 46.7595 330.282 48.842L346.045 55.5466C348.165 56.4364 357.613 60.8176 357.613 60.8176C357.613 60.8176 370.843 62.8444 371.115 62.6714C371.387 62.4984 372.178 63.4068 371.733 61.5344C371.288 59.6621 370.38 55.4477 366.981 53.872C363.582 52.2962 353.837 50.3312 350.47 48.8729C347.102 47.4145 348.078 47.4454 344.34 46.5185C340.601 45.5916 331.647 43.9417 330.516 44.0468Z" fill="#73C138"/>
<path d="M330.084 47.6553C330.109 48.0545 330.175 48.4501 330.282 48.8355L346.045 55.5463C346.608 55.7812 347.67 56.257 348.937 56.8317C349.617 54.9778 349.87 52.9077 348.017 52.9634C344.649 53.0622 343.394 53.365 338.927 51.2208C336.045 49.8758 333.093 48.6856 330.084 47.6553Z" fill="#4D9B12"/>
<path d="M317.101 95.6381C316.403 95.7431 314.098 96.0212 314.098 96.0212C313.72 95.413 313.287 94.8402 312.806 94.3095C312.355 93.9078 310.953 93.9635 310.433 94.2045C309.957 94.5394 309.528 94.9387 309.161 95.3909C309.161 95.3909 306.979 95.8791 305.947 96.1757C304.915 96.4723 304.711 96.7936 304.847 97.5228C304.968 98.004 305.213 98.445 305.558 98.8019C305.558 98.8019 304.025 99.5991 304.217 100.347C304.407 100.855 304.756 101.288 305.212 101.583C305.212 101.583 305.094 103.084 305.688 103.591C306.065 103.896 306.545 104.044 307.029 104.005C306.998 104.587 307.363 105.118 307.918 105.296C308.882 105.593 308.969 105.401 308.969 105.123C308.969 104.845 309.21 104.197 309.315 104.197C310.359 103.944 311.356 103.527 312.269 102.961C313.208 102.262 314.394 101.286 314.394 101.286L318.145 100.724L317.101 95.6381Z" fill="#FFCDA8"/>
<path d="M318.145 100.749L317.978 99.9082C316.903 100.137 315 100.526 314.326 100.631C313.768 100.717 313.196 100.638 312.683 100.403C311.912 101.047 311.177 101.734 310.483 102.46C309.966 103.031 309.413 103.568 308.827 104.067C308.449 104.304 307.969 104.304 307.591 104.067C307.202 103.857 307.43 102.337 307.171 102.528C306.911 102.72 306.052 103.214 305.774 102.67C305.602 102.305 305.518 101.906 305.527 101.502L305.91 100.471C305.33 100.388 304.761 100.245 304.211 100.044C304.183 100.143 304.183 100.248 304.211 100.347C304.401 100.855 304.75 101.289 305.206 101.583C305.206 101.583 305.088 103.084 305.681 103.591C306.059 103.896 306.539 104.044 307.022 104.005C306.991 104.588 307.357 105.118 307.912 105.297C308.876 105.593 308.963 105.402 308.963 105.124C308.963 104.846 309.204 104.197 309.309 104.197C310.353 103.944 311.35 103.527 312.262 102.961C313.202 102.263 314.388 101.286 314.388 101.286L318.145 100.749Z" fill="#D9A782"/>
<path d="M413.265 167.084C411.496 167.523 410.29 169.158 410.391 170.977C410.502 173.226 412.146 176.539 412.091 178.497C412.035 180.456 411.071 185.004 411.825 187.884C412.579 190.763 413.431 192.321 415.761 191.635C418.091 190.949 419.543 185.412 419.512 182.842C419.481 180.271 418.276 178.516 417.349 176.1C416.812 174.697 416.497 173.219 416.416 171.719C416.255 170.625 416.089 166.398 413.265 167.084Z" fill="#D4DBDF"/>
<path d="M411.825 187.884C411.071 185.004 412.035 180.469 412.09 178.497C412.146 176.526 410.502 173.226 410.391 170.977C410.29 169.158 411.496 167.524 413.264 167.084C413.578 167.005 413.904 166.993 414.222 167.047L414.142 167.01C412.701 166.61 411.226 166.343 409.736 166.213C408.5 166.213 407.845 166.46 407.709 168.759C407.573 171.058 408.58 175.5 408.284 175.853C407.987 176.205 406.856 174.926 406.968 175.853C407.079 176.78 408.821 180.759 409.242 183.268C409.662 185.777 411.052 191.999 414.185 191.728C412.98 191.375 412.381 189.979 411.825 187.884Z" fill="#097AB9"/>
<path d="M409.489 171.225C409.872 173.61 411.343 176.397 411.188 177.935C411.034 179.474 410.941 182.706 410.966 184.455C410.966 185.746 410.867 188.675 412.263 190.968C412.758 191.487 413.457 191.761 414.173 191.715C412.98 191.382 412.381 189.985 411.825 187.89C411.071 185.011 412.035 180.475 412.09 178.504C412.146 176.533 410.502 173.233 410.391 170.984C410.29 169.164 411.496 167.53 413.265 167.091C413.578 167.012 413.904 166.999 414.222 167.053L414.142 167.016C413.796 166.93 413.147 166.769 412.424 166.615C412.171 166.722 411.931 166.856 411.707 167.016C410.224 168.104 409.106 168.87 409.489 171.225Z" fill="#AEB5B9"/>
<path d="M366.011 115.728C366.011 115.728 373.129 129.322 376.213 134.995C379.296 140.668 381.638 144.196 384.802 146.581C387.966 148.966 398.607 161.647 400.906 165.336C403.204 169.025 407.765 178.343 407.765 178.343C407.765 178.343 408.068 179.264 408.284 177.571C408.5 175.878 407.932 166.979 410.385 166.244C410.385 166.244 404.823 156.128 403.773 153.267C402.722 150.406 399.954 146.235 396.784 143.244C393.614 140.254 390.493 137.905 389.369 134.649C388.244 131.392 381.904 114.257 380.427 110.043C378.95 105.828 374.829 100.971 374.829 100.971L366.017 106.304L366.011 115.728Z" fill="#9DCEED"/>
<path d="M404.836 167.016C401.332 158.983 388.244 146.89 383.758 142.095C379.272 137.3 370.058 120.096 370.145 117.278C370.231 114.461 370.145 111.42 370.145 111.42L367.803 113.398L366.035 114.189V115.727C366.035 115.727 373.154 129.322 376.238 134.995C379.321 140.667 381.663 144.196 384.827 146.581C387.991 148.966 398.632 161.646 400.93 165.335C403.229 169.025 407.789 178.343 407.789 178.343C407.789 178.343 408.092 179.264 408.309 177.571C408.377 177.033 408.364 175.717 408.401 174.234C407.221 172.071 405.985 169.624 404.836 167.016Z" fill="#76A7C6"/>
<path d="M394.065 154.658C393.083 155.028 391.902 156.172 392.211 158.773C392.52 161.375 393.935 164.582 394.893 166.633C395.851 168.685 397.062 173.647 398.842 175.538C400.621 177.429 401.635 178.01 402.865 177.287C404.094 176.564 403.482 171.15 401.993 168.493C400.504 165.836 398.286 164.279 397.717 162.363C397.244 160.465 396.964 158.522 396.883 156.567C396.871 155.733 395.678 154.04 394.065 154.658Z" fill="#D4DBDF"/>
<path d="M398.86 175.525C397.081 173.634 395.876 168.679 394.912 166.621C393.948 164.563 392.557 161.362 392.23 158.761C391.902 156.159 393.083 155.016 394.084 154.645C394.193 154.608 394.304 154.58 394.417 154.559C393.515 154.509 389.981 154.293 389.183 155.034C388.386 155.776 387.49 158.594 388.417 160.787C389.344 162.981 388.936 163.061 388.664 163.933C388.354 164.855 388.465 165.867 388.967 166.701C389.511 167.665 392.366 170.322 393.54 172.263C394.714 174.203 399.28 179.418 402.277 177.521C401.307 177.787 400.356 177.113 398.86 175.525Z" fill="#097AB9"/>
<path d="M398.86 175.525C397.081 173.634 395.876 168.679 394.912 166.621C393.948 164.563 392.557 161.362 392.23 158.761C391.902 156.159 393.083 155.016 394.084 154.645C394.193 154.608 394.304 154.58 394.417 154.559C394.059 154.559 393.287 154.497 392.434 154.491C391.678 154.896 391.141 155.616 390.969 156.456C390.606 158.203 390.823 160.021 391.587 161.634C392.316 163.42 392.965 165.428 393.503 166.541C394.04 167.653 395.357 169.939 395.721 171.249C396.018 172.355 397.662 176.39 400.665 177.923C401.231 177.962 401.796 177.821 402.278 177.521C401.307 177.787 400.356 177.113 398.86 175.525Z" fill="#AEB5B9"/>
<path d="M389.795 167.016C389.622 165.44 388.362 157.061 389.622 155.065C386.765 154.073 384.061 152.686 381.589 150.944C377.943 148.249 372.209 143.263 369.953 142.348C368.091 141.688 366.174 141.193 364.225 140.871C364.225 140.871 365.788 131.54 366.221 127.635C366.475 125.911 366.578 124.168 366.53 122.426C366.53 122.426 372.036 113.657 369.434 106.322L351.687 110.58C351.687 110.58 349.833 118.564 349.555 124.638C349.277 130.712 352.163 141.483 354.029 145.432C355.895 149.38 359.318 150.375 361.926 151.549C364.534 152.723 388.794 167.48 388.794 167.48C388.794 167.48 389.968 168.592 389.795 167.016Z" fill="#9DCEED"/>
<path d="M361.932 151.568C362.025 151.611 362.149 151.667 362.291 151.747C361.599 148.49 363.527 144.882 367.976 143.813C369.27 143.52 370.601 143.422 371.924 143.522C371.309 143.075 370.651 142.69 369.959 142.373C368.097 141.712 366.18 141.218 364.231 140.896C364.231 140.896 365.795 131.565 366.227 127.66C366.481 125.936 366.584 124.193 366.536 122.45C366.536 122.45 366.579 122.37 366.672 122.228C363.867 123.668 359.875 123.421 359.875 123.421C359.875 123.421 358.849 130.267 357.137 132.906C355.426 135.545 353.924 136.824 355.209 143.491C355.502 144.942 355.657 146.417 355.673 147.897C357.551 149.881 359.974 150.666 361.932 151.568Z" fill="#76A7C6"/>
<path d="M353.392 62.319L351.57 63.9442C351.57 63.9442 345.594 69.1534 344.939 69.8084C344.284 70.4634 342.758 74.5233 342.696 75.0547C342.634 75.5861 344.099 83.1311 344.377 84.6327C345.262 87.9188 346.4 91.1313 347.782 94.2417C348.901 96.6314 349.455 99.2471 349.401 101.886C349.462 104.289 351.001 110.395 351.001 111.025C351.111 111.963 351.952 112.639 352.892 112.545C354.128 112.545 363.638 112.168 368.507 108.881C373.377 105.593 377.356 101.929 376.596 100.347C375.836 98.765 370.213 90.6144 370.213 89.1622C370.213 87.7101 371.727 79.3617 372.363 75.5676C373 71.7734 372.74 66.4036 372.363 63.3695C371.986 60.3354 368.822 58.426 365.535 57.4929C362.248 56.5598 353.392 62.319 353.392 62.319Z" fill="#73C138"/>
<path d="M352.225 91.183C349.067 85.9985 350.371 84.8615 350.717 80.9438C350.927 78.404 346.774 80.0848 343.827 81.5617C344.08 82.9274 344.309 84.1014 344.402 84.6081C345.287 87.8942 346.425 91.1068 347.806 94.2171C348.926 96.6069 349.48 99.2225 349.425 101.861C349.487 104.265 351.026 110.37 351.026 111C351.136 111.938 351.977 112.614 352.917 112.52C354.895 112.473 356.868 112.302 358.824 112.008C358.274 105.136 354.598 95.1193 352.225 91.183Z" fill="#4D9B12"/>
<path d="M344.451 48.1807C344.451 48.1807 342.653 50.0345 343.091 50.4238C343.53 50.8131 344.581 51.6597 344.581 51.6597C344.76 52.2538 344.893 52.8613 344.976 53.4764C345.056 54.2303 344.976 57.3632 347.151 57.6475C349.326 57.9317 350.624 57.9132 351.285 59.0255C351.946 60.1378 351.823 63.2398 351.57 63.969C351.57 63.969 353.022 63.5241 354.505 63.2089C355.988 62.8938 361.741 62.0719 363.156 58.4385C363.156 58.4385 361.228 55.0583 361.735 53.4455C362.241 51.8327 364.546 47.1858 362.94 43.367C361.333 39.5481 356.618 37.9291 352.985 37.7684C349.351 37.6078 345.112 40.8581 344.673 42.8911C344.235 44.9242 344.018 47.7543 344.451 48.1807Z" fill="#FFCDA8"/>
<path d="M353.843 53.229C353.843 53.229 352.83 53.229 352.737 53.643C352.645 54.057 352.021 55.5339 349.796 56.9613C349.116 57.385 348.34 57.6295 347.541 57.672C349.462 57.9068 350.667 57.9562 351.285 59.0005C351.903 60.0449 351.823 63.2149 351.569 63.944C351.569 63.944 353.022 63.4991 354.505 63.184C354.9 63.1037 355.586 62.9801 356.414 62.7885C355.963 59.05 353.843 53.229 353.843 53.229Z" fill="#D9A782"/>
<path d="M344.488 41.2228C344.16 41.8407 344.426 43.0766 345.724 44.0035C346.976 44.9099 347.879 46.2187 348.282 47.7111C348.406 48.6936 349.827 52.5496 352.608 52.5496C352.608 52.5496 354.696 53.5568 354.838 54.2365C354.98 54.9163 355.265 56.3746 357.131 56.5291C358.997 56.6836 361.747 55.0708 361.704 54.7927C361.8 53.7228 362.08 52.6776 362.532 51.703C362.946 51.1283 364.837 45.5236 362.785 42.4339C360.733 39.3442 357.73 37.6017 353.782 37.1567C349.833 36.7118 345.551 39.3133 344.488 41.2228Z" fill="#563317"/>
<path d="M361.704 54.7804C361.8 53.7106 362.08 52.6653 362.532 51.6907C362.621 51.5459 362.695 51.3928 362.754 51.2335C361.221 51.8556 359.576 52.1584 357.922 52.1233C356.13 52.0059 350.927 49.4044 348.387 48.0264C348.727 49.3549 350.124 52.5064 352.608 52.5064C352.608 52.5064 354.696 53.5137 354.838 54.1934C354.981 54.8731 355.265 56.3315 357.131 56.4859C358.997 56.6404 361.747 55.0585 361.704 54.7804Z" fill="#634024"/>
<path d="M314.53 95.7681C314.53 95.9658 314.716 100.446 316.001 101.416C316.001 101.416 328.199 100.545 330.831 100.18C333.464 99.8156 336.325 96.9051 337.165 95.7804C338.006 94.6558 346.434 86.017 347.275 84.9851C348.115 83.9531 351.112 81.4937 350.673 77.2485C350.235 73.0033 347.021 69.1659 344.964 69.8332C342.906 70.5006 340.317 73.269 339.069 76.4204C337.82 79.5719 336.943 81.8459 336.943 81.8459C335.549 83.0423 334.332 84.43 333.328 85.9676C331.987 88.1798 329.299 92.0481 328.959 92.2088C328.619 92.3694 323.497 93.0492 322.162 93.6424C320.827 94.2356 314.53 95.7681 314.53 95.7681Z" fill="#73C138"/>
<path d="M335.979 97.0595C335.544 97.0207 335.106 97.093 334.706 97.2696C333.303 97.8875 327.717 98.2954 323.756 98.9504C320.92 99.42 317.113 99.8217 315.173 100.019C315.307 100.553 315.59 101.037 315.989 101.416C315.989 101.416 328.187 100.545 330.819 100.18C332.685 99.902 334.688 98.3386 335.979 97.0595Z" fill="#4D9B12"/>
<path d="M351.977 52.9635C351.947 52.4383 352.039 51.5546 352.991 51.7277C353.943 51.9007 354.696 53.4023 354.159 54.8853C353.621 56.3684 351.885 56.2757 352.021 55.5033C352.079 54.657 352.065 53.8073 351.977 52.9635Z" fill="#FFCDA8"/>
<path opacity="0.3" d="M158.501 38.3122C158.501 42.2855 155.689 47.1611 152.248 49.1508L132.14 60.731C128.698 62.7207 125.88 61.0956 125.88 57.1222V50.3867C125.88 46.4134 128.698 41.5378 132.14 39.5481L152.248 27.9432C155.689 25.9534 158.501 27.5786 158.501 31.552V38.3122Z" fill="white"/>
<path opacity="0.3" d="M151.413 34.9134L132.214 45.9992L132.208 44.1825L151.413 33.0967V34.9134Z" fill="white"/>
<path opacity="0.3" d="M151.413 39.0291L132.214 50.1149L132.208 48.2982L151.413 37.2124V39.0291Z" fill="white"/>
<path opacity="0.3" d="M145.376 46.6235L132.214 54.2304L132.208 52.4136L145.376 44.813V46.6235Z" fill="white"/>
<path opacity="0.3" d="M279.481 11.6667C279.481 15.64 282.299 20.5156 285.741 22.5053L305.879 34.1102C309.315 36.1 312.133 34.4748 312.133 30.5014V23.7412C312.133 19.7679 309.321 14.8923 305.879 12.9026L285.741 1.29769C282.299 -0.692068 279.481 0.933108 279.481 4.90645L279.481 11.6667Z" fill="white"/>
<path opacity="0.3" d="M286.575 8.26791L305.774 19.3475V17.537L286.575 6.45117V8.26791Z" fill="white"/>
<path opacity="0.3" d="M286.575 12.3836L305.774 23.4694V21.6527L286.575 10.5669V12.3836Z" fill="white"/>
<path opacity="0.3" d="M292.606 19.9779L305.774 27.5847V25.7679L292.606 18.1611V19.9779Z" fill="white"/>
<g style="mix-blend-mode:multiply" opacity="0.2">
<path d="M226.425 64.8091L200.008 80.0598L290.925 132.547L317.336 117.297L226.425 64.8091Z" fill="#0540AA"/>
</g>
<g style="mix-blend-mode:multiply" opacity="0.2">
<path d="M183.775 88.9585L157.358 104.209L248.275 156.703L274.686 141.452L183.775 88.9585Z" fill="#0540AA"/>
</g>
<g style="mix-blend-mode:multiply" opacity="0.2">
<path d="M139.623 114.825L113.206 130.076L204.123 182.564L230.534 167.313L139.623 114.825Z" fill="#0540AA"/>
</g>
<path opacity="0.4" d="M139.623 103.974V102.021L230.534 154.515V156.462L139.623 103.974Z" fill="#7CFFFF"/>
<path opacity="0.2" d="M139.623 103.974V102.021L113.206 117.272V119.225L139.623 103.974Z" fill="#7CFFFF"/>
<path opacity="0.6" d="M113.206 117.272V119.225L204.123 171.713V169.766L113.206 117.272Z" fill="#7CFFFF"/>
<path opacity="0.8" d="M230.534 154.515L204.123 169.766V171.712L230.534 156.462V154.515Z" fill="#7CFFFF"/>
<path opacity="0.4" d="M139.623 102.021L113.206 117.272L204.123 169.766L230.534 154.515L139.623 102.021Z" fill="#7CFFFF"/>
<g opacity="0.8">
<path d="M211.922 154.658L159.039 124.126L161.424 122.748L214.307 153.28L211.922 154.658Z" fill="#7CFFFF"/>
<path d="M206.607 157.729L153.724 127.196L156.11 125.818L208.993 156.351L206.607 157.729Z" fill="#7CFFFF"/>
<path d="M175.84 146.099L148.41 130.261L150.795 128.883L178.226 144.727L175.84 146.099Z" fill="#7CFFFF"/>
</g>
<path d="M163.099 115.579V113.54L136.688 128.791V130.83L163.099 115.579Z" fill="#E7B100"/>
<path d="M136.688 128.79L113.206 115.233V117.272L136.688 130.83V128.79Z" fill="#D18800"/>
<path d="M163.098 113.54L139.623 99.9824L113.206 115.233L136.688 128.791L163.098 113.54Z" fill="#FFF31A"/>
<path d="M138.356 117.118H132.579V113.787C129.971 113.363 127.297 113.785 124.947 114.992L136.261 121.523C138.325 120.331 139.036 118.644 138.356 117.118Z" fill="white"/>
<path d="M145.03 114.696C142.438 116.012 139.373 116.012 136.781 114.696C134.5 113.379 134.5 111.248 136.781 109.931C139.373 108.615 142.438 108.615 145.03 109.931C147.31 111.248 147.31 113.379 145.03 114.696Z" fill="white"/>
<path opacity="0.4" d="M183.775 63.7774V61.8247L274.686 114.319V116.265L183.775 63.7774Z" fill="#7CFFFF"/>
<path opacity="0.2" d="M183.775 63.7774V61.8247L157.358 77.0754V79.0281L183.775 63.7774Z" fill="#7CFFFF"/>
<path opacity="0.6" d="M157.358 77.0752V79.0279L248.275 131.516V129.569L157.358 77.0752Z" fill="#7CFFFF"/>
<path opacity="0.8" d="M274.686 114.318L248.275 129.569V131.516L274.686 116.265V114.318Z" fill="#7CFFFF"/>
<path opacity="0.4" d="M183.775 61.8247L157.358 77.0754L248.275 129.569L274.686 114.319L183.775 61.8247Z" fill="#7CFFFF"/>
<g opacity="0.8">
<path d="M256.073 114.461L203.19 83.9283L205.576 82.5503L258.459 113.089L256.073 114.461Z" fill="#7CFFFF"/>
<path d="M250.759 117.532L197.876 86.9996L200.261 85.6216L253.144 116.154L250.759 117.532Z" fill="#7CFFFF"/>
<path d="M219.992 105.902L192.562 90.0645L194.947 88.6865L222.377 104.53L219.992 105.902Z" fill="#7CFFFF"/>
</g>
<path d="M207.25 75.3825V73.3433L180.839 88.594V90.6332L207.25 75.3825Z" fill="#12BF13"/>
<path d="M180.84 88.5937L157.358 75.0361V77.0753L180.84 90.6329V88.5937Z" fill="#129C13"/>
<path d="M207.25 73.3432L183.775 59.7856L157.358 75.0364L180.84 88.5939L207.25 73.3432Z" fill="#5FF718"/>
<path d="M183.867 76.0745H178.09V72.7376C175.479 72.3255 172.805 72.7585 170.458 73.9735L181.773 80.5051C183.843 79.2692 184.541 77.6008 183.867 76.0745Z" fill="white"/>
<path d="M190.547 73.652C187.953 74.9677 184.886 74.9677 182.292 73.652C180.018 72.3358 180.018 70.1977 182.292 68.8877C184.886 67.572 187.953 67.572 190.547 68.8877C192.797 70.1977 192.797 72.3358 190.547 73.652Z" fill="white"/>
<path opacity="0.4" d="M226.425 25.292V23.3394L317.336 75.8332V77.7797L226.425 25.292Z" fill="#7CFFFF"/>
<path opacity="0.2" d="M226.425 25.292V23.3394L200.008 38.5901V40.5427L226.425 25.292Z" fill="#7CFFFF"/>
<path opacity="0.6" d="M200.008 38.5903V40.543L290.925 93.0307V91.0842L200.008 38.5903Z" fill="#7CFFFF"/>
<path opacity="0.8" d="M317.336 75.8335L290.925 91.0842V93.0307L317.336 77.78V75.8335Z" fill="#7CFFFF"/>
<path opacity="0.4" d="M226.425 23.3394L200.008 38.5901L290.925 91.0839L317.336 75.8332L226.425 23.3394Z" fill="#7CFFFF"/>
<g opacity="0.8">
<path d="M298.724 75.9753L245.84 45.4429L248.226 44.0649L301.109 74.5972L298.724 75.9753Z" fill="#7CFFFF"/>
<path d="M293.409 79.0465L240.526 48.5081L242.911 47.1362L295.794 77.6685L293.409 79.0465Z" fill="#7CFFFF"/>
<path d="M262.642 67.4169L235.212 51.5792L237.597 50.2012L265.027 66.0451L262.642 67.4169Z" fill="#7CFFFF"/>
</g>
<path d="M249.9 36.8971V34.8579L223.49 50.1086V52.1478L249.9 36.8971Z" fill="#B01577"/>
<path d="M223.49 50.1083L200.008 36.5508V38.59L223.49 52.1475V50.1083Z" fill="#8D0154"/>
<path d="M249.9 34.8578L226.425 21.3003L200.008 36.551L223.49 50.1086L249.9 34.8578Z" fill="#F256B9"/>
<path d="M224.886 38.4359H219.108V35.1053C216.503 34.6793 213.83 35.1017 211.483 36.3102L222.791 42.8418C224.861 41.6492 225.547 39.9622 224.886 38.4359Z" fill="white"/>
<path d="M231.566 36.0133C228.971 37.329 225.905 37.329 223.31 36.0133C221.03 34.6971 221.03 32.5652 223.31 31.249C225.905 29.9333 228.971 29.9333 231.566 31.249C233.846 32.5652 233.846 34.6971 231.566 36.0133Z" fill="white"/>
<defs>
<linearGradient id="paint0_linear" x1="-12.0742" y1="-16.5478" x2="-86.8418" y2="343.719" gradientUnits="userSpaceOnUse">
<stop stop-color="#2580D3"/>
<stop offset="1" stop-color="#0A208F"/>
</linearGradient>
<linearGradient id="paint1_linear" x1="39.2169" y1="12.7435" x2="-34.2247" y2="365.943" gradientUnits="userSpaceOnUse">
<stop stop-color="#328DE0"/>
<stop offset="1" stop-color="#172D9C"/>
</linearGradient>
<linearGradient id="paint2_linear" x1="78.9016" y1="12.3786" x2="4.76982" y2="340.678" gradientUnits="userSpaceOnUse">
<stop stop-color="#1873C6"/>
<stop offset="1" stop-color="#001382"/>
</linearGradient>
</defs>
</svg>
