<svg width="206" height="254" viewBox="0 0 206 254" fill="none" xmlns="http://www.w3.org/2000/svg">
<path d="M173.378 208.776C173.554 211.109 173.254 213.454 172.497 215.657C171.245 219.23 166.909 227.391 167.001 230.747C167.094 234.103 168.462 236.638 171.477 237C176.512 236.79 181.045 233.76 183.325 229.081C185.644 223.214 183.696 221.62 184.948 219.11C186.692 215.492 187.346 211.411 186.827 207.4C185.992 203.585 173.378 208.776 173.378 208.776Z" fill="#001135"/>
<path d="M183.693 229.229C181.359 233.899 176.719 236.923 171.565 237.133C168.599 236.795 167.198 234.434 167.008 231.229C166.997 231.405 166.997 231.583 167.008 231.759C167.008 235.133 168.504 237.639 171.589 238C176.743 237.79 181.382 234.767 183.717 230.096C184.592 228.189 185.03 226.104 184.998 224C184.898 225.812 184.455 227.587 183.693 229.229V229.229Z" fill="#000508"/>
<path d="M185.647 219.953C185.156 220.727 184.958 221.596 185.077 222.457C185.048 222.268 185.048 222.078 185.077 221.89L185.347 223L187.807 216.858L187.957 214C187.552 216.061 186.774 218.066 185.647 219.953V219.953Z" fill="#000508"/>
<path d="M178.276 205.714L162.251 205H161.911C160.982 207.193 159.25 208.966 157.054 209.972C153.704 211.304 144.914 214.73 142.486 218.108C140.446 220.796 144.914 224.555 154.286 222.319C160.915 220.725 161.571 217.394 169.438 217.275C173.182 217.365 176.866 216.336 180 214.325L178.276 205.714Z" fill="#001135"/>
<path d="M169.419 217.827C161.61 217.953 160.88 221.487 154.24 223.178C146.942 225.02 142.612 223.026 142.077 220.654C141.347 223.38 145.823 226.434 154.24 224.263C160.564 222.673 161.537 219.392 168.397 218.963L168.543 219.922C168.543 219.922 177.13 219.922 180 217.398V215.808L179.611 215C176.508 216.845 172.995 217.82 169.419 217.827V217.827Z" fill="#000508"/>
<path d="M156.498 156.812C155.584 144.915 152 114.63 152 114.63L165.351 112L174.467 152.661L180 212L159.625 210.576C159.625 210.576 157.942 175.61 156.498 156.812Z" fill="#092A4E"/>
<path d="M189.36 167.993L193 108.495L165.121 103C165.121 103 164.403 132.348 166.458 152.821C167.994 168.139 170.494 214.216 170.494 214.216C170.177 215.826 170.583 217.492 171.608 218.786C172.632 220.081 174.175 220.879 175.842 220.975C182.18 221.559 189.187 211.638 189.113 205.341C189.113 201.451 188.94 195.153 188.692 183.725C188.642 178.473 188.866 173.223 189.36 167.993V167.993Z" fill="#16375B"/>
<path d="M43.6431 208.776C43.4514 211.107 43.7441 213.454 44.5012 215.657C45.7536 219.23 50.1137 227.391 49.9977 230.747C49.8818 234.103 48.5366 236.638 45.5449 237C40.5105 236.763 35.9818 233.743 33.6706 229.081C31.3514 223.214 33.3228 221.62 32.0704 219.11C30.3187 215.495 29.6559 211.413 30.1687 207.4C31.0036 203.585 43.6431 208.776 43.6431 208.776Z" fill="#001135"/>
<path d="M34.2878 229.229C36.6557 233.882 41.2955 236.896 46.4533 237.133C49.4233 236.795 50.8252 234.434 50.9915 231.229C51.0028 231.405 51.0028 231.583 50.9915 231.759C50.9915 235.133 49.4946 237.639 46.4295 238C41.2717 237.764 36.632 234.749 34.2641 230.096C33.3804 228.192 32.9491 226.104 33.0048 224C33.1056 225.809 33.5408 227.583 34.2878 229.229Z" fill="#000508"/>
<path d="M32.32 219.953C32.8024 220.729 32.9899 221.599 32.86 222.457C32.8748 222.268 32.8748 222.079 32.86 221.89L32.56 223L30.1 216.858V214C30.475 216.058 31.2226 218.062 32.32 219.953V219.953Z" fill="#000508"/>
<path d="M39.7236 205.714L55.7213 205H56.0854C57.0142 207.193 58.7459 208.966 60.9405 209.972C64.3149 211.304 73.0784 214.73 75.506 218.108C77.5694 220.796 73.0784 224.555 63.7322 222.319C57.105 220.725 56.4495 217.394 48.5842 217.275C44.8323 217.369 41.1404 216.34 38 214.325L39.7236 205.714Z" fill="#001135"/>
<path d="M48.5976 217.827C56.4 217.953 57.1292 221.487 63.7648 223.178C71.0568 225.02 75.359 223.026 75.918 220.654C76.6715 223.38 72.1992 226.434 63.7648 224.263C57.4208 222.673 56.4729 219.392 49.6185 218.963L49.4483 219.922C49.4483 219.922 40.8682 219.922 38 217.398V215.808L38.4132 215C41.5138 216.845 45.0239 217.82 48.5976 217.827V217.827Z" fill="#000508"/>
<path d="M61.5258 156.812C62.4399 144.915 66 114.63 66 114.63L52.6495 112L43.5086 152.661L38 212L58.3986 210.576C58.3986 210.576 60.0584 175.61 61.5258 156.812Z" fill="#071E5C"/>
<path d="M29.6363 167.993L26 108.495L53.8786 103C53.8786 103 54.596 132.348 52.5428 152.821C51.0091 168.139 48.5107 214.216 48.5107 214.216C48.8358 215.827 48.4337 217.497 47.4085 218.794C46.3833 220.091 44.836 220.887 43.1675 220.975C36.8348 221.559 29.8342 211.638 29.9332 205.341C29.9332 201.451 30.0816 195.153 30.3537 183.725C30.3931 178.473 30.1536 173.221 29.6363 167.993V167.993Z" fill="#142B69"/>
<path d="M60.4765 35.1411C60.7592 33.449 65 47.4028 65 53.9751V108C65 108 58.1676 49.6344 60.4765 35.1411Z" fill="#19316E"/>
<path d="M109.751 80C111.182 80.1967 114.164 80.8114 114.164 80.8114L116 87.598C116 87.598 111.23 94.6305 107.557 95.9091C103.884 97.1878 102 84.549 102 84.549L109.751 80Z" fill="#CC9A75"/>
<path d="M96.7164 82.2828C97.3032 82.0642 102.193 79.2959 104.247 80.1701C105.55 80.9099 106.553 82.0777 107.083 83.4726C107.083 83.4726 112.853 88.3292 113 89.6648C112.622 91.9376 111.444 94.0031 109.675 95.4927C107.408 97.3275 104.21 97.504 101.753 95.9298C98.9543 94.4575 96.0241 93.2462 93 92.3116L93.1956 82.4527L96.7164 82.2828Z" fill="#FFCDA8"/>
<path d="M108.556 91.414C107.577 90.0631 102.731 89.1993 100.112 89C98.4449 89.892 97.0356 91.1292 96 92.6099C98.027 93.2519 99.985 94.0599 101.85 95.024C104.309 96.4597 107.511 96.2987 109.78 94.6253L110 94.426C109.65 93.3746 109.165 92.3638 108.556 91.414V91.414Z" fill="#D9A782"/>
<path d="M107.65 87.5003C108.141 87.3192 108.598 87.0512 109 86.7082C107.514 85.1705 105.849 83.6794 105.849 83.6794C105.453 82.632 104.802 81.7088 103.958 81C103.53 83.3005 102.874 85.5491 102 87.71C103.868 88.1582 105.817 88.0858 107.65 87.5003V87.5003Z" fill="#D9A782"/>
<path d="M109.233 84.7918C109.233 84.7918 108.397 85.2757 107.352 86.0131C106.307 86.7505 104.27 87.4648 103.303 86.6122C102.337 85.7596 103.852 82.0035 105.419 80.5517C107.419 78.9083 110.365 78.5318 112.812 79.607C114.823 80.8974 115.737 83.4552 114.301 84.2157C112.683 84.7454 110.95 84.9424 109.233 84.7918V84.7918Z" fill="#FFCDA8"/>
<path d="M96.031 92.9748C96.6755 91.9911 99.5638 89.4289 101.831 90.1152C104.099 90.8015 108.229 92.4029 107.99 94.2331C107.751 96.0632 107.99 97.8934 102.858 96.5208C97.7258 95.1481 95.7206 93.4553 96.031 92.9748Z" fill="#FFCDA8"/>
<path d="M115.901 80C115.901 80 114.977 80 115 80.2182C115.024 80.4364 116.754 89.9152 116.304 92L120 91.2C120 91.2 117.891 82.4727 115.901 80Z" fill="#E8F5FF"/>
<path d="M159.157 37.364L154.701 37C154.701 37 143.74 52.1161 139.09 60.5598C136.707 65.206 133.431 69.3295 129.454 72.6915L115 80.1404C116.906 84.1562 117.902 88.5488 117.915 93C117.915 93 140.174 84.9931 142.005 83.2946C143.836 81.5962 162 61.6031 162 61.6031L159.157 37.364Z" fill="#16375B"/>
<path d="M153.043 88.2653C153.47 81.9584 153.345 65.2934 153.345 57.2642C153.345 49.2349 152.942 40.2839 155.281 36.8393C157.62 33.3948 166.975 34.0497 166.975 34.0497L161.643 45.5478C160.109 47.9735 159.129 56.4879 158.525 60.83C157.922 65.1721 161.719 82.9044 161.719 82.9044L167 121.522C161.97 135.131 150 119.097 150 119.097C151.71 113.105 152.641 94.548 153.043 88.2653Z" fill="#16375B"/>
<path d="M189.964 37C189.964 37 201.977 47.725 202.914 54.407C203.851 61.0889 196.883 75.0823 194.649 80.6506C192.415 86.2189 191.069 95.685 192.247 99.0744C193.424 102.464 194.793 117.28 193.784 128.611C188.63 130.761 183.12 131.911 177.543 132C169.879 131.709 161.59 121.929 161.182 112.632C160.773 103.335 161.182 82.2485 161.182 82.2485C161.182 82.2485 165.987 63.1226 171.008 54.6975C176.029 46.2724 189.964 37 189.964 37Z" fill="#234468"/>
<path d="M62.5429 86.4548C62.1154 80.1708 61.8136 63.1315 61.8136 55.0349C61.8136 46.9382 61.8136 37.5606 59.4749 34.1769C57.1361 30.7932 51 32.3642 51 32.3642L56.3817 43.8445C57.8905 46.2615 58.8964 54.7207 59.4749 59.047C60.0533 63.3732 56.3062 81.0167 56.3062 81.0167L51 119.542C56.0296 133.101 68 117.125 68 117.125C65.5344 107.018 63.712 96.7754 62.5429 86.4548V86.4548Z" fill="#263E7B"/>
<path d="M28.1522 36C28.1522 36 17.21 47.7176 16.1278 54.4238C15.0456 61.13 21.1299 74.0823 23.3424 79.6264C25.5549 85.1705 26.9257 94.6608 25.7473 98.0502C23.9008 107.779 23.383 117.716 24.2082 127.586C29.3665 129.741 34.8814 130.899 40.4651 131C48.1367 130.685 56.4095 120.904 56.8183 111.753C57.2271 102.602 56.8183 81.3453 56.8183 81.3453C56.8183 81.3453 52.0085 62.2436 46.9824 53.7943C41.9562 45.3451 28.1522 36 28.1522 36Z" fill="#3F5794"/>
<path d="M16 58C16.4704 61.5515 17.3586 65.0339 18.6459 68.3739C26.8754 73.8294 34.6394 79.9667 41.8572 86.722C48.3275 93.4359 52.3203 112.148 52.2241 124C54.8948 120.59 56.4945 116.455 56.8183 112.123C57.2272 102.937 56.8183 81.6805 56.8183 81.6805C56.8183 81.6805 56.6499 80.9534 56.3131 79.7415L47.4375 75.8634L16 58Z" fill="#263E7B"/>
<path d="M40.9573 28.0567L30.7266 26C30.776 28.7534 30.2303 31.485 29.1266 34.0089C27.5265 36.4285 41.5149 46.8812 47.5757 44.7035C53.6365 42.5259 49.806 31.8312 49.806 31.8312L40.9573 28.0567Z" fill="#D9A782"/>
<path d="M176.044 29.0782L186.277 27C186.23 29.7574 186.775 32.493 187.877 35.0229C189.453 37.4394 175.487 47.8788 169.425 45.7039C163.363 43.529 167.194 32.848 167.194 32.848L176.044 29.0782Z" fill="#D9A782"/>
<path d="M186.841 37.7204C186.841 37.7204 173.255 43.3634 169.926 41.2503C168.105 40.183 166.549 38.7311 165.372 37C165.372 37 154.577 49.1985 161.088 82C162.337 77.7017 168.873 56.4023 178.224 48.214C188.897 39.0651 186.841 37.7204 186.841 37.7204Z" fill="#DBE8F5"/>
<path d="M30.1337 37.7204C30.1337 37.7204 43.672 43.3634 47.0199 41.2503C48.8377 40.183 50.3904 38.7311 51.5653 37C51.5653 37 62.4399 49.1985 55.9152 82C54.6933 77.7017 48.1441 56.4023 38.809 48.214C28.2276 39.0651 30.1337 37.7204 30.1337 37.7204Z" fill="#DBE8F5"/>
<path d="M89 82H93V93L89.7218 92.45L89 82V82Z" fill="#E8F5FF"/>
<path d="M46 46.4504L49.8275 48.6166C53.1409 57.6698 54.9968 67.2451 55.318 76.9456L56.3205 82L57.5963 75.4292C57.5963 75.4292 60.2846 63.2264 51.7868 47.9668L51.9918 42.4069L47.7315 40L46 46.4504Z" fill="#0A73E2"/>
<path d="M51.6473 34H48.7005L48 39.3663L53 43L51.6473 34V34Z" fill="#E8F5FF"/>
<path d="M57.1132 13.2259C57.3313 14.22 57.3313 15.2493 57.1132 16.2435C56.8221 17.1609 56.2884 18.4404 56.6037 18.9473C57.9056 20.5442 59.0434 22.2668 60 24.0894C60 24.8861 59.3207 25.1999 58.6658 25.3206C58.3459 25.3855 58.0215 25.4258 57.6954 25.4413V26.9381C57.686 27.3364 57.5776 27.7262 57.38 28.0727C56.923 28.7137 56.6849 29.4838 56.7008 30.2695C56.9362 31.7418 56.1223 33.1815 54.7358 33.7459C52.8436 34.3735 47.6037 33.8666 42.0484 31.9111C38.3771 30.5122 34.9663 28.5132 31.9566 25.9966C31.5578 24.5506 30.9706 23.1628 30.21 21.8684C29.1426 20.2268 24.8972 11.3911 32.1264 4.48676C39.3556 -2.41762 55.5849 1.15528 57.1132 13.2259Z" fill="#FFCDA8"/>
<path d="M37.4804 27.7576C35.8054 26.9685 34.4753 25.5985 33.7383 23.903C33.9363 22.132 34.4205 20.4046 35.172 18.7879L33.6654 16L29 21.0667L29.3402 21.6485C30.1021 22.9483 30.6903 24.3419 31.0897 25.7939C34.1044 28.3212 37.5208 30.3285 41.1981 31.7333L42 32C40.6026 30.3874 39.6261 28.4554 39.157 26.3758C39.157 26.3758 39.0598 28.4848 37.4804 27.7576Z" fill="#D9A782"/>
<path d="M55.9893 6.89567C55.9893 7.9446 56.2315 10.8666 54.4149 11.5908C52.5982 12.3151 48.4563 12.1653 46.8334 13.0893C45.2106 14.0134 46.6397 15.5867 45.3317 16.8854C44.0237 18.1841 45.0895 21.8803 43.9268 23.0291C42.7642 24.1779 38.7192 22.3298 38.7192 22.3298C38.7192 22.3298 35.0617 21.2809 34.6984 23.4786C34.2719 24.986 33.2773 26.2543 31.9371 27C31.9371 27 29.8298 23.4287 28.7883 21.7054C27.7467 19.9822 23.9439 9.21829 32.1551 2.77491C40.3662 -3.66846 55.9893 2.55014 55.9893 6.89567Z" fill="#563317"/>
<path d="M30.8298 33C30.8298 33 54.7548 50.5017 57 82C57 82 50.8258 65.7397 43.9266 58.4128V52.1083H39.3895L28 36.7486L30.8298 33Z" fill="#4C64A1"/>
<path d="M30 33.5776L31.2 30C36.2215 34.0458 41.9218 37.0504 48 38.8552L46.608 47L30 33.5776Z" fill="#E8F5FF"/>
<path d="M61.9888 51.3533L58.453 48.34L59.8481 43.6365C57.7391 39.5205 55.2418 35.6233 52.3915 32L49 32.392L50.2748 34.1068C50.2748 34.1068 62.6382 51.8922 56.8895 82C56.8895 81.951 62.2774 65.1455 61.9888 51.3533Z" fill="#4C64A1"/>
<path d="M172 47.3929L167.861 49.564C164.315 58.6361 162.342 68.2248 162.023 77.9339L160.939 83L159.437 76.4141C159.437 76.4141 156.53 64.2074 165.718 48.9851L165.497 43.4124L170.079 41L172 47.3929Z" fill="#B00052"/>
<path d="M165.353 35H168.324L169 40.3663L164 44L165.353 35V35Z" fill="#E8F5FF"/>
<path d="M188.005 34C188.005 34 163.319 51.493 161 83C161 83 167.377 66.7721 174.502 59.4489V53.0988H179.309L191 37.7224L188.005 34Z" fill="#305175"/>
<path d="M187 35.5776L185.822 32C180.785 36.0293 175.08 39.0323 169 40.8552L170.394 49L187 35.5776Z" fill="#E8F5FF"/>
<path d="M156.009 52.4023L159.546 49.3645L158.15 44.6365C160.27 40.5265 162.767 36.6303 165.608 33L169 33.392L167.725 35.1068C167.725 35.1068 155.312 52.8922 161.133 83C161.133 83 155.745 66.1945 156.009 52.4023Z" fill="#305175"/>
<path d="M57.9336 25.8304C56.9614 25.9654 56.031 26.3184 55.21 26.8638C54.239 27.6328 54.5469 29.7476 52.2022 29.6515C48.4744 28.7747 45.6168 25.7334 44.9314 21.9132L41 21C41 21 43.3683 31.7663 48.4603 33.833C50.2602 34.554 56.1573 35.8517 57.1521 34.1935C57.6694 32.8814 57.5915 31.4047 56.9389 30.1562L55.5889 29.7716C56.3612 29.2686 57.0761 28.6803 57.7205 28.0173C57.9957 27.3239 58.0696 26.5651 57.9336 25.8304V25.8304Z" fill="#563317"/>
<path d="M90.817 81.5675C91.061 85.3743 91.061 89.1932 90.817 93C90.817 93 61.1447 89.7579 55.432 89.3192C49.7193 88.8804 27.9532 74.9859 25.1571 71.7926C22.361 68.5993 13.105 62.5052 15.3467 54.461C17.5884 46.4168 24.217 44.0767 30.5323 51.4383C36.8477 58.8 57.3604 76.0584 57.3604 76.0584L90.817 81.5675Z" fill="#4C64A1"/>
<path d="M33 103.871L47.7334 103L48 111L47.0307 104.123L33 103.871V103.871Z" fill="#263E7B"/>
<path d="M160.886 15.2494C160.68 16.2454 160.68 17.2726 160.886 18.2685C161.176 19.1622 161.734 20.4664 161.395 20.9736C160.089 22.5597 158.952 24.2755 158 26.094C158 26.8669 158.679 27.2051 159.358 27.3258C159.673 27.3508 159.989 27.3508 160.304 27.3258V28.8233C160.32 29.2239 160.437 29.614 160.643 29.9585C161.108 30.5946 161.339 31.3706 161.298 32.1564C161.003 33.6636 161.828 35.1661 163.262 35.731C165.177 36.3831 170.391 35.8759 175.944 33.9196C179.623 32.5134 183.04 30.5052 186.055 27.978C186.442 26.5388 187.021 25.1578 187.777 23.872C188.844 22.2296 193.111 13.3897 185.885 6.48196C178.659 -0.42575 162.413 3.17302 160.886 15.2494Z" fill="#FFCDA8"/>
<path d="M179.544 29.7576C181.209 28.9543 182.534 27.5887 183.286 25.903C183.082 24.1226 182.589 22.3869 181.828 20.7636L183.335 18L188 23.0667C187.899 23.2675 187.785 23.4619 187.66 23.6485C186.903 24.9391 186.322 26.3252 185.935 27.7697C182.913 30.3063 179.489 32.3219 175.802 33.7333L175 34C176.397 32.3874 177.374 30.4554 177.843 28.3758C177.843 28.3758 177.964 30.4848 179.544 29.7576Z" fill="#D9A782"/>
<path d="M163.011 8.02788C163.011 9.10004 162.768 11.9924 164.566 12.7404C166.365 13.4884 170.545 13.3139 172.197 14.2364C173.85 15.159 172.368 16.7298 173.704 18.0264C175.041 19.323 173.947 23.0132 175.089 24.1602C176.232 25.3071 180.485 23.3373 180.485 23.3373C180.485 23.3373 184.154 22.3151 184.519 24.5092C184.953 26.0049 185.95 27.2613 187.289 28L190.206 22.714C191.251 20.9936 195.066 10.3966 186.828 3.81404C178.589 -2.76853 163.011 3.68937 163.011 8.02788Z" fill="#563317"/>
<path d="M202 61.6669L196.087 60C191.013 63.0072 187.588 68.2374 186.808 74.1686C185.462 83.0668 185.173 116.821 182 133C186.01 132.429 189.935 131.351 193.683 129.789C194.692 118.317 193.274 103.315 192.144 99.8828C191.014 96.451 192.337 86.8664 194.548 81.2283C197.446 74.8799 199.936 68.3456 202 61.6669Z" fill="#16375B"/>
<path d="M192.175 126L192 127.201L201.85 131L202 129.578C197.5 128.108 193.175 126.392 192.175 126Z" fill="#E2E9ED"/>
<path d="M191.519 127C189.764 127.711 188.214 128.872 187.015 130.374C185.296 132.748 180.72 139.445 182.342 139.745C183.965 140.045 186.749 135.871 187.766 135.596C188.783 135.322 190.187 137.096 190.187 138.82C189.501 141.07 188.197 143.067 186.434 144.568C185.514 145.292 183.626 145.917 184.279 146.642C184.933 147.367 187.282 146.792 189.388 146.642C192.019 146.084 194.381 144.6 196.07 142.444C197.137 140.62 197.952 138.652 198.492 136.596C198.768 134.432 198.938 132.255 199 130.074L191.519 127Z" fill="#FFCDA8"/>
<path d="M195.077 140.784C194.487 140.784 193.564 142.134 192.513 143.072C191.462 144.01 189.256 145.222 188 146L190.231 145.794C193.017 145.283 195.519 143.925 197.308 141.951C197.983 141.021 198.55 140.033 199 139C197.728 139.655 196.418 140.25 195.077 140.784V140.784Z" fill="#D9A782"/>
<path d="M190 64.8429C190 60.5541 191.512 52.1459 194.267 50.0863C197.023 48.0267 204.802 47.857 205.753 59.1244C206.288 71.8212 205.954 84.5395 204.753 97.1913C204.046 104.679 202.314 130 202.314 130L191.512 126.026C191.512 126.026 191.268 107.417 191.512 102.159C191.756 96.9005 190 68.8653 190 64.8429Z" fill="#234468"/>
<path d="M142.2 66.4269C145.923 61.8911 148.793 56.681 150.663 51.063C152.108 46.4657 153.223 41.7654 154 37H153.285C153.285 37 142.439 52.2902 137.838 60.8311C135.479 65.5307 132.238 69.7018 128.303 73.1025L114 80.6371C115.048 82.9966 115.847 85.465 116.384 88C122.668 85.0546 128.538 81.2488 133.833 76.6858C134.906 75.5813 135.859 74.5751 137.194 76.2194C138.529 77.8638 141.271 76.6858 141.271 73.078C141.271 69.4702 140.841 67.6049 142.2 66.4269Z" fill="#234468"/>
<path d="M53 211.585C52.9407 210.653 52.4631 209.802 51.7067 209.28L1.29327 179.176C0.574785 178.734 0 179.176 0 179.936V221.513C0.0557041 222.446 0.534142 223.299 1.29327 223.818L51.7067 253.824C52.4013 254.266 53 253.824 53 253.064V211.585Z" fill="url(#paint0_linear)"/>
<path d="M64 206.043C63.9555 205.12 63.4731 204.275 62.7035 203.771L12.2843 174.17C11.9157 173.943 11.4524 173.943 11.0838 174.17L2.03239 179.462L1 180.114C1.25928 179.995 1.55703 179.995 1.81631 180.114L52.3556 209.788C53.1138 210.302 53.5926 211.141 53.6521 212.06V242.41V242.41V252.946C53.6521 253.743 53.0998 254.082 52.4276 253.743V253.743C53.1918 254.086 54.0643 254.086 54.8285 253.743L62.5835 249.225C63.3298 248.744 63.8095 247.939 63.88 247.05V247.05V247.05L64 206.043Z" fill="url(#paint1_linear)"/>
<path opacity="0.5" d="M52.3773 208.763L2.16929 179H1.97839L1 179.536V179.536C1.2577 179.416 1.55364 179.416 1.81135 179.536L52.0432 209.445C52.7968 209.963 53.2727 210.809 53.3318 211.734V252.944C53.3318 253.748 52.7829 254.089 52.1148 253.748V253.748C52.6165 253.975 53.1711 254.051 53.7136 253.967C53.9033 253.652 54.0025 253.289 54 252.92V211.734C53.9798 210.529 53.3709 209.414 52.3773 208.763Z" fill="url(#paint2_linear)"/>
<g style="mix-blend-mode:multiply" opacity="0.5">
<path d="M60 250.71V208.917C59.9458 207.509 59.2189 206.217 58.0539 205.458L8.37974 176L8 176.218L57.8403 205.773C58.7417 206.391 59.3113 207.4 59.3829 208.506L59.5253 243.914V251L60 250.71Z" fill="#2E373A"/>
</g>
<path d="M56 201.938L51 205V204.09L56 201V201.938V201.938Z" fill="url(#paint3_linear)"/>
<path d="M51.94 203.86V204.85L49.06 203.14V202.15L51.94 203.86V203.86Z" fill="url(#paint4_linear)"/>
<path d="M56 201.333L52 204L50 202.643L54 200L56 201.333V201.333Z" fill="url(#paint5_linear)"/>
<path d="M17 179.938L12 183V182.062L17 179V179.938V179.938Z" fill="url(#paint6_linear)"/>
<path d="M12.94 181.83V182.85L10.06 181.14V180.15L12.94 181.83V181.83Z" fill="url(#paint7_linear)"/>
<path d="M17 179.357L12.3253 182L10 180.667L14.6747 178L17 179.357V179.357Z" fill="url(#paint8_linear)"/>
<path d="M38.8286 195L42 197.099L39.1714 199L36 196.877L38.8286 195V195Z" fill="url(#paint9_linear)"/>
<path d="M37.585 193.952L39.295 193C39.595 193 39.805 193 39.805 193.288V194.529L37.195 196V194.731C37.2011 194.429 37.3435 194.145 37.585 193.952Z" fill="url(#paint10_linear)"/>
<path d="M39.485 194.485L39.515 194.515V194.515L39.485 194.485V194.485Z" fill="url(#paint11_linear)"/>
<path d="M36.5402 193.876L38.1602 193.043C38.4598 192.935 38.8026 193.037 38.9702 193.285L38.6702 193.204L37.0802 194.037C36.7769 194.206 36.586 194.498 36.5702 194.817V196L36.0302 195.892V194.736C36.0211 194.39 36.2144 194.064 36.5402 193.876V193.876Z" fill="url(#paint12_linear)"/>
<path d="M23.8286 187L27 189.123L24.1714 191L21 188.901L23.8286 187V187Z" fill="url(#paint13_linear)"/>
<path d="M23.675 186.903L25.295 186C25.595 186 25.805 186 25.805 186.262V187.544L23.195 189V187.748C23.2042 187.407 23.3832 187.092 23.675 186.903V186.903Z" fill="url(#paint14_linear)"/>
<path d="M25.485 186.485L25.515 186.515V186.515L25.485 186.485V186.485Z" fill="url(#paint15_linear)"/>
<path d="M22.54 186.842L24.16 186.035C24.46 185.942 24.7948 186.039 24.97 186.269C24.97 186.269 24.73 186.269 24.55 186.269L22.93 187.128C22.6382 187.296 22.4592 187.578 22.45 187.882V189L22.03 188.792V187.648C22.0463 187.325 22.2348 187.027 22.54 186.842V186.842Z" fill="url(#paint16_linear)"/>
<path d="M24.9394 180.241L37.0606 186.935C38.2031 187.674 38.921 188.887 39 190.212V197L37.1333 196.064V190.961C37.077 189.936 36.519 188.997 35.6303 188.433L26.2727 183.214C25.4485 182.769 24.7697 183.214 24.7697 184.056V189.042L23 188.059V181.318C23 180.124 23.9939 179.679 24.9394 180.241Z" fill="url(#paint17_linear)"/>
<path d="M37.6392 186.767L25.3737 179.961C24.972 179.687 24.4526 179.633 24 179.819V179.819L25.4964 179.057C25.9219 178.938 26.38 179.007 26.7475 179.247L39.013 186.077C40.1805 186.81 40.9184 188.038 41 189.385V196.31L39.6017 197V190.099C39.5218 188.751 38.7954 187.518 37.6392 186.767V186.767Z" fill="url(#paint18_linear)"/>
<path d="M25.645 189V184.019C25.645 183.154 26.395 182.78 27.355 183.131C27.3404 183.201 27.3404 183.272 27.355 183.341V188.392L25.645 189Z" fill="url(#paint19_linear)"/>
<path d="M39.675 195.894L41.295 195C41.565 195 41.805 195 41.805 195.288V196.529L39.195 198V196.731C39.2042 196.394 39.3832 196.082 39.675 195.894V195.894Z" fill="url(#paint20_linear)"/>
<path d="M40.485 195.485L40.515 195.515V195.515L40.485 195.485V195.485Z" fill="url(#paint21_linear)"/>
<path d="M39.5127 195.877L41.1327 195.064C41.4027 194.907 41.7327 195.064 41.9427 195.274C42.1527 195.483 41.7027 195.274 41.5227 195.274L39.9027 196.086C39.6108 196.257 39.4318 196.54 39.4227 196.847V198L39.0027 197.764V196.611C39.0327 196.31 39.2212 196.039 39.5127 195.877Z" fill="url(#paint22_linear)"/>
<path d="M25.7617 187.964L27.2917 187.087C27.3845 186.996 27.5302 186.974 27.6486 187.033C27.7671 187.092 27.8296 187.218 27.8017 187.342V188.586L25.1917 190V188.784C25.2204 188.437 25.4354 188.127 25.7617 187.964V187.964Z" fill="url(#paint23_linear)"/>
<path d="M25.54 187.83L27.16 187C27.4 187 27.76 187 27.97 187.241C27.8533 187.139 27.6667 187.139 27.55 187.241L25.93 188.071C25.6382 188.245 25.4592 188.535 25.45 188.848V190L25.03 189.786V188.607C25.064 188.294 25.2505 188.01 25.54 187.83V187.83Z" fill="url(#paint24_linear)"/>
<defs>
<linearGradient id="paint0_linear" x1="28.9175" y1="246.311" x2="55.9067" y2="222.388" gradientUnits="userSpaceOnUse">
<stop stop-color="#2E373A"/>
<stop offset="1" stop-color="#445154"/>
</linearGradient>
<linearGradient id="paint1_linear" x1="-10.8412" y1="196.137" x2="45.5459" y2="263.269" gradientUnits="userSpaceOnUse">
<stop stop-color="#455257"/>
<stop offset="0.54" stop-color="#2E373A"/>
<stop offset="0.65" stop-color="#1E2426"/>
</linearGradient>
<linearGradient id="paint2_linear" x1="-15.6319" y1="212.099" x2="53.7809" y2="257.745" gradientUnits="userSpaceOnUse">
<stop offset="0.01" stop-color="#8FACB5"/>
<stop offset="0.45" stop-color="#85A0A8"/>
<stop offset="1" stop-color="#2E373A"/>
</linearGradient>
<linearGradient id="paint3_linear" x1="59.0749" y1="205.657" x2="60.2683" y2="196.031" gradientUnits="userSpaceOnUse">
<stop offset="0.01" stop-color="#825200"/>
<stop offset="0.36" stop-color="#BDAE77"/>
<stop offset="0.75" stop-color="#572C00"/>
<stop offset="1" stop-color="#825200"/>
</linearGradient>
<linearGradient id="paint4_linear" x1="47.92" y1="202.18" x2="46.24" y2="207.58" gradientUnits="userSpaceOnUse">
<stop offset="0.01" stop-color="#B48025"/>
<stop offset="0.36" stop-color="#EFE0A5"/>
<stop offset="0.75" stop-color="#855E13"/>
<stop offset="1" stop-color="#B48025"/>
</linearGradient>
<linearGradient id="paint5_linear" x1="-1602.04" y1="203.529" x2="-1602.84" y2="197.122" gradientUnits="userSpaceOnUse">
<stop offset="0.01" stop-color="#B48025"/>
<stop offset="0.36" stop-color="#EFE0A5"/>
<stop offset="0.75" stop-color="#855E13"/>
<stop offset="1" stop-color="#B48025"/>
</linearGradient>
<linearGradient id="paint6_linear" x1="-2044.57" y1="183.653" x2="-2043.39" y2="174.028" gradientUnits="userSpaceOnUse">
<stop offset="0.01" stop-color="#825200"/>
<stop offset="0.36" stop-color="#BDAE77"/>
<stop offset="0.75" stop-color="#572C00"/>
<stop offset="1" stop-color="#825200"/>
</linearGradient>
<linearGradient id="paint7_linear" x1="-2381.94" y1="180.165" x2="-2383.65" y2="185.595" gradientUnits="userSpaceOnUse">
<stop offset="0.01" stop-color="#B48025"/>
<stop offset="0.36" stop-color="#EFE0A5"/>
<stop offset="0.75" stop-color="#855E13"/>
<stop offset="1" stop-color="#B48025"/>
</linearGradient>
<linearGradient id="paint8_linear" x1="-1910.66" y1="181.555" x2="-1911.35" y2="175.122" gradientUnits="userSpaceOnUse">
<stop offset="0.01" stop-color="#B48025"/>
<stop offset="0.36" stop-color="#EFE0A5"/>
<stop offset="0.75" stop-color="#855E13"/>
<stop offset="1" stop-color="#B48025"/>
</linearGradient>
<linearGradient id="paint9_linear" x1="48.3971" y1="199.079" x2="46.9608" y2="187.505" gradientUnits="userSpaceOnUse">
<stop offset="0.01" stop-color="#B48025"/>
<stop offset="0.36" stop-color="#EFE0A5"/>
<stop offset="0.75" stop-color="#855E13"/>
<stop offset="1" stop-color="#B48025"/>
</linearGradient>
<linearGradient id="paint10_linear" x1="40.1108" y1="198.332" x2="45.1208" y2="192.62" gradientUnits="userSpaceOnUse">
<stop offset="0.01" stop-color="#825200"/>
<stop offset="0.36" stop-color="#BDAE77"/>
<stop offset="0.75" stop-color="#572C00"/>
<stop offset="1" stop-color="#825200"/>
</linearGradient>
<linearGradient id="paint11_linear" x1="36.83" y1="191.305" x2="31.97" y2="197.815" gradientUnits="userSpaceOnUse">
<stop offset="0.01" stop-color="#B48025"/>
<stop offset="0.36" stop-color="#EFE0A5"/>
<stop offset="0.75" stop-color="#855E13"/>
<stop offset="1" stop-color="#B48025"/>
</linearGradient>
<linearGradient id="paint12_linear" x1="35.3872" y1="188.949" x2="29.2972" y2="196.235" gradientUnits="userSpaceOnUse">
<stop offset="0.01" stop-color="#B48025"/>
<stop offset="0.36" stop-color="#EFE0A5"/>
<stop offset="0.75" stop-color="#855E13"/>
<stop offset="1" stop-color="#B48025"/>
</linearGradient>
<linearGradient id="paint13_linear" x1="33.3971" y1="191.079" x2="31.9608" y2="179.505" gradientUnits="userSpaceOnUse">
<stop offset="0.01" stop-color="#B48025"/>
<stop offset="0.36" stop-color="#EFE0A5"/>
<stop offset="0.75" stop-color="#855E13"/>
<stop offset="1" stop-color="#B48025"/>
</linearGradient>
<linearGradient id="paint14_linear" x1="26.2139" y1="191.229" x2="31.2539" y2="185.491" gradientUnits="userSpaceOnUse">
<stop offset="0.01" stop-color="#825200"/>
<stop offset="0.36" stop-color="#BDAE77"/>
<stop offset="0.75" stop-color="#572C00"/>
<stop offset="1" stop-color="#825200"/>
</linearGradient>
<linearGradient id="paint15_linear" x1="22.755" y1="183.23" x2="17.805" y2="189.89" gradientUnits="userSpaceOnUse">
<stop offset="0.01" stop-color="#B48025"/>
<stop offset="0.36" stop-color="#EFE0A5"/>
<stop offset="0.75" stop-color="#855E13"/>
<stop offset="1" stop-color="#B48025"/>
</linearGradient>
<linearGradient id="paint16_linear" x1="21.4932" y1="181.976" x2="15.4032" y2="189.05" gradientUnits="userSpaceOnUse">
<stop offset="0.01" stop-color="#B48025"/>
<stop offset="0.36" stop-color="#EFE0A5"/>
<stop offset="0.75" stop-color="#855E13"/>
<stop offset="1" stop-color="#B48025"/>
</linearGradient>
<linearGradient id="paint17_linear" x1="35.2913" y1="191.336" x2="35.2913" y2="182.114" gradientUnits="userSpaceOnUse">
<stop stop-color="#3B4447"/>
<stop offset="1" stop-color="#515E61"/>
</linearGradient>
<linearGradient id="paint18_linear" x1="18.9192" y1="185.852" x2="35.1584" y2="202.178" gradientUnits="userSpaceOnUse">
<stop stop-color="#455257"/>
<stop offset="0.54" stop-color="#2E373A"/>
<stop offset="0.65" stop-color="#1E2426"/>
</linearGradient>
<linearGradient id="paint19_linear" x1="22.269" y1="171.884" x2="21.4304" y2="189.438" gradientUnits="userSpaceOnUse">
<stop stop-color="#455257"/>
<stop offset="0.54" stop-color="#2E373A"/>
<stop offset="0.65" stop-color="#1E2426"/>
</linearGradient>
<linearGradient id="paint20_linear" x1="42.2308" y1="200.274" x2="47.2408" y2="194.563" gradientUnits="userSpaceOnUse">
<stop offset="0.01" stop-color="#825200"/>
<stop offset="0.36" stop-color="#BDAE77"/>
<stop offset="0.75" stop-color="#572C00"/>
<stop offset="1" stop-color="#825200"/>
</linearGradient>
<linearGradient id="paint21_linear" x1="37.62" y1="192.065" x2="32.4" y2="199.055" gradientUnits="userSpaceOnUse">
<stop offset="0.01" stop-color="#B48025"/>
<stop offset="0.36" stop-color="#EFE0A5"/>
<stop offset="0.75" stop-color="#855E13"/>
<stop offset="1" stop-color="#B48025"/>
</linearGradient>
<linearGradient id="paint22_linear" x1="38.4505" y1="190.997" x2="32.3605" y2="198.101" gradientUnits="userSpaceOnUse">
<stop offset="0.01" stop-color="#B48025"/>
<stop offset="0.36" stop-color="#EFE0A5"/>
<stop offset="0.75" stop-color="#855E13"/>
<stop offset="1" stop-color="#B48025"/>
</linearGradient>
<linearGradient id="paint23_linear" x1="28.2173" y1="192.294" x2="33.2573" y2="186.722" gradientUnits="userSpaceOnUse">
<stop offset="0.01" stop-color="#825200"/>
<stop offset="0.36" stop-color="#BDAE77"/>
<stop offset="0.75" stop-color="#572C00"/>
<stop offset="1" stop-color="#825200"/>
</linearGradient>
<linearGradient id="paint24_linear" x1="24.3871" y1="182.91" x2="18.2971" y2="190.196" gradientUnits="userSpaceOnUse">
<stop offset="0.01" stop-color="#B48025"/>
<stop offset="0.36" stop-color="#EFE0A5"/>
<stop offset="0.75" stop-color="#855E13"/>
<stop offset="1" stop-color="#B48025"/>
</linearGradient>
</defs>
</svg>
