<svg width="300" height="304" viewBox="0 0 300 304" fill="none" xmlns="http://www.w3.org/2000/svg">
<path d="M165.195 12.153C165.195 6.57789 169.147 4.30027 173.974 7.05381L251.354 51.7309C256.173 54.5099 260.125 61.3513 260.125 66.9178V295.3C260.125 300.875 256.181 303.153 251.354 300.399L174.017 255.731C169.181 252.943 165.238 246.102 165.238 240.535L165.195 12.153Z" fill="#D4DBDF"/>
<path d="M260.116 295.3V66.952C260.116 61.3854 256.164 54.5441 251.346 51.7651L173.975 7.088C171.637 5.74522 169.521 5.59225 167.941 6.40811L178.351 0.459103C179.907 -0.263277 181.963 -0.0678095 184.215 1.23247L261.595 45.8925C266.422 48.6801 270.365 55.5214 270.365 61.088V289.402C270.365 292.232 269.346 294.213 267.714 295.113L258.026 300.638C259.326 299.618 260.116 297.791 260.116 295.3Z" fill="#95C4DF"/>
<path d="M165.195 12.153V232.921L260.116 287.728V66.9519C260.11 66.4831 260.079 66.0151 260.023 65.5496L165.289 10.8442C165.231 11.2782 165.2 11.7153 165.195 12.153H165.195Z" fill="url(#paint0_linear)"/>
<path d="M265.198 284.609V62.4814L260.057 65.439C260.12 65.9294 260.154 66.4232 260.159 66.9177V287.541L265.198 284.609Z" fill="url(#paint1_linear)"/>
<path d="M259.207 65.0566V287.184L260.15 287.728V66.9518C260.144 66.4831 260.113 66.015 260.057 65.5496L259.207 65.0566Z" fill="url(#paint2_linear)"/>
<path d="M265.198 284.609V62.4814L260.057 65.439C260.12 65.9294 260.154 66.4232 260.159 66.9177V287.541L265.198 284.609Z" fill="url(#paint3_linear)"/>
<path d="M259.207 65.0566V287.184L260.15 287.728V66.9518C260.144 66.4831 260.113 66.015 260.057 65.5496L259.207 65.0566Z" fill="url(#paint4_linear)"/>
<path d="M165.195 12.153V232.921L260.116 287.728V66.9519C260.11 66.4831 260.079 66.0151 260.023 65.5496L165.289 10.8442C165.231 11.2782 165.2 11.7153 165.195 12.153H165.195Z" fill="url(#paint5_linear)"/>
<path d="M299.66 114.926C299.66 118.326 297.272 119.711 294.323 118.011C291.166 115.965 289.172 112.538 288.952 108.782C288.952 105.382 291.349 103.997 294.298 105.697C297.452 107.744 299.444 111.171 299.66 114.926Z" fill="#48D3F0"/>
<path opacity="0.8" d="M299.66 137.21C299.66 140.609 297.272 141.994 294.323 140.286C291.158 138.239 289.162 134.803 288.952 131.04C288.952 127.64 291.349 126.255 294.298 127.955C297.46 130.006 299.453 133.445 299.66 137.21Z" fill="#48D3F0"/>
<path opacity="0.6" d="M299.66 159.484C299.66 162.884 297.272 164.269 294.323 162.569C291.158 160.519 289.162 157.08 288.952 153.314C288.952 149.915 291.349 148.53 294.298 150.238C297.46 152.286 299.453 155.722 299.66 159.484Z" fill="#48D3F0"/>
<path opacity="0.4" d="M299.66 181.768C299.66 185.167 297.272 186.552 294.323 184.853C291.159 182.801 289.164 179.363 288.952 175.598C288.952 172.198 291.349 170.813 294.298 172.513C297.46 174.564 299.453 178.003 299.66 181.768Z" fill="#48D3F0"/>
<path opacity="0.2" d="M299.66 204.042C299.66 207.442 297.272 208.827 294.323 207.127C291.158 205.077 289.162 201.638 288.952 197.872C288.952 194.473 291.349 193.088 294.298 194.796C297.46 196.844 299.453 200.28 299.66 204.042Z" fill="#48D3F0"/>
<path opacity="0.1" d="M299.66 226.326C299.66 229.725 297.272 231.11 294.323 229.411C291.159 227.359 289.164 223.921 288.952 220.156C288.952 216.756 291.349 215.371 294.298 217.071C297.459 219.123 299.452 222.562 299.66 226.326Z" fill="#48D3F0"/>
<g style="mix-blend-mode:multiply" opacity="0.3">
<path d="M174.858 180.85L250.496 224.507C254.745 226.972 258.263 233.006 258.263 237.952V274.861C258.263 279.79 254.771 281.813 250.496 279.349L236.898 271.504V291.502L220.045 261.757L174.867 235.666C170.618 233.201 167.099 227.167 167.099 222.221V185.337C167.091 180.4 170.584 178.385 174.858 180.85Z" fill="#00258A"/>
</g>
<g style="mix-blend-mode:multiply" opacity="0.2">
<path d="M259.649 82.3852L180.077 36.4419V70.3937L259.649 116.329V82.3852Z" fill="#00258A"/>
</g>
<path opacity="0.4" d="M176.133 38.6602V72.612L173.822 73.9463V39.9944L176.133 38.6602Z" fill="#7CFFFF"/>
<path opacity="0.8" d="M276.646 96.697L176.133 38.6602L173.822 39.9944L274.334 98.0313L276.646 96.697Z" fill="#7CFFFF"/>
<path opacity="0.4" d="M276.646 130.64L176.133 72.6118L173.822 73.9461L274.334 131.974L276.646 130.64Z" fill="#7CFFFF"/>
<path opacity="0.8" d="M276.646 130.64V96.6968L274.334 98.0311V131.974L276.646 130.64Z" fill="#7CFFFF"/>
<path opacity="0.4" d="M274.334 98.031L173.822 39.9941V73.946L274.334 131.974V98.031Z" fill="#7CFFFF"/>
<path d="M178.096 66.544C178.243 69.1319 179.609 71.4968 181.776 72.918L194.932 80.5072C196.955 81.68 198.612 80.7282 198.612 78.3911V63.1956C198.465 60.6077 197.1 58.2428 194.932 56.8217L181.776 49.2239C179.754 48.0596 178.096 49.0115 178.096 51.3486V66.544Z" fill="#FFB911"/>
<path opacity="0.8" d="M268.479 100.997V103.496L206.031 67.4447V64.9546L268.479 100.997Z" fill="#7CFFFF"/>
<path opacity="0.8" d="M268.479 108.289V110.779L206.031 74.7279V72.2378L268.479 108.289Z" fill="#7CFFFF"/>
<path opacity="0.8" d="M230.329 93.5439V96.0424L206.031 82.0113V79.5127L230.329 93.5439Z" fill="#7CFFFF"/>
<g style="mix-blend-mode:multiply" opacity="0.2">
<path d="M259.649 130.147L180.077 84.2124V118.156L259.649 164.099V130.147Z" fill="#00258A"/>
</g>
<path opacity="0.4" d="M176.133 86.4307V120.383L173.822 121.717V87.7649L176.133 86.4307Z" fill="#7CFFFF"/>
<path opacity="0.8" d="M276.646 144.467L176.133 86.4307L173.822 87.7649L274.334 145.802L276.646 144.467Z" fill="#7CFFFF"/>
<path opacity="0.4" d="M276.646 178.411L176.133 120.382L173.822 121.717L274.334 179.745L276.646 178.411Z" fill="#7CFFFF"/>
<path opacity="0.8" d="M276.646 178.411V144.467L274.334 145.802V179.745L276.646 178.411Z" fill="#7CFFFF"/>
<path opacity="0.4" d="M274.334 145.801L173.822 87.7646V121.716L274.334 179.745V145.801Z" fill="#7CFFFF"/>
<path d="M178.096 114.315C178.24 116.901 179.607 119.264 181.776 120.68L194.932 128.278C196.955 129.451 198.612 128.49 198.612 126.162V110.966C198.465 108.378 197.1 106.013 194.932 104.592L181.776 96.9944C179.754 95.8301 178.096 96.782 178.096 99.1191V114.315Z" fill="#00B880"/>
<path opacity="0.8" d="M268.479 148.768V151.266L206.031 115.215V112.725L268.479 148.768Z" fill="#7CFFFF"/>
<path opacity="0.8" d="M268.479 156.059V158.549L206.031 122.498V120.008L268.479 156.059Z" fill="#7CFFFF"/>
<path opacity="0.8" d="M230.329 141.314V143.813L206.031 129.782V127.283L230.329 141.314Z" fill="#7CFFFF"/>
<g style="mix-blend-mode:multiply" opacity="0.2">
<path d="M259.649 177.918L180.077 131.975V165.926L259.649 211.87V177.918Z" fill="#00258A"/>
</g>
<path opacity="0.4" d="M176.133 134.201V168.153L173.822 169.487V135.535L176.133 134.201Z" fill="#7CFFFF"/>
<path opacity="0.8" d="M276.646 192.229L176.133 134.201L173.822 135.535L274.334 193.564L276.646 192.229Z" fill="#7CFFFF"/>
<path opacity="0.4" d="M276.646 226.181L176.133 168.153L173.822 169.487L274.334 227.515L276.646 226.181Z" fill="#7CFFFF"/>
<path opacity="0.8" d="M276.646 226.181V192.229L274.334 193.564V227.516L276.646 226.181Z" fill="#7CFFFF"/>
<path opacity="0.4" d="M274.334 193.564L173.822 135.536V169.487L274.334 227.516V193.564Z" fill="#7CFFFF"/>
<path d="M178.096 162.085C178.24 164.671 179.607 167.035 181.776 168.45L194.932 176.048C196.955 177.221 198.612 176.261 198.612 173.924V158.737C198.468 156.148 197.102 153.782 194.932 152.363L181.776 144.765C179.754 143.601 178.096 144.552 178.096 146.89L178.096 162.085Z" fill="#4560F1"/>
<path opacity="0.8" d="M268.479 196.538V199.037L206.031 162.986V160.496L268.479 196.538Z" fill="#7CFFFF"/>
<path opacity="0.8" d="M268.479 203.83V206.311L206.031 170.269V167.779L268.479 203.83Z" fill="#7CFFFF"/>
<path opacity="0.8" d="M230.329 189.085V191.583L206.031 177.552V175.054L230.329 189.085Z" fill="#7CFFFF"/>
<path d="M156.272 191.966L231.909 235.615C236.159 238.088 239.677 244.113 239.677 249.068V285.977C239.677 290.907 236.184 292.929 231.909 290.456L218.312 282.62V302.635L201.467 272.89L156.28 246.799C152.031 244.334 148.513 238.3 148.513 233.354V196.453C148.504 191.516 151.997 189.518 156.272 191.966Z" fill="url(#paint6_linear)"/>
<path d="M239.66 285.977V249.068C239.66 244.139 236.167 238.088 231.892 235.615L156.255 191.966C154.19 190.768 152.312 190.64 150.909 191.371L156.093 188.252C157.504 187.402 159.493 187.538 161.601 188.779L237.238 232.428C241.487 234.892 245.006 240.926 245.006 245.873V282.782C245.006 285.332 244.062 287.125 242.558 287.881L237.459 290.958C238.81 290.125 239.66 288.408 239.66 285.977Z" fill="url(#paint7_linear)"/>
<path d="M218.312 282.621L223.657 285.706V299.431L218.312 302.422V282.621Z" fill="#E76008"/>
<path d="M199.258 246.009C199.425 248.98 201.005 251.691 203.507 253.3C205.827 254.643 207.714 253.555 207.714 250.87C207.554 247.91 205.991 245.204 203.507 243.587C201.136 242.21 199.258 243.332 199.258 246.009Z" fill="white"/>
<path d="M183.476 236.906C183.645 239.874 185.225 242.582 187.725 244.19C190.045 245.532 191.924 244.445 191.924 241.759C191.756 238.803 190.199 236.102 187.725 234.476C185.363 233.133 183.476 234.221 183.476 236.906Z" fill="white"/>
<path d="M167.703 227.762C167.869 230.722 169.43 233.428 171.909 235.054C174.238 236.388 176.159 235.301 176.159 232.623C175.995 229.652 174.414 226.939 171.909 225.332C169.589 224.023 167.703 225.111 167.703 227.762Z" fill="white"/>
<path d="M190.538 68.4902L188.354 69.7565L186.17 65.9746C184.912 66.1106 184.079 67.2069 184.079 69.0086L192.629 73.9378C192.531 71.9454 191.799 70.0365 190.538 68.4902Z" fill="white"/>
<path d="M188.354 66.0851C190.054 67.0794 191.473 66.272 191.473 64.2834C191.355 62.0872 190.197 60.0792 188.354 58.8783C186.654 57.8839 185.235 58.6913 185.235 60.68C185.353 62.8761 186.512 64.8842 188.354 66.0851Z" fill="white"/>
<path d="M190.538 115.751L188.354 117.008L186.17 113.227C184.912 113.371 184.079 114.459 184.079 116.269L192.629 121.207C192.533 119.211 191.8 117.299 190.538 115.751Z" fill="white"/>
<path d="M188.354 113.346C190.054 114.34 191.473 113.533 191.473 111.544C191.355 109.348 190.197 107.34 188.354 106.139C186.654 105.145 185.235 105.952 185.235 107.941C185.353 110.137 186.512 112.145 188.354 113.346Z" fill="white"/>
<path d="M190.538 162.79L188.354 164.023L186.17 160.241C184.912 160.377 184.079 161.473 184.079 163.275L192.629 168.272C192.538 166.268 191.805 164.346 190.538 162.79Z" fill="white"/>
<path d="M188.354 160.377C190.054 161.371 191.473 160.564 191.473 158.575C191.355 156.379 190.197 154.371 188.354 153.17C186.654 152.175 185.235 152.983 185.235 154.971C185.353 157.168 186.512 159.176 188.354 160.377Z" fill="white"/>
<path d="M138.365 31.4448C137.329 30.8499 135.901 30.9264 134.337 31.8358L86.8301 59.2607C83.4986 61.4366 81.4029 65.0693 81.187 69.0426L81.34 123.62C81.34 125.405 81.9774 126.654 82.9972 127.249L85.8102 128.881L86.0907 129.051L88.0624 130.19L88.6318 130.521C87.6119 129.926 86.9745 128.677 86.9745 126.892L86.8131 72.3145C87.0282 68.3389 89.1279 64.7047 92.4646 62.5326L139.963 35.1077C141.535 34.1984 142.963 34.1219 143.992 34.7168C142.116 33.6686 140.241 32.578 138.365 31.4448Z" fill="url(#paint8_linear)"/>
<path d="M145.649 38.3709C145.649 34.793 143.099 33.3312 139.963 35.1329L92.4645 62.5579C89.1278 64.7299 87.0281 68.3641 86.813 72.3397L86.9745 126.918C86.9745 130.504 89.524 131.957 92.6515 130.164L140.159 102.739C143.489 100.559 145.584 96.9239 145.802 92.9488L145.649 38.3709Z" fill="url(#paint9_linear)"/>
<path d="M125.592 73.98L120.493 84.5947L111.034 76.0536L95.4476 108.535L114.204 97.6995L126.892 90.3737L137.176 84.4417L125.592 73.98Z" fill="white"/>
<path d="M124.581 69.1956C127.586 67.2407 129.48 63.9706 129.68 60.391C129.68 57.1446 127.402 55.8358 124.581 57.4505C121.573 59.4072 119.679 62.6809 119.482 66.2636C119.499 69.5015 121.776 70.8188 124.581 69.1956Z" fill="white"/>
<path d="M109.351 112.572C108.314 111.969 106.887 112.054 105.323 112.955L57.7904 140.379C54.4567 142.554 52.3579 146.187 52.1388 150.161L52.2918 204.748C52.2918 206.524 52.9292 207.782 53.9915 208.368L56.813 210.008L57.0935 210.17L59.0566 211.317L59.626 211.64C58.6062 211.054 57.9263 209.796 57.9263 208.02L57.7904 153.433C57.998 149.447 60.1023 145.8 63.4504 143.626L110.949 116.201C112.521 115.292 113.949 115.215 114.977 115.819L109.351 112.572Z" fill="url(#paint10_linear)"/>
<path d="M110.949 116.227C114.068 114.425 116.626 115.887 116.635 119.465L116.788 174.051C116.576 178.025 114.479 181.66 111.145 183.833L63.6459 211.258C60.5269 213.051 57.9689 211.598 57.9604 208.02L57.7904 153.433C57.9981 149.447 60.1024 145.8 63.4505 143.626L110.949 116.227Z" fill="url(#paint11_linear)"/>
<path d="M72.3994 166.785V179.906L78.9433 176.133L87.4249 180.918V148.428L78.9433 163.011L72.3994 166.785Z" fill="white"/>
<path d="M96.6203 159.357C96.6203 155.83 94.9801 153.485 92.3286 153.238C91.8271 153.196 91.1813 153.765 90.8923 154.513C90.6033 155.261 90.7733 155.907 91.2747 155.949C93.2719 156.136 94.5212 157.904 94.5212 160.572C94.3674 163.642 93.229 166.58 91.2747 168.952C90.7865 169.447 90.6335 170.182 90.8838 170.83C91.0793 171.111 91.4362 171.119 91.8016 170.915C92.0033 170.791 92.1816 170.633 92.3286 170.448C94.9801 167.142 96.6203 162.892 96.6203 159.357Z" fill="white"/>
<path d="M95.626 146.779C95.1246 146.737 94.4787 147.306 94.1898 148.054C93.9008 148.802 94.0708 149.448 94.5722 149.49C97.9717 149.805 100.096 152.822 100.096 157.36C100.096 161.898 97.9802 167.354 94.5637 171.603C94.0823 172.102 93.9332 172.834 94.1813 173.482C94.3768 173.762 94.7337 173.771 95.0991 173.567C95.2977 173.442 95.4731 173.284 95.6175 173.099C99.6799 168 102.195 161.55 102.195 156.102C102.195 150.654 99.6799 147.153 95.626 146.779Z" fill="white"/>
<path d="M57.272 54.5356C56.2436 53.9407 54.8159 54.0172 53.2436 54.9266L5.74506 82.3515C2.41034 84.5255 0.311306 88.1586 0.0935059 92.1334L0.24648 146.711C0.24648 148.496 0.892373 149.745 1.9037 150.34L4.72523 151.98L5.00569 152.142L6.96886 153.289L7.53827 153.612C6.51844 153.017 5.83855 151.768 5.83855 149.983L5.68557 95.4053C5.8933 91.4297 7.99098 87.7935 11.3286 85.6235L58.8357 58.1985C60.3995 57.2892 61.8272 57.2127 62.8555 57.8076L57.272 54.5356Z" fill="url(#paint12_linear)"/>
<path d="M64.5892 61.4363C64.5892 57.8584 62.0397 56.3967 58.9037 58.1984L11.3966 85.6233C8.05894 87.7933 5.96126 91.4295 5.75354 95.4052L5.90651 149.983C5.90651 153.569 8.45609 155.023 11.5921 153.23L59.0652 125.779C62.3989 123.604 64.4976 119.972 64.7167 115.997L64.5892 61.4363Z" fill="url(#paint13_linear)"/>
<path d="M29.5836 93.4419V125.329L47.2862 99.1699L29.5836 93.4419Z" fill="white"/>
<defs>
<linearGradient id="paint0_linear" x1="94.3406" y1="257.066" x2="385.386" y2="365.774" gradientUnits="userSpaceOnUse">
<stop stop-color="#2580D3"/>
<stop offset="1" stop-color="#0A208F"/>
</linearGradient>
<linearGradient id="paint1_linear" x1="260.778" y1="19.9715" x2="260.778" y2="180.008" gradientUnits="userSpaceOnUse">
<stop stop-color="#FE9FEE"/>
<stop offset="1" stop-color="#E33CE3"/>
</linearGradient>
<linearGradient id="paint2_linear" x1="60.2696" y1="4407.36" x2="97.3299" y2="4407.37" gradientUnits="userSpaceOnUse">
<stop stop-color="#FE9FEE"/>
<stop offset="1" stop-color="#E33CE3"/>
</linearGradient>
<linearGradient id="paint3_linear" x1="72.2031" y1="19.9715" x2="72.2031" y2="180.008" gradientUnits="userSpaceOnUse">
<stop stop-color="#2580D3"/>
<stop offset="1" stop-color="#0A208F"/>
</linearGradient>
<linearGradient id="paint4_linear" x1="248.845" y1="4407.36" x2="285.905" y2="4407.37" gradientUnits="userSpaceOnUse">
<stop stop-color="#328DE0"/>
<stop offset="1" stop-color="#172D9C"/>
</linearGradient>
<linearGradient id="paint5_linear" x1="11.8196" y1="140.223" x2="374.044" y2="268.096" gradientUnits="userSpaceOnUse">
<stop stop-color="#2898F4"/>
<stop offset="0.15" stop-color="#2690F1"/>
<stop offset="0.37" stop-color="#207AEA"/>
<stop offset="0.66" stop-color="#1755DE"/>
<stop offset="0.98" stop-color="#0B23CD"/>
<stop offset="1" stop-color="#0A20CC"/>
</linearGradient>
<linearGradient id="paint6_linear" x1="169.139" y1="199.31" x2="136.363" y2="275.71" gradientUnits="userSpaceOnUse">
<stop stop-color="#FFE71F"/>
<stop offset="1" stop-color="#FF8602"/>
</linearGradient>
<linearGradient id="paint7_linear" x1="207.853" y1="248.509" x2="220.734" y2="264.213" gradientUnits="userSpaceOnUse">
<stop stop-color="#FFF78C"/>
<stop offset="1" stop-color="#E76008"/>
</linearGradient>
<linearGradient id="paint8_linear" x1="100.118" y1="59.0272" x2="80.1851" y2="69.0387" gradientUnits="userSpaceOnUse">
<stop stop-color="#F532FF"/>
<stop offset="1" stop-color="#A232FF"/>
</linearGradient>
<linearGradient id="paint9_linear" x1="205.9" y1="195.09" x2="140.441" y2="-42.3305" gradientUnits="userSpaceOnUse">
<stop stop-color="#C100FF"/>
<stop offset="1" stop-color="#6E00FF"/>
</linearGradient>
<linearGradient id="paint10_linear" x1="74.4032" y1="163.601" x2="81.9526" y2="156.783" gradientUnits="userSpaceOnUse">
<stop stop-color="#6D99FE"/>
<stop offset="1" stop-color="#98FFFE"/>
</linearGradient>
<linearGradient id="paint11_linear" x1="38.5904" y1="158.504" x2="107.123" y2="273.192" gradientUnits="userSpaceOnUse">
<stop stop-color="#2962FF"/>
<stop offset="1" stop-color="#29FFEE"/>
</linearGradient>
<linearGradient id="paint12_linear" x1="19.0287" y1="82.0844" x2="-0.904725" y2="92.0825" gradientUnits="userSpaceOnUse">
<stop stop-color="#FF9ED2"/>
<stop offset="1" stop-color="#D0202D"/>
</linearGradient>
<linearGradient id="paint13_linear" x1="124.782" y1="218.139" x2="59.2535" y2="-19.251" gradientUnits="userSpaceOnUse">
<stop stop-color="#F151A7"/>
<stop offset="1" stop-color="#D0202D"/>
</linearGradient>
</defs>
</svg>
