<svg width="250" height="299" viewBox="0 0 250 299" fill="none" xmlns="http://www.w3.org/2000/svg">
<path d="M151.868 233.445C151.868 233.445 147.093 233.445 144.367 233.445C141.642 233.445 138.167 234.737 138.042 236.626C137.917 238.516 138.817 239.999 141.492 241.769C143.536 243.557 146.224 244.517 148.993 244.448C152.518 244.448 154.243 244.639 155.643 245.859C157.043 247.079 158.143 248.968 160.643 249.59C163.143 250.212 167.969 249.829 168.919 246.911L167.844 241.984L151.868 233.445Z" fill="#3A2E52"/>
<path d="M138.142 237.304C138.292 238.872 139.292 240.175 141.592 241.72C143.636 243.523 146.324 244.492 149.093 244.422C152.618 244.422 154.343 244.615 155.743 245.846C157.143 247.077 158.243 248.983 160.743 249.61C163.243 250.238 167.769 249.876 168.919 247.197V247.776L168.769 248.09L168.919 248.814C167.969 251.758 163.243 252.144 160.643 251.517C158.043 250.889 157.093 249.104 155.643 247.752L155.818 246.884L155.643 246.763C154.243 245.532 152.518 245.363 148.993 245.363C146.221 245.424 143.533 244.447 141.492 242.637C138.817 240.851 137.917 239.379 138.042 237.473L138.142 237.304Z" fill="black"/>
<path d="M152.592 214.152C152.592 214.152 151.448 230.109 149.835 233.701C149.835 233.701 148.353 236.95 153.06 240.371C158.444 244.305 168.249 242.815 168.249 242.815L170.85 223.413L152.592 214.152Z" fill="#071E5C"/>
<path d="M153.792 214.152L170.849 223.353L168.413 242.781C166.259 243.1 164.076 243.174 161.906 243.001C161.614 237.52 160.639 223.989 158.543 221.395C157.111 219.855 155.388 218.615 153.475 217.749C153.694 215.62 153.792 214.152 153.792 214.152Z" fill="#001250"/>
<path d="M143.07 253.477C143.618 256.032 143.868 258.64 143.815 261.25C143.393 262.795 142.052 263.301 140.015 263.35C136.915 262.937 133.913 261.997 131.148 260.574C128.253 259.626 125.233 259.089 122.181 258.98C119.151 258.546 112.668 254.708 112.096 252.197C111.525 249.687 112.916 248.311 115.474 247.369C118.033 246.428 127.198 247.369 127.198 247.369L143.07 253.477Z" fill="#3A2E52"/>
<path d="M112.032 251.521C112.603 254.064 119.087 258.209 122.118 258.667C125.171 258.782 128.192 259.347 131.087 260.345C133.853 261.845 136.855 262.835 139.956 263.27C141.993 263.27 143.335 262.685 143.757 261.057C143.787 260.83 143.787 260.599 143.757 260.371C143.782 260.692 143.782 261.016 143.757 261.337C143.844 261.91 143.844 262.493 143.757 263.066C143.335 264.694 141.993 265.228 139.956 265.279C136.855 264.844 133.853 263.854 131.087 262.354C130.515 262.097 129.925 261.885 129.323 261.719L129.571 260.574C127.118 260.008 124.627 259.634 122.118 259.455C119.087 258.998 112.603 254.98 112.032 252.309C111.948 251.813 111.948 251.306 112.032 250.809C111.957 251.038 111.982 251.267 112.032 251.521Z" fill="black"/>
<path d="M121.622 200.647C127.577 204.759 133.823 208.445 140.31 211.678C140.31 211.678 140.31 228.46 141.193 237.947C142.075 247.433 142.857 255.177 142.857 255.177C142.857 255.177 135.644 259.46 128.784 256.547C126.972 256.003 125.457 254.763 124.579 253.105C123.702 251.448 123.536 249.512 124.118 247.732C125.052 235.681 122.202 211.08 121.622 200.647Z" fill="#142B69"/>
<path d="M135.815 256.597C135.694 247.833 135.329 226.888 134.212 221.565C133.275 216.367 131.407 211.39 128.7 206.883C128.058 205.867 127.621 204.731 127.413 203.541C133.241 207.255 140.405 210.968 140.405 210.968C140.405 210.968 140.405 227.655 141.254 237.088C142.104 246.52 142.857 254.22 142.857 254.22C140.687 255.48 138.294 256.287 135.815 256.597Z" fill="#001250"/>
<path d="M192.307 252.738C192.813 252.749 193.281 252.467 193.515 252.009C193.703 251.687 193.757 251.301 193.664 250.937C193.571 250.574 193.34 250.263 193.022 250.075L190.31 248.491C188.469 247.24 187.303 245.188 187.154 242.938V204.716C187.099 204.246 187.253 203.776 187.573 203.434C188.027 203.314 188.51 203.416 188.88 203.711L224.58 224.719C225.915 225.617 227.606 225.759 229.067 225.096C230.278 224.478 231.116 223.295 231.311 221.93L234.664 201.826C235.091 199.323 235.692 196.854 236.464 194.438L241.173 180.516C241.408 180.019 241.343 179.428 241.005 178.998C240.666 178.567 240.115 178.372 239.587 178.498C239.06 178.624 238.651 179.047 238.535 179.586L233.801 193.508C232.978 196.063 232.335 198.675 231.878 201.323L228.525 221.427C228.478 221.872 228.232 222.271 227.859 222.507C227.265 222.691 226.621 222.589 226.109 222.231L190.31 201.248C189.125 200.323 187.511 200.215 186.218 200.973C184.924 201.731 184.205 203.207 184.393 204.716V242.938C184.539 246.189 186.22 249.167 188.904 250.929L191.617 252.512C191.825 252.645 192.062 252.722 192.307 252.738Z" fill="#2173D6"/>
<path opacity="0.4" d="M1.66988 94.7668L0.260618 93.5713V256.366L1.66988 257.562V94.7668Z" fill="#07B0F7"/>
<path opacity="0.5" d="M162.162 0L0 93.3444L1.8159 94.5357L162.162 2.15926V0Z" fill="#07B0F7"/>
<path opacity="0.3" d="M162.162 1.9292L1.93042 94.6825V257.562L162.162 164.808V1.9292Z" fill="#07B0F7"/>
<path opacity="0.05" d="M67.5675 55.9497L1.93042 183.284V141.364L36.6809 73.958L67.5675 55.9497Z" fill="white"/>
<path opacity="0.05" d="M93.6293 42.4448L1.93042 218.011V195.211L76.5905 52.2484L93.6293 42.4448Z" fill="white"/>
<path opacity="0.4" d="M248.07 75.9193V214.152L163.127 164.867V1.9292L229.18 40.2206C239.953 45.8795 248.07 54.0065 248.07 75.9193Z" fill="#07B0F7"/>
<path opacity="0.5" d="M231.005 40.0218L163.127 0V2.17618L229.46 40.5971C240.278 46.2752 248.43 54.4296 248.43 76.4166V215.117L250 214.417V75.7162C249.9 53.7542 241.849 45.5998 231.005 40.0218Z" fill="#07B0F7"/>
<path opacity="0.05" d="M225.869 38.5607L162.162 160.132V118.465L209.079 28.9395L225.869 38.5607Z" fill="white"/>
<path opacity="0.05" d="M239.382 47.969L174.229 171.708L165.058 166.487L230.839 41.48C234.002 43.2025 236.883 45.3905 239.382 47.969Z" fill="white"/>
<path d="M235.521 132.157L193.05 157.009V218.976L235.521 194.124V132.157Z" fill="#95C4DF"/>
<path d="M120.656 115.758V177.388L192.085 218.975V157.345L120.656 115.758Z" fill="#5DA2D9"/>
<path d="M122.587 196.789L80.1157 221.641V283.607L122.587 258.755V196.789Z" fill="#95C4DF"/>
<path d="M12.5483 182.319V244.038L80.1159 283.607V221.888L12.5483 182.319Z" fill="#5DA2D9"/>
<path d="M163.706 81.9951L8.68726 171.653L80.4777 213.188L235.521 123.529L163.706 81.9951Z" fill="#B6DDF2"/>
<path d="M8.68726 171.708V180.072L80.1158 221.869V213.505L8.68726 171.708Z" fill="#5DA2D9"/>
<path d="M235.521 123.475L80.1157 213.522V221.869L235.521 131.823V123.475Z" fill="#95C4DF"/>
<g style="mix-blend-mode:multiply" opacity="0.4">
<path d="M80.6921 221.577L12.5483 182.219V185.406L80.6921 224.764V224.39L123.201 199.845V201.537L189.005 163.549L192.888 159.441L235.521 134.821V132.157L80.6921 221.577Z" fill="#95C4DF"/>
</g>
<path d="M142.857 129.673V132.161L102.904 155.309L77.22 140.43V137.967L117.148 114.793L142.857 129.673Z" fill="#D0F7FF"/>
<path d="M142.857 132.662L103.282 155.308V152.899L142.857 130.228V132.662Z" fill="#95C4DF"/>
<path d="M103.282 152.842V155.309L77.22 140.411V137.945L103.282 152.842Z" fill="#5DA2D9"/>
<path d="M116.047 130.823C119.619 132.879 119.619 136.234 116.047 138.315C111.976 140.394 107.155 140.394 103.083 138.315C99.487 136.234 99.487 132.879 103.083 130.823C107.155 128.743 111.976 128.743 116.047 130.823Z" fill="#B6DDF2"/>
<path d="M116.057 138.271C111.981 140.119 107.155 140.119 103.079 138.271C101.601 137.7 100.575 136.474 100.386 135.051C100.478 136.558 101.521 137.889 103.079 138.489C107.155 140.337 111.981 140.337 116.057 138.489C117.606 137.883 118.638 136.553 118.726 135.051C118.537 136.467 117.523 137.691 116.057 138.271Z" fill="#5DA2D9"/>
<path fill-rule="evenodd" clip-rule="evenodd" d="M111.072 77.4613V115.502L115.83 131.576L105.256 137.945L102.997 136.591L98.4556 121.32V82.602L109.029 76.2075L111.072 77.4613ZM103.622 109.459V117.834L106.194 116.304V107.929L103.622 109.459Z" fill="#95C4DF"/>
<path fill-rule="evenodd" clip-rule="evenodd" d="M100.386 83.4712L111.969 77.1719V114.355L100.386 120.581V83.4712ZM103.8 108.448V116.635L106.611 115.14V106.953L103.8 108.448Z" fill="#A1A6A8"/>
<path d="M107.857 106.111L106.428 107.198V115.636L107.857 116.722V106.111Z" fill="url(#paint0_linear)"/>
<path d="M106.53 115.758L104.247 117.359V119.616L108.108 116.887L106.53 115.758Z" fill="#888D8F"/>
<path d="M111.969 83.4496L109.38 81.9951L102.317 86.0577V109.48L104.906 110.935L111.969 106.872V83.4496Z" fill="url(#paint1_linear)"/>
<path d="M105.212 88.2848L103.282 86.8184V110.433L105.212 111.899V88.2848Z" fill="#30393C"/>
<path d="M109.38 82.96L102.317 86.5116L104.906 87.7832L111.969 84.2315L109.38 82.96Z" fill="#6F787B"/>
<path d="M99.8096 120.989V83.2176L97.4902 81.9951V120.44L102.647 135.633L105.212 136.98L99.8096 120.989Z" fill="#5DA2D9"/>
<path d="M111.004 77.4555L99.674 83.9247L97.4902 82.6767L108.794 76.2075L111.004 77.4555Z" fill="#BABFC1"/>
<path d="M145.753 103.232L65.6909 149.521L62.7412 147.857V87.9348L142.803 43.4092L145.753 45.0978V103.232Z" fill="#95C4DF"/>
<path d="M62.7412 148.794L65.637 150.486V90.4402L62.7412 88.748V148.794Z" fill="#5DA2D9"/>
<path d="M142.803 43.4092L145.753 45.1363L65.6909 90.677L62.7412 88.9499L142.803 43.4092Z" fill="#EEF5F9"/>
<path d="M143.07 102.253L67.5676 144.829V145.662L143.822 102.669L143.07 102.253Z" fill="#EEF5F9"/>
<path d="M143.822 50.1616L68.5327 91.3125V144.697L143.822 101.742V50.1616Z" fill="url(#paint2_linear)"/>
<path d="M168.919 144.77L120.656 172.672V170.67L168.919 142.768V144.77Z" fill="#95C4DF"/>
<path d="M120.656 170.653V172.673L100.386 161.212V159.167L120.656 170.653Z" fill="#5DA2D9"/>
<path d="M168.919 142.655L120.908 170.743L101.351 159.281L149.362 131.192L168.919 142.655Z" fill="#D0F7FF"/>
<path d="M110.862 159.45C111.051 159.45 111.051 159.745 110.862 159.844L108.901 161.023C108.698 161.121 108.465 161.121 108.263 161.023L106.302 159.844C106.136 159.844 106.136 159.573 106.302 159.45L108.263 158.296C108.459 158.172 108.705 158.172 108.901 158.296L110.862 159.45Z" fill="#95C4DF"/>
<path d="M114.724 158.489C114.912 158.489 114.912 158.783 114.724 158.881L112.77 160.058C112.568 160.156 112.335 160.156 112.134 160.058L110.18 158.881C109.991 158.881 109.991 158.611 110.18 158.489L112.134 157.311C112.335 157.213 112.568 157.213 112.77 157.311L114.724 158.489Z" fill="#95C4DF"/>
<path d="M117.635 156.559C117.803 156.559 117.803 156.829 117.635 156.952L115.644 158.129C115.439 158.227 115.202 158.227 114.997 158.129L113.078 156.952C112.886 156.952 112.886 156.657 113.078 156.559L115.069 155.382C115.274 155.284 115.511 155.284 115.716 155.382L117.635 156.559Z" fill="#95C4DF"/>
<path d="M120.533 154.632C120.607 154.661 120.656 154.734 120.656 154.817C120.656 154.899 120.607 154.972 120.533 155.001L118.572 156.18C118.375 156.304 118.129 156.304 117.933 156.18L115.972 155.001C115.783 155.001 115.783 154.731 115.972 154.632L117.933 153.453C118.136 153.355 118.369 153.355 118.572 153.453L120.533 154.632Z" fill="#95C4DF"/>
<path d="M123.428 152.697C123.593 152.82 123.593 152.992 123.428 153.091L121.469 154.27C121.259 154.369 121.019 154.369 120.809 154.27L118.85 153.091C118.685 153.091 118.685 152.82 118.85 152.697L120.809 151.542C121.013 151.419 121.265 151.419 121.469 151.542L123.428 152.697Z" fill="#95C4DF"/>
<path d="M126.306 151.736C126.495 151.736 126.495 152.03 126.306 152.129L124.345 153.306C124.143 153.404 123.909 153.404 123.707 153.306L121.746 152.129C121.58 152.129 121.58 151.859 121.746 151.736L123.707 150.559C123.909 150.461 124.143 150.461 124.345 150.559L126.306 151.736Z" fill="#95C4DF"/>
<path d="M130.172 149.807C130.355 149.807 130.355 150.077 130.172 150.199L128.276 151.377C128.08 151.475 127.854 151.475 127.659 151.377L125.603 150.199C125.443 150.199 125.443 149.905 125.603 149.807L127.499 148.629C127.694 148.532 127.92 148.532 128.116 148.629L130.172 149.807Z" fill="#95C4DF"/>
<path d="M133.081 146.915C133.155 146.944 133.205 147.017 133.205 147.099C133.205 147.182 133.155 147.255 133.081 147.284L131.112 148.463C130.915 148.587 130.668 148.587 130.471 148.463L128.502 147.284C128.428 147.255 128.378 147.182 128.378 147.099C128.378 147.017 128.428 146.944 128.502 146.915L130.471 145.736C130.674 145.638 130.909 145.638 131.112 145.736L133.081 146.915Z" fill="#95C4DF"/>
<path d="M135.977 145.005C136.051 145.034 136.1 145.107 136.1 145.19C136.1 145.272 136.051 145.345 135.977 145.374L134.016 146.553C133.813 146.651 133.58 146.651 133.378 146.553L131.416 145.374C131.227 145.374 131.227 145.104 131.416 145.005L133.378 143.826C133.574 143.702 133.82 143.702 134.016 143.826L135.977 145.005Z" fill="#95C4DF"/>
<path d="M138.872 144.019C139.038 144.019 139.038 144.313 138.872 144.411L136.911 145.589C136.709 145.686 136.475 145.686 136.273 145.589L134.312 144.411C134.123 144.411 134.123 144.141 134.312 144.019L136.273 142.841C136.475 142.744 136.709 142.744 136.911 142.841L138.872 144.019Z" fill="#95C4DF"/>
<path d="M142.671 142.09C142.774 142.09 142.857 142.178 142.857 142.286C142.857 142.394 142.774 142.482 142.671 142.482L140.769 143.659C140.562 143.757 140.326 143.757 140.119 143.659L138.216 142.482C138.114 142.482 138.031 142.394 138.031 142.286C138.031 142.178 138.114 142.09 138.216 142.09L140.119 140.913C140.326 140.814 140.562 140.814 140.769 140.913L142.671 142.09Z" fill="#95C4DF"/>
<path d="M145.611 140.163C145.8 140.163 145.8 140.433 145.611 140.556L143.65 141.711C143.454 141.835 143.208 141.835 143.012 141.711L141.051 140.556C140.885 140.433 140.885 140.261 141.051 140.163L143.012 138.983C143.214 138.885 143.448 138.885 143.65 138.983L145.611 140.163Z" fill="#95C4DF"/>
<path d="M148.507 138.244C148.696 138.244 148.696 138.513 148.507 138.611L146.545 139.782C146.349 139.905 146.103 139.905 145.907 139.782L143.946 138.611C143.871 138.582 143.822 138.509 143.822 138.427C143.822 138.346 143.871 138.273 143.946 138.244L145.907 137.073C146.103 136.95 146.349 136.95 146.545 137.073L148.507 138.244Z" fill="#95C4DF"/>
<path d="M107.983 157.778C108.15 157.778 108.15 157.99 107.983 158.087L105.913 159.051C105.709 159.128 105.474 159.128 105.27 159.051L104.39 158.627C104.199 158.627 104.199 158.415 104.39 158.337L106.46 157.354C106.664 157.277 106.899 157.277 107.103 157.354L107.983 157.778Z" fill="#95C4DF"/>
<path d="M110.859 156.831C111.052 156.831 111.052 157.043 110.859 157.14L108.767 158.104C108.561 158.181 108.323 158.181 108.117 158.104L107.347 157.68C107.234 157.68 107.143 157.606 107.143 157.516C107.143 157.425 107.234 157.352 107.347 157.352L109.44 156.387C109.64 156.29 109.89 156.29 110.09 156.387L110.859 156.831Z" fill="#95C4DF"/>
<path d="M114.74 154.882C114.907 154.882 114.907 155.094 114.74 155.191L112.67 156.155C112.458 156.233 112.215 156.233 112.003 156.155L111.147 155.75C110.956 155.654 110.956 155.519 111.147 155.442L113.217 154.477C113.414 154.38 113.662 154.38 113.86 154.477L114.74 154.882Z" fill="#95C4DF"/>
<path d="M117.644 152.953C117.716 152.983 117.761 153.042 117.761 153.107C117.761 153.172 117.716 153.232 117.644 153.261L115.559 154.226C115.354 154.303 115.117 154.303 114.912 154.226L114.025 153.821C113.858 153.821 113.858 153.589 114.025 153.512L116.11 152.548C116.309 152.45 116.558 152.45 116.757 152.548L117.644 152.953Z" fill="#95C4DF"/>
<path d="M120.515 151.016C120.703 151.016 120.703 151.247 120.515 151.325L118.49 152.289C118.281 152.367 118.041 152.367 117.831 152.289L116.984 151.884C116.88 151.884 116.795 151.815 116.795 151.73C116.795 151.645 116.88 151.575 116.984 151.575L119.008 150.611C119.218 150.533 119.458 150.533 119.668 150.611L120.515 151.016Z" fill="#95C4DF"/>
<path d="M124.392 149.079C124.559 149.176 124.559 149.311 124.392 149.388L122.322 150.352C122.125 150.45 121.877 150.45 121.68 150.352L120.799 149.947C120.609 149.947 120.609 149.735 120.799 149.639L122.869 148.674C123.073 148.597 123.308 148.597 123.512 148.674L124.392 149.079Z" fill="#95C4DF"/>
<path d="M128.236 146.204C128.426 146.204 128.426 146.417 128.236 146.494L126.165 147.458C125.968 147.556 125.72 147.556 125.523 147.458L124.642 147.053C124.476 147.053 124.476 146.841 124.642 146.745L126.713 145.78C126.916 145.703 127.151 145.703 127.355 145.78L128.236 146.204Z" fill="#95C4DF"/>
<path d="M131.15 145.229C131.225 145.251 131.274 145.309 131.274 145.373C131.274 145.438 131.225 145.496 131.15 145.518L129.079 146.483C128.882 146.58 128.634 146.58 128.437 146.483L127.556 146.078C127.365 146.078 127.365 145.865 127.556 145.788L129.627 144.804C129.859 144.738 130.116 144.767 130.317 144.881L131.15 145.229Z" fill="#95C4DF"/>
<path d="M134.045 143.306C134.12 143.329 134.17 143.386 134.17 143.451C134.17 143.515 134.12 143.573 134.045 143.596L131.964 144.58C131.76 144.656 131.523 144.656 131.319 144.58L130.434 144.155C130.359 144.133 130.309 144.075 130.309 144.01C130.309 143.946 130.359 143.888 130.434 143.866L132.514 142.901C132.713 142.804 132.962 142.804 133.16 142.901L134.045 143.306Z" fill="#95C4DF"/>
<path d="M136.923 141.377C137.113 141.377 137.113 141.589 136.923 141.685L134.873 142.65C134.661 142.727 134.418 142.727 134.206 142.65L133.348 142.225C133.157 142.225 133.157 142.013 133.348 141.936L135.397 140.971C135.604 140.875 135.858 140.875 136.065 140.971L136.923 141.377Z" fill="#95C4DF"/>
<path d="M140.802 139.448C140.968 139.448 140.968 139.66 140.802 139.757L138.731 140.721C138.528 140.798 138.293 140.798 138.089 140.721L137.208 140.316C137.018 140.22 137.018 140.085 137.208 140.007L139.279 139.043C139.476 138.945 139.724 138.945 139.921 139.043L140.802 139.448Z" fill="#95C4DF"/>
<path d="M143.634 137.519C143.738 137.519 143.822 137.588 143.822 137.673C143.822 137.758 143.738 137.827 143.634 137.827L141.589 138.792C141.388 138.869 141.156 138.869 140.955 138.792L140.085 138.387C139.92 138.29 139.92 138.155 140.085 138.078L142.13 137.114C142.325 137.016 142.57 137.016 142.765 137.114L143.634 137.519Z" fill="#95C4DF"/>
<path d="M146.595 136.546C146.759 136.546 146.759 136.778 146.595 136.855L144.55 137.82C144.348 137.896 144.116 137.896 143.915 137.82L143.045 137.414C142.941 137.414 142.857 137.345 142.857 137.26C142.857 137.175 142.941 137.106 143.045 137.106L145.09 136.141C145.292 136.064 145.524 136.064 145.725 136.141L146.595 136.546Z" fill="#95C4DF"/>
<path d="M150.463 133.652C150.534 133.682 150.579 133.741 150.579 133.806C150.579 133.871 150.534 133.931 150.463 133.961L148.391 134.925C148.179 135.003 147.936 135.003 147.724 134.925L146.843 134.52C146.677 134.52 146.677 134.289 146.843 134.212L148.915 133.247C149.127 133.169 149.37 133.169 149.582 133.247L150.463 133.652Z" fill="#95C4DF"/>
<path d="M152.398 136.342C152.465 136.371 152.51 136.446 152.51 136.529C152.51 136.612 152.465 136.687 152.398 136.716L149.208 138.835C149.017 138.935 148.799 138.935 148.608 138.835L146.831 137.638C146.681 137.638 146.681 137.364 146.831 137.239L149.978 135.145C150.156 135.02 150.379 135.02 150.557 135.145L152.398 136.342Z" fill="#95C4DF"/>
<path d="M123.428 167.171C123.593 167.171 123.593 167.44 123.428 167.563L121.467 168.741C121.265 168.838 121.031 168.838 120.829 168.741L118.868 167.563C118.679 167.563 118.679 167.269 118.868 167.171L120.829 165.993C121.031 165.895 121.265 165.895 121.467 165.993L123.428 167.171Z" fill="#95C4DF"/>
<path d="M126.324 166.208C126.489 166.208 126.489 166.478 126.324 166.601L124.363 167.756C124.167 167.88 123.921 167.88 123.725 167.756L121.763 166.601C121.574 166.601 121.574 166.306 121.763 166.208L123.725 165.028C123.927 164.931 124.16 164.931 124.363 165.028L126.324 166.208Z" fill="#95C4DF"/>
<path d="M130.167 164.29C130.356 164.29 130.356 164.558 130.167 164.656L128.206 165.828C128.01 165.951 127.764 165.951 127.567 165.828L125.606 164.656C125.532 164.628 125.483 164.554 125.483 164.473C125.483 164.391 125.532 164.318 125.606 164.29L127.567 163.118C127.764 162.995 128.01 162.995 128.206 163.118L130.167 164.29Z" fill="#95C4DF"/>
<path d="M161.096 143.221C161.158 143.251 161.197 143.311 161.197 143.376C161.197 143.441 161.158 143.5 161.096 143.53L159.381 144.456C159.204 144.533 158.999 144.533 158.822 144.456L158.409 144.225C158.344 144.202 158.301 144.145 158.301 144.08C158.301 144.015 158.344 143.958 158.409 143.935L160.125 143.009C160.302 142.932 160.506 142.932 160.683 143.009L161.096 143.221Z" fill="#95C4DF"/>
<path d="M159.159 146.127C159.223 146.15 159.266 146.207 159.266 146.272C159.266 146.336 159.223 146.394 159.159 146.417L157.448 147.343C157.277 147.44 157.062 147.44 156.891 147.343L156.479 147.13C156.335 147.13 156.335 146.918 156.479 146.822L158.19 145.896C158.366 145.819 158.57 145.819 158.747 145.896L159.159 146.127Z" fill="#95C4DF"/>
<path d="M163.019 144.186C163.164 144.283 163.164 144.418 163.019 144.495L161.309 145.421C161.132 145.498 160.929 145.498 160.752 145.421L160.34 145.209C160.196 145.209 160.196 144.977 160.34 144.9L162.051 143.974C162.227 143.897 162.431 143.897 162.607 143.974L163.019 144.186Z" fill="#95C4DF"/>
<path d="M166.88 143.221C167.025 143.221 167.025 143.453 166.88 143.53L165.17 144.456C164.986 144.534 164.776 144.534 164.593 144.456L164.201 144.244C164.057 144.147 164.057 144.012 164.201 143.935L165.912 143.009C166.088 142.932 166.292 142.932 166.468 143.009L166.88 143.221Z" fill="#95C4DF"/>
<path d="M133.063 162.345C133.252 162.345 133.252 162.639 133.063 162.738L131.102 163.917C130.899 164.015 130.666 164.015 130.464 163.917L128.502 162.738C128.337 162.738 128.337 162.467 128.502 162.345L130.464 161.19C130.66 161.066 130.906 161.066 131.102 161.19L133.063 162.345Z" fill="#95C4DF"/>
<path d="M151.388 151.804C151.597 151.933 151.597 152.114 151.388 152.217L134.288 161.984C134.064 162.087 133.805 162.087 133.582 161.984L131.411 160.744C131.228 160.744 131.228 160.459 131.411 160.33L148.511 150.563C148.744 150.459 149.011 150.459 149.244 150.563L151.388 151.804Z" fill="#95C4DF"/>
<path d="M154.326 150.772C154.396 150.81 154.44 150.885 154.44 150.968C154.44 151.051 154.396 151.126 154.326 151.164L152.38 152.342C152.18 152.439 151.948 152.439 151.747 152.342L149.802 151.164C149.698 151.164 149.614 151.076 149.614 150.968C149.614 150.86 149.698 150.772 149.802 150.772L151.747 149.594C151.948 149.497 152.18 149.497 152.38 149.594L154.326 150.772Z" fill="#95C4DF"/>
<path d="M157.212 147.878C157.377 147.878 157.377 148.148 157.212 148.27L155.251 149.448C155.048 149.545 154.815 149.545 154.613 149.448L152.652 148.27C152.463 148.27 152.463 147.976 152.652 147.878L154.613 146.7C154.815 146.603 155.048 146.603 155.251 146.7L157.212 147.878Z" fill="#95C4DF"/>
<path d="M118.603 158.537C118.677 158.565 118.726 158.637 118.726 158.718C118.726 158.799 118.677 158.871 118.603 158.899L116.641 160.059C116.431 160.156 116.19 160.156 115.979 160.059L114.041 158.851C113.852 158.851 113.852 158.585 114.041 158.488L115.979 157.328C116.184 157.208 116.436 157.208 116.641 157.328L118.603 158.537Z" fill="#95C4DF"/>
<path d="M115.7 160.439C115.873 160.439 115.873 160.713 115.7 160.838L112.545 162.932C112.366 163.057 112.141 163.057 111.962 162.932L110.168 161.735C109.995 161.735 109.995 161.461 110.168 161.361L113.323 159.242C113.508 159.143 113.722 159.143 113.907 159.242L115.7 160.439Z" fill="#95C4DF"/>
<path d="M121.48 157.521C121.669 157.521 121.669 157.815 121.48 157.914L119.542 159.093C119.332 159.192 119.091 159.192 118.881 159.093L116.919 157.914C116.754 157.914 116.754 157.643 116.919 157.521L118.881 156.366C119.085 156.243 119.338 156.243 119.542 156.366L121.48 157.521Z" fill="#95C4DF"/>
<path d="M124.374 155.673C124.565 155.793 124.565 155.962 124.374 156.059L122.407 157.218C122.202 157.265 121.988 157.23 121.808 157.121L119.817 155.962C119.649 155.962 119.649 155.697 119.817 155.576L121.808 154.417C122.021 154.32 122.266 154.32 122.479 154.417L124.374 155.673Z" fill="#95C4DF"/>
<path d="M128.237 153.665C128.426 153.665 128.426 153.935 128.237 154.058L126.276 155.235C126.073 155.333 125.84 155.333 125.638 155.235L123.676 154.058C123.511 154.058 123.511 153.763 123.676 153.665L125.638 152.488C125.84 152.39 126.073 152.39 126.276 152.488L128.237 153.665Z" fill="#95C4DF"/>
<path d="M131.151 151.738C131.225 151.767 131.274 151.84 131.274 151.923C131.274 152.005 131.225 152.078 131.151 152.107L129.189 153.286C128.993 153.41 128.747 153.41 128.551 153.286L126.59 152.107C126.4 152.107 126.4 151.837 126.59 151.738L128.551 150.559C128.753 150.461 128.987 150.461 129.189 150.559L131.151 151.738Z" fill="#95C4DF"/>
<path d="M135.008 150.769C135.177 150.769 135.177 151.064 135.008 151.162L132.997 152.342C132.79 152.439 132.551 152.439 132.343 152.342L130.454 151.162C130.26 151.162 130.26 150.892 130.454 150.769L132.465 149.614C132.666 149.49 132.918 149.49 133.119 149.614L135.008 150.769Z" fill="#95C4DF"/>
<path d="M136.942 147.878C137.107 148 137.107 148.172 136.942 148.27L134.983 149.448C134.781 149.545 134.548 149.545 134.346 149.448L132.363 148.27C132.198 148.27 132.198 148 132.363 147.878L134.346 146.7C134.548 146.603 134.781 146.603 134.983 146.7L136.942 147.878Z" fill="#95C4DF"/>
<path d="M141.75 145.951C141.939 145.951 141.939 146.222 141.75 146.345L139.81 147.5C139.605 147.622 139.353 147.622 139.148 147.5L137.208 146.345C137.018 146.345 137.018 146.05 137.208 145.951L139.148 144.772C139.358 144.673 139.599 144.673 139.81 144.772L141.75 145.951Z" fill="#95C4DF"/>
<path d="M144.646 144.021C144.835 144.021 144.835 144.291 144.646 144.39L142.684 145.569C142.488 145.693 142.242 145.693 142.046 145.569L140.085 144.39C140.011 144.361 139.961 144.287 139.961 144.205C139.961 144.123 140.011 144.05 140.085 144.021L142.046 142.841C142.249 142.744 142.482 142.744 142.684 142.841L144.646 144.021Z" fill="#95C4DF"/>
<path d="M147.546 143.076C147.729 143.076 147.729 143.346 147.546 143.445L145.65 144.624C145.454 144.722 145.228 144.722 145.033 144.624L142.976 143.445C142.905 143.416 142.857 143.343 142.857 143.26C142.857 143.178 142.905 143.105 142.976 143.076L144.873 141.897C145.062 141.773 145.3 141.773 145.49 141.897L147.546 143.076Z" fill="#95C4DF"/>
<path d="M150.455 141.125C150.621 141.248 150.621 141.42 150.455 141.518L148.494 142.695C148.292 142.793 148.058 142.793 147.856 142.695L145.895 141.518C145.706 141.518 145.706 141.248 145.895 141.125L147.856 139.948C148.058 139.85 148.292 139.85 148.494 139.948L150.455 141.125Z" fill="#95C4DF"/>
<path d="M154.316 139.153C154.482 139.153 154.482 139.43 154.316 139.555L152.355 140.764C152.153 140.864 151.919 140.864 151.717 140.764L149.756 139.631C149.567 139.631 149.567 139.329 149.756 139.228L151.717 138.02C151.919 137.92 152.153 137.92 152.355 138.02L154.316 139.153Z" fill="#95C4DF"/>
<path d="M157.213 137.269C157.287 137.297 157.336 137.371 157.336 137.453C157.336 137.535 157.287 137.609 157.213 137.637L155.251 138.817C155.055 138.941 154.809 138.941 154.613 138.817L152.652 137.637C152.462 137.637 152.462 137.367 152.652 137.269L154.613 136.089C154.815 135.991 155.049 135.991 155.251 136.089L157.213 137.269Z" fill="#95C4DF"/>
<path d="M122.445 160.36C122.634 160.36 122.634 160.64 122.445 160.742L120.484 161.965C120.288 162.094 120.042 162.094 119.846 161.965L117.884 160.742C117.81 160.712 117.761 160.636 117.761 160.551C117.761 160.466 117.81 160.389 117.884 160.36L119.846 159.264C120.042 159.135 120.288 159.135 120.484 159.264L122.445 160.36Z" fill="#95C4DF"/>
<path d="M119.534 163.181C119.743 163.181 119.743 163.433 119.534 163.547L114.927 165.833C114.71 165.948 114.437 165.948 114.22 165.833L112.126 164.782C111.917 164.782 111.917 164.507 112.126 164.416L116.733 162.129C116.957 162.038 117.216 162.038 117.44 162.129L119.534 163.181Z" fill="#95C4DF"/>
<path d="M125.341 158.486C125.53 158.608 125.53 158.781 125.341 158.879L123.38 160.058C123.177 160.156 122.944 160.156 122.742 160.058L120.78 158.879C120.615 158.879 120.615 158.608 120.78 158.486L122.742 157.331C122.938 157.207 123.184 157.207 123.38 157.331L125.341 158.486Z" fill="#95C4DF"/>
<path d="M129.159 156.559C129.261 156.559 129.344 156.647 129.344 156.756C129.344 156.864 129.261 156.952 129.159 156.952L127.242 158.129C127.045 158.227 126.816 158.227 126.619 158.129L124.702 156.952C124.6 156.952 124.517 156.864 124.517 156.756C124.517 156.647 124.6 156.559 124.702 156.559L126.619 155.382C126.816 155.284 127.045 155.284 127.242 155.382L129.159 156.559Z" fill="#95C4DF"/>
<path d="M132.114 155.595C132.281 155.595 132.281 155.865 132.114 155.987L130.133 157.165C129.929 157.263 129.693 157.263 129.489 157.165L127.556 155.987C127.365 155.987 127.365 155.693 127.556 155.595L129.537 154.418C129.741 154.32 129.977 154.32 130.181 154.418L132.114 155.595Z" fill="#95C4DF"/>
<path d="M135.012 153.667C135.086 153.696 135.135 153.77 135.135 153.852C135.135 153.934 135.086 154.007 135.012 154.036L133.05 155.216C132.854 155.339 132.608 155.339 132.412 155.216L130.451 154.036C130.262 154.036 130.262 153.766 130.451 153.667L132.412 152.488C132.614 152.39 132.848 152.39 133.05 152.488L135.012 153.667Z" fill="#95C4DF"/>
<path d="M137.889 151.757C138.078 151.757 138.078 152.027 137.889 152.126L135.951 153.305C135.741 153.404 135.5 153.404 135.289 153.305L133.328 152.126C133.254 152.097 133.205 152.024 133.205 151.941C133.205 151.859 133.254 151.786 133.328 151.757L135.289 150.578C135.494 150.455 135.746 150.455 135.951 150.578L137.889 151.757Z" fill="#95C4DF"/>
<path d="M141.704 149.807C141.808 149.807 141.892 149.895 141.892 150.003C141.892 150.112 141.808 150.199 141.704 150.199L139.759 151.377C139.558 151.475 139.326 151.475 139.126 151.377L137.18 150.199C137.11 150.162 137.066 150.086 137.066 150.003C137.066 149.92 137.11 149.845 137.18 149.807L139.126 148.629C139.326 148.532 139.558 148.532 139.759 148.629L141.704 149.807Z" fill="#95C4DF"/>
<path d="M144.646 147.878C144.835 147.878 144.835 148.148 144.646 148.27L142.685 149.448C142.482 149.545 142.249 149.545 142.047 149.448L140.085 148.27C139.92 148.148 139.92 147.976 140.085 147.878L142.047 146.7C142.249 146.603 142.482 146.603 142.685 146.7L144.646 147.878Z" fill="#95C4DF"/>
<path d="M147.542 145.951C147.731 145.951 147.731 146.221 147.542 146.344L145.588 147.499C145.393 147.623 145.148 147.623 144.952 147.499L142.998 146.344C142.81 146.344 142.81 146.049 142.998 145.951L144.952 144.771C145.154 144.673 145.387 144.673 145.588 144.771L147.542 145.951Z" fill="#95C4DF"/>
<path d="M150.456 144.027C150.53 144.055 150.579 144.13 150.579 144.212C150.579 144.295 150.53 144.37 150.456 144.398L148.494 145.588C148.292 145.687 148.059 145.687 147.856 145.588L145.895 144.423C145.706 144.423 145.706 144.151 145.895 144.051L147.856 142.862C148.052 142.737 148.298 142.737 148.494 142.862L150.456 144.027Z" fill="#95C4DF"/>
<path d="M154.316 142.09C154.482 142.09 154.482 142.384 154.316 142.482L152.355 143.66C152.153 143.757 151.919 143.757 151.717 143.66L149.756 142.482C149.567 142.482 149.567 142.212 149.756 142.09L151.717 140.912C151.919 140.814 152.153 140.814 152.355 140.912L154.316 142.09Z" fill="#95C4DF"/>
<path d="M160.094 139.051C160.278 139.051 160.278 139.305 160.094 139.42L155.354 141.725C155.19 141.794 155.007 141.819 154.827 141.794L152.668 140.688C152.457 140.572 152.457 140.411 152.668 140.319L157.408 138.014C157.633 137.922 157.893 137.922 158.119 138.014L160.094 139.051Z" fill="#95C4DF"/>
<path d="M128.255 162.369C128.329 162.398 128.379 162.471 128.379 162.553C128.379 162.636 128.329 162.709 128.255 162.738L126.294 163.917C126.091 164.015 125.858 164.015 125.656 163.917L123.694 162.738C123.505 162.738 123.505 162.467 123.694 162.369L125.656 161.19C125.852 161.066 126.098 161.066 126.294 161.19L128.255 162.369Z" fill="#95C4DF"/>
<path d="M125.343 163.306C125.529 163.306 125.529 163.555 125.343 163.669L118.921 166.817C118.693 166.907 118.43 166.907 118.202 166.817L115.99 165.73C115.777 165.73 115.777 165.48 115.99 165.367L122.412 162.129C122.64 162.038 122.903 162.038 123.131 162.129L125.343 163.306Z" fill="#95C4DF"/>
<path d="M131.15 159.45C131.315 159.45 131.315 159.745 131.15 159.844L129.189 161.023C128.986 161.121 128.753 161.121 128.551 161.023L126.59 159.844C126.4 159.844 126.4 159.573 126.59 159.45L128.551 158.296C128.747 158.172 128.993 158.172 129.189 158.296L131.15 159.45Z" fill="#95C4DF"/>
<path d="M134.028 157.524C134.217 157.524 134.217 157.794 134.028 157.917L132.091 159.093C131.88 159.192 131.639 159.192 131.429 159.093L129.468 157.917C129.302 157.917 129.302 157.622 129.468 157.524L131.429 156.347C131.639 156.249 131.88 156.249 132.091 156.347L134.028 157.524Z" fill="#95C4DF"/>
<path d="M136.924 155.597C137.113 155.597 137.113 155.867 136.924 155.99L134.963 157.145C134.767 157.269 134.521 157.269 134.325 157.145L132.363 155.99C132.198 155.99 132.198 155.695 132.363 155.597L134.325 154.418C134.527 154.32 134.76 154.32 134.963 154.418L136.924 155.597Z" fill="#95C4DF"/>
<path d="M139.82 154.657C140.009 154.657 140.009 154.923 139.82 155.02L137.858 156.182C137.662 156.304 137.416 156.304 137.22 156.182L135.259 154.996C135.184 154.968 135.135 154.895 135.135 154.814C135.135 154.733 135.184 154.661 135.259 154.633L137.22 153.471C137.416 153.349 137.662 153.349 137.858 153.471L139.82 154.657Z" fill="#95C4DF"/>
<path d="M143.681 152.698C143.87 152.821 143.87 152.993 143.681 153.091L141.719 154.271C141.517 154.369 141.284 154.369 141.081 154.271L139.12 153.091C138.955 153.091 138.955 152.821 139.12 152.698L141.081 151.543C141.277 151.419 141.523 151.419 141.719 151.543L143.681 152.698Z" fill="#95C4DF"/>
<path d="M146.604 150.845C146.674 150.883 146.718 150.959 146.718 151.042C146.718 151.124 146.674 151.2 146.604 151.238L144.658 152.342C144.457 152.439 144.226 152.439 144.025 152.342L142.079 151.164C141.976 151.164 141.892 151.076 141.892 150.968C141.892 150.86 141.976 150.772 142.079 150.772L144.025 149.594C144.226 149.497 144.457 149.497 144.658 149.594L146.604 150.845Z" fill="#95C4DF"/>
<path d="M149.488 147.88C149.656 147.88 149.656 148.15 149.488 148.273L147.497 149.428C147.299 149.552 147.049 149.552 146.85 149.428L144.931 148.273C144.74 148.273 144.74 147.978 144.931 147.88L146.922 146.7C147.127 146.602 147.364 146.602 147.569 146.7L149.488 147.88Z" fill="#95C4DF"/>
<path d="M152.386 146.926C152.46 146.954 152.51 147.027 152.51 147.109C152.51 147.191 152.46 147.264 152.386 147.292L150.425 148.464C150.22 148.587 149.968 148.587 149.763 148.464L147.825 147.292C147.636 147.292 147.636 147.024 147.825 146.926L149.763 145.754C149.968 145.632 150.22 145.632 150.425 145.754L152.386 146.926Z" fill="#95C4DF"/>
<path d="M156.229 144.981C156.418 145.104 156.418 145.276 156.229 145.374L154.268 146.553C154.065 146.651 153.832 146.651 153.63 146.553L151.668 145.374C151.503 145.374 151.503 145.104 151.668 144.981L153.63 143.826C153.826 143.702 154.072 143.702 154.268 143.826L156.229 144.981Z" fill="#95C4DF"/>
<path d="M163.933 141.046C164.146 141.161 164.146 141.321 163.933 141.413L157.496 144.629C157.268 144.721 157.005 144.721 156.778 144.629L154.57 143.527C154.49 143.491 154.44 143.42 154.44 143.343C154.44 143.265 154.49 143.194 154.57 143.159L161.007 139.943C161.235 139.852 161.498 139.852 161.725 139.943L163.933 141.046Z" fill="#95C4DF"/>
<path d="M109.073 218.213L98.4211 224.764L96.5251 223.597L107.202 217.046L109.073 218.213Z" fill="#B6DDF2"/>
<path d="M97.2587 223.731V225.728L95.7915 224.852V222.834L97.2587 223.731Z" fill="#5DA2D9"/>
<path d="M108.108 220.477L97.4902 226.693V224.226L108.108 218.011V220.477Z" fill="#95C4DF"/>
<path d="M109.073 233.647L98.4211 240.198L96.5251 239.031L107.202 232.48L109.073 233.647Z" fill="#B6DDF2"/>
<path d="M97.2587 240.13V242.127L95.7915 241.251V239.233L97.2587 240.13Z" fill="#5DA2D9"/>
<path d="M108.108 235.911L97.4902 242.127V239.661L108.108 233.445V235.911Z" fill="#95C4DF"/>
<path d="M109.073 249.082L98.4211 255.632L96.5251 254.465L107.202 247.915L109.073 249.082Z" fill="#B6DDF2"/>
<path d="M97.2587 256.529V258.526L95.7915 257.65V255.632L97.2587 256.529Z" fill="#5DA2D9"/>
<path d="M108.108 252.31L97.4902 258.526V256.06L108.108 249.844V252.31Z" fill="#95C4DF"/>
<path opacity="0.6" d="M131.613 109.97L143.822 102.873V50.1616L107.143 70.5944C117.646 82.0823 125.943 95.4334 131.613 109.97Z" fill="url(#paint3_linear)"/>
<path d="M206.564 120.354L178.572 136.016V133.325L206.564 117.688V120.354Z" fill="#EEF5F9"/>
<path d="M177.606 134.268V136.98L136.1 113.622V110.935L177.606 134.268Z" fill="#0C67B7"/>
<path d="M206.564 117.188L178.943 133.122L138.031 109.53L165.676 93.5713L206.564 117.188Z" fill="#2580D0"/>
<path d="M211.39 117.481L183.398 133.122V130.434L211.39 114.793V117.481Z" fill="#EEF5F9"/>
<path d="M183.398 130.41V133.122L141.892 109.764V107.076L183.398 130.41Z" fill="#0C67B7"/>
<path d="M211.39 114.269L183.759 130.228L142.857 106.636L170.488 90.6772L211.39 114.269Z" fill="#2580D0"/>
<path d="M138.44 216.381L178.839 193.284C181.274 191.583 184.515 191.583 186.949 193.284L191.427 195.765C192.859 194.195 194.54 192.871 196.402 191.846L232.374 171.28C235.21 169.667 236.752 169.518 237.524 170.064L241.28 172.024C243.37 172.843 241.529 177.382 241.529 177.382L235.633 194.748L231.28 220.548L181.601 248.209L179.81 248.507C179.336 248.761 178.805 248.889 178.267 248.879C176.824 248.764 175.435 248.277 174.237 247.465L145.38 230.844L138.937 227.147C138.937 227.147 136.275 225.808 136.101 223.922V219.457C136.076 218.589 136.624 217.497 138.44 216.381Z" fill="#5DA2D9"/>
<path d="M181.68 298.076C184.246 298.107 186.777 297.471 189.023 296.232L222.613 277.024C223.163 276.725 226.834 274.682 226.834 271.518C226.834 269.45 225.261 267.582 222.164 265.987L192.619 248.946C191.929 248.554 191.052 248.794 190.658 249.482C190.265 250.17 190.506 251.046 191.195 251.438L220.815 268.504C222.838 269.525 223.987 270.621 223.987 271.518C223.987 272.415 222.139 274.01 221.265 274.508L187.649 293.766C183.318 295.973 178.129 295.668 174.088 292.969L142.195 274.607C140.363 273.367 139.203 271.355 139.049 269.151V231.308C138.993 230.842 139.149 230.376 139.473 230.037C139.933 229.917 140.423 230.019 140.797 230.311L176.96 251.139C178.273 251.981 179.918 252.121 181.355 251.513C182.578 250.9 183.419 249.726 183.603 248.373L187.025 228.443C187.47 225.972 188.079 223.533 188.848 221.143L193.643 207.341C193.892 206.605 193.503 205.806 192.769 205.547C192.025 205.296 191.216 205.683 190.946 206.419L186.176 220.221C185.338 222.748 184.67 225.328 184.178 227.944L180.781 247.875C180.749 248.322 180.496 248.724 180.107 248.946C179.504 249.125 178.854 249.024 178.334 248.672L142.121 227.845C140.912 226.949 139.285 226.856 137.982 227.609C136.678 228.362 135.949 229.816 136.127 231.308V269.201C136.28 272.429 137.993 275.382 140.722 277.124L172.614 295.485C175.351 297.138 178.481 298.032 181.68 298.076Z" fill="#2173D6"/>
<path d="M240.332 178.485C241.09 178.745 241.493 179.549 241.235 180.29L236.413 194.178C235.598 196.58 234.96 199.035 234.504 201.524L230.997 221.58C230.806 222.946 229.939 224.136 228.676 224.764L227.799 221.981C228.036 221.73 228.189 221.415 228.238 221.078L231.745 201.023C232.223 198.38 232.896 195.775 233.756 193.226L238.708 179.337C238.975 178.717 239.652 178.362 240.332 178.485Z" fill="#2173D6"/>
<path d="M152.066 195.045C152.066 195.045 150.892 185.562 152.066 181.617C153.24 177.673 155.196 176.307 159.768 176.56C164.341 176.813 178.571 183.312 178.571 183.312L171.823 203.541L152.066 195.045Z" fill="#071E5C"/>
<path d="M135.116 188.493C140.582 189.971 208.487 199.191 208.487 199.191C208.487 199.191 209.243 217.929 194.911 223.641C182.544 228.651 170.303 228.426 164.434 225.946C157.382 222.915 140.305 211.316 140.305 211.316C133.826 208.063 127.589 204.354 121.641 200.218C121.641 199.867 121.641 199.516 121.641 199.191C121.162 189.37 129.625 187.065 135.116 188.493Z" fill="#142B69"/>
<path d="M208.182 134.306C208.36 134.306 212.139 131.192 212.139 131.192C214.945 133.528 217.205 136.448 218.76 139.747C220.587 144.379 225.254 158.806 226.776 162.299C228.298 165.792 228.653 175.739 224.037 177.308C219.42 178.877 202.703 170.094 202.703 170.094L208.182 134.306Z" fill="#3F5794"/>
<path d="M205.577 156.705L211.302 150.485C211.799 152.773 212.722 154.937 214.019 156.857C216.706 160.316 218.89 164.165 220.503 168.281C221.407 171.005 221.167 173.998 219.842 176.531C214.254 174.751 208.838 172.431 203.668 169.601L205.577 156.705Z" fill="#263E7B"/>
<path d="M209.693 156.273L212.355 162.061L207.529 161.522L209.693 156.273Z" fill="#3F5794"/>
<path d="M201.737 130.762C201.737 130.762 195.643 129.467 195.817 124.859C195.991 120.252 200.792 113.727 200.07 106.629C199.349 99.5317 193.529 94.7251 186.689 92.8822C180.504 91.6067 174.275 94.8505 171.765 100.652C170.621 104.936 170.696 106.654 171.193 107.576C171.664 108.454 171.78 109.479 171.517 110.44C171.094 111.997 171.094 113.639 171.517 115.197C172.089 117.089 173.581 123.44 175.098 123.938C176.616 124.436 178.879 124.586 179.227 126.428C179.349 129.714 178.781 132.989 177.561 136.042C177.561 136.042 181.938 140.151 191.962 138.532C201.986 136.913 201.737 130.762 201.737 130.762Z" fill="#FFCDA8"/>
<path d="M178.303 136.199C179.518 133.186 180.101 129.946 180.014 126.688C179.677 124.741 177.604 124.618 176.013 124.224C175.887 124.187 175.771 124.119 175.676 124.027C176.958 123.169 177.832 121.802 178.086 120.257C178.375 117.201 178.375 112.864 178.375 112.864C181.112 114.558 183.982 116.017 186.955 117.226C188.112 117.226 183.87 129.275 188.546 134.819C190.329 136.914 188.184 138.146 184.834 138.91C182.449 138.661 180.183 137.721 178.303 136.199Z" fill="#D9A782"/>
<path d="M177.682 115.826C177.682 115.826 177.509 113.7 178.512 113.835C179.516 113.969 179.613 118.032 179.343 119.861C179.072 121.691 178.088 122.552 177.914 119.7C177.74 116.848 177.682 115.826 177.682 115.826Z" fill="#FFCDA8"/>
<path d="M180.504 91.0238C186.415 89.8992 192.518 91.5444 197.054 95.4859C201.185 99.3317 203.981 109.291 199.305 113.975C198.513 116.441 197.474 118.906 196.831 120.952C193.146 122.506 189.075 122.91 185.155 122.111C181.765 121.297 182.681 116.736 180.207 114.197C179.591 113.472 178.686 113.054 177.733 113.054C176.78 113.054 175.875 113.472 175.259 114.197C175.259 114.197 174.69 110.721 174.542 108.922C174.393 107.122 173.527 106.629 173.379 104.854C173.23 103.079 173.824 101.23 173.082 99.9234C172.899 99.5883 172.79 99.2187 172.76 98.8386C172.76 98.8386 171.944 98.4935 171.82 96.8911C171.697 95.2887 173.601 91.8866 180.504 91.0238Z" fill="#563317"/>
<g style="mix-blend-mode:multiply" opacity="0.3">
<path d="M175.631 114.327C175.631 114.327 175.059 110.905 174.909 109.133C174.888 108.763 174.821 108.396 174.71 108.041C177.875 110.683 181.441 112.828 185.281 114.399C190.055 115.634 195.089 115.533 199.807 114.108C199.011 116.535 197.966 118.962 197.32 120.976C193.615 122.506 189.521 122.904 185.58 122.117C182.172 121.316 183.093 116.826 180.605 114.327C179.986 113.613 179.076 113.201 178.118 113.201C177.16 113.201 176.25 113.613 175.631 114.327Z" fill="#563317"/>
</g>
<path d="M198.842 127.733L197.529 125.404C197.529 125.404 194.01 126.402 189.377 127.963C184.499 129.622 179.883 132.01 175.676 135.051C175.676 135.051 196.86 129.319 198.842 127.733Z" fill="#EEF5F9"/>
<path d="M161.694 196.459C162.787 190.026 164.774 182.085 164.401 174.192C164.029 166.3 163.83 150.96 165.519 147.917C166.289 146.557 164.501 146.804 166.438 144.775C169.138 142.257 171.965 139.879 174.909 137.65L199.751 130.896L201.465 130.228L212.495 131.366C213.318 137.1 213.527 142.906 213.116 148.684C211.367 156.155 208.87 163.432 205.664 170.407C203.489 176.532 202.966 183.118 204.148 189.507C205.564 195.024 209.39 210.834 209.39 210.834C206.72 214.931 202.84 218.103 198.286 219.914L195.255 200.121L196.696 220.557C194.475 221.445 192.181 222.14 189.839 222.635L187.703 222.932C181.964 224.342 166.066 224.911 157.346 217.514C157.123 217.439 160.601 202.867 161.694 196.459Z" fill="#3F5794"/>
<path d="M175.231 135.161C175.231 135.161 187.12 131.185 190.773 130.16C194.954 128.834 198.783 127.334 198.783 127.334L201.73 130.96C201.73 130.96 202.234 135.261 194.979 137.636C187.725 140.011 173.745 138.336 173.745 138.336L175.231 135.161Z" fill="#4C64A1"/>
<path d="M157.336 218.006C157.336 218.006 160.826 203.41 161.923 197.042C163.02 190.673 165.014 182.645 164.64 174.74C164.44 170.007 164.266 162.721 164.64 156.923L178.35 153.379C178.35 153.379 179.771 163.44 175.409 169.61C170.794 177.025 167.946 185.391 167.083 194.068C166.883 198.182 161.2 212.133 161.873 220.905C160.241 220.138 158.716 219.163 157.336 218.006Z" fill="#263E7B"/>
<path d="M192.418 204.282C192.83 202.411 193.629 200.649 194.764 199.11C196.326 196.95 198.33 195.152 200.641 193.838L236.349 173.222C238.818 171.78 240.324 171.506 241.287 171.829C243.362 172.65 241.534 177.201 241.534 177.201L235.682 194.609V195.181L186.293 222.834L192.418 204.282Z" fill="#4489C0"/>
<path d="M190.23 196.615C190.524 196.192 190.849 195.792 191.205 195.417C192.637 193.856 194.327 192.541 196.206 191.529L232.361 171.258C235.212 169.669 236.762 169.522 237.537 170.06L241.313 171.992C240.463 171.674 238.962 171.992 236.312 173.361L200.181 193.583C197.847 194.861 195.818 196.612 194.23 198.718L190.155 196.664C190.155 196.664 190.18 196.639 190.23 196.615Z" fill="#B6DDF2"/>
<path d="M139.958 223.438L178.197 245.709L182.276 221.644L188.678 202.736C188.942 201.511 189.392 200.335 190.012 199.248C190.098 199.066 190.197 198.891 190.309 198.725L190.63 198.227C190.729 198.063 190.836 197.905 190.952 197.753L194.981 199.846C193.845 201.388 193.045 203.153 192.632 205.028L186.23 223.936L182.523 245.884C182.151 246.691 181.712 247.466 181.213 248.2C180.513 248.815 179.76 249.365 178.963 249.845C177.529 249.729 176.149 249.239 174.959 248.425L146.286 231.733L139.884 228.022C139.884 228.022 137.239 226.676 137.066 224.783V220.299C137.263 222.068 139.958 223.438 139.958 223.438Z" fill="#4489C0"/>
<path fill-rule="evenodd" clip-rule="evenodd" d="M138.031 172.287L131.971 168.356C130.083 166.805 127.872 165.662 125.486 165.004C122.982 164.739 113.443 165.558 110.889 167.415C108.335 169.272 108.71 170.406 110.563 172.021C112.596 173.381 114.926 174.273 117.374 174.626C120.328 175.47 116.522 175.253 121.155 175.59C125.322 176.167 129.422 177.128 133.399 178.46L138.031 172.287Z" fill="#FFCDA8"/>
<path fill-rule="evenodd" clip-rule="evenodd" d="M110.335 167.849C111.598 170.927 122.157 173.295 125.491 173.111C128.162 173.189 130.787 173.852 133.195 175.058L136.1 176.005L133.776 179.425C129.765 177.971 125.628 176.923 121.424 176.294C116.751 175.926 120.59 176.294 117.61 175.242C115.07 174.853 112.655 173.843 110.562 172.295C108.844 170.769 108.415 169.664 110.335 167.849Z" fill="#FFCDA8"/>
<path fill-rule="evenodd" clip-rule="evenodd" d="M177.129 157.138C178.53 153.332 176.954 144.535 170.974 142.266C164.545 139.746 161.743 147.837 158.465 159.028C157.092 164.357 155.319 169.572 153.161 174.631L135.048 168.884C135.048 168.884 129.769 169.136 129.344 177.252C129.344 177.252 150.91 189.704 158.24 191.846C165.57 193.989 173.551 166.691 177.129 157.138Z" fill="#3F5794"/>
<path d="M189.221 221.306L185.677 229.299L182.432 250.809L228.557 224.464C229.717 223.809 230.417 222.576 230.38 221.257C230.38 220.073 235.521 195.824 235.521 195.824L189.221 221.306Z" fill="#5DA2D9"/>
<path d="M194.01 205.525C194.76 205.786 195.159 206.59 194.904 207.33L189.999 221.217C189.213 223.622 188.59 226.076 188.134 228.562L184.635 248.615C184.446 249.976 183.586 251.158 182.336 251.774L181.467 248.966C181.698 248.726 181.842 248.418 181.876 248.089L185.35 228.035C185.845 225.395 186.519 222.791 187.368 220.24L192.247 206.352C192.54 205.682 193.294 205.328 194.01 205.525Z" fill="#2173D6"/>
<path d="M27.9923 109.644L14.4788 117.687V100.649L27.9923 92.6064V109.644Z" fill="#E9B400"/>
<path d="M27.0269 141.461L13.5134 149.521V132.475L27.0269 124.44V141.461Z" fill="#A4C94C"/>
<path d="M182.432 52.7299L195.946 60.7728V43.7348L182.432 35.6919V52.7299Z" fill="#EE51A4"/>
<path d="M149.614 35.3661L136.1 43.409V26.3711L149.614 18.3281V35.3661Z" fill="#A4C94C"/>
<path d="M133.205 45.9774L119.691 54.0204V36.9824L133.205 28.9395V45.9774Z" fill="#F4911D"/>
<path d="M172.78 58.518L186.294 66.5609V49.5229L172.78 41.48V58.518Z" fill="#E9B400"/>
<path d="M82.0464 148.429L73.3591 153.379V142.895L82.0464 137.945V148.429Z" fill="#E9B400"/>
<path d="M90.7336 142.625L82.0464 147.592V137.1L90.7336 132.157V142.625Z" fill="#D28700"/>
<path d="M91.6989 142.554L82.9845 147.592L82.0464 137.195L90.7855 132.157L91.6989 142.554Z" fill="#E9B400"/>
<path d="M39.5753 107.715L26.0618 115.758V98.7202L39.5753 90.6772V107.715Z" fill="#D28700"/>
<path d="M40.5406 107.715L27.0271 115.758V98.7202L40.5406 90.6772V107.715Z" fill="#E9B400"/>
<path d="M226.834 102.253L200.772 87.3918V41.48L226.834 56.3412V102.253Z" fill="#EEF5F9"/>
<path d="M86.3758 182.364C90.8991 184.947 90.8991 189.286 86.3758 191.92C81.2262 194.553 75.1444 194.553 69.9948 191.92C65.4715 189.337 65.4715 184.999 69.9948 182.364C75.1444 179.731 81.2262 179.731 86.3758 182.364Z" fill="#5DA2D9"/>
<path d="M86.3758 182.36C90.8991 184.938 90.8991 189.269 86.3758 191.924C81.2262 194.552 75.1444 194.552 69.9948 191.924C65.4715 189.346 65.4715 185.016 69.9948 182.36C75.1444 179.733 81.2262 179.733 86.3758 182.36Z" fill="#D0F7FF"/>
<path d="M82.2109 184.424C83.2741 184.854 83.9767 185.935 83.9767 187.142C83.9767 188.349 83.2741 189.431 82.2109 189.86C79.3763 191.381 76.0289 191.381 73.1943 189.86C72.1311 189.431 71.4285 188.349 71.4285 187.142C71.4285 185.935 72.1311 184.854 73.1943 184.424C76.0289 182.903 79.3763 182.903 82.2109 184.424Z" fill="#95C4DF"/>
<path d="M83.3732 184.117C84.3115 184.42 84.942 185.251 84.942 186.186C84.942 187.121 84.3115 187.952 83.3732 188.254C81.0137 189.344 78.2525 189.344 75.893 188.254C74.9547 187.952 74.3242 187.121 74.3242 186.186C74.3242 185.251 74.9547 184.42 75.893 184.117C78.2471 183.006 81.0191 183.006 83.3732 184.117Z" fill="#D0F7FF"/>
<path d="M85.5444 185.211C85.3844 185.215 85.2302 185.149 85.1188 185.029C85.0057 184.912 84.9421 184.753 84.9421 184.587C84.9421 184.42 85.0057 184.261 85.1188 184.144C88.8236 180.395 89.5246 178.39 89.4745 177.791C88.5339 178.28 87.6859 178.942 86.9712 179.744C86.7362 179.988 86.3552 179.988 86.1201 179.744C85.8851 179.499 85.8851 179.103 86.1201 178.859C86.1201 178.859 86.746 178.234 87.4469 177.661C88.5733 176.75 89.3243 176.411 89.9501 176.567C90.3138 176.666 90.5941 176.967 90.6761 177.349C91.0766 178.833 89.3744 181.644 85.995 185.029C85.8778 185.156 85.713 185.222 85.5444 185.211Z" fill="#95C4DF"/>
<path d="M89.4206 178.518C89.4206 178.94 89.0911 180.23 87.3778 182.438L86.8726 184.248C87.7977 183.094 88.6491 181.867 89.4206 180.577C89.816 179.659 89.9478 178.146 89.4206 178.518Z" fill="#EEF5F9"/>
<path d="M83.5122 179.425H72.8584H69.498C69.7587 182.504 70.8949 185.429 72.7589 187.821C73.1152 188.296 73.5545 188.695 74.0533 188.998C76.6592 190.382 79.7363 190.382 82.3422 188.998C82.8738 188.668 83.3389 188.233 83.7113 187.716C85.5594 185.365 86.6644 182.467 86.8726 179.425H83.5122Z" fill="#95C4DF"/>
<path d="M84.3264 174.245C87.7213 176.3 87.7213 179.656 84.3264 181.711C80.4661 183.808 75.8861 183.808 72.0258 181.711C68.6555 179.656 68.6555 176.3 72.0258 174.245C75.8861 172.148 80.4661 172.148 84.3264 174.245Z" fill="#EEF5F9"/>
<path d="M87.8165 178.46C87.8178 178.883 87.7184 179.3 87.5265 179.678C87.3359 180.066 87.0828 180.421 86.7772 180.729C86.5024 181.061 86.1947 181.365 85.8587 181.636C85.5073 181.875 85.1352 182.083 84.7468 182.257C83.973 182.601 83.1621 182.858 82.3297 183.021C81.4929 183.181 80.6438 183.268 79.7917 183.284C78.9331 183.283 78.076 183.211 77.2296 183.069C76.3989 182.922 75.5879 182.681 74.8124 182.352C74.0127 182.038 73.2761 181.585 72.637 181.015C72.3198 180.733 72.0505 180.403 71.8394 180.036C71.6172 179.672 71.4771 179.265 71.4285 178.842C71.4937 179.261 71.6504 179.66 71.8877 180.012C72.1143 180.368 72.391 180.689 72.7095 180.968C73.3494 181.506 74.0767 181.934 74.8608 182.233C76.4491 182.836 78.1387 183.136 79.84 183.117C81.5408 183.115 83.2245 182.782 84.7951 182.138C85.5732 181.812 86.2855 181.351 86.898 180.777C87.2019 180.494 87.4552 180.163 87.6473 179.798C87.8153 179.373 87.8734 178.913 87.8165 178.46Z" fill="white"/>
<path d="M83.5122 175.045C86.7057 176.922 86.7057 180.049 83.5122 181.826C79.8742 183.752 75.547 183.771 71.8931 181.876C68.6997 179.999 68.6997 176.872 71.8931 175.095C75.5312 173.169 79.8583 173.15 83.5122 175.045Z" fill="#D0F7FF"/>
<path d="M83.9224 177.076C80.3558 175.063 76.1361 175.063 72.5694 177.076C71.6672 177.583 70.9307 178.39 70.4634 179.385C70.8931 180.393 71.5953 181.228 72.4726 181.774C76.0392 183.787 80.2589 183.787 83.8256 181.774C84.7225 181.256 85.4505 180.439 85.9074 179.438C85.48 178.444 84.787 177.619 83.9224 177.076Z" fill="#001480"/>
<path d="M72.5563 178.463C76.1007 176.563 80.2941 176.563 83.8386 178.463C84.6477 178.898 85.3232 179.566 85.7871 180.389C85.8415 180.313 85.8822 180.227 85.9074 180.136C85.4493 179.201 84.7262 178.439 83.8386 177.956C80.2941 176.056 76.1007 176.056 72.5563 177.956C71.6597 178.435 70.9278 179.197 70.4634 180.136V180.389C70.9764 179.554 71.7014 178.886 72.5563 178.463Z" fill="#000067"/>
<path opacity="0.42" d="M83.9558 180.575C81.8217 181.032 79.5454 180.582 77.9175 179.382C76.8405 178.398 75.0428 178.173 73.6447 178.847C70.8302 179.938 73.6447 181.254 73.6447 181.254C77.1625 182.674 81.3079 182.674 84.8257 181.254C85.7058 180.882 86.4209 180.3 86.8726 179.588L83.9558 180.575Z" fill="url(#paint4_linear)"/>
<path d="M67.5675 174.362L63.7065 176.531V140.088L67.5675 137.945V174.362Z" fill="#2580D0"/>
<path d="M63.7066 140.052V176.531L40.5405 162.848V126.369L63.7066 140.052Z" fill="#0C67B7"/>
<path d="M67.5676 138.746L63.8877 140.839L40.5405 127.497L44.2204 125.404L67.5676 138.746Z" fill="#EEF5F9"/>
<path d="M61.776 178.246L57.915 180.39V143.947L61.776 141.804V178.246Z" fill="#2580D0"/>
<path d="M56.9497 143.91V180.389L33.7837 166.707V130.228L56.9497 143.91Z" fill="#0C67B7"/>
<path d="M61.7761 141.64L58.0928 143.733L34.749 130.391L38.4323 128.298L61.7761 141.64Z" fill="#EEF5F9"/>
<defs>
<linearGradient id="paint0_linear" x1="106.451" y1="109.168" x2="106.451" y2="116.773" gradientUnits="userSpaceOnUse">
<stop stop-color="#878C8E"/>
<stop offset="1" stop-color="#636E73"/>
</linearGradient>
<linearGradient id="paint1_linear" x1="105.207" y1="110.897" x2="114.835" y2="110.897" gradientUnits="userSpaceOnUse">
<stop stop-color="#424C4F"/>
<stop offset="1" stop-color="#31383B"/>
</linearGradient>
<linearGradient id="paint2_linear" x1="68.5327" y1="144.71" x2="143.822" y2="144.71" gradientUnits="userSpaceOnUse">
<stop stop-color="#2580D3"/>
<stop offset="1" stop-color="#0A208F"/>
</linearGradient>
<linearGradient id="paint3_linear" x1="92.9376" y1="14.7955" x2="98.2614" y2="117.773" gradientUnits="userSpaceOnUse">
<stop stop-color="white"/>
<stop offset="1" stop-color="white"/>
</linearGradient>
<linearGradient id="paint4_linear" x1="72.4165" y1="182.371" x2="86.9749" y2="182.371" gradientUnits="userSpaceOnUse">
<stop stop-color="white"/>
<stop offset="1" stop-color="#EAEAF2"/>
</linearGradient>
</defs>
</svg>
