<svg width="32" height="29" viewBox="0 0 32 29" fill="none" xmlns="http://www.w3.org/2000/svg">
<path fill-rule="evenodd" clip-rule="evenodd" d="M4.4928 28.832L4.5248 28.8H30.4128C31.2871 28.793 31.9939 28.0855 32 27.2112V1.5888C32 0.712 31.2896 0 30.4128 0H1.5872C0.712896 0.00697343 0.00609252 0.714489 0 1.5888V27.2112C0 28.088 0.710355 28.7991 1.5872 28.8H4.4592L4.4928 28.832ZM28.8 3.2V19.2L19.2 9.6L3.2 25.6V3.2H28.8ZM28.8 23.7248L19.2 14.1248L7.7248 25.6H28.8V23.7248ZM6.4 9.6C6.4 11.3673 7.83269 12.8 9.6 12.8C11.3673 12.8 12.8 11.3673 12.8 9.6C12.8 7.83269 11.3673 6.4 9.6 6.4C7.83269 6.4 6.4 7.83269 6.4 9.6Z" fill="#ACB1C1"/>
</svg>
