<svg width="14" height="14" viewBox="0 0 14 14" xmlns="http://www.w3.org/2000/svg">
	<path fill-rule="evenodd" clip-rule="evenodd" fill="#3F8EFA" d="M0.333008 7.00001C0.333008 10.682 3.31767 13.6667 6.99967 13.6667C10.6817 13.6667 13.6663 10.682 13.6663 7.00001C13.6663 3.31801 10.6817 0.333344 6.99967 0.333344C3.31767 0.333344 0.333008 3.31801 0.333008 7.00001ZM12.333 7.00001C12.333 9.94553 9.94519 12.3333 6.99967 12.3333C4.05416 12.3333 1.66634 9.94553 1.66634 7.00001C1.66634 4.05449 4.05416 1.66668 6.99967 1.66668C9.94519 1.66668 12.333 4.05449 12.333 7.00001ZM7.66634 3.66668V5.00001H6.33301V3.66668H7.66634ZM7.66634 10.3333V6.33334H6.33301V10.3333H7.66634Z"/>
</svg>