<svg width="32" height="32" viewBox="0 0 32 32" fill="none" xmlns="http://www.w3.org/2000/svg">
<path fill-rule="evenodd" clip-rule="evenodd" d="M26.1823 17.1312L28.4447 19.3936L28.4463 19.3952C31.2759 16.5657 32.3809 12.4415 31.3452 8.57627C30.3096 4.71105 27.2905 1.69196 23.4252 0.656274C19.56 -0.379411 15.4359 0.725651 12.6063 3.55519L12.0399 4.11999C9.93927 6.22044 8.75911 9.06937 8.75911 12.04C8.75911 15.0106 9.93927 17.8596 12.0399 19.96L14.3023 22.2224L16.5663 19.96L14.3023 17.696C11.1793 14.572 11.1793 9.50799 14.3023 6.38399L14.8687 5.8176C16.8867 3.78184 19.8397 2.98135 22.6096 3.7192C25.3794 4.45705 27.5429 6.62047 28.2807 9.39035C29.0186 12.1602 28.2181 15.1132 26.1823 17.1312ZM19.9599 12.04L17.6975 9.7776L15.4335 12.04L17.6975 14.304C20.8206 17.428 20.8206 22.492 17.6975 25.616L17.1311 26.1824C15.1131 28.2182 12.1602 29.0186 9.39028 28.2808C6.6204 27.5429 4.45698 25.3795 3.71913 22.6096C2.98127 19.8398 3.78176 16.8868 5.81752 14.8688L3.55352 12.6048C-0.820575 16.9789 -0.820574 24.0707 3.55352 28.4448C7.92762 32.8189 15.0194 32.8189 19.3935 28.4448L19.9599 27.88C22.0606 25.7796 23.2407 22.9306 23.2407 19.96C23.2407 16.9894 22.0606 14.1404 19.9599 12.04Z" fill="#ACB1C1"/>
</svg>
