<?xml version="1.0" encoding="UTF-8"?>
<svg width="190px" height="289px" viewBox="0 0 190 289" version="1.1" xmlns="http://www.w3.org/2000/svg" xmlns:xlink="http://www.w3.org/1999/xlink">
    <!-- Generator: Sketch 61.2 (89653) - https://sketch.com -->
    <title>Человек за ноутбуком</title>
    <desc>Created with Sketch.</desc>
    <defs>
        <linearGradient x1="100%" y1="50.0090926%" x2="-5.5860278e-15%" y2="50.0090926%" id="linearGradient-1">
            <stop stop-color="#E2EBEF" offset="0%"></stop>
            <stop stop-color="#D3E2E9" offset="54%"></stop>
            <stop stop-color="#CCDEE6" offset="100%"></stop>
        </linearGradient>
        <linearGradient x1="99.9684443%" y1="50.0090926%" x2="-1.12108352e-14%" y2="50.0090926%" id="linearGradient-2">
            <stop stop-color="#BDD2DD" offset="0%"></stop>
            <stop stop-color="#A5C2D1" offset="100%"></stop>
        </linearGradient>
        <linearGradient x1="100%" y1="50%" x2="-5.5860278e-15%" y2="50%" id="linearGradient-3">
            <stop stop-color="#EEF1FF" offset="0%"></stop>
            <stop stop-color="#E7EDFA" offset="34%"></stop>
            <stop stop-color="#D5E3ED" offset="81%"></stop>
            <stop stop-color="#CCDEE6" offset="100%"></stop>
        </linearGradient>
        <linearGradient x1="100%" y1="49.9823312%" x2="2.48528414e-14%" y2="49.9823312%" id="linearGradient-4">
            <stop stop-color="#0116CB" offset="0%"></stop>
            <stop stop-color="#0362E2" offset="100%"></stop>
        </linearGradient>
        <linearGradient x1="-180.114485%" y1="49.9659939%" x2="-80.1642608%" y2="49.9659939%" id="linearGradient-5">
            <stop stop-color="#0116CB" offset="0%"></stop>
            <stop stop-color="#0362E2" offset="100%"></stop>
        </linearGradient>
        <linearGradient x1="99.6168945%" y1="49.9742372%" x2="0.00325826549%" y2="49.9742372%" id="linearGradient-6">
            <stop stop-color="#3670DD" offset="0%"></stop>
            <stop stop-color="#348BFF" offset="100%"></stop>
        </linearGradient>
        <linearGradient x1="99.9917582%" y1="49.9928141%" x2="0.0375312416%" y2="49.9928141%" id="linearGradient-7">
            <stop stop-color="#3670DD" offset="0%"></stop>
            <stop stop-color="#3674E2" offset="11%"></stop>
            <stop stop-color="#3485F7" offset="65%"></stop>
            <stop stop-color="#348BFF" offset="100%"></stop>
        </linearGradient>
        <linearGradient x1="29.2034957%" y1="102.958069%" x2="70.8185344%" y2="-2.94908588%" id="linearGradient-8">
            <stop stop-color="#8B9DBD" offset="0%"></stop>
            <stop stop-color="#9DB2D6" offset="100%"></stop>
        </linearGradient>
        <linearGradient x1="100.011076%" y1="49.9880399%" x2="0.100690966%" y2="49.9880399%" id="linearGradient-9">
            <stop stop-color="#348BFF" offset="0%"></stop>
            <stop stop-color="#3670DD" offset="100%"></stop>
        </linearGradient>
    </defs>
    <g id="Desktop" stroke="none" stroke-width="1" fill="none" fill-rule="evenodd">
        <g id="Иллюстрации" transform="translate(-124.000000, -56.000000)" fill-rule="nonzero">
            <g id="Человек-за-ноутбуком" transform="translate(124.000000, 56.000000)">
                <polygon id="Path" fill="url(#linearGradient-1)" points="0 145 69.7578616 266 140 225.534643 140 145.022004"></polygon>
                <polygon id="Path" fill="url(#linearGradient-2)" points="70 185.465357 0 145 0 225.534643 70 266"></polygon>
                <polygon id="Path" fill="url(#linearGradient-3)" points="140 145.522023 70.1100629 105 0 145.5 69.7578616 186"></polygon>
                <path d="M108.919531,255.171291 C112.5666,258.183564 110.004968,261.767509 114.542095,272.893128 C116.71297,278.346001 118.60163,280.368841 117.820116,283.293164 C116.620051,286.862731 113.223404,289.189163 109.505667,288.987899 C103.470636,288.614113 99.2808483,280.654677 96.1330805,274.740069 C92.3991765,267.726091 89.3816611,262.031357 91.9650016,257.611892 C95.0476433,252.466842 104.469238,251.587346 108.919531,255.171291 Z" id="Path" fill="#5F2547"></path>
                <path d="M156.469521,245.23689 C158.179597,248.215018 160.40919,248.258814 168.52664,251.346433 C179.782837,255.726033 182.661825,258.309997 186.211857,256.317279 C188.371093,255.186015 189.802479,253.009857 190,250.558105 C190,248.236916 188.203338,246.44128 180.172474,241.141964 C170.886112,235.010523 167.530899,233.915623 164.846729,233.477663 C161.621396,232.930213 158.590881,232.448457 156.66434,234.463073 C154.326514,236.959445 154.629566,241.995986 156.469521,245.23689 Z" id="Path" fill="#5F2547"></path>
                <path d="M60.5867436,101 C81.4767099,101.76563 102.020047,106.607481 121.075551,115.256585 C134.410633,121.328834 139.657223,124.320956 143.526583,128.105111 C157.189577,141.48166 160.534278,160.160426 163.070129,174.307006 C165.496677,187.859562 164.097587,191.907728 168.010668,221.586945 C168.797657,227.505187 169.519063,232.345386 170,235.491515 C167.077912,236.316308 164.303777,237.600886 161.780343,239.297671 C158.10773,241.739771 157.692375,243.103827 156.227702,242.993822 C151.855544,242.707811 149.472718,224.865079 149.363414,223.897039 C147.658272,211.004511 143.526583,191.203699 132.552466,160.842454 C121.644779,159.888672 110.799193,158.316781 100.067331,156.134261 C81.195141,152.272076 62.7493598,146.538533 45,139.017559 C48.6348782,132.745186 51.813027,126.215797 54.5094439,119.480758 C56.9114753,113.452352 58.9411087,107.280341 60.5867436,101 Z" id="Path" fill="url(#linearGradient-4)"></path>
                <path d="M37.5131906,112 C98.3773021,137.700597 106.196117,163.731535 107.707317,173.245381 C108.473868,178.024326 109.349925,192.88971 110.576406,222.510364 C111.233449,238.520932 111.69338,251.734607 112,260.67586 C106.386623,266.822379 97.0857369,267.76898 90.3613738,262.878139 C89.6095153,247.146006 87.8611557,231.47806 85.1269288,215.969595 C82.9367845,203.746946 80.3524141,192.471277 77.5052265,182.164611 C59.6830606,174.770894 43.6694274,163.575134 30.5704331,149.350653 C28.2050772,146.751964 26.0368342,144.131252 24,141.532562 L37.5131906,112 Z" id="Path" fill="url(#linearGradient-5)"></path>
                <g id="Group" transform="translate(33.000000, 105.000000)">
                    <path d="M0.798709677,47.97 C0.789363156,47.8902426 0.789363156,47.8094943 0.798709677,47.7297368 L0.798709677,50.3944737 C0.8556272,51.0773645 1.28567902,51.6735155 1.91741935,51.9452632 L49.5612903,79.5536842 C51.2921072,80.4256219 53.3362799,80.4256219 55.0670968,79.5536842 L132.565161,34.9957895 C133.211531,34.7100152 133.655006,34.1017915 133.727742,33.4013158 L133.727742,30.7584211 L133.727742,30.7584211 C133.664762,30.0724821 133.237985,29.4725377 132.609032,29.1857895 L84.8993548,4.83184211 C83.1770466,3.95667188 81.1377921,3.95667188 79.4154839,4.83184211 L1.89548387,46.1352632 C1.16373712,46.4392891 0.718225996,47.1845617 0.798709677,47.97 L0.798709677,47.97 Z" id="Path" fill="#91A5C6"></path>
                    <path d="M1.89548387,46.1352632 L79.4154839,1.57736842 C81.1377921,0.702198198 83.1770466,0.702198198 84.8993548,1.57736842 L132.587097,29.1639474 C133.258871,29.4032565 133.707179,30.0370669 133.707179,30.7475 C133.707179,31.4579331 133.258871,32.0917435 132.587097,32.3310526 L55.0012903,76.8889474 C53.2704735,77.760885 51.2263007,77.760885 49.4954839,76.8889474 L1.87354839,49.2368421 C1.24810438,48.9703251 0.844289435,48.3561879 0.849038058,47.6787919 C0.853871012,47.0013958 1.26633227,46.3929826 1.89548387,46.1352632 Z" id="Path" fill="#C4D0E6"></path>
                    <path d="M44.2529032,68.4142105 L48.4206452,66.0552632 C49.0039678,65.7484786 49.7018387,65.7484786 50.2851613,66.0552632 L54.2993548,68.3923684 C54.803871,68.6763158 54.803871,69.1568421 54.2993548,69.4626316 L50.1754839,71.8215789 C49.5921613,72.1283635 48.8942903,72.1283635 48.3109677,71.8215789 L44.2748387,69.4844737 C43.7264516,69.2005263 43.7264516,68.72 44.2529032,68.4142105 Z" id="Path" fill="#3676E5"></path>
                    <path d="M51.1625806,72.4113158 L124.427097,30.2997368 C125.005445,30.0042431 125.69133,30.0042431 126.269677,30.2997368 L127.366452,30.9331579 C127.892903,31.2171053 127.870968,31.6976316 127.366452,32.0034211 L54.1019355,74.115 C53.5186129,74.4217846 52.8207419,74.4217846 52.2374194,74.115 L51.1406452,73.4815789 C50.6141935,73.2631579 50.6141935,72.7171053 51.1625806,72.4113158 Z" id="Path" fill="#3676E5"></path>
                    <path d="M37.4529032,64.5263158 L45.8103226,59.7428947 C46.3963347,59.447112 47.0888266,59.447112 47.6748387,59.7428947 L51.6890323,62.08 C51.9164855,62.1604571 52.0684405,62.3747802 52.0684405,62.6151316 C52.0684405,62.8554829 51.9164855,63.069806 51.6890323,63.1502632 L43.3316129,67.9555263 C42.7482903,68.2623109 42.0504194,68.2623109 41.4670968,67.9555263 L37.4309677,65.6184211 C36.8167742,65.2034211 36.8387097,64.7228947 37.4529032,64.5263158 Z" id="Path" fill="#3676E5"></path>
                    <path d="M61.5819355,65.2907895 L57.48,67.6715789 C56.8894221,67.9476825 56.2060618,67.9476825 55.6154839,67.6715789 L51.5793548,65.3344737 C51.0748387,65.0505263 51.0748387,64.57 51.5793548,64.2642105 L55.7032258,61.9052632 C56.2815737,61.6097694 56.9674586,61.6097694 57.5458065,61.9052632 L61.5819355,64.2205263 C61.9987097,64.5263158 61.9987097,65.0068421 61.5819355,65.2907895 Z" id="Path" fill="#3676E5"></path>
                    <path d="M68.7109677,61.1407895 L64.5870968,63.4997368 C64.0010847,63.7955196 63.3085927,63.7955196 62.7225806,63.4997368 L58.6864516,61.1626316 C58.4589984,61.0821744 58.3070434,60.8678514 58.3070434,60.6275 C58.3070434,60.3871486 58.4589984,60.1728256 58.6864516,60.0923684 L62.8103226,57.7115789 C63.4009005,57.4354754 64.0842608,57.4354754 64.6748387,57.7115789 L68.7329032,60.1578947 C69.2374194,60.3544737 69.2154839,60.835 68.7109677,61.1407895 Z" id="Path" fill="#3676E5"></path>
                    <path d="M75.9277419,56.9907895 L71.8258065,59.3497368 C71.2424839,59.6565214 70.5446129,59.6565214 69.9612903,59.3497368 L65.9690323,57.0126316 C65.4645161,56.7286842 65.4645161,56.2481579 65.9690323,55.9423684 L70.0709677,53.6052632 C70.6542903,53.2984786 71.3521613,53.2984786 71.9354839,53.6052632 L75.9716129,55.9205263 C76.476129,56.2044737 76.4541935,56.685 75.9277419,56.9907895 Z" id="Path" fill="#3676E5"></path>
                    <path d="M83.1664516,52.8189474 L79.1303226,55.1997368 C78.5459049,55.4690526 77.8721597,55.4690526 77.2877419,55.1997368 L73.2516129,52.8626316 C72.7470968,52.5786842 72.7470968,52.0981579 73.2516129,51.7923684 L77.3535484,49.4334211 C77.9395605,49.1376383 78.6320524,49.1376383 79.2180645,49.4334211 L83.2541935,51.7705263 C83.6929032,52.0544737 83.6929032,52.535 83.1664516,52.8189474 Z" id="Path" fill="#3676E5"></path>
                    <path d="M90.4051613,48.6689474 L86.2812903,51.0278947 C85.7029425,51.3233885 85.0170575,51.3233885 84.4387097,51.0278947 L80.4025806,48.6907895 C79.8980645,48.385 79.8980645,47.9044737 80.4025806,47.6205263 L84.5045161,45.2397368 C85.095094,44.9636333 85.7784544,44.9636333 86.3690323,45.2397368 L90.4051613,47.5768421 C90.9316129,47.8826316 90.9316129,48.3631579 90.4051613,48.6689474 Z" id="Path" fill="#3676E5"></path>
                    <path d="M97.643871,44.5189474 L93.52,46.8778947 C92.9366774,47.1846793 92.2388065,47.1846793 91.6554839,46.8778947 L87.6193548,44.5626316 C87.1148387,44.2568421 87.1367742,43.7763158 87.6193548,43.4705263 L91.7432258,41.1115789 C92.3265484,40.8047944 93.0244193,40.8047944 93.6077419,41.1115789 L97.6219355,43.4486842 C98.1483871,43.7326316 98.1483871,44.2131579 97.643871,44.5189474 Z" id="Path" fill="#3676E5"></path>
                    <path d="M104.860645,40.3471053 L100.736774,42.6842105 C100.146196,42.9603141 99.462836,42.9603141 98.8722581,42.6842105 L94.8580645,40.5 C94.3535484,40.2160526 94.3535484,39.7355263 94.8580645,39.4297368 L98.9819355,37.0707895 C99.5602834,36.7752957 100.246168,36.7752957 100.824516,37.0707895 L104.860645,39.4078947 C105.452903,39.5826316 105.452903,40.0631579 104.860645,40.3471053 Z" id="Path" fill="#3676E5"></path>
                    <path d="M108.085161,32.7897368 L112.033548,35.1268421 C112.538065,35.4107895 112.516129,35.8913158 112.033548,36.1971053 L107.909677,38.5560526 C107.323665,38.8518354 106.631173,38.8518354 106.045161,38.5560526 L102.030968,36.2189474 C101.526452,35.9131579 101.526452,35.4326316 102.030968,35.1486842 L106.154839,32.7678947 C106.767085,32.4777036 107.479696,32.485767 108.085161,32.7897368 Z" id="Path" fill="#3676E5"></path>
                    <path d="M98.28,28.2028947 L94.156129,30.5618421 C93.5777812,30.8573359 92.8918963,30.8573359 92.3135484,30.5618421 L88.2774194,28.2247368 C87.7729032,27.9189474 87.7729032,27.4602632 88.2774194,27.1544737 L92.3793548,24.7736842 C92.9699327,24.4975806 93.6532931,24.4975806 94.243871,24.7736842 L98.28,27.1107895 C98.8722581,27.3947368 98.8722581,27.8971053 98.28,28.2028947 Z" id="Path" fill="#3676E5"></path>
                    <path d="M48.64,57.9736842 L52.8077419,55.5710526 C53.3833034,55.2642891 54.0747611,55.2642891 54.6503226,55.5710526 L58.6425806,57.9736842 C59.1470968,58.2794737 59.1470968,58.76 58.6425806,59.0439474 L54.5406452,61.4247368 C53.9573226,61.7315214 53.2594516,61.7315214 52.676129,61.4247368 L48.64,59.0876316 C48.1135484,58.7163158 48.1135484,58.2357895 48.64,57.9736842 Z" id="Path" fill="#3676E5"></path>
                    <path d="M65.9690323,54.8065789 L61.8451613,57.1873684 C61.2545834,57.463472 60.5712231,57.463472 59.9806452,57.1873684 L55.9664516,54.8502632 C55.4619355,54.5663158 55.4619355,54.0857895 55.9664516,53.78 L59.9806452,51.4210526 C60.5666572,51.1252699 61.2591492,51.1252699 61.8451613,51.4210526 L65.9690323,53.7363158 C66.1964855,53.8167729 66.3484405,54.031096 66.3484405,54.2714474 C66.3484405,54.5117987 66.1964855,54.7261218 65.9690323,54.8065789 L65.9690323,54.8065789 Z" id="Path" fill="#3676E5"></path>
                    <path d="M73.0980645,50.6565789 L68.9741935,53.0155263 C68.390871,53.3223109 67.693,53.3223109 67.1096774,53.0155263 L63.0735484,50.7002632 C62.8460952,50.619806 62.6941401,50.4054829 62.6941401,50.1651316 C62.6941401,49.9247802 62.8460952,49.7104571 63.0735484,49.63 L67.1974194,47.2492105 C67.7879972,46.9731069 68.4713576,46.9731069 69.0619355,47.2492105 L73.076129,49.5863158 C73.6245161,49.8702632 73.6025806,50.3507895 73.0980645,50.6565789 Z" id="Path" fill="#3676E5"></path>
                    <path d="M80.3148387,46.4847368 L76.2129032,48.8655263 C75.6295806,49.1723109 74.9317097,49.1723109 74.3483871,48.8655263 L70.356129,46.5284211 C69.8516129,46.2444737 69.8516129,45.7639474 70.356129,45.4581579 L74.48,43.0992105 C75.0555615,42.792447 75.7470191,42.792447 76.3225806,43.0992105 L80.3587097,45.4144737 C80.8412903,45.7202632 80.8412903,46.2007895 80.3148387,46.4847368 Z" id="Path" fill="#3676E5"></path>
                    <path d="M87.5535484,42.3347368 L83.5174194,44.7155263 C82.9268415,44.9916299 82.2434811,44.9916299 81.6529032,44.7155263 L77.6387097,42.3784211 C77.1341935,42.0944737 77.1341935,41.6139474 77.6387097,41.3081579 L81.7406452,38.9492105 C82.3266572,38.6534278 83.0191492,38.6534278 83.6051613,38.9492105 L87.6412903,41.2863158 C87.8481702,41.3908342 87.9708566,41.6097156 87.9515913,41.839915 C87.932326,42.0701144 87.7749483,42.2657565 87.5535484,42.3347368 L87.5535484,42.3347368 Z" id="Path" fill="#3676E5"></path>
                    <path d="M84.7896774,37.1581579 L88.9135484,34.7773684 C89.4995605,34.4815857 90.1920524,34.4815857 90.7780645,34.7773684 L94.7922581,37.1144737 C95.3187097,37.3984211 95.2967742,37.8789474 94.7922581,38.1847368 L90.6683871,40.5 C90.082375,40.7957827 89.3898831,40.7957827 88.803871,40.5 L84.7677419,38.3157895 C84.4467042,38.3097579 84.1913621,38.0457238 84.1973138,37.7260526 C84.2034767,37.4063815 84.4686396,37.1521264 84.7896774,37.1581579 Z" id="Path" fill="#3676E5"></path>
                    <path d="M102.009032,33.9473684 L97.9070968,36.3063158 C97.3237742,36.6131004 96.6259032,36.6131004 96.0425806,36.3063158 L92.0064516,33.9692105 C91.5019355,33.6852632 91.5019355,33.2047368 92.0064516,32.8989474 L96.1303226,30.54 C96.7058841,30.2332365 97.3973417,30.2332365 97.9729032,30.54 L102.009032,32.8552632 C102.535484,33.2484211 102.535484,33.7289474 102.009032,33.9473684 Z" id="Path" fill="#3676E5"></path>
                    <path d="M116.420645,25.7128947 L105.058065,32.2655263 C104.467487,32.5416299 103.784126,32.5416299 103.193548,32.2655263 L99.1793548,29.9284211 C98.6748387,29.6444737 98.6748387,29.1639474 99.1793548,28.8581579 L110.52,22.3055263 C111.110578,22.0294227 111.793938,22.0294227 112.384516,22.3055263 L116.420645,24.6426316 C117.012903,24.9265789 116.990968,25.4071053 116.420645,25.7128947 Z" id="Path" fill="#3676E5"></path>
                    <path d="M123.396129,29.71 L115.214194,34.4060526 C114.630871,34.7128372 113.933,34.7128372 113.349677,34.4060526 L109.313548,32.0689474 C108.809032,31.785 108.809032,31.3044737 109.313548,30.9986842 L117.517419,26.3026316 C118.101837,26.0333158 118.775582,26.0333158 119.36,26.3026316 L123.396129,28.6397368 C123.900645,28.9236842 123.900645,29.4042105 123.396129,29.71 Z" id="Path" fill="#3676E5"></path>
                    <path d="M30.4554839,60.42 L41.796129,53.8673684 C42.3821411,53.5715857 43.0746331,53.5715857 43.6606452,53.8673684 L47.6748387,56.2044737 C48.1793548,56.5102632 48.1793548,56.9907895 47.6748387,57.2747368 L36.3122581,63.8273684 C35.7289355,64.134153 35.0310645,64.134153 34.4477419,63.8273684 L30.4335484,61.5121053 C29.9070968,61.2063158 29.9290323,60.7257895 30.4554839,60.42 Z" id="Path" fill="#3676E5"></path>
                    <path d="M23.5458065,56.4447368 L31.8812903,51.6394737 C32.4673024,51.3436909 33.1597944,51.3436909 33.7458065,51.6394737 L37.7819355,53.9765789 C38.2864516,54.2823684 38.2864516,54.7628947 37.7819355,55.0468421 L29.4245161,59.8521053 C28.8411935,60.1588898 28.1433226,60.1588898 27.56,59.8521053 L23.5458065,57.5368421 C23.0193548,57.2092105 23.0193548,56.7286842 23.5458065,56.4447368 Z" id="Path" fill="#3676E5"></path>
                    <path d="M44.9109677,52.12 L49.0348387,49.7392105 C49.6192564,49.4698948 50.2930016,49.4698948 50.8774194,49.7392105 L55.0012903,52.0763158 C55.5058065,52.3602632 55.5058065,52.8407895 55.0012903,53.1465789 L50.8774194,55.5055263 C50.2990715,55.8010201 49.6131866,55.8010201 49.0348387,55.5055263 L44.9987097,53.1684211 C44.3845161,52.8844737 44.3845161,52.4039474 44.9109677,52.12 Z" id="Path" fill="#3676E5"></path>
                    <path d="M52.1277419,47.97 L56.2516129,45.5892105 C56.8349355,45.282426 57.5328064,45.282426 58.116129,45.5892105 L62.1522581,47.9044737 C62.6567742,48.2102632 62.6567742,48.6907895 62.1522581,48.9965789 L58.0064516,51.4210526 C57.423129,51.7278372 56.7252581,51.7278372 56.1419355,51.4210526 L52.1277419,49.1057895 C51.8127615,49.1057894 51.5574195,48.8515343 51.5574195,48.5378947 C51.5574195,48.2242552 51.8127615,47.9700001 52.1277419,47.97 L52.1277419,47.97 Z" id="Path" fill="#3676E5"></path>
                    <path d="M59.3883871,43.7981579 L63.5122581,41.4392105 C64.0906059,41.1437168 64.7764908,41.1437168 65.3548387,41.4392105 L69.3909677,43.7763158 C69.8954839,44.0821053 69.8954839,44.5626316 69.3909677,44.8465789 L65.2670968,47.2273684 C64.6765189,47.503472 63.9931585,47.503472 63.4025806,47.2273684 L59.3883871,44.8684211 C58.84,44.5844737 58.84,44.1039474 59.3883871,43.7981579 Z" id="Path" fill="#3676E5"></path>
                    <path d="M66.6051613,39.6481579 L70.7290323,37.2673684 C71.31345,36.9980527 71.9871952,36.9980527 72.5716129,37.2673684 L76.6077419,39.6044737 C77.1122581,39.8884211 77.1122581,40.3689474 76.6077419,40.6747368 L72.5496774,43.0336842 C71.9636653,43.329467 71.2711734,43.329467 70.6851613,43.0336842 L66.5832258,40.7184211 C66.0787097,40.5 66.0787097,39.9321053 66.6051613,39.6481579 Z" id="Path" fill="#3676E5"></path>
                    <path d="M73.843871,35.4763158 L77.9458065,33.1173684 C78.529129,32.8105839 79.227,32.8105839 79.8103226,33.1173684 L83.8464516,35.4326316 C84.3509677,35.7384211 84.3509677,36.2189474 83.8464516,36.5247368 L79.7225806,38.8836842 C79.1392581,39.1904688 78.4413871,39.1904688 77.8580645,38.8836842 L73.8,36.5684211 C73.2954839,36.2626316 73.3174194,35.7821053 73.843871,35.4763158 Z" id="Path" fill="#3676E5"></path>
                    <path d="M81.0606452,31.3263158 L85.1845161,28.9673684 C85.7705282,28.6715857 86.4630202,28.6715857 87.0490323,28.9673684 L91.0632258,31.3044737 C91.290679,31.3849308 91.4426341,31.5992539 91.4426341,31.8396053 C91.4426341,32.0799566 91.290679,32.2942797 91.0632258,32.3747368 L86.9393548,34.7555263 C86.3487769,35.0316299 85.6654166,35.0316299 85.0748387,34.7555263 L81.0387097,32.4184211 C80.5341935,32.1126316 80.556129,31.6321053 81.0606452,31.3263158 Z" id="Path" fill="#3676E5"></path>
                    <path d="M44.8232258,50.9842105 L40.6993548,53.3431579 C40.1160322,53.6499425 39.4181613,53.6499425 38.8348387,53.3431579 L34.7987097,51.0060526 C34.2941935,50.7221053 34.316129,50.2415789 34.7987097,49.9357895 L38.9225806,47.5768421 C39.5059032,47.2700575 40.2037742,47.2700575 40.7870968,47.5768421 L44.8012903,49.8921053 C45.3496774,50.1978947 45.3277419,50.6784211 44.8232258,50.9842105 Z" id="Path" fill="#3676E5"></path>
                    <path d="M80.9729032,30.1905263 L47.9380645,49.2368421 C47.3474866,49.5129457 46.6641263,49.5129457 46.0735484,49.2368421 L42.0374194,46.8997368 C41.5329032,46.6157895 41.5329032,46.1352632 42.0374194,45.8294737 L75.0722581,26.8268421 C75.6582702,26.5310594 76.3507621,26.5310594 76.9367742,26.8268421 L80.9729032,29.1639474 C81.4993548,29.4042105 81.4993548,29.8847368 80.9729032,30.1905263 Z" id="Path" fill="#3676E5"></path>
                    <path d="M88.2116129,26.0405263 L84.0877419,28.3994737 C83.5044193,28.7062582 82.8065484,28.7062582 82.2232258,28.3994737 L78.1870968,26.0623684 C77.6825806,25.7784211 77.7045161,25.2978947 78.1870968,24.9921053 L82.3109677,22.6331579 C82.8942903,22.3263733 83.5921613,22.3263733 84.1754839,22.6331579 L88.1896774,24.9484211 C88.7380645,25.2105263 88.716129,25.7347368 88.2116129,26.0405263 Z" id="Path" fill="#3676E5"></path>
                    <path d="M89.4619355,24.2494737 L88.8916129,23.9218421 C88.6641597,23.841385 88.5122047,23.6270619 88.5122047,23.3867105 C88.5122047,23.1463592 88.6641597,22.9320361 88.8916129,22.8515789 L93.0154839,20.4707895 C93.5988065,20.1640049 94.2966774,20.1640049 94.88,20.4707895 L95.4503226,20.7984211 C95.9548387,21.1042105 95.9548387,21.5847368 95.4503226,21.8686842 L91.3483871,24.2494737 C90.7516815,24.5324632 90.0586411,24.5324632 89.4619355,24.2494737 Z" id="Path" fill="#3676E5"></path>
                    <path d="M91.9845161,19.8810526 L87.9045161,22.24 C87.3211935,22.5467846 86.6233226,22.5467846 86.04,22.24 L85.4696774,21.9123684 C84.9651613,21.6284211 84.9651613,21.1478947 85.4696774,20.8421053 L89.5935484,18.4831579 C90.1718963,18.1876641 90.8577812,18.1876641 91.436129,18.4831579 L92.0283871,18.8326316 C92.5109677,19.0947368 92.4890323,19.5752632 91.9845161,19.8810526 Z" id="Path" fill="#3676E5"></path>
                    <path d="M102.667097,17.7186842 L98.5432258,20.0776316 C97.9572137,20.3734143 97.2647218,20.3734143 96.6787097,20.0776316 L92.6645161,17.7405263 C92.1380645,17.4347368 92.16,16.9542105 92.6645161,16.6702632 L96.7883871,14.2894737 C97.378965,14.0133701 98.0623253,14.0133701 98.6529032,14.2894737 L102.689032,16.6265789 C103.259355,16.9323684 103.259355,17.4128947 102.667097,17.7186842 Z" id="Path" fill="#3676E5"></path>
                    <path d="M109.576774,21.7157895 L101.394839,26.4118421 C100.811516,26.7186267 100.113645,26.7186267 99.5303226,26.4118421 L95.516129,24.0965789 C94.9896774,23.7907895 95.0116129,23.3102632 95.516129,23.0044737 L103.698065,18.3084211 C104.284077,18.0126383 104.976569,18.0126383 105.562581,18.3084211 L109.59871,20.6455263 C110.103226,20.8421053 110.103226,21.41 109.576774,21.7157895 Z" id="Path" fill="#3676E5"></path>
                    <path d="M30.4993548,32.1781579 L60.156129,15.1413158 C60.7421411,14.845533 61.4346331,14.845533 62.0206452,15.1413158 L76.3006452,23.3976316 C76.8051613,23.7034211 76.8051613,24.1839474 76.3006452,24.4678947 L46.6219355,41.5047368 C46.0386129,41.8115214 45.3407419,41.8115214 44.7574194,41.5047368 L30.4774194,33.2484211 C29.9729032,32.9644737 29.9729032,32.4839474 30.4993548,32.1781579 Z" id="Path" fill="#A5B9D6"></path>
                </g>
                <path d="M78.9463621,114.822534 C77.0102318,117.134163 74.6649023,119.073499 72.0264417,120.544568 C70.0091528,121.662135 67.8424682,122.488876 65.5913564,123 C72.2027454,94.4994473 67.9273805,76.1275526 62.5060416,64.573867 C59.0460814,57.1417998 49.2832637,40.2168563 54.5062609,31.2720674 C56.3429391,28.2272365 58.7434129,25.5565381 61.5804471,23.4015302 C64.0347534,21.5651604 66.8390587,20.2448823 69.8226454,19.5210703 C73.5954169,18.7058267 77.5138308,18.8490824 81.2162723,19.9376169 C86.4271144,20.823987 91.1775578,23.453712 94.6814678,27.3916076 C97.4199624,31.0416611 98.9175775,35.4650942 98.9568327,40.0195447 C99.397592,47.7804645 96.400429,52.0555474 92.8302789,60.9784127 C91.6843048,63.8942385 89.6568122,72.1593987 85.2492196,88.6677958 C83.4861825,95.7052399 81.3044242,104.540411 78.9463621,114.822534 Z" id="Path" fill="#D7D7E0"></path>
                <path d="M109.939948,97.330178 C111.702461,99.7856155 113.324573,102.335599 114.798756,104.968295 C119.053013,112.496353 119.053013,115.1818 118.98584,116.326417 C118.918668,117.471034 118.649978,121.653288 115.739171,122.929977 C114.168736,123.492813 112.429994,123.380989 110.947535,122.62181 C110.999907,124.265734 110.521808,125.883793 109.581695,127.244302 C109.133878,127.904658 108.260636,129.159334 107.611303,128.983239 C106.961969,128.807144 106.827624,126.958148 106.782842,121.191039 C106.782842,116.150322 106.917187,113.729017 105.305048,111.351736 C104.879622,110.713392 104.163116,109.63481 103.401828,109.74487 C101.386654,110.009012 101.655344,118.13139 100.401458,118.219438 C99.1475718,118.307485 97.4682602,113.596946 98.1623757,108.776348 C98.4310655,106.817292 98.9684452,106.0909 99.9312506,101.820598 C100.401458,99.7955068 100.692539,98.1226051 100.871665,97 L109.939948,97.330178 Z" id="Path" fill="#F8D0C9"></path>
                <path d="M94.8229769,24.0486997 C100.534094,25.0531584 103.711876,30.4466649 105.600767,33.8094179 C110.57855,42.5438413 108.80077,48.2648886 110.045216,63.724818 C111.356328,81.4775336 115.356333,96.1513649 111.067439,97.8982495 C109.48966,98.6406755 107.267435,97.1776596 103.734098,98.6406755 C101.08965,99.6888063 100.800761,101.042642 99.8007602,100.99897 C96.1563117,100.824281 97.2229796,81.7832384 90.5563056,62.0652776 C90.4007498,61.6067203 89.8007492,61.0826549 90.0674161,60.6677698 C97.62298,49.2911833 95.2896441,48.7234458 98.7785368,41.5393826 C101.156317,36.6044334 89.2229708,23.0879132 94.8229769,24.0486997 Z" id="Path" fill="url(#linearGradient-6)"></path>
                <path d="M103.987762,34.4198771 C99.6179041,22.7856901 82.1384714,16.2194255 69.3784856,18.42287 C65.5985583,19.0618689 62.9766434,20.4941078 57.7109643,23.3365512 C49.4519324,27.7434403 32.2565405,37.1301139 24.0412072,55.3746345 C21.3142621,61.698931 19.7520476,68.471139 19.4310068,75.3598762 C17.4526282,99.8688613 17.5257177,124.502385 19.6494997,149 C22.9362004,149.033502 26.1723183,148.181482 29.0228455,146.531134 C34.8347568,143.005623 34.2666753,138.53263 39.5979022,133.795225 C44.9291292,129.057819 52.9041203,128.771371 55.7663774,128.727302 C64.0909572,128.727302 69.1599927,132.318917 71.060881,130.093438 C72.2407427,128.661199 70.8205388,126.171307 69.8373207,123.130553 C68.8541026,120.0898 68.3078703,116.1236 71.891154,99.4435247 C76.1080672,79.7887997 77.7030654,81.4854519 77.5719696,75.2056351 C77.2410318,67.0702497 74.8082625,59.1632103 70.5146487,52.2677777 C64.5497923,42.6827941 58.5412373,41.2505551 58.3008951,34.4859805 C58.4091531,29.5002769 60.9523627,24.8903043 65.0960246,22.1687256 C74.7534111,15.5583921 90.8781877,22.829759 94.0681842,32.0842259 C94.8329094,34.2876705 94.5707179,35.697875 92.4513367,45.6354097 C89.3268881,60.2442468 87.7537392,67.6698548 87.141959,69.6529549 C84.061209,80.2735574 83.383881,79.0175941 78.4022427,94.4857746 C75.6273828,103.123277 73.3987551,111.077712 76.2173136,119.538939 C76.5669023,120.596592 77.8123118,124.474654 79.4728579,124.474654 C81.133404,124.474654 82.0073757,119.230456 85.3940158,114.008293 C87.8389303,110.324581 91.1391518,107.298955 95.0077037,105.194515 C93.0580337,100.422636 91.8068154,95.3901955 91.2933243,90.2551611 C88.4092179,62.5137947 109.821523,49.8439887 103.987762,34.4198771 Z" id="Path" fill="url(#linearGradient-7)"></path>
                <path d="M68.4493948,18.028498 C66.4268268,19.7429655 67.6139863,23.4757303 63.8326635,28.7059414 C63.3202533,29.4272166 62.7622033,30.1158214 62.1618465,30.7676428 C61.8780904,32.3653046 61.9683299,34.0058729 62.4256597,35.5638115 C64.7779942,43.6587025 77.8147638,50.1042323 84.5859696,45.4165742 C89.9941405,41.7055116 90.2799382,31.8093446 86.2787711,25.4506233 C81.8159309,18.1587107 71.6811066,15.2723287 68.4493948,18.028498 Z" id="Path" fill="#EAC5C1"></path>
                <path d="M106.955207,31.9593353 C106.77028,33.6598297 106.239971,35.305008 105.39658,36.7946652 C103.530619,40.1859599 101.68661,39.7921321 99.7767428,42.7895991 C97.4497788,46.4215663 98.3937359,49.6597058 96.6594891,50.1629302 C94.9252423,50.6661545 94.0690952,48.2813086 92.0055611,48.6094984 C89.9420269,48.9376882 89.810312,50.972465 88.4931625,51.7163619 C83.5099471,54.4075184 68.384681,37.1009757 69.7237829,35.5694232 C70.1408803,35.0880782 71.8092696,36.5321133 72.9727516,35.7006992 C74.1362336,34.869285 74.0703761,31.324835 72.7093217,29.1369029 C70.6896925,25.7456082 67.089484,25.9425221 67.0016741,24.7610388 C66.7601967,21.4572614 92.7080408,11.2833772 102.498852,21.3041061 C103.201331,22.048003 107.482067,26.4457465 106.955207,31.9593353 Z" id="Path" fill="#F8D0C9"></path>
                <path d="M66.1407168,27.4662421 C64.6850964,27.0292917 64.133725,19.2078808 67.5081179,12.5662357 C70.2870297,7.06066148 77.1681447,-0.19271406 86.6296778,0.00391358988 C96.0912109,0.20054124 102.222461,8.2622749 104.273562,11.0369095 C109.566728,18.4432177 112.147146,29.8913164 107.802339,33.6490893 C106.082061,35.1128729 103.523697,35.243958 100.568347,35.3968906 C95.2090167,35.6590608 93.7754511,33.6709368 89.8276319,34.8070077 C86.8502264,35.6590608 86.5194035,37.1228444 84.1815888,36.9917593 C81.8437741,36.8606742 81.248293,35.4842807 78.5134909,35.4624332 C76.5947184,35.4624332 76.1536213,36.0960111 75.4037562,35.6590608 C73.8378615,34.7196176 75.4037562,31.8575929 73.6393678,28.689703 C73.5070386,28.4712278 71.8970342,25.6092031 69.7356583,25.5873556 C67.5742825,25.5655081 66.9346916,27.7065647 66.1407168,27.4662421 Z" id="Path" fill="#000B75"></path>
                <path d="M97.2810715,156.334135 C95.5339613,157.372596 92.0397409,153.326923 91.0765904,154.019231 C90.5614169,154.408654 90.7630066,156.290865 91.7709547,158 L87,149 C88.3892176,149.010729 89.7669012,149.244694 91.0765904,149.692308 C92.8734351,150.297467 94.5371802,151.22203 95.9819383,152.418269 C97.3930657,153.413462 98.0426323,154.149038 97.9978346,154.971154 C97.9842306,155.506706 97.7207994,156.007641 97.2810715,156.334135 L97.2810715,156.334135 Z" id="Path" fill="#F8D0C9"></path>
                <path d="M84.1538206,182.635394 L86.3512579,184.823776 L86.3512579,184.823776 C86.6369247,185.13015 87.3181303,185.042614 88.241054,184.517403 L163.481306,137.686013 C165.075916,136.742629 166.35318,135.34876 167.151027,133.681272 L185.851218,93.5025655 C186.070962,92.933586 186.027013,92.5396771 185.851218,92.3646065 L185.851218,92.3646065 L183.653781,90.1762238 C183.368114,89.8698502 182.686908,89.9573855 181.785959,90.4825974 L103.227576,135.716468 C102.909066,135.892833 102.607484,136.097942 102.326627,136.329215 C101.598648,136.875053 100.954598,137.523822 100.414856,138.254992 C100.049986,138.693344 99.7604131,139.188765 99.5578559,139.721208 L84.175795,181.519318 C83.9340769,182.153949 83.9560513,182.438439 84.1538206,182.635394 Z" id="Path" fill="#CCD6E5"></path>
                <path d="M105.245848,137.780746 C103.6522,138.73275 102.37325,140.128618 101.566805,141.79612 L86.1456683,183.727165 C85.6389738,185.043681 86.4981514,185.394752 88.0402651,184.517075 L166.754152,139.206972 C168.357097,138.266332 169.63896,136.867283 170.433195,135.191597 L185.854332,93.2824942 C186.361026,91.9659779 185.501849,91.592965 183.959735,92.4925844 L105.245848,137.780746 Z" id="Path" fill="url(#linearGradient-8)"></path>
                <path d="M74.9813133,147 C77.100665,147.649179 79.2719486,148.122002 81.4721458,148.413458 C85.7698302,149.000586 87.254082,148.413458 90.4441158,149.435496 C91.0473069,149.625141 91.6328154,149.865221 92.1942037,150.153098 L92.1942037,154.393471 C91.4188483,153.893325 90.776411,153.545397 90.4441158,153.784597 C89.6244543,154.393471 90.5770338,158.590354 93.4569254,160.177775 C95.6722266,161.439015 97.8875279,160.177775 98.7071893,161.395524 C99.5268508,162.613272 98.5742712,165.744625 96.4918881,167.397283 C92.8809471,170.398162 86.8996338,168.354085 85.415382,167.875684 C79.8328229,165.96208 76.5541771,161.699961 73.4306024,157.742279 C71.7617526,155.637925 70.2794743,153.397208 69,151.044664 L74.9813133,147 Z" id="Path" fill="#F8D0C9"></path>
                <path d="M25.8474936,52.3040049 C33.2270503,49.3502254 46.9848078,68.8670497 47.746709,69.9610421 C47.746709,73.0898603 47.855552,77.8159074 47.4854857,83.5484276 C46.3970555,100.39591 43.6977487,100.724108 44.7861788,106.390989 C46.2446753,114.114575 54.4949761,121.138006 71.0173464,135.206748 C73.564273,137.394733 80.0513169,142.799055 78.8540437,147.153145 C78.0764556,148.970444 76.9775106,150.630992 75.6105218,152.054231 C74.4466684,153.84324 72.9719115,155.407059 71.256801,156.670879 C66.9030803,158.858864 58.1956388,149.581808 54.2119843,145.249598 C36.4488036,126.170371 27.5454447,116.521358 25.9127994,112.429827 C21.8638391,102.693294 21.7549961,94.8384291 21.2543182,81.0541249 C20.7536403,67.2698208 20.4488799,54.44823 25.8474936,52.3040049 Z" id="Path" fill="url(#linearGradient-9)"></path>
            </g>
        </g>
    </g>
</svg>