<svg width="32" height="32" viewBox="0 0 32 32" fill="none" xmlns="http://www.w3.org/2000/svg">
<path fill-rule="evenodd" clip-rule="evenodd" d="M16 32C7.1632 32 0 24.8368 0 16C0 7.1632 7.1632 0 16 0C24.8368 0 32 7.1632 32 16C32 24.8368 24.8368 32 16 32ZM16 28.8C23.0692 28.8 28.8 23.0692 28.8 16C28.8 8.93076 23.0692 3.2 16 3.2C8.93076 3.2 3.2 8.93076 3.2 16C3.2 23.0692 8.93076 28.8 16 28.8ZM19.2 19.2H10.4V22.4H14.4V25.6H17.6V22.4H19.2C21.4091 22.4 23.2 20.6091 23.2 18.4C23.2 16.1909 21.4091 14.4 19.2 14.4H12.8C12.3582 14.4 12 14.0418 12 13.6C12 13.1582 12.3582 12.8 12.8 12.8H21.6V9.6H17.6V6.4H14.4V9.6H12.8C10.5909 9.6 8.8 11.3909 8.8 13.6C8.8 15.8091 10.5909 17.6 12.8 17.6H19.2C19.6418 17.6 20 17.9582 20 18.4C20 18.8418 19.6418 19.2 19.2 19.2Z" fill="#3B83E5"/>
</svg>
