<svg width="477" height="1024" viewBox="0 0 477 1024" fill="none" xmlns="http://www.w3.org/2000/svg">
<g opacity="0.07">
<path opacity="0.3" d="M-582.017 947.163C-562.947 978.959 -540.699 1007.57 -512.094 1033.01C-411.971 1120.45 -270.529 1149.07 -141.801 1129.99C-78.2348 1120.45 2.81836 1102.96 58.4449 1071.17C182.4 999.626 322.258 827.93 282.523 676.901C263.453 608.541 199.886 567.206 133.141 565.617C-14.6566 560.847 -288.016 816.801 -351.582 565.617C-369.057 495.666 -392.901 269.918 -516.867 374.844C-601.087 444.794 -644 575.156 -644 680.08C-644 770.698 -628.108 867.674 -582.017 947.163Z" fill="url(#paint0_linear)"/>
<path opacity="0.4" d="M-550.234 980.548C-534.342 1007.57 -516.867 1031.42 -493.024 1052.09C-410.387 1125.22 -292.778 1147.47 -186.298 1131.58C-132.266 1122.04 -65.5215 1107.73 -19.4299 1082.29C83.8715 1023.47 199.886 881.982 166.508 756.39C150.616 700.748 98.1681 665.772 42.5533 664.183C-79.8181 659.413 -307.086 872.444 -357.939 664.183C-372.247 606.951 -391.317 419.358 -494.619 506.795C-564.542 565.617 -599.503 672.131 -599.503 759.57C-601.099 834.289 -586.79 913.778 -550.234 980.548Z" fill="url(#paint1_linear)"/>
<path opacity="0.6" d="M-599.503 985.318C-588.373 1010.75 -574.065 1033.01 -554.995 1053.68C-489.845 1126.81 -388.127 1158.6 -291.182 1155.42C-243.508 1153.83 -183.119 1147.47 -140.206 1128.4C-43.2613 1087.06 72.7534 972.599 55.2667 859.725C47.3268 808.852 4.41352 772.288 -44.8564 765.929C-152.919 750.031 -345.214 889.931 -413.554 756.39C-437.397 708.697 -480.31 622.849 -545.46 635.567C-672.605 656.234 -634.465 905.829 -599.503 985.318Z" fill="url(#paint2_linear)"/>
<path opacity="0.4" d="M-78.3293 422.551C-22.0175 419.344 41.041 384.144 69.1733 333.153C91.6933 292.36 122.082 247.168 173.822 213.699C223.482 181.04 314.235 143.077 365.549 157.835C457.118 183.636 490.602 257.393 581.722 282.033C689.855 313.41 882.528 229.144 938.524 132.611C976.735 64.3522 963.766 18.6663 941.67 -38.1566C890.263 -170.356 709.548 -339.043 388.317 -246.175C-14.7865 -129.477 -163.222 37.7112 -207.022 214.943C-218.778 264.901 -191.591 371.81 -150.816 402.676C-130.648 417.53 -104.406 423.344 -78.3293 422.551Z" fill="url(#paint3_linear)"/>
<path opacity="0.6" d="M-5.79492 282.206C41.2892 279.919 94.3755 249.93 116.435 207.978C136.58 173.443 160.447 136.129 204.305 107.061C246.073 78.8021 320.627 48.4796 363.883 61.0297C439.348 82.414 468.319 144.574 543.783 165.957C637.44 190.947 799.315 119.992 845.236 40.7264C877.82 -17.3335 865.473 -55.252 846.985 -102.798C804.146 -212.963 595.483 -274.662 385.907 -209.195C174.247 -142.911 -56.8016 3.004 -92.5076 151.721C-102.799 193.102 -101.594 239.36 -67.2346 266.048C-50.0551 279.392 -27.2516 282.539 -5.79492 282.206Z" fill="url(#paint4_linear)"/>
</g>
<defs>
<linearGradient id="paint0_linear" x1="289.966" y1="347.127" x2="-643.445" y2="347.127" gradientUnits="userSpaceOnUse">
<stop stop-color="#5F95FF"/>
<stop offset="0.4743" stop-color="#A4C2FF"/>
<stop offset="1" stop-color="#7D72FF"/>
</linearGradient>
<linearGradient id="paint1_linear" x1="172.806" y1="483.65" x2="-599.161" y2="483.65" gradientUnits="userSpaceOnUse">
<stop stop-color="#5F95FF"/>
<stop offset="0.4743" stop-color="#A4C2FF"/>
<stop offset="1" stop-color="#7D72FF"/>
</linearGradient>
<linearGradient id="paint2_linear" x1="57.4407" y1="634.067" x2="-633" y2="634.067" gradientUnits="userSpaceOnUse">
<stop stop-color="#5F95FF"/>
<stop offset="0.4743" stop-color="#A4C2FF"/>
<stop offset="1" stop-color="#7D72FF"/>
</linearGradient>
<linearGradient id="paint3_linear" x1="543.997" y1="-455.473" x2="-171.24" y2="335.106" gradientUnits="userSpaceOnUse">
<stop stop-color="#5F95FF"/>
<stop offset="0.4743" stop-color="#A4C2FF"/>
<stop offset="1" stop-color="#7D72FF"/>
</linearGradient>
<linearGradient id="paint4_linear" x1="495.608" y1="-394.304" x2="-8.13145" y2="282.96" gradientUnits="userSpaceOnUse">
<stop stop-color="#5F95FF"/>
<stop offset="0.4743" stop-color="#A4C2FF"/>
<stop offset="1" stop-color="#7D72FF"/>
</linearGradient>
</defs>
</svg>
