<svg width="1868" height="1024" viewBox="0 0 1868 1024" fill="none" xmlns="http://www.w3.org/2000/svg">
<g opacity="0.07">
<path opacity="0.3" d="M1055.1 773.177C1073.46 845.909 1144.41 901.185 1203.99 940.704C1304.85 1008.13 1433.1 1050.66 1551.55 1004.95C1665.57 962.849 1751.83 852.721 1800.15 743.72C1813.68 713.012 1826.38 680.921 1834.64 647.726C1858.63 560.866 1895.06 461.829 1836.26 381.376C1762.77 279.634 1610.74 266.443 1529.19 367.165C1483.57 422.784 1420.84 528.197 1371.34 580.499C1261.84 694.236 1131.56 579.527 1063.87 700.154C1050.89 723.948 1049.53 748.288 1055.1 773.177Z" fill="url(#paint0_linear)"/>
<g opacity="0.4">
<path opacity="0.4" d="M1165.22 847.878C1258.9 906.503 1375.77 900.348 1480.46 895.861C1638.88 888.3 1834.5 726.551 1784.93 500.174C1765.71 411.892 1687.31 395.883 1623.08 422.212C1540.59 455.749 1494.18 557.075 1433.33 626.582C1400.14 665.349 1360.84 690.835 1315.98 696.119C1269.74 702.233 1227.34 683.436 1179.44 696.195C1150.37 704.237 1129.89 720.302 1120.52 757.949C1109.22 808.053 1132.79 826.861 1165.22 847.878Z" fill="url(#paint1_linear)"/>
</g>
<g opacity="0.6">
<path opacity="0.6" d="M1167.47 860.919C1247.81 920.872 1353.55 930.767 1448.77 940.391C1593.27 955.24 1784.67 852.556 1760.64 665.661C1751.7 592.95 1681.09 569.487 1621.33 582.792C1543.29 598.596 1491.9 672.724 1430.52 720.868C1396.78 747.706 1359.16 761.828 1318.2 761.022C1275.02 759.663 1239.01 738.946 1194.46 743.119C1166.78 745.623 1147.7 756.14 1135.83 784.902C1120.65 822.236 1139.77 839.921 1167.47 860.919Z" fill="url(#paint2_linear)"/>
</g>
<path opacity="0.3" d="M43.9603 865.332C57.4852 887.883 73.2643 908.179 93.5518 926.22C164.562 988.236 264.876 1008.53 356.174 995.002C401.257 988.236 458.742 975.833 498.194 953.282C586.106 902.541 685.298 780.764 657.117 673.645C643.592 625.16 598.509 595.843 551.171 594.716C446.349 591.333 252.474 772.871 207.391 594.716C194.997 545.103 178.087 384.988 90.1664 459.408C30.4354 509.021 0 601.481 0 675.9C0 740.172 11.2708 808.953 43.9603 865.332Z" fill="url(#paint3_linear)"/>
<path opacity="0.4" d="M66.9958 889.385C78.2562 908.562 90.6384 925.484 107.533 940.149C166.087 992.04 249.422 1007.83 324.871 996.552C363.156 989.784 410.45 979.631 443.109 961.582C516.306 919.843 598.511 819.444 574.86 730.327C563.6 690.844 526.436 666.026 487.029 664.898C400.32 661.514 239.284 812.676 203.251 664.898C193.112 624.288 179.6 491.175 106.403 553.219C56.8573 594.958 32.0845 670.538 32.0845 732.583C30.9542 785.602 41.0928 842.006 66.9958 889.385Z" fill="url(#paint4_linear)"/>
<path opacity="0.6" d="M31.0703 892.121C38.9691 910.174 49.1235 925.97 62.6571 940.637C108.893 992.537 181.08 1015.1 249.88 1012.85C283.714 1011.72 326.57 1007.2 357.025 993.666C425.825 964.331 508.159 883.095 495.749 802.988C490.114 766.883 459.659 740.933 424.693 736.42C348.003 725.137 211.535 824.425 163.035 729.65C146.114 695.802 115.659 634.875 69.4239 643.901C-20.8084 658.569 6.25874 835.708 31.0703 892.121Z" fill="url(#paint5_linear)"/>
<path opacity="0.4" d="M401.152 492.95C441.058 490.676 485.745 465.725 505.681 429.582C521.64 400.666 543.176 368.633 579.841 344.909C615.033 321.76 679.346 294.851 715.711 305.312C780.602 323.6 804.331 375.881 868.904 393.347C945.533 415.587 1082.07 355.857 1121.75 287.432C1148.83 239.049 1139.64 206.665 1123.98 166.388C1087.55 72.6815 959.488 -46.8882 731.845 18.9387C446.182 101.657 340.992 220.165 309.953 345.791C301.622 381.203 320.888 456.983 349.784 478.861C364.076 489.39 382.673 493.512 401.152 492.95Z" fill="url(#paint6_linear)"/>
<path opacity="0.6" d="M452.471 393.983C485.843 392.36 523.469 371.065 539.105 341.274C553.383 316.751 570.299 290.255 601.385 269.613C630.989 249.546 683.832 228.014 714.491 236.926C767.978 252.111 788.512 296.251 842 311.435C908.382 329.181 1023.11 278.795 1055.66 222.509C1078.76 181.28 1070.01 154.354 1056.9 120.592C1026.54 42.3635 878.643 -1.44914 730.101 45.039C580.081 92.107 416.318 195.722 391.011 301.326C383.717 330.711 384.571 363.559 408.924 382.51C421.1 391.986 437.263 394.22 452.471 393.983Z" fill="url(#paint7_linear)"/>
</g>
<defs>
<linearGradient id="paint0_linear" x1="1917.99" y1="407.144" x2="1213.03" y2="185.302" gradientUnits="userSpaceOnUse">
<stop stop-color="#5F95FF"/>
<stop offset="0.4743" stop-color="#A4C2FF"/>
<stop offset="1" stop-color="#7D72FF"/>
</linearGradient>
<linearGradient id="paint1_linear" x1="1868.46" y1="503.988" x2="1323.52" y2="243.938" gradientUnits="userSpaceOnUse">
<stop stop-color="#5F95FF"/>
<stop offset="0.4743" stop-color="#A4C2FF"/>
<stop offset="1" stop-color="#7D72FF"/>
</linearGradient>
<linearGradient id="paint2_linear" x1="1866.48" y1="647.239" x2="1430.69" y2="317.117" gradientUnits="userSpaceOnUse">
<stop stop-color="#5F95FF"/>
<stop offset="0.4743" stop-color="#A4C2FF"/>
<stop offset="1" stop-color="#7D72FF"/>
</linearGradient>
<linearGradient id="paint3_linear" x1="662.396" y1="439.75" x2="0.393847" y2="439.75" gradientUnits="userSpaceOnUse">
<stop stop-color="#5F95FF"/>
<stop offset="0.4743" stop-color="#A4C2FF"/>
<stop offset="1" stop-color="#7D72FF"/>
</linearGradient>
<linearGradient id="paint4_linear" x1="579.322" y1="536.795" x2="32.3272" y2="536.795" gradientUnits="userSpaceOnUse">
<stop stop-color="#5F95FF"/>
<stop offset="0.4743" stop-color="#A4C2FF"/>
<stop offset="1" stop-color="#7D72FF"/>
</linearGradient>
<linearGradient id="paint5_linear" x1="497.291" y1="642.837" x2="7.29852" y2="642.837" gradientUnits="userSpaceOnUse">
<stop stop-color="#5F95FF"/>
<stop offset="0.4743" stop-color="#A4C2FF"/>
<stop offset="1" stop-color="#7D72FF"/>
</linearGradient>
<linearGradient id="paint6_linear" x1="842.17" y1="-129.417" x2="335.179" y2="430.847" gradientUnits="userSpaceOnUse">
<stop stop-color="#5F95FF"/>
<stop offset="0.4743" stop-color="#A4C2FF"/>
<stop offset="1" stop-color="#7D72FF"/>
</linearGradient>
<linearGradient id="paint7_linear" x1="807.854" y1="-86.4074" x2="449.956" y2="393.879" gradientUnits="userSpaceOnUse">
<stop stop-color="#5F95FF"/>
<stop offset="0.4743" stop-color="#A4C2FF"/>
<stop offset="1" stop-color="#7D72FF"/>
</linearGradient>
</defs>
</svg>
