<svg width="12" height="12" viewBox="0 0 12 12" fill="none" xmlns="http://www.w3.org/2000/svg">
<path d="M7.42556 5.99952L11.7036 1.72144C12.0975 1.32763 12.0975 0.689155 11.7036 0.295408C11.3098 -0.0983944 10.6714 -0.0983944 10.2776 0.295408L5.99948 4.57355L1.72134 0.295352C1.32754 -0.0984507 0.689113 -0.0984507 0.29531 0.295352C-0.0984366 0.689155 -0.0984366 1.32763 0.29531 1.72138L4.57345 5.99946L0.29531 10.2776C-0.0984366 10.6714 -0.0984366 11.3099 0.29531 11.7036C0.689113 12.0974 1.32754 12.0974 1.72134 11.7036L5.99948 7.42549L10.2776 11.7036C10.6714 12.0974 11.3098 12.0974 11.7036 11.7036C12.0975 11.3098 12.0975 10.6714 11.7036 10.2776L7.42556 5.99952Z" fill="#3B83E5"/>
</svg>
