<svg width="25" height="22" viewBox="0 0 25 22" fill="none" xmlns="http://www.w3.org/2000/svg">
<path fill-rule="evenodd" clip-rule="evenodd" d="M3.7148 21.199L3.73784 21.1759H22.3772C23.0067 21.1709 23.5156 20.6615 23.52 20.032V1.58388C23.52 0.952581 23.0085 0.439941 22.3772 0.439941H1.62276C0.993265 0.444962 0.484367 0.954373 0.47998 1.58388V20.032C0.47998 20.6633 0.991436 21.1753 1.62276 21.1759H3.6906L3.7148 21.199ZM21.216 2.74394V14.2639L14.304 7.35194L2.78398 18.8719V2.74394H21.216ZM21.216 17.5218L14.304 10.6098L6.04184 18.8719H21.216V17.5218ZM5.08798 7.35194C5.08798 8.6244 6.11952 9.65594 7.39198 9.65594C8.66444 9.65594 9.69598 8.6244 9.69598 7.35194C9.69598 6.07948 8.66444 5.04794 7.39198 5.04794C6.11952 5.04794 5.08798 6.07948 5.08798 7.35194Z" fill="#737E90"/>
</svg>
