<svg width="24" height="22" viewBox="0 0 24 22" fill="none" xmlns="http://www.w3.org/2000/svg">
<path fill-rule="evenodd" clip-rule="evenodd" d="M1.1904 0C0.534672 0.00523007 0.00456939 0.535867 0 1.1916V20.4084C0 21.066 0.532766 21.5993 1.1904 21.6H22.8096C23.4653 21.5948 23.9954 21.0641 24 20.4084V1.1916C24 0.534 23.4672 0 22.8096 0H1.1904ZM7.2 19.2V2.4H16.8V19.2H7.2ZM2.4 2.4V4.8H4.8V2.4H2.4ZM19.2 4.8V2.4H21.6V4.8H19.2ZM2.4 7.2V9.6H4.8V7.2H2.4ZM19.2 9.6V7.2H21.6V9.6H19.2ZM2.4 12V14.4H4.8V12H2.4ZM19.2 14.4V12H21.6V14.4H19.2ZM2.4 16.8V19.2H4.8V16.8H2.4ZM19.2 19.2V16.8H21.6V19.2H19.2Z" fill="#737E90"/>
</svg>
