<svg width="24" height="24" viewBox="0 0 24 24" fill="none" xmlns="http://www.w3.org/2000/svg">
<path fill-rule="evenodd" clip-rule="evenodd" d="M8.34384 8.91444C10.6697 6.58862 13.9842 5.92808 16.6552 7.00277C17.7299 9.67372 17.0693 12.9883 14.7435 15.3141C14.3673 15.6903 13.9655 16.0227 13.5445 16.312L13.5939 18.0363C13.5979 18.183 13.5025 18.3141 13.3616 18.3553L10.1298 19.3061C10.032 19.335 9.92634 19.316 9.84472 19.2549C9.7631 19.1937 9.7151 19.0977 9.7152 18.9958L9.7152 16.9533C9.71523 16.7819 9.64716 16.6175 9.52595 16.4962L7.16173 14.132C7.04048 14.0108 6.87605 13.9427 6.70461 13.9428L4.6622 13.9428C4.56024 13.9429 4.46421 13.8949 4.40311 13.8132C4.34201 13.7316 4.323 13.626 4.35182 13.5282L5.30263 10.2963C5.34391 10.1554 5.47495 10.0601 5.6217 10.0641L7.34595 10.1135C7.63577 9.69292 7.96763 9.29065 8.34384 8.91444ZM5.95768 12.65L6.70461 12.65C7.21893 12.6499 7.71222 12.8542 8.07597 13.2178L10.4402 15.582C10.8038 15.9457 11.008 16.439 11.0079 16.9533V17.7003L12.2796 17.3264L12.2522 16.3481C12.2397 15.909 12.4509 15.4936 12.8131 15.2451C13.1733 14.9982 13.5134 14.7157 13.8293 14.3999C15.5983 12.6308 16.2543 10.151 15.6395 8.01849C13.507 7.40366 11.0271 8.05963 9.25808 9.82868C8.94221 10.1446 8.65971 10.4846 8.41241 10.8453C8.16388 11.2075 7.74846 11.4188 7.30938 11.4062L6.3316 11.3783L5.95768 12.65ZM11.5437 10.2858C11.0388 10.7907 11.0388 11.6094 11.5437 12.1143C12.0486 12.6192 12.8672 12.6192 13.3722 12.1143C13.8771 11.6094 13.8771 10.7907 13.3722 10.2858C12.8672 9.78088 12.0486 9.78088 11.5437 10.2858Z" fill="#3F8EFA"/>
</svg>
