<svg width="525" height="459" viewBox="0 0 525 459" fill="none" xmlns="http://www.w3.org/2000/svg">
<g style="mix-blend-mode:multiply" opacity="0.05">
<path d="M288.972 191.747C296.785 187.236 309.559 187.236 317.372 191.747L442.594 264.047C450.397 268.549 450.397 275.929 442.594 280.44L159.469 444.371C151.666 448.892 138.881 448.892 131.078 444.371L5.85586 372.061C-1.94715 367.55 -1.95675 360.169 5.85586 355.668L288.972 191.747Z" fill="#3B83E5"/>
</g>
<path d="M288.972 137.395C296.785 132.884 309.559 132.884 317.372 137.395L442.594 209.695C450.397 214.206 450.397 221.577 442.594 226.088L159.459 390.009C151.656 394.52 138.872 394.52 131.069 390.009L5.85586 317.68C-1.94715 313.169 -1.95675 305.798 5.85586 301.287L288.972 137.395Z" fill="#D4DBDF"/>
<path d="M5.85588 317.68L131.078 390.009C138.881 394.52 151.666 394.52 159.469 390.009L442.604 226.088C446.443 223.9 448.363 221.03 448.44 218.141V237.567C448.44 240.533 446.52 243.508 442.575 245.764L159.44 409.685C151.637 414.186 138.853 414.186 131.05 409.685L5.85588 337.384C1.94958 335.129 0.0012207 332.163 0.0012207 329.188V309.522C0.0108185 312.488 1.95917 315.453 5.85588 317.68Z" fill="#95C4DF"/>
<path d="M18.1506 294.194L171.764 382.887L441.347 226.808L287.724 138.115L18.1506 294.194Z" fill="url(#paint0_linear)"/>
<path d="M169.067 381.323L171.764 382.887L441.347 226.808L438.64 225.243L169.067 381.323Z" fill="url(#paint1_linear)"/>
<path d="M171.764 394.769L441.347 238.69V226.808L171.764 382.887V394.769Z" fill="url(#paint2_linear)"/>
<g style="mix-blend-mode:multiply" opacity="0.2">
<path d="M376.514 252.875C373.784 254.261 370.557 254.261 367.828 252.875L341.673 237.778C339.284 236.396 339.284 234.141 341.673 232.758L367.828 217.661C370.557 216.276 373.784 216.276 376.514 217.661L402.668 232.758C405.057 234.141 405.057 236.396 402.668 237.778L376.514 252.875Z" fill="black"/>
</g>
<path d="M402.667 221.769L376.513 206.672C373.784 205.287 370.557 205.287 367.827 206.672L341.673 221.769C340.67 222.221 339.988 223.178 339.888 224.274V231.127C339.982 232.225 340.666 233.185 341.673 233.632L367.827 248.739C370.56 250.112 373.781 250.112 376.513 248.739L402.667 233.632C403.672 233.181 404.355 232.223 404.453 231.127V224.274C404.353 223.178 403.671 222.221 402.667 221.769Z" fill="url(#paint3_linear)"/>
<path d="M376.514 241.857C373.784 243.242 370.557 243.242 367.828 241.857L341.673 226.75C339.284 225.378 339.284 223.122 341.673 221.74L367.828 206.643C370.557 205.258 373.784 205.258 376.514 206.643L402.668 221.74C405.057 223.122 405.057 225.378 402.668 226.75L376.514 241.857Z" fill="url(#paint4_linear)"/>
<g style="mix-blend-mode:multiply">
<path d="M199.952 209.052L218.562 198.312L211.556 194.271C223.736 186.593 222.219 178.502 208.6 170.642C194.981 162.781 180.891 161.898 167.665 168.914L160.668 164.873L142.058 175.632C97.3709 201.431 76.1982 209.014 27.6237 215.185L131.443 275.123C142.125 247.088 155.265 234.86 199.952 209.052Z" fill="#F6F9FE"/>
</g>
<path d="M173.213 203.466C163.845 178.675 162.012 135.187 162.012 135.187L183.895 122.557L171.476 115.291L149.593 127.922C149.593 127.922 151.426 171.409 160.803 196.201C161.002 196.844 161.433 197.391 162.012 197.736L174.173 204.877C173.72 204.512 173.386 204.021 173.213 203.466Z" fill="#A2A9AD"/>
<path d="M159.92 193.801C160.198 194.617 160.486 195.423 160.784 196.2C160.983 196.844 161.414 197.391 161.993 197.736L174.173 204.877C173.72 204.512 173.386 204.021 173.213 203.466C172.906 202.65 172.608 201.815 172.311 200.951L159.92 193.801Z" fill="#FAAB00"/>
<path d="M196.891 179.184C193.138 169.307 184.01 143.902 183.876 122.557L161.993 135.187C161.993 135.187 163.826 178.675 173.213 203.466C173.99 205.52 175.785 205.933 178.012 203.687L194.654 187.15C197.562 184.491 198.167 182.639 196.891 179.184Z" fill="#BCC3C7"/>
<path d="M196.891 179.184L196.372 177.821C196.132 179.5 195.504 181.1 194.539 182.495C194.539 182.495 179.183 197.995 176.303 200.433C175.156 201.322 173.617 201.521 172.282 200.951C172.579 201.815 172.877 202.65 173.184 203.466C173.961 205.52 175.756 205.933 177.983 203.687L194.654 187.15C197.562 184.491 198.167 182.639 196.891 179.184Z" fill="#FFC800"/>
<path d="M160.64 147.348C160.64 147.348 161.36 159.479 162.559 165.248L155.255 169.01L155.946 148.97L160.64 147.348Z" fill="#FFC800"/>
<g style="mix-blend-mode:multiply" opacity="0.2">
<path d="M183.876 122.557L171.456 115.291L149.573 127.922C149.573 127.922 150.178 142.318 152.453 159.22C156.906 156.888 163.298 154.421 163.298 154.421C169.834 148.192 180.248 141.848 185.373 138.882C184.445 133.488 183.945 128.029 183.876 122.557Z" fill="black"/>
</g>
<path d="M152.481 149.728L150.85 167.263L155.236 169.01L155.927 148.97L152.481 149.728Z" fill="#FAAB00"/>
<g style="mix-blend-mode:screen" opacity="0.2">
<path d="M158.634 77.898L179.931 65.6128C179.125 65.0753 178.319 64.5762 177.503 64.1155C174.733 62.5098 171.691 61.4264 168.529 60.9194L147.184 73.2334C150.388 73.7272 153.471 74.8178 156.273 76.4487C157.069 76.8902 157.856 77.3797 158.634 77.898Z" fill="white"/>
</g>
<path d="M206.978 88.897C206.699 87.8113 206.363 86.7413 205.97 85.6914C205.797 85.2499 205.577 84.6356 205.385 84.1941C204.521 82.2745 204.425 82.0826 204.022 81.3148C203.283 79.9247 202.449 78.5874 201.526 77.3125C200.845 76.3527 199.492 74.7403 199.482 74.7307C198.81 73.982 197.87 73.0127 197.15 72.312C196.747 71.9089 196.19 71.4194 195.72 71.0451C194.684 70.184 193.597 69.3859 192.466 68.6553C191.286 67.8865 190.051 67.2064 188.771 66.6205C187.201 65.8748 185.566 65.2772 183.886 64.8353C182.66 64.5034 181.412 64.2565 180.152 64.0963C179.259 63.9907 178.156 63.9331 177.119 63.8947C170.065 60.0556 163.682 59.8253 159.094 62.5127L137.874 74.8554L138.229 74.6635C133.152 77.3989 130.032 83.5606 130.138 92.4002C130.349 109.379 142.385 129.755 157.012 137.913C164.268 141.954 170.804 142.232 175.526 139.429L175.411 139.497L196.631 127.163C201.162 124.534 204.041 119.082 204.31 111.394C204.828 110.435 205.365 109.331 205.749 108.429C206.168 107.455 206.521 106.455 206.805 105.434C207.17 104.065 207.465 102.678 207.688 101.278C207.794 100.501 207.89 99.4642 207.938 98.6868C207.938 98.0821 207.938 97.2663 207.938 96.6521C207.935 94.0376 207.613 91.4332 206.978 88.897Z" fill="#FFC800"/>
<g style="mix-blend-mode:multiply" opacity="0.3">
<path d="M206.978 88.8971C206.699 87.8114 206.363 86.7413 205.97 85.6914C205.797 85.2499 205.577 84.6356 205.385 84.1941C204.521 82.2746 204.425 82.0826 204.022 81.3148C203.283 79.9248 202.449 78.5875 201.526 77.3125C200.845 76.3527 199.492 74.7403 199.482 74.7307C198.81 73.9821 197.87 73.0127 197.15 72.3121C196.747 71.9089 196.19 71.4195 195.72 71.0451C194.684 70.184 193.598 69.386 192.466 68.6553C191.286 67.8865 190.051 67.2064 188.771 66.6206C187.202 65.8749 185.566 65.2772 183.886 64.8354C182.66 64.5034 181.412 64.2565 180.152 64.0963C179.259 63.9908 178.156 63.9332 177.119 63.8948C177.244 63.9716 177.369 64.0291 177.493 64.0963C192.14 72.2641 204.185 92.6402 204.367 109.609C204.367 110.214 204.367 110.799 204.367 111.385C204.886 110.425 205.423 109.321 205.807 108.419C206.226 107.446 206.578 106.445 206.863 105.424C207.228 104.055 207.522 102.668 207.746 101.269C207.851 100.491 207.947 99.4547 207.995 98.6772C207.995 98.0726 207.995 97.2567 207.995 96.6425C207.973 94.0289 207.632 91.4277 206.978 88.8971Z" fill="url(#paint5_linear)"/>
</g>
<g style="mix-blend-mode:multiply" opacity="0.4">
<path d="M130.138 92.4098C129.927 75.4313 141.655 68.2905 156.273 76.4487C170.89 84.6068 182.964 104.993 183.146 121.961C183.329 138.93 171.629 146.081 157.012 137.923C142.394 129.764 130.349 109.408 130.138 92.4098Z" fill="#2E383B"/>
</g>
<g style="mix-blend-mode:multiply" opacity="0.3">
<path d="M179.279 104.234C181.658 109.853 182.976 115.863 183.166 121.961C183.271 130.599 180.286 136.675 175.43 139.506L196.651 127.173C201.526 124.342 204.492 118.257 204.387 109.628C204.207 103.555 202.906 97.5676 200.547 91.9683L179.279 104.234Z" fill="url(#paint6_linear)"/>
</g>
<g style="mix-blend-mode:screen" opacity="0.2">
<path d="M158.634 77.898L179.931 65.6128C179.125 65.0753 178.319 64.5762 177.503 64.1155C174.733 62.5098 171.691 61.4264 168.529 60.9194L147.184 73.2334C150.388 73.7272 153.471 74.8178 156.273 76.4487C157.069 76.8902 157.856 77.3797 158.634 77.898Z" fill="white"/>
</g>
<path d="M155.255 77.5044C152.835 76.1129 150.212 75.109 147.481 74.5291C143.946 73.6904 140.225 74.1931 137.039 75.94C132.787 78.4066 132.662 78.4738 125.896 82.2266C124.37 83.0712 122.296 84.1461 120.761 84.9523C117.881 86.5072 116.077 87.3326 111.384 89.5401C111.384 89.5401 107.545 91.3253 102.976 93.0433C98.4075 94.7613 95.4034 95.5291 95.3746 95.5387C94.2228 95.8267 92.6968 96.2682 91.5354 96.4985C89.7023 96.8728 87.2452 97.2951 85.3929 97.5735C85.3929 97.5735 81.8993 98.0246 78.5688 98.0629C76.8124 98.0629 74.4706 97.9958 72.7142 97.9094C71.6584 97.9094 70.2475 97.7174 69.1918 97.6022C68.136 97.4871 66.7827 97.3239 65.7557 97.1607C63.6058 96.8248 60.7361 96.3257 58.5862 95.9226C63.485 96.9668 68.1903 98.7706 72.5318 101.269C98.5419 115.761 119.916 151.935 120.29 182.073C120.435 187.536 119.669 192.985 118.025 198.197L118.342 197.237C119.753 193.091 120.732 190.73 120.742 190.701C121.481 188.954 122.498 186.632 123.295 184.942C123.726 183.983 124.36 182.812 124.849 181.919C125.339 181.026 126.02 179.807 126.577 178.934C127.537 177.456 128.833 175.517 129.859 174.135C130.493 173.262 131.395 172.158 132.086 171.333C132.777 170.507 133.727 169.413 134.486 168.626C135.954 167.1 137.97 165.132 139.515 163.693C140.475 162.81 141.79 161.716 142.769 160.881C142.769 160.881 145.485 158.577 149.9 155.391C154.315 152.204 158.413 149.632 158.451 149.574C159.91 148.615 161.83 147.405 163.308 146.513C166.562 144.526 170.938 141.915 174.23 139.977C177.321 138.065 179.6 135.082 180.632 131.598C181.546 128.69 181.971 125.651 181.889 122.605C181.678 105.76 169.758 85.5858 155.255 77.5044Z" fill="url(#paint7_linear)"/>
<g style="mix-blend-mode:multiply" opacity="0.1">
<path d="M120.29 182.072C120.435 187.536 119.669 192.985 118.025 198.197L118.342 197.237C119.753 193.091 120.732 190.73 120.742 190.701C121.481 188.954 122.498 186.631 123.295 184.942C123.726 183.982 124.36 182.812 124.849 181.919C125.339 181.026 126.02 179.807 126.577 178.934C127.537 177.456 128.833 175.517 129.859 174.135C130.493 173.262 131.395 172.158 132.086 171.333C132.777 170.507 133.727 169.413 134.486 168.626C135.954 167.1 137.97 165.132 139.515 163.693C140.475 162.81 141.79 161.716 142.769 160.881C142.769 160.881 145.485 158.577 149.9 155.391C154.315 152.204 158.413 149.632 158.451 149.574C159.91 148.615 161.83 147.405 163.308 146.513C166.562 144.526 170.938 141.915 174.23 139.977C177.321 138.065 179.6 135.082 180.632 131.598C181.546 128.69 181.971 125.651 181.889 122.604C141.626 145.966 129.802 156.984 120.29 182.072Z" fill="black"/>
</g>
<g style="mix-blend-mode:screen" opacity="0.3">
<path d="M153.892 76.9861L154.564 77.1397C152.342 75.9303 149.956 75.0508 147.481 74.5291C107.218 97.8901 90.6141 102.276 58.5862 95.9706C62.3538 96.7613 66.0071 98.0221 69.4605 99.7233C97.9084 103.927 115.511 98.5428 153.892 76.9861Z" fill="white"/>
</g>
<path d="M72.5318 101.269C59.9683 94.2717 48.6237 93.5903 40.3024 98.2068L36.1657 100.501L35.9354 100.635L35.7338 100.741C27.0958 105.751 21.7594 116.567 21.9418 131.924C22.3065 162.061 43.6904 198.235 69.6909 212.728C82.6095 219.926 94.2421 220.406 102.631 215.386L106.854 213.045C115.319 207.939 120.473 197.208 120.291 182.063C119.916 151.935 98.5419 115.761 72.5318 101.269Z" fill="#FFC800"/>
<g style="mix-blend-mode:multiply" opacity="0.2">
<path d="M116.106 184.405C116.471 214.542 95.6913 227.23 69.6908 212.737C43.6904 198.245 22.3065 162.071 21.9417 131.934C21.577 101.796 42.3563 89.1081 68.3567 103.591C94.3572 118.074 115.732 154.258 116.106 184.405Z" fill="black"/>
</g>
<path d="M111.787 181.967C112.123 209.321 93.2726 220.828 69.6812 207.679C46.0898 194.53 26.683 161.706 26.3567 134.362C26.0304 107.018 44.8709 95.5003 68.4623 108.649C92.0537 121.798 111.403 154.623 111.787 181.967Z" fill="url(#paint8_linear)"/>
<g style="mix-blend-mode:multiply" opacity="0.3">
<path d="M112.2 161.293C114.603 168.77 115.919 176.553 116.106 184.405C116.288 199.569 111.115 210.319 102.669 215.396L106.892 213.054C115.357 207.948 120.511 197.218 120.329 182.073C120.14 174.198 118.818 166.391 116.403 158.894L112.2 161.293Z" fill="url(#paint9_linear)"/>
</g>
<path d="M197.918 95.8842L183.454 104.234C183.3 103.802 183.127 103.37 182.955 102.948L197.447 94.5789C197.61 95.0108 197.764 95.4427 197.918 95.8842Z" fill="black"/>
<path d="M199.031 99.4642L184.634 107.757C184.49 107.315 184.356 106.874 184.202 106.432L198.599 98.1205C198.791 98.562 198.916 99.0131 199.031 99.4642Z" fill="black"/>
<path d="M199.876 103.198L185.69 111.404C185.584 110.943 185.469 110.444 185.344 110.041L199.626 101.797C199.703 102.267 199.789 102.689 199.876 103.198Z" fill="black"/>
<path d="M200.413 107.123L186.419 115.166C186.352 114.696 186.256 114.206 186.17 113.736L200.25 105.616C200.317 106.144 200.375 106.624 200.413 107.123Z" fill="black"/>
<path d="M107.602 159.162C106.886 157.006 106.079 154.859 105.184 152.722C101.649 144.252 96.9978 136.292 91.3531 129.054C90.0094 127.327 88.6177 125.66 87.178 124.054L50.7735 151.945L50.8599 151.887C49.2283 153.087 48.2493 155.333 48.2877 158.414C48.3741 165.008 53.0866 172.926 58.7301 176.093C61.3503 177.552 63.7114 177.734 65.5062 176.89C65.439 176.89 65.3814 176.966 65.3238 176.995L107.602 159.162Z" fill="#FFC800"/>
<g style="mix-blend-mode:multiply" opacity="0.3">
<path d="M68.8943 169.874C68.8079 163.29 64.0954 155.362 58.4423 152.195L91.3531 129.035C96.9979 136.273 101.649 144.233 105.184 152.703C106.079 154.834 106.886 156.981 107.602 159.143L65.3719 176.976C67.541 176.055 68.9327 173.569 68.8943 169.874Z" fill="url(#paint10_linear)"/>
</g>
<g style="mix-blend-mode:multiply" opacity="0.3">
<path d="M58.4423 152.214C52.7508 149.047 48.211 151.82 48.2878 158.414C48.3646 165.008 53.0867 172.926 58.7398 176.093C64.3929 179.26 68.9711 176.487 68.8943 169.893C68.8175 163.299 64.1338 155.391 58.4423 152.214Z" fill="black"/>
</g>
<g style="mix-blend-mode:multiply" opacity="0.1">
<path d="M107.602 159.163L65.3718 176.995C67.5889 176.035 68.9806 173.569 68.9422 169.893L105.232 152.722C106.095 154.853 106.886 157 107.602 159.163Z" fill="black"/>
</g>
<path d="M58.471 154.258C53.7489 151.628 49.9866 153.932 50.0537 159.393C50.1209 164.854 53.9888 171.429 58.6918 174.058C63.3947 176.688 67.1762 174.375 67.109 168.914C67.0419 163.453 63.1835 156.888 58.471 154.258Z" fill="#BBC2C6"/>
<path d="M58.5191 158.241C55.6973 156.667 53.4418 158.04 53.4802 161.312C53.7115 164.893 55.6368 168.148 58.663 170.075C61.4848 171.64 63.7307 170.267 63.6923 167.004C63.4693 163.424 61.5462 160.166 58.5191 158.241Z" fill="#414E52"/>
<g style="mix-blend-mode:multiply" opacity="0.5">
<path d="M111.787 181.967C112.123 209.321 93.2726 220.828 69.6812 207.679C46.0898 194.53 26.683 161.706 26.3567 134.362C26.0304 107.018 44.8709 95.5003 68.4623 108.649C92.0537 121.798 111.403 154.623 111.787 181.967Z" fill="url(#paint11_linear)"/>
</g>
<path d="M334.859 110.166L303.935 92.3138C300.709 90.682 296.9 90.682 293.675 92.3138L262.751 110.166C261.565 110.698 260.758 111.827 260.639 113.122V239.698C260.754 240.999 261.566 242.134 262.76 242.663L293.675 260.515C296.902 262.138 300.707 262.138 303.935 260.515L334.859 242.663C336.048 242.13 336.855 240.996 336.971 239.698V113.131C336.855 111.834 336.048 110.699 334.859 110.166Z" fill="url(#paint12_linear)"/>
<path d="M334.859 69.759L303.935 51.9071C300.709 50.2753 296.9 50.2753 293.675 51.9071L262.751 69.759C261.562 70.2925 260.754 71.4268 260.639 72.7247V199.291C260.754 200.592 261.566 201.728 262.76 202.257L293.675 220.109C296.9 221.74 300.709 221.74 303.935 220.109L334.859 202.257C336.048 201.723 336.855 200.589 336.971 199.291V72.7247C336.855 71.4268 336.048 70.2925 334.859 69.759Z" fill="url(#paint13_linear)"/>
<path d="M303.935 93.5328C300.71 95.1645 296.9 95.1645 293.675 93.5328L262.76 75.6808C259.939 74.0588 259.939 71.3906 262.76 69.759L293.684 51.9071C296.91 50.2753 300.719 50.2753 303.945 51.9071L334.869 69.759C337.69 71.3906 337.69 74.0588 334.869 75.6808L303.935 93.5328Z" fill="#FF59A1"/>
<path d="M285.085 168.779L254.161 150.928C250.935 149.296 247.126 149.296 243.901 150.928L212.977 168.779C211.788 169.313 210.98 170.447 210.865 171.745V268.731C210.98 270.032 211.792 271.168 212.986 271.697L243.901 289.549C247.126 291.18 250.935 291.18 254.161 289.549L285.085 271.697C286.273 271.168 287.082 270.036 287.196 268.741V171.793C287.098 170.478 286.288 169.321 285.085 168.779Z" fill="url(#paint14_linear)"/>
<path d="M285.085 128.373L254.161 110.521C250.933 108.898 247.128 108.898 243.901 110.521L212.977 128.373C211.788 128.906 210.98 130.041 210.865 131.339V228.276C210.98 229.577 211.792 230.713 212.986 231.242L243.901 249.094C247.126 250.726 250.935 250.726 254.161 249.094L285.085 231.3C286.271 230.768 287.078 229.638 287.196 228.344V131.406C287.105 130.083 286.294 128.918 285.085 128.373Z" fill="url(#paint15_linear)"/>
<path d="M254.161 152.156C250.935 153.788 247.126 153.788 243.901 152.156L212.986 134.304C210.164 132.673 210.164 130.004 212.986 128.373L243.91 110.521C247.138 108.898 250.943 108.898 254.17 110.521L285.094 128.373C287.916 130.004 287.916 132.673 285.094 134.304L254.161 152.156Z" fill="#77BCFF"/>
<path d="M233.823 245.264L202.899 227.461C199.674 225.829 195.864 225.829 192.639 227.461L161.696 245.264C160.507 245.798 159.699 246.932 159.584 248.23V298.283C159.699 299.584 160.511 300.719 161.705 301.248L192.62 319.1C195.845 320.732 199.654 320.732 202.88 319.1L233.804 301.248C234.99 300.717 235.797 299.587 235.915 298.292V248.23C235.804 246.937 235.004 245.803 233.823 245.264Z" fill="url(#paint16_linear)"/>
<path d="M233.823 204.858L202.899 187.006C199.671 185.383 195.866 185.383 192.639 187.006L161.696 204.858C160.507 205.391 159.699 206.525 159.584 207.823V257.876C159.699 259.177 160.511 260.313 161.705 260.842L192.62 278.694C195.845 280.325 199.654 280.325 202.88 278.694L233.804 260.842C234.99 260.31 235.797 259.18 235.915 257.886V207.823C235.804 206.53 235.004 205.396 233.823 204.858Z" fill="url(#paint17_linear)"/>
<path d="M202.899 228.641C199.671 230.264 195.866 230.264 192.639 228.641L161.695 210.789C158.874 209.157 158.874 206.489 161.695 204.858L192.62 187.006C195.847 185.383 199.652 185.383 202.88 187.006L233.804 204.858C236.625 206.489 236.625 209.157 233.804 210.789L202.899 228.641Z" fill="#77BCFF"/>
<path fill-rule="evenodd" clip-rule="evenodd" d="M332.594 339.755V325.176C332.594 313.246 340.483 301.306 356.253 292.198C372.022 283.089 392.734 278.54 413.36 278.54C433.985 278.54 454.688 283.089 470.457 292.198C486.226 301.306 494.115 313.236 494.115 325.166V339.755C494.115 351.685 486.226 363.615 470.457 372.723C454.688 381.832 433.976 386.381 413.35 386.381C392.724 386.381 372.022 381.822 356.253 372.723C340.483 363.625 332.594 351.695 332.594 339.755ZM363.393 296.334C349.601 304.301 342.7 314.743 342.7 325.176C342.7 335.618 349.592 346.051 363.393 354.017C377.195 361.983 395.306 365.966 413.35 365.966C431.394 365.966 449.524 361.983 463.316 354.017C477.108 346.051 483.999 335.609 483.999 325.176C483.999 314.743 477.118 304.301 463.316 296.334C449.514 288.368 431.442 284.385 413.36 284.385C395.277 284.385 377.185 288.368 363.393 296.334Z" fill="url(#paint18_linear)"/>
<path d="M463.316 305.107C449.514 297.141 431.442 293.158 413.359 293.158C395.277 293.158 377.195 297.141 363.393 305.107C351.54 311.921 344.793 320.626 343.094 329.562C342.82 328.116 342.679 326.648 342.672 325.176C342.672 314.743 349.572 304.301 363.365 296.334C377.157 288.368 395.248 284.385 413.331 284.385C431.413 284.385 449.486 288.368 463.287 296.334C477.089 304.301 483.971 314.743 483.971 325.176C483.967 326.647 483.829 328.116 483.558 329.562C481.917 320.626 475.169 311.921 463.316 305.107Z" fill="url(#paint19_linear)"/>
<path opacity="0.35" d="M413.359 286.497C431.442 286.497 449.514 290.48 463.316 298.446C477.118 306.412 483.999 316.854 483.999 327.287C483.999 337.72 477.108 348.162 463.316 356.129C449.524 364.095 431.394 368.078 413.35 368.078C395.306 368.078 377.195 364.095 363.393 356.129C349.592 348.162 342.7 337.73 342.7 327.278C342.7 316.826 349.601 306.402 363.393 298.436C377.185 290.47 395.277 286.497 413.359 286.497Z" fill="url(#paint20_radial)"/>
<path opacity="0.5" d="M364.91 350.888C378.136 357.386 395.46 360.63 412.784 360.63C430.108 360.63 447.432 357.386 460.648 350.888C465.554 348.597 470.031 345.48 473.883 341.674C470.106 346.436 465.417 350.398 460.091 353.326C447.182 360.784 430.271 364.508 413.35 364.508C396.429 364.508 379.518 360.784 366.609 353.326C362.957 351.273 359.572 348.778 356.531 345.897C359.172 347.804 361.976 349.474 364.91 350.888Z" fill="white"/>
<path fill-rule="evenodd" clip-rule="evenodd" d="M356.253 358.144C340.483 349.046 332.594 337.115 332.594 325.176C332.594 313.246 340.483 301.316 356.253 292.207C372.022 283.099 392.734 278.55 413.36 278.55C433.985 278.55 454.688 283.051 470.457 292.207C486.226 301.364 494.115 313.246 494.115 325.176C494.115 337.106 486.226 349.036 470.457 358.144C454.688 367.253 433.976 371.792 413.35 371.802C392.724 371.812 372.022 367.243 356.253 358.144ZM363.393 296.334C349.601 304.301 342.7 314.743 342.7 325.176C342.7 335.618 349.592 346.051 363.393 354.017C377.195 361.983 395.306 365.966 413.35 365.966C431.394 365.966 449.524 361.983 463.316 354.017C477.108 346.051 483.999 335.609 483.999 325.176C483.999 314.743 477.118 304.301 463.316 296.334C449.514 288.368 431.442 284.385 413.36 284.385C395.277 284.385 377.185 288.368 363.393 296.334Z" fill="url(#paint21_linear)"/>
<path d="M363.393 298.484C377.195 290.518 395.277 286.535 413.359 286.535C431.442 286.535 449.514 290.518 463.316 298.484C476.753 306.22 483.587 316.298 483.97 326.433C483.909 327.496 483.781 328.554 483.587 329.6C481.917 320.665 475.169 311.988 463.316 305.145C449.514 297.179 431.442 293.196 413.359 293.196C395.277 293.196 377.195 297.179 363.393 305.145C351.54 311.921 344.793 320.626 343.094 329.562C342.9 328.515 342.772 327.457 342.71 326.395C343.094 316.259 349.995 306.163 363.393 298.484Z" fill="#758286"/>
<path fill-rule="evenodd" clip-rule="evenodd" d="M357.654 356.685C342.297 347.817 334.619 336.185 334.619 324.542C334.619 312.881 342.297 301.277 357.654 292.399C373.01 283.521 393.166 279.087 413.321 279.087C433.477 279.087 453.632 283.521 468.988 292.399C484.345 301.277 492.023 312.91 492.023 324.542C492.023 336.175 484.345 347.807 468.988 356.685C453.632 365.563 433.477 370.007 413.321 370.007C393.166 370.007 373.01 365.554 357.654 356.685ZM363.393 296.334C349.601 304.301 342.7 314.743 342.7 325.176C342.7 335.618 349.592 346.051 363.393 354.017C377.195 361.983 395.306 365.966 413.35 365.966C431.394 365.966 449.524 361.983 463.316 354.017C477.108 346.051 483.999 335.609 483.999 325.176C483.999 314.743 477.118 304.301 463.316 296.334C449.514 288.368 431.442 284.385 413.36 284.385C395.277 284.385 377.185 288.368 363.393 296.334Z" fill="url(#paint22_linear)"/>
<path opacity="0.2" d="M363.393 298.484C377.195 290.518 395.277 286.535 413.36 286.535C431.442 286.535 449.515 290.518 463.316 298.484C477.118 306.45 483.999 316.893 483.999 327.326C483.999 337.403 477.559 347.481 464.717 355.323C455.878 343.642 441.107 328.631 417.755 316.346C398.819 306.383 375.88 302.909 358.191 301.844C359.868 300.637 361.604 299.516 363.393 298.484Z" fill="white"/>
<g opacity="0.5">
<path d="M421.642 289.731C435.569 290.748 449.034 294.338 459.736 300.509C464.513 303.174 468.79 306.649 472.376 310.779C469.782 309.013 467.054 307.45 464.218 306.105C453.517 300.989 440.291 297.812 426.46 296.574C424.991 294.2 423.382 291.915 421.642 289.731H421.642Z" fill="white"/>
<path d="M366.973 300.509C379.153 293.474 394.941 289.798 410.902 289.453C412.349 291.52 413.611 293.711 414.674 295.998H413.091C394.586 295.998 376.082 299.377 361.954 306.124C359.573 307.259 357.265 308.541 355.043 309.963C358.495 306.201 362.522 303.01 366.973 300.509Z" fill="white"/>
</g>
<path d="M324.858 378.482L355.571 360.87C356.732 360.208 358.345 360.304 360.111 361.331C363.919 363.813 366.315 367.963 366.561 372.503C366.561 374.566 365.831 376.025 364.641 376.687L333.928 394.28C332.757 394.933 331.154 394.827 329.388 393.81C325.588 391.333 323.193 387.196 322.938 382.667C322.938 380.603 323.706 379.154 324.858 378.482Z" fill="url(#paint23_linear)"/>
<path d="M322.938 382.667C323.184 387.206 325.58 391.356 329.388 393.838C331.154 394.856 332.757 394.961 333.928 394.309C335.099 393.656 335.848 392.188 335.848 390.114C335.598 385.576 333.203 381.428 329.398 378.943C327.622 377.925 326.019 377.82 324.848 378.482C323.678 379.144 322.938 380.603 322.938 382.667Z" fill="#B8BFC3"/>
<path d="M225.425 427.92L320.059 374.854C322.238 373.616 325.232 373.798 328.534 375.708C335.198 379.734 339.266 386.956 339.255 394.741C339.255 398.58 337.892 401.296 335.694 402.544L242.317 457.414C240.138 458.643 237.153 458.451 233.852 456.551C227.21 452.711 221.826 443.392 221.826 435.723C221.864 431.894 223.227 429.168 225.425 427.92Z" fill="url(#paint24_linear)"/>
<path d="M221.864 435.733C221.864 443.411 227.249 452.721 233.89 456.56C237.192 458.48 240.177 458.653 242.355 457.424C244.534 456.195 245.916 453.479 245.916 449.621C245.916 441.943 240.532 432.623 233.89 428.794C230.589 426.874 227.594 426.692 225.425 427.93C223.256 429.168 221.864 431.894 221.864 435.733Z" fill="url(#paint25_linear)"/>
<path d="M221.538 436.76C221.538 443.872 226.529 452.519 232.69 456.08C235.742 457.846 238.516 458 240.532 456.886C242.547 455.773 243.843 453.22 243.843 449.64C243.843 442.528 238.852 433.881 232.69 430.32C229.619 428.554 226.845 428.4 224.83 429.523C222.814 430.646 221.538 433.189 221.538 436.76Z" fill="#414E52"/>
<g style="mix-blend-mode:multiply" opacity="0.2">
<path d="M89.4528 261.427L219.609 336.578C223.784 338.987 223.774 342.922 219.609 345.331L187.936 363.634C183.761 366.043 176.937 366.043 172.771 363.634L68.8655 303.667H42.9514L55.9276 296.171L42.6251 288.493C38.4596 286.084 38.4596 282.149 42.6251 279.74L74.2978 261.437C78.4633 259.028 85.2873 259.028 89.4528 261.427Z" fill="#00258A"/>
</g>
<path opacity="0.4" d="M89.4528 244.497L219.609 319.599C223.784 322.009 223.774 325.953 219.609 328.362L187.936 346.665C183.761 349.074 176.937 349.074 172.771 346.665L68.8655 286.727H42.9514L55.9276 279.241L42.6251 271.562C38.4596 269.163 38.4596 265.218 42.6251 262.809L74.2978 244.506C78.4633 242.088 85.2873 242.088 89.4528 244.497Z" fill="#7CFFFF"/>
<path opacity="0.8" d="M55.8893 279.289L42.5867 271.61C40.552 270.439 39.5154 268.894 39.4674 267.349V270.411C39.5346 271.956 40.5712 273.482 42.5963 274.653L53.2403 280.757L55.8893 279.289Z" fill="#7CFFFF"/>
<path opacity="0.8" d="M222.718 324.235C222.632 325.752 221.595 327.249 219.609 328.401L187.936 346.704C183.761 349.113 176.937 349.113 172.771 346.704L68.8655 286.727H42.9514V289.77H68.8655L172.743 349.737C176.908 352.146 183.732 352.146 187.907 349.737L219.58 331.434C221.663 330.224 222.709 328.641 222.709 327.057V324.235H222.718Z" fill="#7CFFFF"/>
<g opacity="0.4">
<path d="M42.5867 265.852L74.2594 247.549C78.4249 245.14 85.2489 245.14 89.4143 247.549L219.57 322.7C220.786 323.335 221.765 324.344 222.363 325.579C223.246 323.525 222.363 321.269 219.57 319.676L89.4527 244.497C85.2873 242.088 78.4632 242.088 74.2978 244.497L42.625 262.8C39.8705 264.393 38.9491 266.639 39.8321 268.693C40.4294 267.48 41.3931 266.486 42.5867 265.852Z" fill="#7CFFFF"/>
<path d="M55.8892 279.241L42.913 286.727H48.163L55.8892 282.274V279.241Z" fill="#7CFFFF"/>
</g>
<path d="M196.651 315.818C205.433 320.886 205.433 329.111 196.651 334.179C187.869 339.246 173.616 339.256 164.844 334.179C156.071 329.101 156.062 320.886 164.844 315.818C173.626 310.75 187.869 310.741 196.651 315.818Z" fill="url(#paint26_linear)"/>
<path d="M182.657 327.902H174.537V323.218C170.871 322.619 167.109 323.214 163.807 324.917L179.711 334.102C182.619 332.422 183.607 330.051 182.657 327.902Z" fill="white"/>
<path d="M192.053 324.494C188.407 326.346 184.096 326.346 180.45 324.494C177.244 322.642 177.244 319.647 180.45 317.776C184.096 315.924 188.407 315.924 192.053 317.776C195.288 319.647 195.288 322.642 192.053 324.494Z" fill="white"/>
<g opacity="0.8">
<path d="M160.102 306.508L77.9546 259.085L81.6593 256.945L163.807 304.377L160.102 306.508Z" fill="#7CFFFF"/>
<path d="M151.848 311.278L69.7004 263.855L73.4052 261.715L155.553 309.138L151.848 311.278Z" fill="#7CFFFF"/>
<path d="M104.061 293.215L61.4463 268.616L65.151 266.476L107.765 291.084L104.061 293.215Z" fill="#7CFFFF"/>
</g>
<g style="mix-blend-mode:multiply" opacity="0.2">
<path d="M263.519 320.559C260.802 321.928 257.597 321.928 254.881 320.559L228.688 305.414C226.298 304.032 226.298 301.776 228.688 300.404L254.842 285.297C257.561 283.937 260.761 283.937 263.48 285.297L289.682 300.404C292.062 301.786 292.062 304.032 289.682 305.414L263.519 320.559Z" fill="black"/>
</g>
<path d="M289.682 289.414L263.519 274.307C260.8 272.948 257.599 272.948 254.881 274.307L228.688 289.414C227.677 289.859 226.989 290.819 226.893 291.919V298.763C226.992 299.864 227.678 300.826 228.688 301.277L254.842 316.375C257.559 317.744 260.764 317.744 263.48 316.375L289.644 301.277C290.647 300.825 291.329 299.868 291.429 298.772V291.919C291.34 290.831 290.673 289.874 289.682 289.414Z" fill="url(#paint27_linear)"/>
<path d="M263.519 309.522C260.802 310.891 257.597 310.891 254.881 309.522L228.688 294.424C226.298 293.042 226.298 290.787 228.688 289.414L254.842 274.307C257.561 272.948 260.761 272.948 263.48 274.307L289.644 289.414C292.024 290.787 292.024 293.042 289.644 294.424L263.519 309.522Z" fill="url(#paint28_linear)"/>
<g style="mix-blend-mode:multiply" opacity="0.2">
<path d="M320.961 286.804C318.245 288.173 315.04 288.173 312.323 286.804L286.131 271.706C283.741 270.324 283.741 268.069 286.131 266.687L312.285 251.589C315.002 250.221 318.206 250.221 320.923 251.589L347.087 266.687C349.467 268.069 349.467 270.324 347.087 271.706L320.961 286.804Z" fill="black"/>
</g>
<path d="M347.125 255.697L320.961 240.6C318.245 239.231 315.04 239.231 312.323 240.6L286.169 255.697C285.163 256.147 284.476 257.104 284.375 258.202V265.055C284.473 266.155 285.16 267.114 286.169 267.56L312.323 282.667C315.042 284.027 318.243 284.027 320.961 282.667L347.125 267.56C348.13 267.11 348.812 266.152 348.91 265.055V258.174C348.8 257.088 348.12 256.144 347.125 255.697Z" fill="url(#paint29_linear)"/>
<path d="M320.961 275.814C318.243 277.174 315.042 277.174 312.323 275.814L286.169 260.707C283.779 259.335 283.779 257.079 286.169 255.697L312.323 240.6C315.04 239.231 318.245 239.231 320.961 240.6L347.125 255.697C349.505 257.079 349.505 259.335 347.125 260.707L320.961 275.814Z" fill="url(#paint30_linear)"/>
<path opacity="0.3" d="M242.97 86.9007C242.849 88.9146 241.781 90.7521 240.09 91.8532L228.016 98.85C226.442 99.8097 225.137 99.0131 225.137 97.1991V83.2247C225.256 81.2104 226.325 79.3722 228.016 78.2723L240.11 71.2947C241.674 70.3349 242.989 71.1315 242.989 72.9455L242.97 86.9007Z" fill="#A9D0E5"/>
<path opacity="0.5" d="M225.156 97.18V83.2248C225.275 81.2104 226.344 79.3722 228.035 78.2723L240.129 71.2947C240.701 70.8837 241.447 70.8001 242.096 71.0739L239.035 69.3175C238.397 69.066 237.675 69.1526 237.115 69.5479L225.022 76.5255C223.328 77.6232 222.258 79.4627 222.142 81.478V95.4332C222.076 96.1377 222.377 96.8267 222.939 97.2568L226.02 99.0227C225.422 98.6083 225.092 97.9048 225.156 97.18Z" fill="#A9D0E5"/>
<path opacity="0.3" d="M104.157 52.5214C104.039 54.5362 102.97 56.375 101.277 57.4738L89.184 64.4514C87.61 65.4112 86.3047 64.6242 86.3047 62.8006V48.8454C86.4236 46.831 87.4923 44.9929 89.184 43.8929L101.277 36.9153C102.842 36.0035 104.157 36.7522 104.157 38.5662V52.5214Z" fill="#A9D0E5"/>
<path opacity="0.3" d="M191.199 43.6434C191.148 44.8116 190.537 45.8835 189.558 46.5227L182.647 50.5154C181.745 51.0337 181.006 50.6114 181.006 49.5557V41.5415C181.057 40.3733 181.668 39.3014 182.647 38.6621L189.558 34.6695C190.46 34.1512 191.199 34.5831 191.199 35.6292V43.6434Z" fill="#A9D0E5"/>
<path opacity="0.3" d="M271.11 31.4445C270.971 34.1667 269.546 36.6604 267.271 38.163L250.955 47.5785C248.824 48.807 247.116 47.8088 247.116 45.3518V26.4825C247.251 23.759 248.677 21.2633 250.955 19.764L267.271 10.339C269.392 9.11045 271.11 10.1182 271.11 12.5657V31.4445Z" fill="#A9D0E5"/>
<path opacity="0.5" d="M247.116 45.323V26.4825C247.251 23.759 248.677 21.2633 250.955 19.764L267.271 10.339C268.045 9.78364 269.052 9.67093 269.93 10.0414L265.812 7.67077C264.938 7.31398 263.942 7.42989 263.173 7.9779L246.857 17.4029C244.581 18.9044 243.156 21.3988 243.018 24.1214V42.9619C242.926 43.9118 243.333 44.8414 244.093 45.4189L248.248 47.8088C247.453 47.2428 247.021 46.2946 247.116 45.323Z" fill="#A9D0E5"/>
<path opacity="0.3" d="M313.494 28.2773C313.675 31.4843 315.367 34.4154 318.053 36.1763L337.335 47.3001C339.84 48.7494 341.894 47.5593 341.894 44.6703V22.4226C341.714 19.2155 340.022 16.2844 337.335 14.5236L318.053 3.39975C315.548 1.95049 313.494 3.13102 313.494 6.02955V28.2773Z" fill="#A9D0E5"/>
<path opacity="0.5" d="M341.885 44.6703V22.4226C341.706 19.2173 340.018 16.2866 337.335 14.5236L318.053 3.39975C317.14 2.7439 315.952 2.60944 314.915 3.04463L319.8 0.242071C320.84 -0.180977 322.024 -0.0434115 322.939 0.606788L342.211 11.7306C344.897 13.4915 346.589 16.4226 346.77 19.6296V41.8774C346.872 42.9914 346.394 44.0796 345.503 44.7567L340.589 47.5785C341.504 46.9059 341.997 45.8005 341.885 44.6703Z" fill="#A9D0E5"/>
<path opacity="0.3" d="M368.374 72.9358L437.767 112.997C441.972 115.747 444.619 120.333 444.898 125.349V159.22C444.898 163.75 441.692 165.603 437.767 163.338L425.289 156.139V174.509L409.827 147.213L368.355 123.219C364.149 120.474 361.501 115.891 361.224 110.876V77.0053C361.243 72.4751 364.449 70.6227 368.374 72.9358Z" fill="#A9D0E5"/>
<path opacity="0.5" d="M444.898 159.172V125.301C444.619 120.285 441.972 115.699 437.767 112.949L368.375 72.9358C366.455 71.8417 364.747 71.7169 363.47 72.3887L368.269 69.5094C369.565 68.7512 371.36 68.8472 373.327 69.9893L442.729 110.051C446.928 112.805 449.571 117.389 449.85 122.403V156.274C449.85 158.625 448.987 160.257 447.605 160.957L442.911 163.741C444.111 162.982 444.898 161.399 444.898 159.172Z" fill="#A9D0E5"/>
<path opacity="0.5" d="M425.309 156.101L430.213 158.932V171.525L425.309 174.269V156.101Z" fill="#A9D0E5"/>
<g opacity="0.5">
<path d="M407.822 122.489C407.954 125.214 409.381 127.711 411.661 129.208C413.801 130.436 415.5 129.438 415.5 126.981C415.371 124.256 413.943 121.758 411.661 120.263C409.549 119.005 407.822 120.032 407.822 122.489Z" fill="#A9D0E5"/>
<path d="M393.348 114.13C393.48 116.854 394.907 119.351 397.187 120.848C399.318 122.077 401.026 121.088 401.026 118.621C400.894 115.897 399.467 113.4 397.187 111.903C395.076 110.674 393.348 111.673 393.348 114.13Z" fill="#A9D0E5"/>
<path d="M378.865 105.77C378.997 108.494 380.424 110.991 382.704 112.488C384.835 113.727 386.543 112.728 386.543 110.262C386.409 107.538 384.983 105.042 382.704 103.543C380.593 102.315 378.865 103.313 378.865 105.77Z" fill="#A9D0E5"/>
</g>
<path opacity="0.5" d="M382.714 398.666V396.747L382.579 398.666C382.624 398.662 382.669 398.662 382.714 398.666Z" fill="#A9D0E5"/>
<path d="M382.263 409.819C382.273 409.892 382.273 409.966 382.263 410.04V409.819Z" fill="#005FF1"/>
<path opacity="0.3" d="M522.438 258.174C524.272 259.229 524.272 260.957 522.438 262.013L502.178 273.712C500.083 274.768 497.611 274.768 495.517 273.712L475.265 262.013C473.432 260.957 473.432 259.229 475.265 258.174L495.517 246.474C497.611 245.418 500.083 245.418 502.178 246.474L522.438 258.174Z" fill="#A9D0E5"/>
<g opacity="0.5">
<path d="M523.168 258.73L523.053 258.596L523.168 258.73Z" fill="#A9D0E5"/>
<path d="M523.734 259.604C523.739 259.671 523.739 259.738 523.734 259.805C523.739 259.738 523.739 259.671 523.734 259.604Z" fill="#A9D0E5"/>
<path d="M523.533 259.133L523.609 259.306L523.533 259.133Z" fill="#A9D0E5"/>
<path d="M523.801 260.093C523.711 260.914 523.192 261.626 522.438 261.965L502.177 273.664C500.083 274.72 497.611 274.72 495.517 273.664L475.265 262.013C473.432 260.957 473.432 259.229 475.265 258.174C474.489 258.513 473.959 259.249 473.883 260.093V265.439C474.013 266.229 474.527 266.902 475.256 267.234L495.507 278.924C497.602 279.98 500.073 279.98 502.168 278.924L522.429 267.234C523.199 266.888 523.723 266.155 523.801 265.314V260.189C523.801 260.189 523.801 260.151 523.801 260.093Z" fill="#A9D0E5"/>
</g>
<g style="mix-blend-mode:multiply">
<path d="M522.438 272.57L517.774 269.892L502.149 278.914C500.054 279.97 497.583 279.97 495.488 278.914L479.872 269.892L475.265 272.57C473.432 273.636 473.432 275.363 475.265 276.409L495.517 288.109C497.611 289.165 500.083 289.165 502.178 288.109L522.438 276.409C524.272 275.363 524.272 273.636 522.438 272.57Z" fill="#F6F9FE"/>
</g>
<defs>
<linearGradient id="paint0_linear" x1="26.1457" y1="30.2427" x2="-42.7801" y2="400.979" gradientUnits="userSpaceOnUse">
<stop stop-color="#2898F4"/>
<stop offset="0.15" stop-color="#2690F1"/>
<stop offset="0.37" stop-color="#207AEA"/>
<stop offset="0.66" stop-color="#1755DE"/>
<stop offset="0.98" stop-color="#0B23CD"/>
<stop offset="1" stop-color="#0A20CC"/>
</linearGradient>
<linearGradient id="paint1_linear" x1="-81.0056" y1="89.9595" x2="-200.815" y2="666.068" gradientUnits="userSpaceOnUse">
<stop stop-color="#009EFF"/>
<stop offset="1" stop-color="#0A20CC"/>
</linearGradient>
<linearGradient id="paint2_linear" x1="138.32" y1="-176.399" x2="17.4006" y2="359.085" gradientUnits="userSpaceOnUse">
<stop stop-color="#009EFF"/>
<stop offset="1" stop-color="#0A20CC"/>
</linearGradient>
<linearGradient id="paint3_linear" x1="404.002" y1="204.635" x2="336.519" y2="204.635" gradientUnits="userSpaceOnUse">
<stop stop-color="#FFF78C"/>
<stop offset="1" stop-color="#E76008"/>
</linearGradient>
<linearGradient id="paint4_linear" x1="306.167" y1="226.091" x2="327.843" y2="297.665" gradientUnits="userSpaceOnUse">
<stop stop-color="#FFE71F"/>
<stop offset="1" stop-color="#FF8602"/>
</linearGradient>
<linearGradient id="paint5_linear" x1="182.81" y1="84.1688" x2="199.55" y2="107.919" gradientUnits="userSpaceOnUse">
<stop stop-color="white"/>
<stop offset="1"/>
</linearGradient>
<linearGradient id="paint6_linear" x1="172.407" y1="114.33" x2="194.619" y2="128.856" gradientUnits="userSpaceOnUse">
<stop stop-color="white"/>
<stop offset="1"/>
</linearGradient>
<linearGradient id="paint7_linear" x1="76.7087" y1="109.086" x2="116.312" y2="180.837" gradientUnits="userSpaceOnUse">
<stop stop-color="#D4DBDF"/>
<stop offset="0.59" stop-color="#C0CBD2"/>
<stop offset="1" stop-color="#AFBEC7"/>
</linearGradient>
<linearGradient id="paint8_linear" x1="137.664" y1="174.464" x2="61.3053" y2="91.7534" gradientUnits="userSpaceOnUse">
<stop stop-color="#D4DBDF"/>
<stop offset="0.29" stop-color="#C0CBD1"/>
<stop offset="0.89" stop-color="#8BA0AD"/>
<stop offset="1" stop-color="#8198A6"/>
</linearGradient>
<linearGradient id="paint9_linear" x1="100.043" y1="168.2" x2="125.937" y2="190.824" gradientUnits="userSpaceOnUse">
<stop stop-color="white"/>
<stop offset="1"/>
</linearGradient>
<linearGradient id="paint10_linear" x1="63.6962" y1="148.87" x2="73.5837" y2="174.398" gradientUnits="userSpaceOnUse">
<stop stop-color="white"/>
<stop offset="1"/>
</linearGradient>
<linearGradient id="paint11_linear" x1="66.0751" y1="210.123" x2="134.342" y2="184.451" gradientUnits="userSpaceOnUse">
<stop offset="0.14" stop-color="white"/>
<stop offset="1"/>
</linearGradient>
<linearGradient id="paint12_linear" x1="317.365" y1="254.709" x2="317.365" y2="171.745" gradientUnits="userSpaceOnUse">
<stop stop-color="#D9337B"/>
<stop offset="1" stop-color="#B30D55"/>
</linearGradient>
<linearGradient id="paint13_linear" x1="303.896" y1="124.148" x2="293.291" y2="124.148" gradientUnits="userSpaceOnUse">
<stop stop-color="#D9337B"/>
<stop offset="1" stop-color="#B30D55"/>
</linearGradient>
<linearGradient id="paint14_linear" x1="267.586" y1="284.923" x2="267.586" y2="216.356" gradientUnits="userSpaceOnUse">
<stop stop-color="#5DA2FA"/>
<stop offset="1" stop-color="#5C6FD2"/>
</linearGradient>
<linearGradient id="paint15_linear" x1="254.122" y1="170.021" x2="243.517" y2="170.021" gradientUnits="userSpaceOnUse">
<stop stop-color="#5DA2FA"/>
<stop offset="1" stop-color="#5C6FD2"/>
</linearGradient>
<linearGradient id="paint16_linear" x1="216.337" y1="316.442" x2="216.337" y2="270.679" gradientUnits="userSpaceOnUse">
<stop stop-color="#5DA2FA"/>
<stop offset="1" stop-color="#5C6FD2"/>
</linearGradient>
<linearGradient id="paint17_linear" x1="202.86" y1="226.315" x2="192.255" y2="226.315" gradientUnits="userSpaceOnUse">
<stop stop-color="#5DA2FA"/>
<stop offset="1" stop-color="#5C6FD2"/>
</linearGradient>
<linearGradient id="paint18_linear" x1="494.115" y1="278.55" x2="332.594" y2="278.55" gradientUnits="userSpaceOnUse">
<stop stop-color="#B2B0B3"/>
<stop offset="0.14" stop-color="#F2F8F6"/>
<stop offset="0.39" stop-color="#98979E"/>
<stop offset="0.63" stop-color="#B0B0B2"/>
<stop offset="0.84" stop-color="#D9DBDA"/>
<stop offset="0.85" stop-color="#CED0CF"/>
<stop offset="0.89" stop-color="#B3B3B4"/>
<stop offset="0.92" stop-color="#A3A2A4"/>
<stop offset="0.94" stop-color="#9D9C9E"/>
<stop offset="1" stop-color="#A2A2A4"/>
</linearGradient>
<linearGradient id="paint19_linear" x1="484.009" y1="284.39" x2="342.71" y2="284.39" gradientUnits="userSpaceOnUse">
<stop stop-color="#CFCFCF"/>
<stop offset="1" stop-color="#9D9D9D"/>
</linearGradient>
<radialGradient id="paint20_radial" cx="0" cy="0" r="1" gradientUnits="userSpaceOnUse" gradientTransform="translate(414.233 334.008) rotate(180) scale(94.7783 54.7219)">
<stop stop-color="white"/>
<stop offset="0.19" stop-color="#FCFDFE"/>
<stop offset="0.34" stop-color="#F2F7FC"/>
<stop offset="0.48" stop-color="#E1EDF8"/>
<stop offset="0.61" stop-color="#C9DFF3"/>
<stop offset="0.74" stop-color="#AACDED"/>
<stop offset="0.86" stop-color="#85B7E4"/>
<stop offset="0.98" stop-color="#599DDB"/>
<stop offset="1" stop-color="#5098D9"/>
</radialGradient>
<linearGradient id="paint21_linear" x1="427.424" y1="248.964" x2="337.596" y2="366.194" gradientUnits="userSpaceOnUse">
<stop stop-color="white"/>
<stop offset="1" stop-color="#EBEBEB"/>
</linearGradient>
<linearGradient id="paint22_linear" x1="427.093" y1="250.218" x2="339.449" y2="364.504" gradientUnits="userSpaceOnUse">
<stop stop-color="white"/>
<stop offset="1" stop-color="#D1D1D1"/>
</linearGradient>
<linearGradient id="paint23_linear" x1="802.146" y1="366.385" x2="796.287" y2="382.848" gradientUnits="userSpaceOnUse">
<stop stop-color="#B2B0B3"/>
<stop offset="0.14" stop-color="#F2F8F6"/>
<stop offset="0.39" stop-color="#98979E"/>
<stop offset="0.63" stop-color="#B0B0B2"/>
<stop offset="0.84" stop-color="#D9DBDA"/>
<stop offset="0.85" stop-color="#CED0CF"/>
<stop offset="0.89" stop-color="#B3B3B4"/>
<stop offset="0.92" stop-color="#A3A2A4"/>
<stop offset="0.94" stop-color="#9D9C9E"/>
<stop offset="1" stop-color="#A2A2A4"/>
</linearGradient>
<linearGradient id="paint24_linear" x1="252.686" y1="407.146" x2="261.769" y2="437.812" gradientUnits="userSpaceOnUse">
<stop stop-color="#414E52"/>
<stop offset="0.2" stop-color="#738A91"/>
<stop offset="0.29" stop-color="#5E717C"/>
<stop offset="0.4" stop-color="#495868"/>
<stop offset="0.52" stop-color="#3A4659"/>
<stop offset="0.65" stop-color="#313B50"/>
<stop offset="0.79" stop-color="#2E384D"/>
<stop offset="1" stop-color="#6177B8"/>
</linearGradient>
<linearGradient id="paint25_linear" x1="213.738" y1="437.54" x2="236.05" y2="461.991" gradientUnits="userSpaceOnUse">
<stop stop-color="#4E5B5F"/>
<stop offset="0.2" stop-color="#80979E"/>
<stop offset="0.3" stop-color="#697B81"/>
<stop offset="0.41" stop-color="#556368"/>
<stop offset="0.53" stop-color="#465256"/>
<stop offset="0.65" stop-color="#3E484B"/>
<stop offset="0.79" stop-color="#3B4548"/>
<stop offset="1" stop-color="#6E848A"/>
</linearGradient>
<linearGradient id="paint26_linear" x1="133.182" y1="289.894" x2="133.182" y2="344.823" gradientUnits="userSpaceOnUse">
<stop stop-color="#FFE71F"/>
<stop offset="1" stop-color="#FF8602"/>
</linearGradient>
<linearGradient id="paint27_linear" x1="290.565" y1="272.925" x2="224.964" y2="272.925" gradientUnits="userSpaceOnUse">
<stop stop-color="#F532FF"/>
<stop offset="1" stop-color="#A232FF"/>
</linearGradient>
<linearGradient id="paint28_linear" x1="193.174" y1="293.735" x2="214.845" y2="365.307" gradientUnits="userSpaceOnUse">
<stop stop-color="#C100FF"/>
<stop offset="1" stop-color="#6E00FF"/>
</linearGradient>
<linearGradient id="paint29_linear" x1="348.075" y1="238.155" x2="279.393" y2="238.155" gradientUnits="userSpaceOnUse">
<stop stop-color="#D9FF89"/>
<stop offset="1" stop-color="#25FF26"/>
</linearGradient>
<linearGradient id="paint30_linear" x1="250.617" y1="260.018" x2="272.288" y2="331.59" gradientUnits="userSpaceOnUse">
<stop stop-color="#A9FB00"/>
<stop offset="1" stop-color="#12DE13"/>
</linearGradient>
</defs>
</svg>
