<svg width="19" height="13" viewBox="0 0 19 13" fill="none" xmlns="http://www.w3.org/2000/svg">
<path d="M18.636 12.4342H0.326963C0.146407 12.4342 0 12.2878 0 12.1073V0.337156C0 0.1566 0.146407 0.0101929 0.326963 0.0101929H18.636C18.8166 0.0101929 18.963 0.1566 18.963 0.337156V12.1073C18.963 12.2879 18.8166 12.4342 18.636 12.4342Z" fill="#F5F5F5"/>
<path d="M18.963 0.965934H0V0.337156C0 0.1566 0.146407 0.0101929 0.326963 0.0101929H18.636C18.8166 0.0101929 18.963 0.1566 18.963 0.337156L18.963 0.965934V0.965934Z" fill="#FF4B55"/>
<rect y="3.83295" width="18.963" height="0.955704" fill="#FF4B55"/>
<rect y="1.92151" width="18.963" height="0.955704" fill="#FF4B55"/>
<path d="M18.963 6.70006H0.326963C0.146407 6.70006 0 6.55366 0 6.3731V5.74432H18.963V6.70006Z" fill="#FF4B55"/>
<rect y="9.56744" width="18.963" height="0.955704" fill="#FF4B55"/>
<path d="M18.636 12.4342H0.326963C0.146407 12.4342 0 12.2878 0 12.1073V11.4785H18.963V12.1073C18.963 12.2878 18.8166 12.4342 18.636 12.4342Z" fill="#FF4B55"/>
<rect y="7.65594" width="18.963" height="0.955704" fill="#FF4B55"/>
<path d="M8.50063 0.0102539H0.326963C0.146407 0.0102539 0 0.156624 0 0.33718V6.37311C0 6.55366 0.146407 6.70007 0.326963 6.70007H8.50067C8.68122 6.70007 8.82763 6.55366 8.82763 6.37311V0.33718C8.82759 0.156624 8.68118 0.0102539 8.50063 0.0102539Z" fill="#41479B"/>
<path d="M0.918068 0.760642L0.990438 0.977679L1.21922 0.979419C1.24885 0.979679 1.2611 1.01746 1.23729 1.03505L1.05325 1.17098L1.12229 1.38909C1.13125 1.41731 1.09907 1.44072 1.07496 1.42346L0.888845 1.29046L0.702734 1.42349C0.678623 1.44072 0.646512 1.41735 0.655401 1.38912L0.724438 1.17101L0.540401 1.03509C0.516586 1.01746 0.528845 0.979716 0.558475 0.979457L0.787253 0.977716L0.859623 0.760679C0.868956 0.732531 0.90866 0.732531 0.918068 0.760642Z" fill="#F5F5F5"/>
<path d="M0.918068 1.89599L0.990438 2.11303L1.21922 2.11477C1.24885 2.11503 1.2611 2.1528 1.23729 2.1704L1.05325 2.30632L1.12229 2.52443C1.13125 2.55266 1.09907 2.57606 1.07496 2.5588L0.888845 2.4258L0.702734 2.55884C0.678623 2.57606 0.646512 2.55269 0.655401 2.52447L0.724438 2.30636L0.540401 2.17043C0.516586 2.1528 0.528845 2.11506 0.558475 2.1148L0.787253 2.11306L0.859623 1.89603C0.868956 1.86792 0.90866 1.86792 0.918068 1.89599Z" fill="#F5F5F5"/>
<path d="M0.918068 3.0313L0.990438 3.24834L1.21922 3.25008C1.24885 3.25034 1.2611 3.28812 1.23729 3.30571L1.05325 3.44164L1.12229 3.65975C1.13125 3.68797 1.09907 3.71138 1.07496 3.69412L0.888845 3.56112L0.702734 3.69416C0.678623 3.71138 0.646512 3.68801 0.655401 3.65979L0.724438 3.44168L0.540401 3.30575C0.516586 3.28812 0.528845 3.25038 0.558475 3.25012L0.787253 3.24838L0.859623 3.03134C0.868956 3.00323 0.90866 3.00323 0.918068 3.0313Z" fill="#F5F5F5"/>
<path d="M0.918068 4.16671L0.990438 4.38375L1.21922 4.38549C1.24885 4.38575 1.2611 4.42352 1.23729 4.44112L1.05325 4.57704L1.12229 4.79515C1.13125 4.82338 1.09907 4.84678 1.07496 4.82952L0.888845 4.69652L0.702734 4.82956C0.678623 4.84678 0.646512 4.82341 0.655401 4.79519L0.724438 4.57708L0.540401 4.44115C0.516586 4.42352 0.528845 4.38578 0.558475 4.38552L0.787253 4.38378L0.859623 4.16675C0.868956 4.1386 0.90866 4.1386 0.918068 4.16671Z" fill="#F5F5F5"/>
<path d="M0.918068 5.30199L0.990438 5.51903L1.21922 5.52077C1.24885 5.52103 1.2611 5.55881 1.23729 5.5764L1.05325 5.71232L1.12229 5.93043C1.13125 5.95866 1.09907 5.98206 1.07496 5.96481L0.888845 5.83181L0.702734 5.96484C0.678623 5.98206 0.646512 5.95869 0.655401 5.93047L0.724438 5.71236L0.540401 5.57643C0.516586 5.55881 0.528845 5.52106 0.558475 5.52081L0.787253 5.51906L0.859623 5.30203C0.868956 5.27384 0.90866 5.27384 0.918068 5.30199Z" fill="#F5F5F5"/>
<path d="M1.79917 1.31726L1.87154 1.5343L2.10032 1.53604C2.12995 1.5363 2.14221 1.57407 2.11839 1.59167L1.93436 1.72759L2.00339 1.9457C2.01236 1.97393 1.98017 1.99733 1.95606 1.98007L1.76995 1.84704L1.58384 1.98007C1.55973 1.9973 1.52762 1.97393 1.5365 1.9457L1.60554 1.72759L1.4215 1.59167C1.39769 1.57404 1.40995 1.5363 1.43958 1.53604L1.66836 1.5343L1.74073 1.31726C1.75002 1.28919 1.7898 1.28919 1.79917 1.31726Z" fill="#F5F5F5"/>
<path d="M1.79917 2.45266L1.87154 2.6697L2.10032 2.67144C2.12995 2.6717 2.14221 2.70948 2.11839 2.72707L1.93436 2.863L2.00339 3.08111C2.01236 3.10933 1.98017 3.13274 1.95606 3.11548L1.76995 2.98244L1.58384 3.11548C1.55973 3.1327 1.52762 3.10937 1.5365 3.08111L1.60554 2.863L1.4215 2.72707C1.39769 2.70944 1.40995 2.6717 1.43958 2.67144L1.66836 2.6697L1.74073 2.45266C1.75002 2.42455 1.7898 2.42455 1.79917 2.45266Z" fill="#F5F5F5"/>
<path d="M1.79917 3.58798L1.87154 3.80501L2.10032 3.80676C2.12995 3.80701 2.14221 3.84479 2.11839 3.86239L1.93436 3.99831L2.00339 4.21642C2.01236 4.24464 1.98017 4.26805 1.95606 4.25079L1.76995 4.11776L1.58384 4.25079C1.55973 4.26801 1.52762 4.24464 1.5365 4.21642L1.60554 3.99831L1.4215 3.86239C1.39769 3.84476 1.40995 3.80701 1.43958 3.80676L1.66836 3.80501L1.74073 3.58798C1.75002 3.55987 1.7898 3.55987 1.79917 3.58798Z" fill="#F5F5F5"/>
<path d="M1.79917 4.72333L1.87154 4.94036L2.10032 4.9421C2.12995 4.94236 2.14221 4.98014 2.11839 4.99773L1.93436 5.13366L2.00339 5.35177C2.01236 5.37999 1.98017 5.4034 1.95606 5.38614L1.76995 5.2531L1.58384 5.38614C1.55973 5.40336 1.52762 5.37999 1.5365 5.35177L1.60554 5.13366L1.4215 4.99773C1.39769 4.9801 1.40995 4.94236 1.43958 4.9421L1.66836 4.94036L1.74073 4.72333C1.75002 4.69525 1.7898 4.69525 1.79917 4.72333Z" fill="#F5F5F5"/>
<path d="M2.68052 0.760646L2.75289 0.977683L2.98167 0.979424C3.0113 0.979683 3.02356 1.01746 2.99974 1.03505L2.8157 1.17098L2.88474 1.38909C2.8937 1.41731 2.86152 1.44072 2.83741 1.42346L2.6513 1.29042L2.46519 1.42346C2.44107 1.44068 2.40896 1.41731 2.41785 1.38909L2.48689 1.17098L2.30285 1.03505C2.27904 1.01742 2.2913 0.979683 2.32093 0.979424L2.5497 0.977683L2.62207 0.760646C2.63141 0.732535 2.67115 0.732535 2.68052 0.760646Z" fill="#F5F5F5"/>
<path d="M2.68052 1.89599L2.75289 2.11303L2.98167 2.11477C3.0113 2.11503 3.02356 2.15281 2.99974 2.1704L2.8157 2.30633L2.88474 2.52444C2.8937 2.55266 2.86152 2.57607 2.83741 2.55881L2.6513 2.42577L2.46519 2.55881C2.44107 2.57603 2.40896 2.55266 2.41785 2.52444L2.48689 2.30633L2.30285 2.1704C2.27904 2.15277 2.2913 2.11503 2.32093 2.11477L2.5497 2.11303L2.62207 1.89599C2.63141 1.86792 2.67115 1.86792 2.68052 1.89599Z" fill="#F5F5F5"/>
<path d="M2.68052 3.03131L2.75289 3.24835L2.98167 3.25009C3.0113 3.25035 3.02356 3.28812 2.99974 3.30572L2.8157 3.44164L2.88474 3.65975C2.8937 3.68798 2.86152 3.71138 2.83741 3.69412L2.6513 3.56109L2.46519 3.69412C2.44107 3.71135 2.40896 3.68798 2.41785 3.65975L2.48689 3.44164L2.30285 3.30572C2.27904 3.28809 2.2913 3.25035 2.32093 3.25009L2.5497 3.24835L2.62207 3.03131C2.63141 3.00324 2.67115 3.00324 2.68052 3.03131Z" fill="#F5F5F5"/>
<path d="M2.68052 4.16671L2.75289 4.38375L2.98167 4.38549C3.0113 4.38575 3.02356 4.42353 2.99974 4.44112L2.8157 4.57705L2.88474 4.79516C2.8937 4.82338 2.86152 4.84679 2.83741 4.82953L2.6513 4.69649L2.46519 4.82953C2.44107 4.84675 2.40896 4.82338 2.41785 4.79516L2.48689 4.57705L2.30285 4.44112C2.27904 4.42349 2.2913 4.38575 2.32093 4.38549L2.5497 4.38375L2.62207 4.16671C2.63141 4.1386 2.67115 4.1386 2.68052 4.16671Z" fill="#F5F5F5"/>
<path d="M2.68052 5.30199L2.75289 5.51903L2.98167 5.52077C3.0113 5.52103 3.02356 5.55881 2.99974 5.5764L2.8157 5.71233L2.88474 5.93044C2.8937 5.95866 2.86152 5.98207 2.83741 5.96481L2.6513 5.83177L2.46519 5.96481C2.44107 5.98203 2.40896 5.95866 2.41785 5.93044L2.48689 5.71233L2.30285 5.5764C2.27904 5.55877 2.2913 5.52103 2.32093 5.52077L2.5497 5.51903L2.62207 5.30199C2.63141 5.27385 2.67115 5.27385 2.68052 5.30199Z" fill="#F5F5F5"/>
<path d="M3.56187 1.31726L3.63424 1.5343L3.86301 1.53604C3.89264 1.5363 3.9049 1.57407 3.88109 1.59167L3.69705 1.72759L3.76609 1.9457C3.77505 1.97393 3.74287 1.99733 3.71876 1.98007L3.53264 1.84704L3.34653 1.98007C3.32242 1.9973 3.29031 1.97393 3.2992 1.9457L3.36824 1.72759L3.1842 1.59167C3.16038 1.57404 3.17264 1.5363 3.20227 1.53604L3.43105 1.5343L3.50342 1.31726C3.51272 1.28919 3.5525 1.28919 3.56187 1.31726Z" fill="#F5F5F5"/>
<path d="M3.56187 2.45266L3.63424 2.6697L3.86301 2.67144C3.89264 2.6717 3.9049 2.70948 3.88109 2.72707L3.69705 2.863L3.76609 3.08111C3.77505 3.10933 3.74287 3.13274 3.71876 3.11548L3.53264 2.98244L3.34653 3.11548C3.32242 3.1327 3.29031 3.10937 3.2992 3.08111L3.36824 2.863L3.1842 2.72707C3.16038 2.70944 3.17264 2.6717 3.20227 2.67144L3.43105 2.6697L3.50342 2.45266C3.51272 2.42455 3.5525 2.42455 3.56187 2.45266Z" fill="#F5F5F5"/>
<path d="M3.56187 3.58798L3.63424 3.80501L3.86301 3.80676C3.89264 3.80701 3.9049 3.84479 3.88109 3.86239L3.69705 3.99831L3.76609 4.21642C3.77505 4.24464 3.74287 4.26805 3.71876 4.25079L3.53264 4.11776L3.34653 4.25079C3.32242 4.26801 3.29031 4.24464 3.2992 4.21642L3.36824 3.99831L3.1842 3.86239C3.16038 3.84476 3.17264 3.80701 3.20227 3.80676L3.43105 3.80501L3.50342 3.58798C3.51272 3.55987 3.5525 3.55987 3.56187 3.58798Z" fill="#F5F5F5"/>
<path d="M3.56187 4.72333L3.63424 4.94036L3.86301 4.9421C3.89264 4.94236 3.9049 4.98014 3.88109 4.99773L3.69705 5.13366L3.76609 5.35177C3.77505 5.37999 3.74287 5.4034 3.71876 5.38614L3.53264 5.2531L3.34653 5.38614C3.32242 5.40336 3.29031 5.37999 3.2992 5.35177L3.36824 5.13366L3.1842 4.99773C3.16038 4.9801 3.17264 4.94236 3.20227 4.9421L3.43105 4.94036L3.50342 4.72333C3.51272 4.69525 3.5525 4.69525 3.56187 4.72333Z" fill="#F5F5F5"/>
<path d="M4.44301 0.760646L4.51538 0.977683L4.74416 0.979424C4.77378 0.979683 4.78604 1.01746 4.76223 1.03505L4.57819 1.17098L4.64723 1.38909C4.65619 1.41731 4.62401 1.44072 4.5999 1.42346L4.41375 1.29042L4.22764 1.42346C4.20353 1.44068 4.17141 1.41731 4.1803 1.38909L4.24934 1.17098L4.0653 1.03505C4.04149 1.01742 4.05375 0.979683 4.08338 0.979424L4.31216 0.977683L4.38453 0.760646C4.3939 0.732535 4.43364 0.732535 4.44301 0.760646Z" fill="#F5F5F5"/>
<path d="M4.44301 1.89599L4.51538 2.11303L4.74416 2.11477C4.77378 2.11503 4.78604 2.15281 4.76223 2.1704L4.57819 2.30633L4.64723 2.52444C4.65619 2.55266 4.62401 2.57607 4.5999 2.55881L4.41375 2.42577L4.22764 2.55881C4.20353 2.57603 4.17141 2.55266 4.1803 2.52444L4.24934 2.30633L4.0653 2.1704C4.04149 2.15277 4.05375 2.11503 4.08338 2.11477L4.31216 2.11303L4.38453 1.89599C4.3939 1.86792 4.43364 1.86792 4.44301 1.89599Z" fill="#F5F5F5"/>
<path d="M4.44301 3.03131L4.51538 3.24835L4.74416 3.25009C4.77378 3.25035 4.78604 3.28812 4.76223 3.30572L4.57819 3.44164L4.64723 3.65975C4.65619 3.68798 4.62401 3.71138 4.5999 3.69412L4.41375 3.56109L4.22764 3.69412C4.20353 3.71135 4.17141 3.68798 4.1803 3.65975L4.24934 3.44164L4.0653 3.30572C4.04149 3.28809 4.05375 3.25035 4.08338 3.25009L4.31216 3.24835L4.38453 3.03131C4.3939 3.00324 4.43364 3.00324 4.44301 3.03131Z" fill="#F5F5F5"/>
<path d="M4.44301 4.16671L4.51538 4.38375L4.74416 4.38549C4.77378 4.38575 4.78604 4.42353 4.76223 4.44112L4.57819 4.57705L4.64723 4.79516C4.65619 4.82338 4.62401 4.84679 4.5999 4.82953L4.41375 4.69649L4.22764 4.82953C4.20353 4.84675 4.17141 4.82338 4.1803 4.79516L4.24934 4.57705L4.0653 4.44112C4.04149 4.42349 4.05375 4.38575 4.08338 4.38549L4.31216 4.38375L4.38453 4.16671C4.3939 4.1386 4.43364 4.1386 4.44301 4.16671Z" fill="#F5F5F5"/>
<path d="M4.44301 5.30199L4.51538 5.51903L4.74416 5.52077C4.77378 5.52103 4.78604 5.55881 4.76223 5.5764L4.57819 5.71233L4.64723 5.93044C4.65619 5.95866 4.62401 5.98207 4.5999 5.96481L4.41375 5.83177L4.22764 5.96481C4.20353 5.98203 4.17141 5.95866 4.1803 5.93044L4.24934 5.71233L4.0653 5.5764C4.04149 5.55877 4.05375 5.52103 4.08338 5.52077L4.31216 5.51903L4.38453 5.30199C4.3939 5.27385 4.43364 5.27385 4.44301 5.30199Z" fill="#F5F5F5"/>
<path d="M5.32432 1.31726L5.39669 1.5343L5.62547 1.53604C5.6551 1.5363 5.66735 1.57407 5.64354 1.59167L5.4595 1.72759L5.52854 1.9457C5.5375 1.97393 5.50532 1.99733 5.48121 1.98007L5.2951 1.84704L5.10898 1.98007C5.08487 1.9973 5.05276 1.97393 5.06165 1.9457L5.13069 1.72759L4.94665 1.59167C4.92284 1.57404 4.9351 1.5363 4.96472 1.53604L5.1935 1.5343L5.26587 1.31726C5.27524 1.28919 5.31495 1.28919 5.32432 1.31726Z" fill="#F5F5F5"/>
<path d="M5.32432 2.45266L5.39669 2.6697L5.62547 2.67144C5.6551 2.6717 5.66735 2.70948 5.64354 2.72707L5.4595 2.863L5.52854 3.08111C5.5375 3.10933 5.50532 3.13274 5.48121 3.11548L5.2951 2.98244L5.10898 3.11548C5.08487 3.1327 5.05276 3.10937 5.06165 3.08111L5.13069 2.863L4.94665 2.72707C4.92284 2.70944 4.9351 2.6717 4.96472 2.67144L5.1935 2.6697L5.26587 2.45266C5.27524 2.42455 5.31495 2.42455 5.32432 2.45266Z" fill="#F5F5F5"/>
<path d="M5.32432 3.58798L5.39669 3.80501L5.62547 3.80676C5.6551 3.80701 5.66735 3.84479 5.64354 3.86239L5.4595 3.99831L5.52854 4.21642C5.5375 4.24464 5.50532 4.26805 5.48121 4.25079L5.2951 4.11776L5.10898 4.25079C5.08487 4.26801 5.05276 4.24464 5.06165 4.21642L5.13069 3.99831L4.94665 3.86239C4.92284 3.84476 4.9351 3.80701 4.96472 3.80676L5.1935 3.80501L5.26587 3.58798C5.27524 3.55987 5.31495 3.55987 5.32432 3.58798Z" fill="#F5F5F5"/>
<path d="M5.32432 4.72333L5.39669 4.94036L5.62547 4.9421C5.6551 4.94236 5.66735 4.98014 5.64354 4.99773L5.4595 5.13366L5.52854 5.35177C5.5375 5.37999 5.50532 5.4034 5.48121 5.38614L5.2951 5.2531L5.10898 5.38614C5.08487 5.40336 5.05276 5.37999 5.06165 5.35177L5.13069 5.13366L4.94665 4.99773C4.92284 4.9801 4.9351 4.94236 4.96472 4.9421L5.1935 4.94036L5.26587 4.72333C5.27524 4.69525 5.31495 4.69525 5.32432 4.72333Z" fill="#F5F5F5"/>
<path d="M6.20542 0.760646L6.27779 0.977683L6.50657 0.979424C6.5362 0.979683 6.54846 1.01746 6.52464 1.03505L6.34061 1.17098L6.40964 1.38909C6.41861 1.41731 6.38642 1.44072 6.36231 1.42346L6.1762 1.29042L5.99009 1.42346C5.96598 1.44068 5.93387 1.41731 5.94275 1.38909L6.01179 1.17098L5.82775 1.03505C5.80394 1.01742 5.8162 0.979683 5.84583 0.979424L6.07461 0.977683L6.14698 0.760646C6.15627 0.732535 6.19605 0.732535 6.20542 0.760646Z" fill="#F5F5F5"/>
<path d="M6.20542 1.89599L6.27779 2.11303L6.50657 2.11477C6.5362 2.11503 6.54846 2.15281 6.52464 2.1704L6.34061 2.30633L6.40964 2.52444C6.41861 2.55266 6.38642 2.57607 6.36231 2.55881L6.1762 2.42577L5.99009 2.55881C5.96598 2.57603 5.93387 2.55266 5.94275 2.52444L6.01179 2.30633L5.82775 2.1704C5.80394 2.15277 5.8162 2.11503 5.84583 2.11477L6.07461 2.11303L6.14698 1.89599C6.15627 1.86792 6.19605 1.86792 6.20542 1.89599Z" fill="#F5F5F5"/>
<path d="M6.20542 3.03131L6.27779 3.24835L6.50657 3.25009C6.5362 3.25035 6.54846 3.28812 6.52464 3.30572L6.34061 3.44164L6.40964 3.65975C6.41861 3.68798 6.38642 3.71138 6.36231 3.69412L6.1762 3.56109L5.99009 3.69412C5.96598 3.71135 5.93387 3.68798 5.94275 3.65975L6.01179 3.44164L5.82775 3.30572C5.80394 3.28809 5.8162 3.25035 5.84583 3.25009L6.07461 3.24835L6.14698 3.03131C6.15627 3.00324 6.19605 3.00324 6.20542 3.03131Z" fill="#F5F5F5"/>
<path d="M6.20542 4.16671L6.27779 4.38375L6.50657 4.38549C6.5362 4.38575 6.54846 4.42353 6.52464 4.44112L6.34061 4.57705L6.40964 4.79516C6.41861 4.82338 6.38642 4.84679 6.36231 4.82953L6.1762 4.69649L5.99009 4.82953C5.96598 4.84675 5.93387 4.82338 5.94275 4.79516L6.01179 4.57705L5.82775 4.44112C5.80394 4.42349 5.8162 4.38575 5.84583 4.38549L6.07461 4.38375L6.14698 4.16671C6.15627 4.1386 6.19605 4.1386 6.20542 4.16671Z" fill="#F5F5F5"/>
<path d="M6.20542 5.30199L6.27779 5.51903L6.50657 5.52077C6.5362 5.52103 6.54846 5.55881 6.52464 5.5764L6.34061 5.71233L6.40964 5.93044C6.41861 5.95866 6.38642 5.98207 6.36231 5.96481L6.1762 5.83177L5.99009 5.96481C5.96598 5.98203 5.93387 5.95866 5.94275 5.93044L6.01179 5.71233L5.82775 5.5764C5.80394 5.55877 5.8162 5.52103 5.84583 5.52077L6.07461 5.51903L6.14698 5.30199C6.15627 5.27385 6.19605 5.27385 6.20542 5.30199Z" fill="#F5F5F5"/>
<path d="M7.08677 1.31726L7.15914 1.5343L7.38792 1.53604C7.41755 1.5363 7.42981 1.57407 7.40599 1.59167L7.22195 1.72759L7.29099 1.9457C7.29995 1.97393 7.26777 1.99733 7.24366 1.98007L7.05755 1.84704L6.87144 1.98007C6.84732 1.9973 6.81521 1.97393 6.8241 1.9457L6.89314 1.72759L6.7091 1.59167C6.68529 1.57404 6.69755 1.5363 6.72718 1.53604L6.95595 1.5343L7.02832 1.31726C7.03766 1.28919 7.07744 1.28919 7.08677 1.31726Z" fill="#F5F5F5"/>
<path d="M7.08677 2.45266L7.15914 2.6697L7.38792 2.67144C7.41755 2.6717 7.42981 2.70948 7.40599 2.72707L7.22195 2.863L7.29099 3.08111C7.29995 3.10933 7.26777 3.13274 7.24366 3.11548L7.05755 2.98244L6.87144 3.11548C6.84732 3.1327 6.81521 3.10937 6.8241 3.08111L6.89314 2.863L6.7091 2.72707C6.68529 2.70944 6.69755 2.6717 6.72718 2.67144L6.95595 2.6697L7.02832 2.45266C7.03766 2.42455 7.07744 2.42455 7.08677 2.45266Z" fill="#F5F5F5"/>
<path d="M7.08677 3.58798L7.15914 3.80501L7.38792 3.80676C7.41755 3.80701 7.42981 3.84479 7.40599 3.86239L7.22195 3.99831L7.29099 4.21642C7.29995 4.24464 7.26777 4.26805 7.24366 4.25079L7.05755 4.11776L6.87144 4.25079C6.84732 4.26801 6.81521 4.24464 6.8241 4.21642L6.89314 3.99831L6.7091 3.86239C6.68529 3.84476 6.69755 3.80701 6.72718 3.80676L6.95595 3.80501L7.02832 3.58798C7.03766 3.55987 7.07744 3.55987 7.08677 3.58798Z" fill="#F5F5F5"/>
<path d="M7.08677 4.72333L7.15914 4.94036L7.38792 4.9421C7.41755 4.94236 7.42981 4.98014 7.40599 4.99773L7.22195 5.13366L7.29099 5.35177C7.29995 5.37999 7.26777 5.4034 7.24366 5.38614L7.05755 5.2531L6.87144 5.38614C6.84732 5.40336 6.81521 5.37999 6.8241 5.35177L6.89314 5.13366L6.7091 4.99773C6.68529 4.9801 6.69755 4.94236 6.72718 4.9421L6.95595 4.94036L7.02832 4.72333C7.03766 4.69525 7.07744 4.69525 7.08677 4.72333Z" fill="#F5F5F5"/>
<path d="M7.96787 0.760646L8.04024 0.977683L8.26902 0.979424C8.29865 0.979683 8.31091 1.01746 8.28709 1.03505L8.10306 1.17098L8.17209 1.38909C8.18106 1.41731 8.14887 1.44072 8.12476 1.42346L7.93865 1.29042L7.75254 1.42346C7.72843 1.44068 7.69632 1.41731 7.70521 1.38909L7.77424 1.17098L7.59021 1.03505C7.56639 1.01742 7.57865 0.979683 7.60828 0.979424L7.83706 0.977683L7.90943 0.760646C7.91876 0.732535 7.95846 0.732535 7.96787 0.760646Z" fill="#F5F5F5"/>
<path d="M7.96787 1.89599L8.04024 2.11303L8.26902 2.11477C8.29865 2.11503 8.31091 2.15281 8.28709 2.1704L8.10306 2.30633L8.17209 2.52444C8.18106 2.55266 8.14887 2.57607 8.12476 2.55881L7.93865 2.42577L7.75254 2.55881C7.72843 2.57603 7.69632 2.55266 7.70521 2.52444L7.77424 2.30633L7.59021 2.1704C7.56639 2.15277 7.57865 2.11503 7.60828 2.11477L7.83706 2.11303L7.90943 1.89599C7.91876 1.86792 7.95846 1.86792 7.96787 1.89599Z" fill="#F5F5F5"/>
<path d="M7.96787 3.03131L8.04024 3.24835L8.26902 3.25009C8.29865 3.25035 8.31091 3.28812 8.28709 3.30572L8.10306 3.44164L8.17209 3.65975C8.18106 3.68798 8.14887 3.71138 8.12476 3.69412L7.93865 3.56109L7.75254 3.69412C7.72843 3.71135 7.69632 3.68798 7.70521 3.65975L7.77424 3.44164L7.59021 3.30572C7.56639 3.28809 7.57865 3.25035 7.60828 3.25009L7.83706 3.24835L7.90943 3.03131C7.91876 3.00324 7.95846 3.00324 7.96787 3.03131Z" fill="#F5F5F5"/>
<path d="M7.96787 4.16671L8.04024 4.38375L8.26902 4.38549C8.29865 4.38575 8.31091 4.42353 8.28709 4.44112L8.10306 4.57705L8.17209 4.79516C8.18106 4.82338 8.14887 4.84679 8.12476 4.82953L7.93865 4.69649L7.75254 4.82953C7.72843 4.84675 7.69632 4.82338 7.70521 4.79516L7.77424 4.57705L7.59021 4.44112C7.56639 4.42349 7.57865 4.38575 7.60828 4.38549L7.83706 4.38375L7.90943 4.16671C7.91876 4.1386 7.95846 4.1386 7.96787 4.16671Z" fill="#F5F5F5"/>
<path d="M7.96787 5.30199L8.04024 5.51903L8.26902 5.52077C8.29865 5.52103 8.31091 5.55881 8.28709 5.5764L8.10306 5.71233L8.17209 5.93044C8.18106 5.95866 8.14887 5.98207 8.12476 5.96481L7.93865 5.83177L7.75254 5.96481C7.72843 5.98203 7.69632 5.95866 7.70521 5.93044L7.77424 5.71233L7.59021 5.5764C7.56639 5.55877 7.57865 5.52103 7.60828 5.52077L7.83706 5.51903L7.90943 5.30199C7.91876 5.27385 7.95846 5.27385 7.96787 5.30199Z" fill="#F5F5F5"/>
</svg>
