<svg width="64" height="64" viewBox="0 0 64 64" fill="none" xmlns="http://www.w3.org/2000/svg">
<path fill-rule="evenodd" clip-rule="evenodd" d="M1.36595 12.8862C2.14272 6.82931 6.82752 2.12595 12.8843 1.34795C18.2564 0.657892 25.1693 0 32 0C38.8412 0 45.7648 0.659913 51.1405 1.35113C57.1848 2.12833 61.8632 6.81605 62.6399 12.8605C63.3343 18.2657 64 25.2161 64 32C64 38.7947 63.3322 45.7564 62.6365 51.1653C61.8608 57.1968 57.1985 61.8777 51.1672 62.6546C45.8171 63.3437 38.9086 64 32 64C25.1021 64 18.2042 63.3458 12.8576 62.6578C6.81386 61.8801 2.14516 57.1835 1.36926 51.1396C0.6715 45.7043 0 38.7262 0 32C0 25.2844 0.669378 18.3178 1.36595 12.8862Z" fill="#5969EB"/>
<mask id="mask0" mask-type="alpha" maskUnits="userSpaceOnUse" x="0" y="0" width="64" height="64">
<path fill-rule="evenodd" clip-rule="evenodd" d="M1.36595 12.8862C2.14272 6.82931 6.82752 2.12595 12.8843 1.34795C18.2564 0.657892 25.1693 0 32 0C38.8412 0 45.7648 0.659913 51.1405 1.35113C57.1848 2.12833 61.8632 6.81605 62.6399 12.8605C63.3343 18.2657 64 25.2161 64 32C64 38.7947 63.3322 45.7564 62.6365 51.1653C61.8608 57.1968 57.1985 61.8777 51.1672 62.6546C45.8171 63.3437 38.9086 64 32 64C25.1021 64 18.2042 63.3458 12.8576 62.6578C6.81386 61.8801 2.14516 57.1835 1.36926 51.1396C0.6715 45.7043 0 38.7262 0 32C0 25.2844 0.669378 18.3178 1.36595 12.8862Z" fill="white"/>
</mask>
<g mask="url(#mask0)">
<path fill-rule="evenodd" clip-rule="evenodd" d="M32 34.6667C25.37 34.6667 20 29.2967 20 22.6667C20 16.0367 25.37 10.6667 32 10.6667C38.63 10.6667 44 16.0367 44 22.6667C44 29.2967 38.63 34.6667 32 34.6667ZM16 52.6667C16 43.8302 23.1634 36.6667 32 36.6667C40.8366 36.6667 48 43.8302 48 52.6667H44C44 46.0393 38.6274 40.6667 32 40.6667C25.3726 40.6667 20 46.0393 20 52.6667H16ZM40 22.6667C40 27.0867 36.42 30.6667 32 30.6667C27.58 30.6667 24 27.0867 24 22.6667C24 18.2467 27.58 14.6667 32 14.6667C36.42 14.6667 40 18.2467 40 22.6667Z" fill="white"/>
</g>
</svg>
