<svg width="25" height="32" viewBox="0 0 25 32" fill="none" xmlns="http://www.w3.org/2000/svg">
<path fill-rule="evenodd" clip-rule="evenodd" d="M12.138 18.023C7.26079 18.023 3.31045 14.0726 3.31045 9.1954C3.31045 4.31816 7.26079 0.367813 12.138 0.367813C17.0153 0.367813 20.9656 4.31816 20.9656 9.1954C20.9656 14.0726 17.0153 18.023 12.138 18.023ZM0.36792 31.2644C0.36792 24.7639 5.63758 19.4942 12.138 19.4942C18.6385 19.4942 23.9081 24.7639 23.9081 31.2644H20.9656C20.9656 26.389 17.0134 22.4368 12.138 22.4368C7.26269 22.4368 3.31045 26.389 3.31045 31.2644H0.36792ZM18.0231 9.1954C18.0231 12.4469 15.3895 15.0805 12.138 15.0805C8.88654 15.0805 6.25298 12.4469 6.25298 9.1954C6.25298 5.9439 8.88654 3.31034 12.138 3.31034C15.3895 3.31034 18.0231 5.9439 18.0231 9.1954Z" fill="#ACB1C1"/>
</svg>
