<svg width="32" height="32" viewBox="0 0 32 32" fill="none" xmlns="http://www.w3.org/2000/svg">
<path fill-rule="evenodd" clip-rule="evenodd" d="M0.64065 6.77757C1.04412 3.54585 3.54393 1.03536 6.77563 0.63173C9.41097 0.302581 12.7244 0 16 0C19.281 0 22.5999 0.303578 25.2374 0.633356C28.4625 1.03661 30.959 3.53848 31.3622 6.76358C31.6937 9.41524 32 12.7459 32 16C32 19.2596 31.6926 22.5961 31.3605 25.25C30.9577 28.4682 28.4701 30.9665 25.2519 31.3694C22.6264 31.6981 19.3132 32 16 32C12.6923 32 9.38458 31.6991 6.76108 31.3711C3.53632 30.9678 1.0454 28.4608 0.642347 25.236C0.309117 22.5699 0 19.227 0 16C0 12.7785 0.308068 9.44148 0.64065 6.77757Z" fill="#4996E4"/>
<mask id="mask0" mask-type="alpha" maskUnits="userSpaceOnUse" x="0" y="0" width="32" height="32">
<path fill-rule="evenodd" clip-rule="evenodd" d="M0.64065 6.77757C1.04412 3.54585 3.54393 1.03536 6.77563 0.63173C9.41097 0.302581 12.7244 0 16 0C19.281 0 22.5999 0.303578 25.2374 0.633356C28.4625 1.03661 30.959 3.53848 31.3622 6.76358C31.6937 9.41524 32 12.7459 32 16C32 19.2596 31.6926 22.5961 31.3605 25.25C30.9577 28.4682 28.4701 30.9665 25.2519 31.3694C22.6264 31.6981 19.3132 32 16 32C12.6923 32 9.38458 31.6991 6.76108 31.3711C3.53632 30.9678 1.0454 28.4608 0.642347 25.236C0.309117 22.5699 0 19.227 0 16C0 12.7785 0.308068 9.44148 0.64065 6.77757Z" fill="white"/>
</mask>
<g mask="url(#mask0)">
<path d="M15.8068 21.2588H16.8823C16.8823 21.2588 17.2074 21.2228 17.3728 21.044C17.5258 20.8797 17.5201 20.5715 17.5201 20.5715C17.5201 20.5715 17.4988 19.1281 18.1693 18.9155C18.8296 18.7062 19.6779 20.3105 20.5768 20.9281C21.2563 21.395 21.7726 21.2926 21.7726 21.2926L24.1768 21.2588C24.1768 21.2588 25.4345 21.1812 24.8383 20.1923C24.7899 20.1113 24.4906 19.4611 23.0506 18.1246C21.5431 16.7251 21.7456 16.9523 23.5614 14.5325C24.6673 13.0587 25.1094 12.1587 24.971 11.774C24.8394 11.4072 24.026 11.504 24.026 11.504L21.3215 11.5197C21.3215 11.5197 21.1213 11.4927 20.9716 11.5816C20.8265 11.6693 20.7331 11.8718 20.7331 11.8718C20.7331 11.8718 20.3045 13.0126 19.733 13.9823C18.5281 16.0287 18.0455 16.1367 17.8486 16.0096C17.3908 15.7137 17.5055 14.8193 17.5055 14.1848C17.5055 12.2015 17.8059 11.3746 16.9194 11.1608C16.6246 11.09 16.4086 11.0427 15.656 11.0348C14.6908 11.0247 13.8729 11.0382 13.4105 11.2643C13.1023 11.4151 12.8649 11.7515 13.01 11.7706C13.1889 11.7942 13.5939 11.8797 13.8088 12.1722C14.0866 12.5491 14.0765 13.3973 14.0765 13.3973C14.0765 13.3973 14.2363 15.7317 13.7041 16.022C13.3385 16.2211 12.8379 15.815 11.7635 13.9576C11.2134 13.007 10.7971 11.9551 10.7971 11.9551C10.7971 11.9551 10.7173 11.7593 10.5744 11.6547C10.4011 11.5276 10.1581 11.4871 10.1581 11.4871L7.58638 11.5028C7.58638 11.5028 7.2005 11.5141 7.05875 11.6817C6.93275 11.8313 7.04863 12.1396 7.04863 12.1396C7.04863 12.1396 9.06238 16.85 11.3416 19.2248C13.433 21.4017 15.8068 21.2588 15.8068 21.2588Z" fill="white"/>
</g>
</svg>
