<svg width="15" height="12" viewBox="0 0 15 12" fill="none" xmlns="http://www.w3.org/2000/svg">
<path fill-rule="evenodd" clip-rule="evenodd" d="M14.3334 2.66667H13.6667V0.666667C13.6667 0.298477 13.3682 0 13 0H1.00004C0.631851 0 0.333374 0.298477 0.333374 0.666667V11.3333C0.333374 11.7015 0.631851 12 1.00004 12H13C13.3682 12 13.6667 11.7015 13.6667 11.3333V9.33333H14.3334V2.66667ZM5.00004 6C5.00004 7.84095 6.49242 9.33333 8.33337 9.33333H12.3334V10.6667H1.66671V1.33333H12.3334V2.66667H8.33337C6.49242 2.66667 5.00004 4.15905 5.00004 6ZM13 8V4H8.33337C7.2288 4 6.33337 4.89543 6.33337 6C6.33337 7.10457 7.2288 8 8.33337 8H13ZM10.3334 5.33333H8.33337V6.66667H10.3334V5.33333Z" fill="white"/>
</svg>
